<svg width="125" height="94" viewBox="0 0 125 94" fill="none" xmlns="http://www.w3.org/2000/svg">
<path d="M66.3827 87.8198C65.5801 87.8163 64.7821 87.6985 64.0127 87.4698H63.9327L9.93273 65.6198C9.72199 65.5332 9.55365 65.3673 9.4639 65.1579C9.37414 64.9485 9.37013 64.7122 9.45272 64.4998C9.53916 64.2892 9.70561 64.1214 9.91557 64.0333C10.1255 63.9452 10.3618 63.944 10.5727 64.0298L64.5727 85.8598C65.7798 86.22 67.0657 86.22 68.2727 85.8598L120.363 64.8598C120.468 64.8102 120.583 64.7826 120.699 64.7786C120.816 64.7747 120.932 64.7945 121.041 64.8368C121.15 64.8792 121.249 64.9432 121.332 65.025C121.415 65.1068 121.48 65.2047 121.525 65.3127C121.569 65.4207 121.591 65.5365 121.588 65.6531C121.586 65.7698 121.561 65.8848 121.513 65.9912C121.465 66.0975 121.396 66.193 121.31 66.2719C121.224 66.3508 121.123 66.4113 121.013 66.4498L68.8727 87.4498H68.7927C68.0201 87.6791 67.2187 87.797 66.4127 87.7998" fill="#CC0000"/>
<path d="M66.3832 81.8196C65.5811 81.8196 64.783 81.7052 64.0132 81.4796H63.9332L9.93323 59.6296C9.72106 59.5448 9.55129 59.3791 9.46127 59.169C9.37125 58.959 9.36836 58.7218 9.45323 58.5096C9.5381 58.2975 9.70377 58.1277 9.91381 58.0377C10.1239 57.9477 10.3611 57.9448 10.5732 58.0296L64.5732 79.8696C65.7803 80.2298 67.0662 80.2298 68.2732 79.8696L120.363 58.8696C120.575 58.7834 120.813 58.7851 121.024 58.8741C121.235 58.9632 121.402 59.1325 121.488 59.3446C121.574 59.5568 121.573 59.7945 121.484 60.0055C121.395 60.2165 121.225 60.3835 121.013 60.4696L68.8732 81.4696H68.7932C68.0202 81.6958 67.2187 81.8103 66.4132 81.8096" fill="#CC0000"/>
<rect x="34" y="23" width="60" height="35" fill="white"/>
<path d="M62.5225 0.389847L24.3025 17.8398C24.0879 17.9393 23.9062 18.0981 23.7789 18.2974C23.6516 18.4967 23.584 18.7283 23.584 18.9648C23.584 19.2014 23.6516 19.4329 23.7789 19.6323C23.9062 19.8316 24.0879 19.9904 24.3025 20.0898L62.5225 37.5298C63.0917 37.7919 63.7109 37.9276 64.3375 37.9276C64.9641 37.9276 65.5833 37.7919 66.1525 37.5298L104.362 20.0898C104.58 19.9935 104.766 19.8359 104.896 19.6361C105.026 19.4364 105.095 19.2032 105.095 18.9648C105.095 18.7265 105.026 18.4933 104.896 18.2936C104.766 18.0938 104.58 17.9362 104.362 17.8398L66.1525 0.389847C65.5819 0.132883 64.9632 0 64.3375 0C63.7117 0 63.0931 0.132883 62.5225 0.389847Z" fill="#CC0000"/>
<path fill-rule="evenodd" clip-rule="evenodd" d="M34.6523 44.8898C34.6523 52.4698 47.3223 58.1898 64.1323 58.1898H64.1223C80.9223 58.1898 93.6023 52.4698 93.6023 44.8898V36.8817L123.683 50.4498C123.907 50.5437 124.097 50.7033 124.228 50.9076C124.359 51.1119 124.426 51.3511 124.418 51.5938C124.41 51.8365 124.329 52.0712 124.186 52.2669C124.042 52.4625 123.842 52.61 123.613 52.6898L114.233 56.4798L69.2328 74.6698C67.4098 75.3997 65.3757 75.3997 63.5528 74.6698L62.7128 74.3298L12.9328 54.2198C12.0179 53.8488 11.0382 53.6642 10.0511 53.6767C9.06392 53.6892 8.0892 53.8985 7.18398 54.2924C6.27877 54.6864 5.46126 55.257 4.77936 55.9708C4.09746 56.6847 3.56486 57.5275 3.21278 58.4498C2.53149 60.3168 2.60966 62.3765 3.43051 64.1865C4.25136 65.9965 5.74939 67.4123 7.60278 68.1298L63.6928 90.7398L63.8528 90.7898L64.3428 90.9598L64.5528 91.0198L64.9628 91.1198H65.0328H65.2128L65.7528 91.1998H65.8428H66.4728H66.8328H67.1928L67.5728 91.1498H67.9028L68.3228 91.0498L68.6028 90.9698L69.0828 90.7998L69.2528 90.7498L69.3528 90.6998L89.6028 82.5198L106.383 75.7198L124.413 68.3298C124.413 70.5798 123.983 71.4798 121.503 72.4798L70.2028 93.1998C68.9918 93.6878 67.6984 93.939 66.3928 93.9398H65.4928H65.2828L64.5328 93.8298H64.4028C63.6911 93.694 62.9968 93.4793 62.3328 93.1898L6.33278 70.5598C4.42745 69.782 2.80257 68.4451 1.67242 66.7252C0.542266 65.0053 -0.0400885 62.9833 0.00214477 60.9258C0.0443781 58.8683 0.709215 56.8719 1.90899 55.1999C3.10876 53.5278 4.78714 52.2587 6.72278 51.5598L34.6523 38.9408V44.8898ZM80.7993 31.1068L71.7828 27.0398C70.086 26.2785 68.2474 25.885 66.3878 25.885C64.5281 25.885 62.6895 26.2785 60.9928 27.0398L49.9424 32.0325L61.6023 37.3498C62.4741 37.7451 63.4202 37.9495 64.3773 37.9495C65.3345 37.9495 66.2806 37.7451 67.1523 37.3498L80.7993 31.1068Z" fill="#CC0000"/>
<path d="M68.003 39.2997C66.8512 39.8201 65.6018 40.0893 64.338 40.0893C63.0741 40.0893 61.8247 39.8201 60.673 39.2997L37 28.3896V44.8896C37 51.0496 49.033 56.0396 64.133 56.0396C79.233 56.0396 91 50.8497 91 44.6997V28.3896L68.003 39.2997Z" fill="#CC0000"/>
</svg>
