<svg width="24" height="24" viewBox="0 0 24 24" fill="none" xmlns="http://www.w3.org/2000/svg">
<path fill-rule="evenodd" clip-rule="evenodd" d="M22.2617 0H1.80914C0.830857 0 0 0.773714 0 1.72686V22.272C0 23.2263 0.545143 24 1.52343 24H21.976C22.9554 24 24 23.2263 24 22.272V1.72686C24 0.773714 23.2411 0 22.2617 0Z" fill="white"/>
<path d="M16.2326 15.6087L16.8081 11.9565H13.4186V9.41305C13.4186 8.36957 13.8023 7.58696 15.3372 7.58696H17V4.26087C16.1047 4.13043 15.0814 4 14.186 4C11.2442 4 9.19767 5.82609 9.19767 9.08696V11.9565H6V15.6087H9.19767V24C10.5 24 12 24 13.4186 24V15.6087H16.2326Z" fill="#CC0000"/>
</svg>
