<svg width="24" height="25" viewBox="0 0 24 25" fill="none" xmlns="http://www.w3.org/2000/svg">
<path d="M12.0005 16.6722C14.1213 16.6722 15.8405 14.953 15.8405 12.8322C15.8405 10.7114 14.1213 8.99219 12.0005 8.99219C9.87975 8.99219 8.16052 10.7114 8.16052 12.8322C8.16052 14.953 9.87975 16.6722 12.0005 16.6722Z" fill="white"/>
<path d="M17.28 0.835938H6.72C4.93775 0.835938 3.22849 1.54394 1.96824 2.80418C0.707998 4.06442 0 5.77368 0 7.55594V18.1159C0 19.8982 0.707998 21.6075 1.96824 22.8677C3.22849 24.1279 4.93775 24.8359 6.72 24.8359H17.28C19.0623 24.8359 20.7715 24.1279 22.0318 22.8677C23.292 21.6075 24 19.8982 24 18.1159V7.55594C24 5.77368 23.292 4.06442 22.0318 2.80418C20.7715 1.54394 19.0623 0.835938 17.28 0.835938ZM12 18.5959C10.8608 18.5959 9.74714 18.2581 8.79992 17.6252C7.85269 16.9923 7.11441 16.0927 6.67845 15.0402C6.24249 13.9877 6.12843 12.8295 6.35068 11.7122C6.57293 10.5949 7.12151 9.56855 7.92706 8.763C8.73262 7.95745 9.75895 7.40887 10.8763 7.18661C11.9936 6.96436 13.1518 7.07843 14.2043 7.51439C15.2568 7.95035 16.1563 8.68863 16.7893 9.63585C17.4222 10.5831 17.76 11.6967 17.76 12.8359C17.76 14.3636 17.1531 15.8287 16.0729 16.9089C14.9927 17.9891 13.5276 18.5959 12 18.5959ZM18.24 8.03594C17.9552 8.03594 17.6768 7.95148 17.44 7.79325C17.2032 7.63502 17.0186 7.41013 16.9096 7.147C16.8006 6.88388 16.7721 6.59434 16.8277 6.31501C16.8832 6.03567 17.0204 5.77909 17.2218 5.5777C17.4232 5.37632 17.6797 5.23917 17.9591 5.18361C18.2384 5.12804 18.5279 5.15656 18.7911 5.26555C19.0542 5.37454 19.2791 5.55911 19.4373 5.79592C19.5955 6.03272 19.68 6.31113 19.68 6.59594C19.68 6.97785 19.5283 7.34412 19.2582 7.61417C18.9882 7.88422 18.6219 8.03594 18.24 8.03594Z" fill="white"/>
</svg>
