<svg width="65" height="102" viewBox="0 0 65 102" fill="none" xmlns="http://www.w3.org/2000/svg">
<rect x="14" y="68" width="38" height="34" fill="white"/>
<path d="M24.7931 31.6061H39.873L51.2345 60.3198H13.6382L24.7931 31.6061Z" fill="#CC0000"/>
<path d="M26.0308 25.6155C24.3782 27.2681 24.5159 30.2978 24.7914 31.6061H39.8712C40.7801 28.6315 39.5613 26.3729 38.6318 25.4089L32.3313 19.8314C30.9197 21.0709 27.6834 23.9629 26.0308 25.6155Z" fill="#CC0000"/>
<rect x="30.7822" width="3.0986" height="25.8217" rx="1.5493" fill="#CC0000"/>
<path d="M50.9229 6.71399C45.7999 1.42571 37.3579 0.861079 33.7773 1.2398V11.2586C39.5614 7.29239 47.6178 6.57627 50.9229 6.71399Z" fill="#CC0000"/>
<path d="M4 59.7295C1.79086 59.7295 0 61.5203 0 63.7295V97.8917C0 100.101 1.79086 101.892 4 101.892H21.6941V88.2582C21.6941 85.2629 23.7805 77.8056 32.1261 71.9389C35.7755 74.4522 43.0745 81.2347 43.0745 88.2582V101.892H61C63.2091 101.892 65 100.101 65 97.8917V63.7295C65 61.5204 63.2091 59.7295 61 59.7295H4Z" fill="#CC0000"/>
</svg>
