<svg width="16" height="102" viewBox="0 0 16 102" fill="none" xmlns="http://www.w3.org/2000/svg">
<path d="M7.875 10.5H0.676705C0.42395 9.90045 0.2298 9.27811 0.0970454 8.64159C-0.0343204 8.16854 -0.0322767 7.66872 0.102922 7.19674C0.238122 6.72476 0.501277 6.29883 0.863629 5.96551C2.13548 5.07145 3.459 4.25233 4.82738 3.51239C6.24835 2.58319 7.80021 1.50531 7.875 0V10.5Z" fill="#E90000"/>
<path d="M7.875 10.5H15.0733C15.3261 9.90045 15.5202 9.27811 15.653 8.64159C15.7843 8.16854 15.7823 7.66872 15.6471 7.19674C15.5119 6.72476 15.2487 6.29883 14.8864 5.96551C13.6145 5.07145 12.291 4.25233 10.9226 3.51239C9.50165 2.58319 7.94979 1.50531 7.875 0V10.5Z" fill="#E90000"/>
<path d="M7.875 91H0.676705C0.42395 91.5995 0.2298 92.2219 0.0970454 92.8584C-0.0343204 93.3315 -0.0322767 93.8313 0.102922 94.3033C0.238122 94.7752 0.501277 95.2012 0.863629 95.5345C2.13548 96.4285 3.459 97.2477 4.82738 97.9876C6.24835 98.9168 7.80021 99.9947 7.875 101.5V91Z" fill="#E90000"/>
<path d="M7.875 91H15.0733C15.3261 91.5995 15.5202 92.2219 15.653 92.8584C15.7843 93.3315 15.7823 93.8313 15.6471 94.3033C15.5119 94.7752 15.2487 95.2012 14.8864 95.5345C13.6145 96.4285 12.291 97.2477 10.9226 97.9876C9.50165 98.9168 7.94979 99.9947 7.875 101.5V91Z" fill="#E90000"/>
</svg>
