<svg width="80" height="60" viewBox="0 0 80 60" fill="none" xmlns="http://www.w3.org/2000/svg">
<path d="M49.256 7.92864e-05H31.1044C30.4815 -0.000521113 29.8646 0.121726 29.289 0.359827C28.7134 0.597929 28.1904 0.947208 27.7499 1.38767C27.3094 1.82814 26.9602 2.35115 26.7221 2.92676C26.484 3.50237 26.3617 4.11928 26.3623 4.7422V13.9617C26.3635 15.2186 26.8637 16.4236 27.7529 17.312C28.642 18.2003 29.8475 18.6993 31.1044 18.6993H49.2788C50.5353 18.6993 51.7403 18.2002 52.6287 17.3117C53.5172 16.4232 54.0163 15.2182 54.0163 13.9617V4.7422C54.0176 4.11757 53.8951 3.4989 53.6561 2.92181C53.4171 2.34473 53.0662 1.82066 52.6237 1.37983C52.1811 0.939005 51.6557 0.590131 51.0777 0.353323C50.4997 0.116515 49.8806 -0.00353593 49.256 7.92864e-05ZM50.8351 13.9617C50.8351 14.1689 50.7943 14.374 50.7149 14.5654C50.6354 14.7567 50.519 14.9305 50.3723 15.0768C50.2256 15.2231 50.0515 15.3389 49.8599 15.4178C49.6684 15.4967 49.4631 15.537 49.256 15.5364H31.1044C30.8973 15.537 30.692 15.4967 30.5004 15.4178C30.3089 15.3389 30.1348 15.2231 29.9881 15.0768C29.8414 14.9305 29.725 14.7567 29.6455 14.5654C29.5661 14.374 29.5252 14.1689 29.5252 13.9617V4.7422C29.5246 4.53443 29.5651 4.32859 29.6441 4.13647C29.7232 3.94435 29.8395 3.76973 29.9862 3.6226C30.1329 3.47548 30.3072 3.35874 30.499 3.2791C30.6909 3.19945 30.8967 3.15845 31.1044 3.15845H49.2788C49.4866 3.15845 49.6923 3.19945 49.8842 3.2791C50.0761 3.35874 50.2504 3.47548 50.3971 3.6226C50.5438 3.76973 50.66 3.94435 50.7391 4.13647C50.8182 4.32859 50.8586 4.53443 50.858 4.7422L50.8351 13.9617Z" fill="#CC0000"/>
<rect x="26" y="20" width="30" height="27" fill="white"/>
<path d="M74.806 9.68506H4.73756C4.11482 9.68566 3.49829 9.80891 2.92318 10.0478C2.34807 10.2866 1.82563 10.6365 1.38571 11.0772C0.945787 11.518 0.596988 12.0411 0.359228 12.6167C0.121468 13.1922 -0.000597459 13.809 2.19872e-06 14.4317V55.2533C-0.000597459 55.876 0.121468 56.4928 0.359228 57.0684C0.596988 57.6439 0.945787 58.167 1.38571 58.6078C1.82563 59.0486 2.34807 59.3984 2.92318 59.6373C3.49829 59.8761 4.11482 59.9994 4.73756 60H74.806C75.4288 59.9994 76.0453 59.8761 76.6204 59.6373C77.1955 59.3984 77.7179 59.0486 78.1579 58.6078C78.5978 58.167 78.9466 57.6439 79.1843 57.0684C79.4221 56.4928 79.5442 55.876 79.5436 55.2533V14.4317C79.5442 13.809 79.4221 13.1922 79.1843 12.6167C78.9466 12.0411 78.5978 11.518 78.1579 11.0772C77.7179 10.6365 77.1955 10.2866 76.6204 10.0478C76.0453 9.80891 75.4288 9.68566 74.806 9.68506ZM51.4925 36.7595H43.2451V45.0068H37.0926V36.7595H28.8453V30.6024H37.0926V22.3551H43.2451V30.6024H51.4925V36.7595Z" fill="#CC0000"/>
</svg>
