<svg width="764" height="87" viewBox="0 0 764 87" fill="none" xmlns="http://www.w3.org/2000/svg">
<path opacity="0.2" d="M261.562 16.7592C264.858 16.7592 254.971 17.892 251.376 17.5144C247.358 17.6381 243.358 17.8481 239.392 18.1437C236.203 18.2703 232.993 18.2703 229.805 18.1437H225.011H219.918H208.833H205.538C206.718 18.0211 207.952 18.0211 209.133 18.1437H219.918H225.011C226.605 18.2146 228.211 18.2146 229.805 18.1437H238.793H250.777C253.473 17.5144 263.659 17.5144 261.562 18.1437V16.7592Z" fill="#FF8200"/>
<path opacity="0.2" d="M321.494 24.5652C329.882 24.5652 328.085 26.0756 319.097 26.0756C316.401 26.0756 316.101 27.4602 314.603 27.8378C311.236 28.3756 307.707 28.7144 304.117 28.8447C301.824 28.7636 299.519 28.7636 297.227 28.8447C297.227 28.8447 297.227 29.5999 297.227 29.7258C294.539 30.5319 291.476 31.0896 288.239 31.3621C286.05 31.4754 283.836 31.4754 281.648 31.3621C281.648 31.3621 279.85 31.3621 281.648 30.6069C283.856 29.7829 286.543 29.2185 289.437 28.9706H296.627C298.125 28.9706 296.627 28.3413 296.627 28.0895C296.627 27.8378 296.627 27.2084 299.324 26.7049C302.02 26.2015 312.206 25.5721 310.708 25.3204C309.21 25.0687 317 23.5582 321.793 24.3134L321.494 24.5652Z" fill="#FF8200"/>
<path opacity="0.2" d="M442.799 24.5641C447.592 23.8089 458.378 24.5641 453.884 25.5711C449.39 26.578 463.471 26.578 465.268 26.9557C467.066 27.3333 468.264 27.8367 467.965 28.3402C467.665 28.8437 467.965 28.3402 467.965 29.2213H474.855C477.855 29.4479 480.652 30.0136 482.944 30.8576C482.944 30.8576 482.944 31.487 482.944 31.6128C480.756 31.7261 478.542 31.7261 476.353 31.6128C473.116 31.3403 470.053 30.7826 467.365 29.9765C467.365 29.9765 467.365 29.2213 467.365 29.0954C465.073 29.0143 462.768 29.0143 460.475 29.0954C456.885 28.9651 453.356 28.6263 449.989 28.0885C448.491 28.0885 448.191 26.3263 445.495 26.3263C436.507 26.3263 434.709 24.8159 443.098 24.8159L442.799 24.5641Z" fill="#FF8200"/>
<path opacity="0.2" d="M501.232 16.7613C499.135 16.132 509.321 16.132 512.018 16.7613H524.002H532.989C534.583 16.8322 536.19 16.8322 537.783 16.7613H542.876H553.662C554.842 16.6387 556.076 16.6387 557.257 16.7613H553.961H542.876H537.783H532.989C529.801 16.888 526.591 16.888 523.402 16.7613C519.436 16.4658 515.436 16.2557 511.419 16.132C507.823 16.132 497.937 16.132 501.232 15.3768V16.7613Z" fill="#FF8200"/>
<path opacity="0.2" d="M476.068 10.217C471.275 10.217 476.068 9.58768 480.263 10.217H485.955H497.04H506.627H500.935H496.74C496.74 10.217 495.242 10.217 493.145 10.217C491.048 10.217 484.157 10.217 484.457 10.217C484.757 10.217 477.566 10.217 476.368 10.217H476.068Z" fill="#FF8200"/>
<path opacity="0.2" d="M435.319 2.41488C436.104 2.32443 436.932 2.32443 437.716 2.41488C435.02 2.41488 437.716 2.41488 439.514 2.41488C441.91 2.41488 441.311 2.41488 439.514 2.41488H435.319Z" fill="#FF8200"/>
<path opacity="0.2" d="M327.472 2.41488H324.775C321.48 2.41488 321.48 2.41488 324.775 2.41488C328.071 2.41488 329.269 2.41488 326.573 2.41488C327.357 2.32443 328.186 2.32443 328.97 2.41488H327.472Z" fill="#FF8200"/>
<path opacity="0.2" d="M217.504 7.44839H213.01C213.01 7.44839 207.318 7.44839 209.415 7.44839C205.22 7.44839 202.524 7.44839 204.621 7.44839C206.718 7.44839 212.411 7.44839 210.613 7.44839C212.608 7.3857 214.611 7.3857 216.605 7.44839C216.605 7.44839 217.803 7.3235 217.504 7.44839Z" fill="#FF8200"/>
<path opacity="0.2" d="M123.451 21.2952L115.961 21.9246C115.961 21.9246 102.18 21.9246 104.876 21.9246C100.249 22.3946 95.4219 22.3946 90.7949 21.9246C95.6237 21.4521 100.646 21.4521 105.475 21.9246C109.608 21.5366 113.824 21.3257 118.058 21.2952H123.451Z" fill="#FF8200"/>
<path opacity="0.2" d="M201.632 47.2248C201.632 47.2248 201.632 48.4835 198.336 49.1128C195.041 49.7422 182.158 52.5113 180.361 51.7561C183.656 53.2665 167.778 55.658 159.689 55.2804C151.599 54.9028 165.98 51.5044 177.365 51.3785C171.373 51.3785 187.551 48.4835 189.349 48.3576C193.288 47.7282 197.427 47.3465 201.632 47.2248Z" fill="#FF8200"/>
<path opacity="0.2" d="M561.167 47.2248C565.371 47.3465 569.51 47.7282 573.45 48.3576C575.248 48.3576 591.426 51.5044 585.434 51.3785C596.818 51.3785 607.903 54.2735 603.11 55.2804C598.316 56.2874 579.142 53.2665 582.438 51.7561C580.64 52.5113 565.361 49.3646 564.462 49.1128C563.563 48.8611 561.167 47.98 561.167 47.2248Z" fill="#FF8200"/>
<path opacity="0.2" d="M639.343 21.2952H644.736C648.97 21.3257 653.186 21.5366 657.319 21.9246C662.148 21.4521 667.17 21.4521 671.999 21.9246C667.372 22.3946 662.545 22.3946 657.918 21.9246C660.615 21.9246 648.032 21.9246 646.833 21.9246L639.343 21.2952Z" fill="#FF8200"/>
<path opacity="0.2" d="M545.271 7.44607C547.265 7.38337 549.268 7.38337 551.262 7.44607C549.465 7.44607 554.258 7.44607 557.254 7.44607C560.25 7.44607 557.254 7.44607 552.461 7.44607C554.558 7.44607 549.465 7.44607 548.866 7.44607H545.271Z" fill="#FF8200"/>
<path opacity="0.4" d="M381.416 0.524689C378.627 0.408582 375.817 0.408582 373.027 0.524689H370.031C366.25 0.332265 362.428 0.332265 358.647 0.524689C355.651 0.524689 355.052 0.524689 360.145 0.524689H364.938C367.335 0.524689 367.934 0.524689 367.035 0.524689C357.748 0.524689 348.76 0.524706 340.971 1.27992C338.873 1.27992 335.877 1.27992 337.675 1.27992C337.675 1.27992 337.675 1.27992 341.869 1.27992C346.064 1.27992 351.456 1.27991 348.161 0.650561C343.272 0.524521 338.37 0.524521 333.481 0.650561H322.695C320.528 0.709164 318.401 0.921988 316.404 1.27992H314.307C309.738 0.99565 305.094 0.99565 300.525 1.27992C300.525 1.27992 306.217 1.27992 311.311 1.27992C316.404 1.27992 313.707 1.27992 311.311 1.27992C314.606 1.27992 313.408 1.27992 312.809 1.27992C302.223 1.27992 291.737 1.27992 281.351 1.27992C279.553 1.27992 278.954 1.27992 281.351 1.27992H282.849C282.849 1.27992 282.849 1.27992 284.647 1.27992H290.938C295.432 1.27992 290.938 1.27992 287.643 1.27992C283.451 1.18472 279.251 1.18472 275.06 1.27992H257.983C255.885 1.27992 254.088 1.27992 254.687 2.161H249.893C245.761 2.20996 241.649 2.42064 237.61 2.79034C237.61 2.79034 239.108 3.41969 245.4 2.79034C251.691 2.161 249.294 2.79034 248.995 2.79034C250.667 2.61449 252.416 2.61449 254.088 2.79034C246.881 3.22141 239.767 3.89487 232.816 4.80425C229.435 4.98596 226.012 4.98596 222.63 4.80425H231.319C238.808 4.80425 238.509 4.04904 231.319 4.04904C225.641 3.84286 219.923 4.14311 214.541 4.93012H196.565C194.768 4.93012 194.768 5.55947 196.565 5.81121H189.375C180.986 5.81121 172.598 6.6923 175.893 7.06991C182.041 7.50651 188.32 7.50651 194.468 7.06991C196.266 7.06991 194.468 7.06991 191.472 7.06991C194.543 6.83631 197.689 6.83631 200.76 7.06991H201.659C187.278 7.69925 173.497 8.58035 161.513 9.5873H158.816C154.922 9.5873 152.225 9.5873 153.424 9.5873H154.922H160.314C163.203 9.711 166.114 9.711 169.003 9.5873C171.699 10.2167 163.61 10.2166 156.719 10.2166C151.952 10.1695 147.228 10.601 142.938 11.4753C134.249 11.4753 124.363 12.1047 115.974 12.4823H113.577C113.577 12.4823 116.573 13.3634 121.966 13.6151H113.577C104.889 13.6151 99.4963 14.8738 101.593 15.3773C108.51 15.9812 115.649 15.9812 122.565 15.3773C125.262 15.3773 124.962 14.7479 122.565 14.6221H115.675H117.772C121.555 14.4495 125.373 14.4495 129.156 14.6221C129.927 14.7485 130.782 14.7485 131.553 14.6221C125.561 16.1325 124.063 17.5171 127.958 18.7758H126.16C118.36 19.3981 110.432 19.6933 102.492 19.6568C107.937 19.5657 113.351 19.2709 118.67 18.7758C127.658 17.6429 118.67 17.1395 105.189 17.7688C91.7068 18.3982 83.0185 19.9086 88.1117 20.5379H90.808C80.0235 21.137 69.3227 21.9773 58.7513 23.0553C64.949 23.8679 71.4423 24.2089 77.9254 24.0623L71.9335 24.6916C58.1521 26.0762 52.4598 27.9642 68.6379 27.9642C84.8161 27.9642 103.691 25.8244 98.5975 24.8175C93.5642 24.3536 88.3514 24.3536 83.3181 24.8175C92.7299 24.1997 102.278 24.0308 111.78 24.314C98.8306 25.8606 86.9268 28.663 77.0266 32.4955H71.9335C65.9107 33.2374 59.6082 33.4937 53.3586 33.2507C58.204 33.1336 63.0159 32.8388 67.7392 32.3697C74.3303 31.7403 78.5246 30.9851 77.3262 30.6075C65.6724 30.0988 53.8956 30.7011 42.8727 32.3697C30.5893 34.006 27.8929 35.6423 37.48 36.0199C41.3689 36.1467 45.2753 36.1467 49.1642 36.0199C33.5699 37.7402 18.2583 39.8845 3.32604 42.4392L0.330078 43.1944H3.02644C20.1399 43.4283 37.2706 43.0916 54.2573 42.1875C50.211 42.7963 46.301 43.5545 42.5731 44.4531C32.3868 46.9705 37.48 48.7327 54.5569 48.6068C71.6339 48.4809 98.2979 45.7118 96.8 43.572C95.302 41.4323 89.6097 42.5651 81.221 43.572C75.4052 43.9235 69.6855 44.5137 64.144 45.3342C64.144 45.3342 64.144 45.3342 64.144 44.579C70.12 43.0305 76.9103 42.1228 83.9173 41.9357H89.9092C114.183 44.7536 139.344 45.9847 164.509 45.5859H162.711C153.254 48.5213 142.262 50.4634 130.654 51.2501C140.541 49.9914 148.031 48.3551 146.233 46.9705C144.436 45.586 112.379 46.0894 96.8 49.4879C81.221 52.8864 92.306 56.2849 117.772 55.4038L128.557 54.7744C124.04 55.8711 120.128 57.3582 117.081 59.1375C114.033 60.9168 111.92 62.9477 110.881 65.0957C132.796 64.2531 154.468 62.5249 175.594 59.9351C175.152 60.5508 175.152 61.2074 175.594 61.8231C177.391 66.3544 205.553 68.7459 233.116 63.9629C255.586 60.1868 254.387 54.5227 230.42 54.9003C220.537 54.9656 210.931 56.2816 202.857 58.6764H201.659C201.659 55.9072 222.031 53.5157 233.715 52.0053H236.711C261.685 58.2823 289.578 62.2314 318.501 63.5853C318.238 63.7993 318.101 64.0367 318.101 64.2776C318.101 64.5184 318.238 64.7558 318.501 64.9698C319.999 67.1096 314.906 69.3753 303.521 70.1305H295.732C300.226 68.8718 302.922 67.3614 302.323 65.9768C301.724 64.5922 294.833 62.8301 285.845 62.9559C262.477 62.9559 254.088 69.627 261.877 73.0255C270.06 75.3018 279.448 76.6989 289.217 77.0939C298.986 77.489 308.836 76.8699 317.902 75.2911C323.781 74.5833 329.346 73.478 334.38 72.0185C344.328 78.0743 358.138 82.8293 374.226 85.7383C376.484 86.2035 378.917 86.5016 381.416 86.6194C383.916 86.5016 386.348 86.2035 388.606 85.7383C405.336 82.6175 419.508 77.4954 429.351 71.0116C434.385 72.4711 439.95 73.5764 445.829 74.2842C454.791 75.8378 464.515 76.4548 474.169 76.0821C483.823 75.7094 493.117 74.3582 501.254 72.1444C509.044 68.7459 501.254 62.4525 477.287 62.0749C468.299 62.0749 461.708 63.2077 460.809 65.0957C459.91 66.9838 462.906 67.9907 467.4 69.2494H459.611C448.226 68.4942 443.133 66.2285 444.631 64.0888C444.894 63.8747 445.031 63.6373 445.031 63.3965C445.031 63.1556 444.894 62.9183 444.631 62.7042C473.554 61.3503 501.446 57.4012 526.42 51.1242H529.416C541.101 52.6346 559.376 55.0262 561.473 57.7953C553.399 55.4005 543.793 54.0845 533.91 54.0192C509.943 54.0192 508.744 59.3057 531.214 63.0818C559.076 67.8649 586.939 65.4733 588.736 60.942C589.178 60.3264 589.178 59.6697 588.736 59.054C609.862 61.6438 631.534 63.372 653.449 64.2146C652.41 62.0666 650.297 60.0357 647.249 58.2564C644.202 56.4771 640.29 54.9899 635.773 53.8933L646.558 54.5227C672.024 55.4038 687.303 52.7605 667.53 48.6068C647.757 44.4531 620.793 43.4462 618.097 46.0894C615.4 48.7327 623.789 49.1103 633.676 50.369C622.068 49.5823 611.076 47.6402 601.619 44.7049H599.821C624.986 45.1037 650.148 43.8725 674.421 41.0547H680.413C687.42 41.2417 694.21 42.1494 700.186 43.6979C700.186 43.6979 700.186 43.6979 700.186 44.4531C694.644 43.6326 688.925 43.0424 683.109 42.691C674.72 42.691 668.129 42.691 667.53 42.691C666.931 42.691 694.494 47.474 709.773 47.7257C725.052 47.9775 731.943 46.0894 721.757 43.572C718.029 42.6734 714.119 41.9152 710.073 41.3064C727.059 42.2105 744.19 42.5472 761.304 42.3133H764L761.004 41.5581C745.374 39.0519 729.359 36.9913 713.069 35.3905C716.958 35.5173 720.864 35.5173 724.753 35.3905C734.34 35.3905 731.644 33.3766 719.36 31.7403C708.337 30.0718 696.56 29.4694 684.907 29.9781C684.907 29.9781 687.903 31.111 694.494 31.7403C699.217 32.2095 704.029 32.5043 708.874 32.6214C702.625 32.8644 696.322 32.6081 690.299 31.8662H685.206C675.331 28.294 663.652 25.7115 651.052 24.314C659.989 24.2108 668.927 24.5061 677.716 25.1951C672.683 24.7312 667.47 24.7312 662.437 25.1951C658.243 26.2021 678.915 28.216 692.397 28.3418C705.878 28.4677 702.882 26.4538 689.101 25.0692L683.109 24.4399C689.592 24.5865 696.085 24.2455 702.283 23.4329C691.712 22.3549 681.011 21.5146 670.226 20.9155H672.923C677.716 20.9155 671.125 18.9016 655.846 18.1464C640.566 17.3912 633.376 18.1464 642.064 19.1534C647.489 19.6401 653.001 19.9349 658.542 20.0345C650.603 20.0709 642.675 19.7757 634.874 19.1534H633.077C636.971 17.8947 635.473 16.5101 629.481 14.9997C630.252 15.1261 631.108 15.1261 631.878 14.9997C635.662 14.827 639.479 14.827 643.263 14.9997H645.36H637.87C635.174 14.9997 634.874 14.9997 637.87 15.7549C644.787 16.3589 651.925 16.3589 658.842 15.7549C660.939 15.7549 655.546 14.4962 646.858 13.9927H638.469C643.862 13.9927 646.259 13.9927 646.858 12.8599H644.461C636.073 12.8599 626.186 11.9788 617.498 11.8529C617.498 11.8529 619.295 11.8529 618.996 11.8529C614.706 10.9786 609.981 10.5471 605.214 10.5943C598.323 10.5943 589.036 10.5943 592.931 10.5943C595.819 10.718 598.73 10.718 601.619 10.5943H607.012H608.51C608.51 10.5943 607.012 10.5943 603.117 10.5943H600.72C588.736 9.5873 574.955 8.70621 560.574 8.07686C563.645 7.84327 566.791 7.84327 569.862 8.07686C566.866 8.07686 565.068 8.07686 566.866 8.07686C573.014 8.51346 579.293 8.51346 585.441 8.07686C588.736 8.07686 580.348 7.0699 571.959 6.81816H568.364C569.862 6.81816 569.862 6.18882 568.364 5.93708H550.388C545.006 5.15007 539.288 4.84982 533.611 5.056C527.02 5.056 526.72 5.05599 533.611 5.81121H542.299C538.917 5.99292 535.494 5.99292 532.113 5.81121C525.162 4.90183 518.049 4.22836 510.841 3.7973C512.513 3.62144 514.263 3.62144 515.935 3.7973C515.935 3.7973 515.935 3.7973 519.53 3.7973C523.125 3.7973 528.817 3.7973 527.319 3.7973C523.28 3.4276 519.168 3.21691 515.036 3.16796H510.242C510.242 3.16796 510.242 3.16796 506.947 2.28688H489.87H488.372C484.281 2.18575 480.179 2.18575 476.088 2.28688C471.894 2.28688 468.299 2.28688 472.793 2.28688H479.084H480.882H482.38C471.794 2.28688 461.308 2.28688 450.922 2.28688C450.922 2.28688 449.125 2.28688 452.42 2.28688C452.42 2.28688 464.404 2.28688 463.206 2.28688C458.637 2.00261 453.993 2.00261 449.424 2.28688H447.327C445.33 1.92894 443.202 1.71612 441.036 1.65752H430.25C425.361 1.53148 420.459 1.53148 415.57 1.65752C412.274 1.65752 415.57 2.28688 421.862 2.28688C428.153 2.28688 426.056 2.28688 426.056 2.28688C427.853 2.28688 426.056 2.28688 422.76 2.28688C414.971 2.28688 405.983 1.65751 396.695 1.53164C396.695 1.53164 396.695 1.53164 398.793 1.53164H403.586C408.679 1.53164 408.08 1.53164 405.084 1.53164C401.303 1.33922 397.481 1.33922 393.699 1.53164H390.704C387.914 1.41554 385.104 1.41554 382.315 1.53164H381.416V0.524689ZM443.432 2.161C443.432 2.161 441.036 2.161 438.339 2.161H432.947C432.947 2.161 432.947 2.16099 432.947 1.53164H439.837C441.335 1.78338 441.335 1.90927 441.335 2.161H443.432ZM331.084 2.161C332.882 2.161 332.882 2.161 331.084 2.79034H325.691C322.995 2.79034 320.598 2.79034 320.598 2.79034C320.598 2.79034 320.598 2.79034 322.995 2.79034L331.084 2.161ZM214.841 7.06991C218.118 6.86294 221.45 6.86294 224.727 7.06991H218.136C213.349 7.21524 208.543 7.21524 203.756 7.06991C201.059 7.06991 200.161 7.06991 200.161 6.44057C204.67 6.43982 209.174 6.56595 213.642 6.81816L214.841 7.06991ZM104.589 21.0414C114.567 20.7932 124.571 20.7932 134.549 21.0414H129.456H132.452C121.159 21.9085 109.755 22.4969 98.2979 22.8036C91.6221 23.071 84.9009 23.071 78.225 22.8036C86.6137 22.0484 95.6016 21.5449 104.589 21.0414ZM162.411 51.2501C176.047 48.4156 190.426 46.2612 205.254 44.8307V46.0894H207.351H217.238C208.725 49.6074 198.506 52.3122 187.278 54.0192C172.532 56.2423 157.267 57.8034 141.739 58.6764C146.739 55.3997 153.93 52.8162 162.411 51.2501ZM575.554 53.7675C564.326 52.0605 554.107 49.3557 545.595 45.8377H555.481H557.578V44.579C572.406 46.0094 586.785 48.1639 600.421 50.9983C608.791 52.5851 615.873 55.1667 620.793 58.4246C605.367 57.543 590.203 55.982 575.554 53.7675ZM665.433 22.9295C654.595 22.7174 643.793 22.2552 633.077 21.5449H636.073H630.979C640.957 21.2967 650.961 21.2967 660.939 21.5449C669.927 21.5449 678.915 22.5519 687.303 23.3071C679.593 23.4857 671.859 23.3169 664.235 22.8036L665.433 22.9295ZM560.275 7.44752C555.388 7.59586 550.482 7.59586 545.595 7.44752H540.501C543.779 7.24056 547.111 7.24056 550.388 7.44752C554.877 7.32133 559.381 7.32133 563.87 7.44752C563.87 7.44752 561.174 7.32165 559.076 7.44752H560.275ZM399.691 3.16796C404.185 3.16796 410.177 4.42665 404.785 4.93012C399.055 3.4557 392.599 2.55156 385.91 2.28688C390.143 2.47301 394.345 2.76725 398.493 3.16796H399.691ZM494.963 6.06295C494.963 6.06295 491.368 7.69925 479.983 7.95099C489.57 7.0699 491.368 5.68533 490.469 4.67838C489.57 3.67142 494.064 5.55947 493.764 6.06295H494.963ZM575.554 14.9997C560.225 15.7348 544.746 15.7348 529.416 14.9997C549.494 14.9651 569.532 14.2495 589.336 12.8599C584.758 14.0097 579.653 14.739 574.356 14.9997H575.554ZM561.174 31.7403C537.156 31.1959 513.4 29.3774 490.469 26.3279C532.398 29.3692 574.713 31.3865 617.198 32.3697C598.51 32.6443 579.8 32.4341 561.174 31.7403ZM333.481 40.4253C325.691 37.1527 319.4 32.1179 335.278 29.6005C330.485 34.3836 348.76 42.1875 370.93 48.8586C356.775 47.2254 343.603 44.3512 332.282 40.4253H333.481ZM176.193 25.0692C195.666 22.4967 215.765 20.8501 236.112 20.1603C204.031 22.6738 172.475 26.2513 141.739 30.8592C152.705 28.4233 164.254 26.4825 176.193 25.0692ZM213.043 10.9719C227.5 10.4853 242.027 10.4853 256.485 10.9719C235.812 10.9719 203.756 11.853 179.488 12.734C190.274 11.7271 201.659 11.2236 213.043 10.9719ZM302.922 4.55251C310.431 4.41766 317.937 4.84384 325.092 5.81121C310.295 4.96058 295.386 4.49818 280.452 4.42666C288.242 4.30079 295.732 4.42664 302.922 4.55251ZM378.121 2.28688C371.431 2.55156 364.975 3.4557 359.246 4.93012C353.853 4.93012 359.246 3.54557 364.339 3.16796C368.881 2.74616 373.485 2.45182 378.121 2.28688ZM482.38 4.42666C467.446 4.49818 452.537 4.96058 437.74 5.81121C444.895 4.84384 452.401 4.41766 459.91 4.55251C467.101 4.42664 474.59 4.30079 482.38 4.42666ZM583.344 12.3564C559.076 11.4753 527.02 10.5943 506.348 10.5943C520.805 10.1077 535.332 10.1077 549.789 10.5943C561.174 11.2236 572.558 11.7271 583.344 12.3564ZM621.093 30.8592C590.649 26.2704 559.395 22.6931 527.619 20.1603C547.966 20.8501 568.065 22.4967 587.538 25.0692C599.169 26.5073 610.414 28.4476 621.093 30.8592ZM393.699 48.8586C415.87 42.1875 434.145 34.3836 429.351 29.6005C445.23 32.1179 438.938 37.1527 431.149 40.4253C420.004 44.3202 407.044 47.1927 393.1 48.8586H393.699ZM146.832 32.3697C189.318 31.3865 231.632 29.3692 273.562 26.3279C250.245 29.4194 226.079 31.2384 201.659 31.7403C183.43 32.4136 165.121 32.6238 146.832 32.3697ZM173.497 13.2375C193.3 14.6271 213.338 15.3427 233.416 15.3773C218.086 16.1124 202.607 16.1124 187.278 15.3773C182.395 15.0501 177.712 14.3231 173.497 13.2375ZM273.562 4.67838C273.562 5.68533 273.562 7.0699 284.047 7.95099C272.663 7.95099 269.367 6.6923 269.068 6.06295C268.768 5.4336 270.566 5.18186 273.562 4.67838ZM378.72 8.3286C378.72 8.3286 376.922 8.3286 377.222 8.3286H375.424C375.424 8.3286 375.424 8.3286 378.121 9.08381H374.226C366.436 8.20273 368.533 7.06991 362.242 6.31469H358.048C361.643 6.31469 363.141 6.3147 363.141 5.30774C366.931 5.42441 370.736 5.42441 374.525 5.30774H370.331C368.833 5.30774 367.934 5.30774 367.934 5.30774C370.203 5.73941 372.639 5.99525 375.125 6.06295H387.108C389.594 5.99525 392.03 5.73941 394.299 5.30774C394.299 5.30774 394.299 5.30774 391.902 5.30774H387.708C391.497 5.42441 395.302 5.42441 399.092 5.30774C399.092 5.30774 400.59 6.06296 404.185 6.31469H399.991C393.699 7.06991 395.797 8.20273 388.007 9.08381H384.112C386.21 9.08381 387.408 9.08382 386.809 8.3286H385.011H379.618H378.72ZM337.975 10.2166C337.975 10.2166 337.975 10.2166 339.772 10.2166H341.57H351.456C351.456 10.2166 351.456 10.2166 351.456 10.846C336.477 10.846 327.489 9.5873 313.408 9.33556H305.019C305.019 9.33556 302.323 8.45447 298.728 8.20273H314.307C314.307 8.20273 314.307 8.20273 317.602 8.20273C322.189 8.35092 326.797 8.35092 331.384 8.20273H338.574H340.971C342.469 8.20273 342.768 8.20274 340.971 7.32165C338.678 7.23545 336.372 7.23545 334.08 7.32165H327.489C330.784 7.32165 331.983 6.69231 332.282 6.44057C336.872 6.56001 341.474 6.56001 346.064 6.44057C348.76 7.44752 360.145 8.07686 363.141 9.20969H355.95C355.95 9.20969 355.95 9.2097 351.756 8.58035H342.469C341.476 8.51439 340.465 8.51439 339.473 8.58035L337.975 10.2166ZM315.205 13.6151H321.497H326.89H338.274H344.266C328.088 14.3703 309.813 13.6151 292.436 14.8738H281.95C274.968 14.6712 267.961 14.6712 260.978 14.8738C266.049 14.6373 271.061 14.2162 275.958 13.6151H281.351C284.638 13.7565 287.951 13.7565 291.238 13.6151C296.677 13.5934 302.098 13.3404 307.416 12.8599H312.809L310.112 12.2306C306.401 11.8086 302.572 11.5969 298.728 11.6012H288.242H280.752C279.197 10.9936 277.181 10.6369 275.06 10.5943H296.031H302.622C315.205 11.2236 332.582 10.5943 345.764 11.7271H338.873C335.496 11.5187 332.064 11.5187 328.687 11.7271H321.497C319.612 11.5979 317.69 11.5979 315.805 11.7271C315.128 11.6209 314.384 11.6209 313.707 11.7271L315.205 13.6151ZM330.784 17.7688H336.776H344.266C346.831 17.7034 349.311 17.3561 351.456 16.7619H359.845C354.153 18.3982 336.477 19.6568 328.088 21.5449C326.565 21.8246 325.228 22.2568 324.193 22.8036C314.92 22.9758 305.699 23.4811 296.63 24.314C299.027 23.5588 299.626 22.8036 296.63 21.9225H307.416C311.546 21.8602 315.655 21.6496 319.699 21.2931C325.392 21.2931 326.59 20.0345 326.59 19.4051C326.59 18.7758 326.59 19.4051 326.59 18.524H317.902C311.524 18.273 305.105 18.273 298.728 18.524C295.829 18.6859 293.003 19.0252 290.339 19.531C288.944 19.7956 287.635 20.134 286.444 20.5379C279.761 20.3463 273.054 20.3463 266.371 20.5379C272.935 20.1984 279.374 19.5221 285.545 18.524H297.23C316.404 18.524 331.384 16.7618 349.06 16.3842L346.963 17.0136H335.578C334.407 17.1482 333.294 17.3607 332.282 17.6429H330.485C329.207 17.5044 327.867 17.5044 326.59 17.6429L330.784 17.7688ZM385.311 19.6568C387.108 19.6568 387.708 19.6569 387.108 19.0275C387.89 19.1255 388.723 19.1255 389.505 19.0275C389.505 19.0275 389.505 18.1464 385.61 17.8947L390.404 17.2653C401.189 18.6499 399.991 20.6638 411.675 22.5518L419.764 23.6847C415.27 24.6916 413.772 25.6986 415.27 26.8314C408.222 26.0187 400.994 25.5126 393.699 25.321L399.392 22.8036C401.789 22.8036 402.987 21.9225 402.388 21.419C398.795 20.3367 394.522 19.7238 390.104 19.6568H381.416H372.728C368.31 19.7238 364.037 20.3367 360.444 21.419C360.444 21.419 360.444 22.3001 363.44 22.8036L369.732 23.8105C362.437 24.0022 355.209 24.5083 348.161 25.321C348.161 24.1882 348.161 23.1812 343.667 22.1742L351.756 21.0414C363.44 19.1534 362.242 17.1395 373.027 15.7549L377.821 16.3842C375.125 16.3842 373.627 16.3842 374.226 17.5171C375.008 17.615 375.841 17.615 376.623 17.5171C376.623 17.5171 376.623 17.5171 378.42 18.1464H386.21L385.311 19.6568ZM436.542 17.2653C435.264 17.1268 433.924 17.1268 432.647 17.2653H430.849C429.838 16.983 428.725 16.7706 427.554 16.636H416.169L414.072 16.0066C431.748 16.0066 446.728 17.6429 465.902 18.1464H477.586C483.758 19.1445 490.197 19.8208 496.76 20.1603C490.077 19.9687 483.371 19.9687 476.688 20.1603C475.497 19.7564 474.188 19.418 472.793 19.1534C470.128 18.6475 467.302 18.3083 464.404 18.1464C458.027 17.8953 451.607 17.8953 445.23 18.1464H436.542C436.542 18.1464 436.542 18.7758 436.542 19.0275C436.542 19.2793 436.542 20.4121 443.432 20.9155C447.477 21.272 451.586 21.4826 455.716 21.5449H466.501C464.105 22.426 464.704 23.1812 466.501 23.9364C457.433 23.1035 448.212 22.5982 438.938 22.426C437.835 21.9097 436.515 21.4831 435.044 21.1673C426.655 19.2793 408.979 18.0205 403.287 16.3842H411.376C413.521 16.9785 416.001 17.3258 418.566 17.3912H426.056H432.048H435.643C435.643 17.3912 436.841 16.8877 436.542 16.7619V17.2653ZM446.428 13.1116C444.543 12.9824 442.621 12.9824 440.736 13.1116H433.546C430.168 12.9033 426.737 12.9033 423.359 13.1116H416.469C429.651 12.4823 446.428 13.1116 459.611 11.9788H466.202H487.173C485.052 12.0214 483.036 12.3781 481.481 12.9858H473.991H463.505C459.661 12.9815 455.832 13.1932 452.121 13.6151L449.424 14.2445H454.817C460.135 14.7249 465.556 14.978 470.995 14.9997C474.283 15.1368 477.594 15.1368 480.882 14.9997H486.275C491.172 15.6007 496.184 16.0219 501.254 16.2584C494.272 16.0558 487.265 16.0558 480.283 16.2584H469.797C452.42 15.5032 434.145 16.2584 417.967 14.9997H423.959H435.343H440.736H447.627C448.23 14.8774 448.718 14.6738 449.013 14.4213C449.309 14.1688 449.394 13.8821 449.256 13.6068C449.118 13.3315 448.765 13.0836 448.252 12.9026C447.74 12.7216 447.098 12.6179 446.428 12.6082V13.1116ZM420.364 9.9649H411.376C408.38 9.9649 407.181 9.96491 407.181 10.5943H399.991C402.987 9.46143 414.372 8.83207 417.068 7.82512C421.757 7.94948 426.46 7.94948 431.149 7.82512C431.149 7.82512 431.149 7.82511 435.943 8.7062H429.351C427.059 8.62 424.753 8.62 422.461 8.7062C419.465 8.7062 419.764 8.70622 422.461 9.5873H424.857H432.048C436.635 9.73549 441.242 9.73549 445.829 9.5873C447.926 9.5873 448.825 9.5873 449.125 9.5873H464.704C461.109 9.5873 458.712 10.2167 458.412 10.7201H450.024C435.943 10.7201 426.955 11.8529 411.975 12.2306C411.975 12.2306 411.975 12.2306 411.975 11.6012H420.663H422.461C424.258 11.6012 424.857 11.6012 424.558 11.6012C424.258 11.6012 424.558 11.6012 423.06 11.6012C422.705 10.7887 421.763 10.0416 420.364 9.46143V9.9649ZM378.42 8.07686C376.323 8.07686 378.42 7.44752 380.218 7.32165H381.416C382.914 7.32165 385.311 7.32164 383.214 8.07686H377.222H378.42ZM328.987 9.46143C325.092 9.46143 323.594 9.46143 323.294 9.46143H325.092C328.077 9.30984 331.095 9.30984 334.08 9.46143C332.305 9.48881 330.546 9.31488 328.987 8.95794V9.46143ZM299.027 13.6151C294.446 13.8156 289.827 13.8156 285.246 13.6151C290.129 13.4316 295.042 13.4316 299.926 13.6151H302.323H299.027ZM315.805 19.0275C310.522 19.6227 305.093 19.9606 299.626 20.0345H296.63C300.762 19.2099 305.243 18.7392 309.813 18.6499H315.505L316.104 18.524L315.805 19.0275ZM385.91 21.5449C389.206 21.5449 385.91 23.0553 383.214 23.5588L381.416 22.8036H379.319C376.623 22.8036 373.027 21.2932 376.623 20.7897H381.416L385.91 21.5449ZM451.522 18.3981C456.091 18.4875 460.572 18.9581 464.704 19.7827H461.708C456.241 19.7089 450.813 19.371 445.53 18.7758L451.522 18.3981ZM461.708 12.9858C466.591 12.8022 471.504 12.8022 476.388 12.9858C471.807 13.1863 467.188 13.1863 462.607 12.9858H458.712H461.708ZM428.453 9.20969C431.438 9.0581 434.455 9.0581 437.441 9.20969H439.238C439.238 9.20969 437.44 9.20969 433.546 9.20969C432.164 9.33572 430.733 9.33572 429.351 9.20969C429.351 9.20969 428.453 8.83207 428.752 8.7062L428.453 9.20969ZM404.185 9.20969C405.947 8.66589 408.009 8.31936 410.177 8.20273C408.425 8.5871 406.39 8.6771 404.485 8.45448L404.185 9.20969ZM358.946 9.20969C357.009 9.15249 355.193 8.79337 353.853 8.20273C355.673 8.12485 357.511 8.21067 359.246 8.45448L358.946 9.20969ZM321.497 10.846H305.319C310.707 10.7171 316.109 10.7171 321.497 10.846ZM312.209 14.9997C304.719 14.9997 296.93 15.629 289.44 15.7549C296.93 15.5032 304.42 15.1255 312.809 14.9997H312.209ZM348.46 18.9016H350.258C346.33 20.0092 341.97 20.8186 337.375 21.2931C340.905 20.2137 344.861 19.4042 349.06 18.9016H348.46ZM412.274 18.9016H414.072C418.376 19.3903 422.435 20.2003 426.056 21.2931C421.357 20.8327 416.893 20.0227 412.874 18.9016H412.274ZM449.424 15.1255C457.813 15.1255 465.303 15.1255 472.194 16.0066C465.303 15.7549 457.513 15.5031 450.024 15.1255H449.424ZM440.436 10.846C446.024 10.7074 451.626 10.7074 457.214 10.846H440.436ZM416.169 6.81816H414.372H408.979C400.291 5.81121 412.874 4.80426 426.955 4.04904C432.347 5.056 433.546 6.44055 416.768 6.81816H416.169ZM352.655 6.81816H347.262H345.465C328.687 6.81816 329.886 5.05599 334.679 3.92317C349.359 4.67839 361.942 5.68533 353.254 6.69229L352.655 6.81816ZM296.93 10.2166H289.141H291.537C276.212 11.0035 260.662 10.3588 245.999 8.3286C263.107 7.78669 280.312 8.42446 296.93 10.2166ZM272.962 16.3842L265.173 17.1395H274.161C245.998 19.5927 217.164 20.3975 188.476 19.531C216.192 16.9066 244.555 15.6812 272.962 15.8808V16.3842ZM321.497 22.8036C321.351 23.1787 321.351 23.5613 321.497 23.9364L332.282 23.3071C343.068 26.7055 308.914 30.8592 265.772 34.6353C271.849 30.8141 280.172 27.7169 289.935 25.6441C299.698 23.5712 310.57 22.5928 321.497 22.8036ZM429.052 22.8036L439.837 23.4329C440.398 23.2506 440.901 23.0391 441.335 22.8036C452.213 22.6147 463.023 23.6037 472.729 25.6756C482.435 27.7475 490.71 30.8328 496.76 34.6353C453.019 30.9851 418.866 26.8314 429.651 23.4329L429.052 22.8036ZM488.971 16.1325H497.959L490.169 15.3773C518.541 15.0538 546.903 16.1524 574.655 18.6499C545.924 19.6937 516.987 19.0583 488.671 16.7619L488.971 16.1325ZM471.295 10.2166H473.991H466.202C482.789 8.60695 499.889 8.13934 516.833 8.83207C502.08 10.6933 486.532 11.166 471.295 10.2166ZM381.416 10.2166C384.712 10.2166 384.712 11.2236 381.416 11.7271C378.121 12.2306 378.121 10.9719 381.416 10.2166ZM360.744 10.2166C365.772 10.1586 370.773 10.5446 375.424 11.3495C370.548 11.6482 365.587 11.6057 360.744 11.2236V10.2166ZM350.258 11.8529C357.729 11.5383 365.257 11.5383 372.728 11.8529C365.709 12.4153 358.598 12.752 351.456 12.8599L350.258 11.8529ZM358.048 13.6151C363.522 12.7812 369.301 12.3553 375.125 12.3564C369.768 13.5019 363.998 14.2674 358.048 14.6221V13.6151ZM381.416 14.4962C377.521 13.8669 377.821 13.1116 381.416 12.4823C385.011 11.8529 385.311 14.8738 381.416 15.5032V14.4962ZM404.785 13.6151C398.969 13.5809 393.204 13.156 387.708 12.3564C393.678 12.674 399.463 13.4415 404.785 14.6221V13.6151ZM412.574 11.8529C405.096 12.1049 397.582 12.1049 390.104 11.8529C397.255 11.9041 404.377 12.2413 411.376 12.8599L412.574 11.8529ZM402.088 10.2166C397.381 10.9377 392.418 11.3207 387.408 11.3495C392.229 10.8837 397.226 10.8408 402.088 11.2236V10.2166ZM381.416 5.18187C377.222 5.18187 379.918 4.30077 381.416 3.7973C384.112 3.7973 386.809 4.67839 381.416 5.18187ZM307.715 7.06991C303.23 7.14664 298.778 6.71168 294.833 5.81121C301.424 5.81121 308.914 5.81121 309.813 6.94403H306.517L307.715 7.06991ZM251.991 12.9858C241.425 13.3723 230.799 13.3723 220.233 12.9858C231.094 12.549 242.029 12.549 252.889 12.9858H251.991ZM261.578 22.8036C247.037 24.5947 232.063 25.6924 216.938 26.0762C230.478 24.3238 244.449 23.2258 258.582 22.8036H261.578ZM385.011 28.7194C394.598 30.8592 388.606 33.2508 382.614 35.7681C376.623 33.2508 370.631 30.8592 380.218 28.7194H382.914H385.011ZM504.85 22.426C519.422 22.9323 533.801 24.1575 547.692 26.0762C531.962 25.7499 516.377 24.6515 501.254 22.8036L504.85 22.426ZM511.441 12.8599C522.301 12.4232 533.236 12.4232 544.097 12.8599C533.531 13.2464 522.905 13.2464 512.339 12.8599H511.441ZM454.517 7.06991C454.517 7.06991 462.906 6.18882 469.497 5.93708C465.552 6.83755 461.101 7.27251 456.615 7.19578H454.218L454.517 7.06991ZM381.416 2.66447C393.1 3.67143 407.781 5.55947 385.311 6.06295C385.311 6.06295 393.699 5.30773 392.202 4.67838C389.177 3.96994 385.958 3.42039 382.614 3.04209L381.416 2.66447ZM482.38 4.80425C482.38 6.18881 476.688 8.58033 450.024 7.82512C455.117 7.82512 466.801 7.82512 471.894 6.94403C476.987 6.06295 477.586 5.68535 480.283 5.18187L482.38 4.80425ZM577.052 12.8599C549.697 14.8725 521.718 14.8725 494.364 12.8599C506.048 12.8599 517.732 13.8669 531.514 13.741C545.295 13.6151 556.979 12.8599 569.263 12.6082L577.052 12.8599ZM601.02 30.2299C544.995 28.7194 468.898 25.321 477.586 21.1673C491.967 22.1742 492.866 24.1881 511.74 25.4468C530.615 26.7055 559.676 27.9642 584.842 29.2229L601.02 30.2299ZM381.416 45.4601C351.456 36.901 329.586 27.209 374.226 25.4468C374.226 27.4607 355.95 28.7195 356.849 31.4886C357.748 34.2577 370.331 38.4114 377.521 42.5651C379.171 43.4389 380.485 44.4157 381.416 45.4601ZM161.812 30.2299C198.773 23.7934 238.346 20.417 278.355 20.2862C264.873 21.419 248.395 21.0414 232.517 22.426C216.638 23.8105 196.266 26.5797 175.893 28.8453L161.812 30.2299ZM186.08 12.8599C214.489 11.1103 243.354 11.1103 271.764 12.8599C259.481 12.8599 256.485 12.1047 241.804 12.2306C227.124 12.3564 210.047 12.8599 194.468 13.1116L186.08 12.8599ZM280.752 4.80425C302.323 4.80425 334.08 6.06296 319.999 7.44752C314.007 7.44752 319.999 6.31469 311.61 5.93708C303.222 5.55947 293.335 5.30773 285.246 5.056L280.752 4.80425ZM381.416 2.91621C378.054 3.27107 374.827 3.82184 371.829 4.55251C370.331 5.18185 379.319 5.4336 378.72 5.93708C356.25 5.93708 370.93 3.54555 382.614 2.5386L381.416 2.91621ZM479.084 5.056C470.995 5.056 460.21 5.05599 452.72 5.93708C445.23 6.81816 450.323 7.06991 444.331 7.44752C430.25 6.06296 462.007 5.18186 483.578 4.80425L479.084 5.056ZM568.963 12.6082C553.384 12.6082 536.008 11.7271 521.627 11.7271C507.246 11.7271 505.149 12.4823 491.667 12.3564C520.077 10.6069 548.942 10.6069 577.352 12.3564L568.963 12.6082ZM588.736 28.8453C568.364 26.5797 550.987 24.0623 532.113 22.426C513.238 20.7897 499.756 21.419 486.275 20.2862C526.284 20.417 565.856 23.7934 602.817 30.2299L588.736 28.8453ZM386.809 42.5651C393.999 38.4114 406.283 34.7612 407.481 31.4886C408.679 28.216 389.505 27.4607 390.104 25.4468C434.744 27.209 412.874 36.901 382.914 45.4601C383.378 44.4517 384.185 43.4767 385.311 42.5651H386.809ZM177.391 29.3488C202.557 28.0901 228.922 27.209 250.493 25.5727C272.064 23.9364 270.266 22.3001 284.647 21.2931C293.335 25.4468 217.237 28.8453 161.213 30.3558L177.391 29.3488ZM193.27 12.9858C205.553 12.9858 216.638 13.8668 231.019 14.1186C245.4 14.3703 256.485 13.1116 268.169 13.2375C240.814 15.2501 212.835 15.2501 185.48 13.2375L193.27 12.9858ZM283.149 5.18187C285.845 5.18187 286.444 6.44056 291.537 6.94403C296.63 7.44751 308.315 6.94403 313.408 7.82512C286.744 8.58033 280.752 6.18881 281.051 4.80425L283.149 5.18187ZM435.643 3.16796C443.954 3.75871 452.382 4.01161 460.809 3.92317H448.226H437.441C435.647 3.19429 433.501 2.63621 431.149 2.28688L412.274 3.29383L408.679 2.5386L402.088 1.78339C410.76 2.10156 419.481 2.10156 428.153 1.78339H435.343L435.643 3.16796ZM334.979 3.16796C343.65 3.48613 352.372 3.48613 361.044 3.16796L354.452 3.92317L350.857 4.67838L331.983 3.67142C329.63 4.02076 327.484 4.57886 325.691 5.30774H314.906H302.323C310.75 5.39618 319.177 5.14326 327.489 4.55251H334.38L334.979 3.16796ZM234.614 7.69924C243.639 7.67081 252.611 7.12021 261.278 6.06295C261.278 6.06295 261.278 6.6923 261.278 7.06991C262.965 7.47148 264.781 7.76825 266.671 7.95099H234.614C238.39 8.77369 242.425 9.36699 246.598 9.71315H226.825L206.452 10.2166C218.735 9.46142 229.221 8.58033 228.023 7.82512H231.618L234.614 7.69924ZM157.318 20.2862C175.294 18.7758 176.492 17.3912 174.096 16.2584C179.254 16.6242 184.454 16.8763 189.675 17.0136C195.667 17.0136 202.857 17.0136 210.646 17.0136C195.067 18.0206 178.29 19.1534 162.411 20.4121C176.193 20.4121 192.371 20.4121 209.148 20.4121C199.861 21.0414 190.873 21.7966 182.484 22.6777C174.096 23.5588 165.707 24.5657 158.217 25.5727C166.306 23.4329 170.201 21.5449 154.622 20.9155L158.517 20.2862H157.318ZM229.821 40.677C231.918 36.7751 211.845 35.5164 189.375 35.0129C201.958 35.0129 214.541 34.1318 227.124 33.3766C239.707 32.6214 251.092 31.8662 261.877 30.9851C254.677 33.5272 248.767 36.652 244.501 40.1736C267.869 38.1596 291.238 36.0199 309.813 33.7542C308.997 34.5713 308.577 35.4485 308.577 36.3346C308.577 37.2206 308.997 38.0978 309.813 38.9149C311.886 41.0261 315.182 42.8865 319.4 44.3272C296.084 41.0038 271.162 40.1817 246.898 41.9357H244.8L240.007 40.8029L229.821 40.677ZM519.23 41.8099H517.133C492.869 40.0558 467.946 40.8779 444.631 44.2014C448.849 42.7606 452.144 40.9003 454.218 38.789C455.034 37.9719 455.454 37.0947 455.454 36.2087C455.454 35.3226 455.034 34.4455 454.218 33.6284C472.793 35.894 496.161 38.0338 519.53 40.0477C515.263 36.5262 509.354 33.4013 502.153 30.8592C512.939 31.7403 525.222 32.6214 536.906 33.2507C548.591 33.8801 562.072 34.5094 574.655 34.887C552.186 34.887 532.113 36.6492 534.21 40.5512H524.024L519.23 41.8099ZM609.109 21.419C593.53 21.419 597.125 23.9364 605.514 26.0762C598.024 25.0692 589.935 24.0623 581.246 23.1812C572.558 22.3001 563.87 21.5449 554.582 20.9155C571.36 20.9155 587.538 20.9155 601.319 20.9155C585.441 19.6569 568.663 18.524 553.084 17.5171C560.874 17.5171 568.064 17.5171 574.056 17.5171C579.277 17.3798 584.477 17.1277 589.635 16.7619C587.238 17.8947 589.635 19.2792 606.413 20.7897H607.911H606.113L609.109 21.419ZM536.008 8.83207C536.008 9.58729 544.995 10.4684 557.578 11.2236L536.008 10.2166H516.234C520.407 9.87048 524.442 9.27718 528.218 8.45448H494.963C496.852 8.27174 498.669 7.97497 500.356 7.57339C500.356 7.57339 500.356 7.57337 500.356 6.56642C509.023 7.62368 517.995 8.1743 527.02 8.20273H528.817L536.008 8.83207ZM391.303 2.41273C402.422 2.50465 413.522 2.84076 424.558 3.41968H394.598C393.679 2.66077 392.21 2.04385 390.404 1.65752L391.303 2.41273ZM503.951 5.056C512.708 5.39246 521.294 6.28362 529.416 7.69924L501.254 5.056C502.852 4.80426 503.451 4.55252 503.052 4.30079L503.951 5.056ZM618.396 14.7479C627.384 16.5101 627.983 18.3982 618.396 19.7827C612.331 18.7462 606.828 17.2049 602.218 15.2514C607.383 15.0034 612.492 14.5824 617.498 13.9927L618.396 14.7479ZM659.441 38.5373C628.342 42.3375 595.789 43.577 563.57 42.1875C580.283 39.1054 597.77 36.8253 615.7 35.3905C629.85 36.5562 644.158 37.3549 658.542 37.7821L659.441 38.5373ZM344.865 58.8022C309.525 58.4842 275.211 53.7518 246.298 45.2084C276.47 46.0652 306.487 47.7047 336.177 50.1173C335.483 51.7626 335.934 53.4572 337.475 54.9977C339.016 56.5382 341.582 57.8592 344.865 58.8022ZM95.6016 32.8731C98.8971 29.2229 114.476 25.6986 137.845 22.5518C137.845 24.4399 137.845 26.5797 130.954 29.2229C118.968 30.0651 107.151 31.2853 95.6016 32.8731ZM162.711 11.7271C180.013 10.1904 197.522 9.09752 215.14 8.45448C207.051 9.33556 196.565 10.3425 185.181 11.3495L162.711 11.7271ZM278.355 3.54555C291.837 3.54555 306.217 3.54555 319.699 3.54555L289.74 4.42666C286.053 3.92521 282.225 3.62897 278.355 3.54555ZM368.234 2.161H338.274C349.411 1.58731 360.611 1.25123 371.829 1.15405C370.571 1.38661 369.448 1.73001 368.533 2.161H368.234ZM474.291 3.92317L444.331 3.04209C457.813 3.04209 472.194 3.04209 485.675 3.04209C481.906 3.13629 478.181 3.43238 474.59 3.92317H474.291ZM579.149 11.3495C566.566 10.3425 556.08 9.33556 549.19 8.45448C566.805 9.1072 584.313 10.2 601.619 11.7271L579.149 11.3495ZM632.477 29.3488C626.186 26.7055 624.388 24.5658 625.587 22.6777C648.955 25.8244 664.534 29.3488 667.83 32.999C656.368 31.432 644.654 30.2121 632.777 29.3488H632.477ZM426.355 50.369C456.046 47.9564 486.063 46.317 516.234 45.4601C487.321 54.0035 453.007 58.736 417.667 59.054C420.951 58.1109 423.517 56.7899 425.058 55.2494C426.599 53.7089 427.049 52.0144 426.355 50.369ZM146.233 35.3905C165.211 36.4784 183.816 38.5064 201.659 41.4323C169.44 42.8218 136.887 41.5823 105.788 37.7821C119.369 37.315 132.873 36.5165 146.233 35.3905ZM161.213 14.4962C156.797 16.4884 151.37 18.0372 145.334 19.0275C135.448 17.6429 136.047 15.7549 145.334 13.9927C150.586 14.3418 155.896 14.5102 161.213 14.4962ZM261.578 5.056L233.116 6.94403C241.239 5.52841 249.824 4.63725 258.582 4.30079C258.582 4.30079 261.578 4.80426 261.578 5.056ZM376.323 1.15405H378.72H381.716H384.712H387.108C387.108 1.15405 384.712 1.15405 382.914 1.15405C381.116 1.15405 376.623 1.02818 377.222 1.15405H376.323ZM259.481 3.67142H264.574H270.865H268.768C266.796 3.48259 264.748 3.48259 262.776 3.67142C261.578 3.41969 258.282 3.67142 261.578 3.67142H259.481ZM136.047 13.3634C133.068 13.5533 130.038 13.5533 127.059 13.3634H124.363H133.65H146.832H145.035H145.634C142.374 13.3279 139.126 13.5411 136.047 13.9927C132.452 13.1116 131.553 13.4892 136.946 13.3634H136.047ZM70.4355 38.5373L75.8282 37.9079C65.9363 38.7002 55.926 39.2048 45.8687 39.4183C40.3797 39.5373 34.8798 39.5373 29.3909 39.4183L44.3707 37.2786C54.1498 36.3806 64.0573 35.7499 74.0307 35.3905H68.3384C57.8525 36.0199 52.4598 37.4044 56.6541 37.6562C53.6581 39.5442 60.5489 40.0477 71.3343 38.9149L70.4355 38.5373ZM399.991 65.9768C399.405 65.4472 398.703 64.9415 397.894 64.4664H404.785C406.582 66.732 398.793 70.5081 395.797 71.7668C391.325 73.5046 386.4 75.0247 381.116 76.2981C375.833 75.0247 370.908 73.5046 366.436 71.7668C363.44 70.5081 355.651 66.732 357.448 64.4664H364.339C363.53 64.9415 362.828 65.4472 362.242 65.9768C358.048 68.7459 371.829 70.5081 381.116 69.5011C390.704 70.8857 404.485 69.1235 400.291 66.3544L399.991 65.9768ZM694.194 35.894H688.502C697.31 36.6042 706.013 37.5288 714.567 38.6631L729.546 40.8029C724.058 40.9218 718.558 40.9218 713.069 40.8029C703.011 40.5894 693.001 40.0847 683.109 39.2925H684.607L690 39.9218C700.785 41.0547 707.676 39.9218 704.68 39.9218C710.972 38.2855 704.98 36.901 694.494 36.2716L694.194 35.894ZM616.898 11.8529H615.101H613.303H626.485H635.773H633.077C630.098 12.0428 627.068 12.0428 624.089 11.8529H625.587C630.979 11.8529 630.081 11.8529 625.587 11.8529C622.761 11.7931 619.93 11.9205 617.198 12.2306L616.898 11.8529ZM493.465 3.04209H491.368H497.659H502.453C504.55 3.04209 502.453 3.04209 499.756 3.04209C497.717 2.97532 495.668 3.10444 493.764 3.41968L493.465 3.04209Z" fill="#FF8200"/>
</svg>
