<svg width="25" height="25" viewBox="0 0 25 25" fill="none" xmlns="http://www.w3.org/2000/svg">
<path d="M0.96582 24.8047L2.65366 18.6422C1.61093 16.8344 1.06322 14.7836 1.06574 12.6967C1.06849 6.13935 6.40477 0.804688 12.9623 0.804688C16.1444 0.806304 19.1312 2.04466 21.3775 4.29257C23.6238 6.54049 24.8598 9.52845 24.8586 12.7062C24.8557 19.2631 19.5186 24.5987 12.9621 24.5987H12.9569C10.9661 24.5979 9.00985 24.0984 7.27221 23.151L0.96582 24.8047Z" fill="white"/>
<path d="M12.9658 2.81253C7.51168 2.81253 3.07615 7.24644 3.07421 12.6964C3.07153 14.5574 3.59559 16.3811 4.58581 17.9568L4.82107 18.3308L3.82201 21.9781L7.56439 20.9968L7.92576 21.2109C9.4435 22.1117 11.1837 22.588 12.9584 22.589H12.9621C18.4121 22.589 22.8476 18.1546 22.8497 12.7043C22.8538 11.4053 22.6002 10.1183 22.1035 8.91792C21.6069 7.71755 20.8771 6.62762 19.9563 5.71123C19.0407 4.78983 17.9514 4.0592 16.7514 3.56163C15.5515 3.06407 14.2648 2.80945 12.9658 2.81253Z" fill="#420207"/>
<path fill-rule="evenodd" clip-rule="evenodd" d="M9.98896 7.72359C9.76616 7.22867 9.53171 7.21865 9.32007 7.21008L8.75028 7.20312C8.55206 7.20312 8.22998 7.2775 7.9577 7.575C7.68542 7.8725 6.91725 8.59152 6.91725 10.054C6.91725 11.5164 7.98244 12.9296 8.13087 13.1281C8.27929 13.3267 10.1872 16.4234 13.2086 17.6149C15.7194 18.605 16.2304 18.4081 16.7756 18.3586C17.3208 18.3092 18.5342 17.6396 18.7818 16.9455C19.0293 16.2514 19.0295 15.6567 18.9552 15.5324C18.881 15.408 18.6828 15.3341 18.3853 15.1854C18.0878 15.0366 16.6266 14.3176 16.3542 14.2184C16.0818 14.1191 15.8837 14.0698 15.6853 14.3673C15.4869 14.6648 14.918 15.334 14.7445 15.5324C14.571 15.7308 14.3978 15.7557 14.1003 15.6071C13.8028 15.4585 12.8456 15.1445 11.7099 14.1318C10.8263 13.344 10.2299 12.3709 10.0562 12.0736C9.88257 11.7762 10.0378 11.6152 10.1869 11.4671C10.3203 11.3339 10.484 11.12 10.633 10.9465C10.7819 10.773 10.8309 10.649 10.9298 10.4509C11.0288 10.2528 10.9794 10.0789 10.9051 9.93028C10.8307 9.78169 10.2532 8.31148 9.98896 7.72359Z" fill="white"/>
</svg>
