<svg width="17" height="13" viewBox="0 0 17 13" fill="none" xmlns="http://www.w3.org/2000/svg">
<path d="M16.25 0H0.65C0.477609 0 0.312279 0.0684821 0.190381 0.190381C0.0684819 0.312279 0 0.477609 0 0.65V11.7C0 12.0448 0.136964 12.3754 0.380761 12.6192C0.624558 12.863 0.955218 13 1.3 13H15.6C15.9448 13 16.2754 12.863 16.5192 12.6192C16.763 12.3754 16.9 12.0448 16.9 11.7V0.65C16.9 0.477609 16.8315 0.312279 16.7096 0.190381C16.5877 0.0684821 16.4224 0 16.25 0ZM6.07019 6.5L1.3 10.8721V2.12794L6.07019 6.5ZM7.03219 7.38156L8.00719 8.27937C8.12711 8.38946 8.28397 8.45054 8.44675 8.45054C8.60953 8.45054 8.76639 8.38946 8.88631 8.27937L9.86131 7.38156L14.5738 11.7H2.32131L7.03219 7.38156ZM10.8298 6.5L15.6 2.12713V10.8729L10.8298 6.5Z" fill="white"/>
</svg>
