<svg width="12" height="15" viewBox="0 0 12 15" fill="none" xmlns="http://www.w3.org/2000/svg">
<path d="M5.89292 0C4.33056 0.00177238 2.83271 0.623201 1.72795 1.72795C0.6232 2.8327 0.00177238 4.33056 0 5.89292C0 10.9354 5.3572 14.7437 5.58555 14.9031C5.67562 14.9662 5.78294 15 5.89292 15C6.0029 15 6.11021 14.9662 6.20029 14.9031C6.42864 14.7437 11.7858 10.9354 11.7858 5.89292C11.7841 4.33056 11.1626 2.8327 10.0579 1.72795C8.95313 0.623201 7.45527 0.00177238 5.89292 0ZM5.89292 3.75004C6.31674 3.75004 6.73104 3.87572 7.08344 4.11118C7.43583 4.34664 7.71049 4.68131 7.87268 5.07287C8.03487 5.46443 8.0773 5.89529 7.99462 6.31097C7.91194 6.72665 7.70785 7.10847 7.40816 7.40816C7.10847 7.70785 6.72665 7.91194 6.31097 7.99462C5.89529 8.0773 5.46443 8.03487 5.07287 7.87268C4.68131 7.71049 4.34664 7.43583 4.11118 7.08344C3.87572 6.73104 3.75004 6.31674 3.75004 5.89292C3.75004 5.32459 3.9758 4.77954 4.37767 4.37767C4.77954 3.9758 5.32459 3.75004 5.89292 3.75004Z" fill="white"/>
</svg>
