<?xml version="1.0" standalone="no"?>
<!DOCTYPE svg PUBLIC "-//W3C//DTD SVG 1.1//EN" "http://www.w3.org/Graphics/SVG/1.1/DTD/svg11.dtd" >
<svg xmlns="http://www.w3.org/2000/svg" xmlns:xlink="http://www.w3.org/1999/xlink" version="1.1">
<metadata>
Created by FontForge 20170731 at Mon Oct 16 08:51:09 2023
 By Aleksey,,,
Copyright (c) 2022 by Kereatype.  All right reserved.
</metadata>
<defs>
<font id="SandeMoreDemo-Regular" horiz-adv-x="3506" >
  <font-face 
    font-family="San de More Demo"
    font-weight="400"
    font-stretch="normal"
    units-per-em="2048"
    panose-1="0 0 0 0 0 0 0 0 0 0"
    ascent="1638"
    descent="-410"
    x-height="1024"
    cap-height="1434"
    bbox="-223 -430 3467 1556"
    underline-thickness="102"
    underline-position="-358"
    unicode-range="U+000D-007A"
  />
<missing-glyph horiz-adv-x="1024" 
 />
    <glyph glyph-name=".notdef" horiz-adv-x="1024" 
 />
    <glyph glyph-name="uni0000" horiz-adv-x="0" 
 />
    <glyph glyph-name="uni0000" horiz-adv-x="0" 
 />
    <glyph glyph-name="uni000D" unicode="&#xd;" horiz-adv-x="512" 
 />
    <glyph glyph-name="space" unicode=" " horiz-adv-x="512" 
 />
    <glyph glyph-name="comma" unicode="," horiz-adv-x="368" 
d="M102 72q0 39 23.5 65.5t60.5 26.5t58.5 -29.5t21.5 -81.5q0 -75 -40.5 -133.5t-94.5 -58.5v12q23 1 38 18.5t15 42.5q0 21 -13 37t-28 25t-28 28.5t-13 47.5z" />
    <glyph glyph-name="period" unicode="." horiz-adv-x="368" 
d="M102 72q0 40 23.5 66t58.5 26q36 0 59 -26t23 -66t-23 -66t-59 -26q-35 0 -58.5 26t-23.5 66z" />
    <glyph glyph-name="zero" unicode="0" 
d="M190 238l23 127h-27l-39 -215h27l14 69l50 -69h36l-61 79l88 80h-37zM385 311q-41 0 -68.5 -29.5t-27.5 -70.5q0 -31 18 -48.5t49 -17.5q26 0 49 14.5t33 39.5h-28q-16 -31 -50 -31q-20 0 -32.5 11.5t-12.5 31.5v8h129q0 2 3.5 13.5t3.5 17.5q0 28 -18.5 44.5t-47.5 16.5
zM512 279l6 30h-26l-29 -159h26q2 10 4 29.5t3.5 31.5t6.5 27.5t12 24.5t19.5 15.5t30.5 6.5l4 26q-38 0 -57 -32zM659 311q-40 0 -67 -29.5t-27 -70.5q0 -30 18 -48t48 -18q26 0 49 14.5t35 39.5h-29q-16 -31 -51 -31q-43 0 -43 43v8h129q4 20 4 31q0 28 -18.5 44.5
t-47.5 16.5zM836 311q-39 0 -67 -30.5t-28 -69.5q0 -28 17.5 -47t46.5 -19q42 0 65 33l-4 -28h27l29 159h-27l-6 -28q-12 30 -53 30zM973 350l-8 -41h-21l-4 -22h21q-17 -94 -17 -107q0 -30 37 -30h25l4 22q-30 0 -35 2l-4 10q1 18 7.5 54t8.5 49h43l4 22h-43l8 41h-26z
M1104 180l-27 129h-28l36 -159l-47 -76h29l137 235h-26zM1247 279l6 30h-26l-43 -237h26l19 106q14 -33 55 -33q39 0 65.5 31.5t26.5 71.5q0 28 -17 45.5t-46 17.5q-40 0 -66 -32zM1489 311q-40 0 -67 -29.5t-27 -70.5q0 -31 17.5 -48.5t47.5 -17.5q26 0 49 14.5t35 39.5
h-28q-16 -31 -52 -31q-43 0 -43 43v8h129q4 20 4 31q0 29 -18 45t-47 16zM1724 336q-63 0 -106 -43t-43 -105q0 -46 30 -72t76 -26q28 0 58 10l-4 19q-23 -10 -49 -10q-40 0 -64.5 20.5t-24.5 60.5q0 53 35 90t88 37q40 0 64 -20.5t24 -58.5q0 -25 -9.5 -49.5t-29.5 -24.5
q-14 0 -14 18q0 14 2.5 29.5t8 36.5t6.5 28h-25l-2 -18q-11 23 -39 23q-31 0 -51.5 -26t-20.5 -58q0 -22 13 -36t36 -14q32 0 52 27q3 -27 32 -27q31 0 47.5 29t16.5 62q0 46 -30.5 72t-76.5 26zM1917 145q42 0 65 33q-4 -28 -7.5 -42t-18 -29t-39.5 -15q-17 0 -30.5 8.5
t-14.5 24.5h-27v-2q0 -27 20 -40t48 -13q34 0 59 20.5t31 54.5l29 164h-27l-4 -28q-12 30 -55 30q-39 0 -66 -30.5t-27 -69.5q0 -28 17.5 -47t46.5 -19zM2095 287l4 22h-26l-29 -159h27l16 88q11 51 55 51q35 0 35 -37q0 -14 -16 -102h26q1 6 3 23.5t3.5 30t6 30t11 28.5
t18.5 19t28 8q37 0 37 -37q0 -15 -3.5 -32t-8.5 -38t-7 -32h27q2 11 7 34t8 41t3 35q0 51 -53 51q-45 0 -63 -35q-8 35 -54 35q-34 0 -55 -24zM2437 311q-40 0 -67 -30t-27 -70q0 -28 17 -47t46 -19q43 0 66 33l-4 -28h26l29 159h-29l-4 -28q-6 14 -21.5 22t-31.5 8z
M2562 150l29 159h-27l-29 -159h27zM1892 662h43q47 0 47 43q0 40 -47 40h-43v-83zM2406 569q37 0 59.5 25t22.5 63t-22.5 64.5t-59.5 26.5t-59.5 -26.5t-22.5 -64.5t22.5 -63t59.5 -25zM2589 371l-17 -6l-6 -15l4 -10l10 -4l17 6l6 14l-4 11zM2601 150h27l38 215h-26z
M2699 178l-12 4l-14 -6l-7 -14l5 -10l10 -5l14 7l8 14zM2824 311q-40 0 -67 -29.5t-27 -70.5q0 -30 18 -48t48 -18q28 0 50.5 15t32.5 41h-28q-17 -33 -51 -33q-41 0 -41 45q0 30 16 53t45 23q16 0 28 -8.5t13 -22.5h29q-1 26 -19.5 39.5t-46.5 13.5zM2998 311
q-41 0 -68.5 -29t-27.5 -69q0 -30 19 -49t49 -19q41 0 69.5 29.5t28.5 69.5q0 30 -19.5 48.5t-50.5 18.5zM3133 287l5 22h-27l-29 -159h27l16 88q3 23 17 37t36 14q37 0 37 -37q0 -19 -7.5 -55.5t-8.5 -46.5h25q1 7 3.5 28.5t6 37.5t10 34.5t19.5 28.5t32 10q37 0 37 -37
q0 -15 -3 -32t-8 -38.5t-7 -31.5h26q2 12 7.5 34t8.5 41t3 35q0 24 -15.5 37.5t-40.5 13.5q-42 0 -63 -35q-8 35 -51 35q-38 0 -56 -24zM420 967v280h100v94h-315v-94h98v-280h117zM670 967v133l69 -133h129l-80 143q37 11 58.5 40t21.5 69q0 59 -40 90.5t-101 31.5h-176
v-374h119zM907 1341v-374h117v374h-117zM1192 1022h125l18 -55h125l-137 374h-135l-137 -374h123zM1487 1341v-374h231v88h-114v286h-117zM2028 963q82 0 137 55t55 137t-55 137.5t-137 55.5q-83 0 -139 -55.5t-56 -137.5q0 -81 56.5 -136.5t138.5 -55.5zM2380 1155
l125 -188h116v374h-116v-192l-125 192h-119v-374h119v188zM2675 1341v-374h231v88h-115v286h-116zM3052 967h116v112l135 262h-133l-59 -133l-59 133h-136l136 -262v-112zM201 627l59 69l37 -43l-129 -135l-129 135l37 43l59 -69v172h66v-172zM422 250v-10h-103
q6 21 22.5 35t37.5 14q19 0 31 -10.5t12 -28.5zM383 696l59 -69v172h64v-172l59 69l39 -43l-129 -135l-129 135zM698 250l-2 -10h-100q5 21 21 35t38 14q19 0 31 -10.5t12 -28.5zM815 170q-21 0 -33 12t-12 33q0 29 19 51.5t47 22.5q21 0 33 -13t12 -34q0 -29 -19 -50.5
t-47 -21.5zM1282 170q-20 0 -32.5 12.5t-12.5 32.5q0 29 20 51.5t48 22.5q20 0 32.5 -12.5t12.5 -32.5q0 -29 -20 -51.5t-48 -22.5zM778 770h125v-25h-96v-75h78v-23h-78v-100h-29v223zM930 629v141h28v-141q0 -60 56 -60q55 0 55 60v141h29v-141q0 -38 -23 -61t-61 -23
t-61 23t-23 61zM1251 547h-108v223h31v-201h77v-22zM1382 547h-106v223h29v-201h77v-22zM1528 250l-2 -10h-101q5 21 21 35t39 14q19 0 31 -10.5t12 -28.5zM1706 260q14 0 23.5 -10.5t9.5 -24.5q0 -23 -13.5 -40t-35.5 -17q-31 0 -31 33q0 22 12.5 40.5t34.5 18.5zM3465 440
v-440h-3424v440h3424zM1993 242q0 -28 -19.5 -50t-46.5 -22q-21 0 -33 12t-12 33q0 29 19 51.5t47 22.5q20 0 32.5 -13.5t12.5 -33.5zM2417 170q-21 0 -33 12t-12 33q0 29 18.5 51.5t46.5 22.5q20 0 32.5 -13.5t12.5 -33.5q0 -29 -18.5 -50.5t-46.5 -21.5zM2974 168
q-20 0 -31.5 12.5t-11.5 32.5q0 31 18 53.5t47 22.5q20 0 32.5 -12.5t12.5 -32.5q0 -30 -19.5 -53t-47.5 -23zM1567 547l-84 223h30l70 -192l70 192h30l-84 -223h-32zM1708 770h121v-25h-90v-73h80v-25h-80v-78h90v-22h-121v223zM2013 705q0 -52 -53 -66l55 -92h-35l-53 90
h-35v-90h-28v223h71q33 0 55.5 -16.5t22.5 -48.5zM2118 569q45 0 45 37q0 19 -19 29.5t-41.5 13.5t-41.5 18.5t-19 43.5q0 29 22 45t52 16t51 -14.5t24 -42.5h-32q-1 16 -14.5 24.5t-30.5 8.5q-41 0 -41 -37q0 -19 18.5 -29t41.5 -13.5t41.5 -19t18.5 -43.5q0 -29 -22 -45
t-53 -16t-53.5 15.5t-22.5 45.5h31q3 -37 45 -37zM2230 547v223h29v-223h-29zM2406 772q49 0 81 -32.5t32 -82.5q0 -48 -32 -80t-81 -32q-47 0 -78.5 32.5t-31.5 79.5q0 48 31.5 81.5t78.5 33.5zM2554 547v223h29l116 -178v178h29v-223h-29l-116 176v-176h-29zM2941 696
l59 -69v172h64v-172l59 69l39 -43l-129 -135l-129 135zM3248 696l60 -69v172h63v-172l59 69l37 -43l-129 -135l-129 135zM670 1180v63h45q15 0 25 -9t10 -24q0 -30 -35 -30h-45zM1255 1214l33 -104h-67zM41 874v560h3424v-560h-3424zM2028 1239q35 0 54 -23.5t19 -60.5
t-19 -60.5t-54 -23.5q-37 0 -55.5 23.5t-18.5 60.5t18.5 60.5t55.5 23.5z" />
    <glyph glyph-name="one" unicode="1" 
d="M190 238l23 127h-27l-39 -215h27l14 69l50 -69h36l-61 79l88 80h-37zM385 311q-41 0 -68.5 -29.5t-27.5 -70.5q0 -31 18 -48.5t49 -17.5q26 0 49 14.5t33 39.5h-28q-16 -31 -50 -31q-20 0 -32.5 11.5t-12.5 31.5v8h129q0 2 3.5 13.5t3.5 17.5q0 28 -18.5 44.5t-47.5 16.5
zM512 279l6 30h-26l-29 -159h26q2 10 4 29.5t3.5 31.5t6.5 27.5t12 24.5t19.5 15.5t30.5 6.5l4 26q-38 0 -57 -32zM659 311q-40 0 -67 -29.5t-27 -70.5q0 -30 18 -48t48 -18q26 0 49 14.5t35 39.5h-29q-16 -31 -51 -31q-43 0 -43 43v8h129q4 20 4 31q0 28 -18.5 44.5
t-47.5 16.5zM836 311q-39 0 -67 -30.5t-28 -69.5q0 -28 17.5 -47t46.5 -19q42 0 65 33l-4 -28h27l29 159h-27l-6 -28q-12 30 -53 30zM973 350l-8 -41h-21l-4 -22h21q-17 -94 -17 -107q0 -30 37 -30h25l4 22q-30 0 -35 2l-4 10q1 18 7.5 54t8.5 49h43l4 22h-43l8 41h-26z
M1104 180l-27 129h-28l36 -159l-47 -76h29l137 235h-26zM1247 279l6 30h-26l-43 -237h26l19 106q14 -33 55 -33q39 0 65.5 31.5t26.5 71.5q0 28 -17 45.5t-46 17.5q-40 0 -66 -32zM1489 311q-40 0 -67 -29.5t-27 -70.5q0 -31 17.5 -48.5t47.5 -17.5q26 0 49 14.5t35 39.5
h-28q-16 -31 -52 -31q-43 0 -43 43v8h129q4 20 4 31q0 29 -18 45t-47 16zM1724 336q-63 0 -106 -43t-43 -105q0 -46 30 -72t76 -26q28 0 58 10l-4 19q-23 -10 -49 -10q-40 0 -64.5 20.5t-24.5 60.5q0 53 35 90t88 37q40 0 64 -20.5t24 -58.5q0 -25 -9.5 -49.5t-29.5 -24.5
q-14 0 -14 18q0 14 2.5 29.5t8 36.5t6.5 28h-25l-2 -18q-11 23 -39 23q-31 0 -51.5 -26t-20.5 -58q0 -22 13 -36t36 -14q32 0 52 27q3 -27 32 -27q31 0 47.5 29t16.5 62q0 46 -30.5 72t-76.5 26zM1917 145q42 0 65 33q-4 -28 -7.5 -42t-18 -29t-39.5 -15q-17 0 -30.5 8.5
t-14.5 24.5h-27v-2q0 -27 20 -40t48 -13q34 0 59 20.5t31 54.5l29 164h-27l-4 -28q-12 30 -55 30q-39 0 -66 -30.5t-27 -69.5q0 -28 17.5 -47t46.5 -19zM2095 287l4 22h-26l-29 -159h27l16 88q11 51 55 51q35 0 35 -37q0 -14 -16 -102h26q1 6 3 23.5t3.5 30t6 30t11 28.5
t18.5 19t28 8q37 0 37 -37q0 -15 -3.5 -32t-8.5 -38t-7 -32h27q2 11 7 34t8 41t3 35q0 51 -53 51q-45 0 -63 -35q-8 35 -54 35q-34 0 -55 -24zM2437 311q-40 0 -67 -30t-27 -70q0 -28 17 -47t46 -19q43 0 66 33l-4 -28h26l29 159h-29l-4 -28q-6 14 -21.5 22t-31.5 8z
M2562 150l29 159h-27l-29 -159h27zM1892 662h43q47 0 47 43q0 40 -47 40h-43v-83zM2406 569q37 0 59.5 25t22.5 63t-22.5 64.5t-59.5 26.5t-59.5 -26.5t-22.5 -64.5t22.5 -63t59.5 -25zM2589 371l-17 -6l-6 -15l4 -10l10 -4l17 6l6 14l-4 11zM2601 150h27l38 215h-26z
M2699 178l-12 4l-14 -6l-7 -14l5 -10l10 -5l14 7l8 14zM2824 311q-40 0 -67 -29.5t-27 -70.5q0 -30 18 -48t48 -18q28 0 50.5 15t32.5 41h-28q-17 -33 -51 -33q-41 0 -41 45q0 30 16 53t45 23q16 0 28 -8.5t13 -22.5h29q-1 26 -19.5 39.5t-46.5 13.5zM2998 311
q-41 0 -68.5 -29t-27.5 -69q0 -30 19 -49t49 -19q41 0 69.5 29.5t28.5 69.5q0 30 -19.5 48.5t-50.5 18.5zM3133 287l5 22h-27l-29 -159h27l16 88q3 23 17 37t36 14q37 0 37 -37q0 -19 -7.5 -55.5t-8.5 -46.5h25q1 7 3.5 28.5t6 37.5t10 34.5t19.5 28.5t32 10q37 0 37 -37
q0 -15 -3 -32t-8 -38.5t-7 -31.5h26q2 12 7.5 34t8.5 41t3 35q0 24 -15.5 37.5t-40.5 13.5q-42 0 -63 -35q-8 35 -51 35q-38 0 -56 -24zM420 967v280h100v94h-315v-94h98v-280h117zM670 967v133l69 -133h129l-80 143q37 11 58.5 40t21.5 69q0 59 -40 90.5t-101 31.5h-176
v-374h119zM907 1341v-374h117v374h-117zM1192 1022h125l18 -55h125l-137 374h-135l-137 -374h123zM1487 1341v-374h231v88h-114v286h-117zM2028 963q82 0 137 55t55 137t-55 137.5t-137 55.5q-83 0 -139 -55.5t-56 -137.5q0 -81 56.5 -136.5t138.5 -55.5zM2380 1155
l125 -188h116v374h-116v-192l-125 192h-119v-374h119v188zM2675 1341v-374h231v88h-115v286h-116zM3052 967h116v112l135 262h-133l-59 -133l-59 133h-136l136 -262v-112zM201 627l59 69l37 -43l-129 -135l-129 135l37 43l59 -69v172h66v-172zM422 250v-10h-103
q6 21 22.5 35t37.5 14q19 0 31 -10.5t12 -28.5zM383 696l59 -69v172h64v-172l59 69l39 -43l-129 -135l-129 135zM698 250l-2 -10h-100q5 21 21 35t38 14q19 0 31 -10.5t12 -28.5zM815 170q-21 0 -33 12t-12 33q0 29 19 51.5t47 22.5q21 0 33 -13t12 -34q0 -29 -19 -50.5
t-47 -21.5zM1282 170q-20 0 -32.5 12.5t-12.5 32.5q0 29 20 51.5t48 22.5q20 0 32.5 -12.5t12.5 -32.5q0 -29 -20 -51.5t-48 -22.5zM778 770h125v-25h-96v-75h78v-23h-78v-100h-29v223zM930 629v141h28v-141q0 -60 56 -60q55 0 55 60v141h29v-141q0 -38 -23 -61t-61 -23
t-61 23t-23 61zM1251 547h-108v223h31v-201h77v-22zM1382 547h-106v223h29v-201h77v-22zM1528 250l-2 -10h-101q5 21 21 35t39 14q19 0 31 -10.5t12 -28.5zM1706 260q14 0 23.5 -10.5t9.5 -24.5q0 -23 -13.5 -40t-35.5 -17q-31 0 -31 33q0 22 12.5 40.5t34.5 18.5zM3465 440
v-440h-3424v440h3424zM1993 242q0 -28 -19.5 -50t-46.5 -22q-21 0 -33 12t-12 33q0 29 19 51.5t47 22.5q20 0 32.5 -13.5t12.5 -33.5zM2417 170q-21 0 -33 12t-12 33q0 29 18.5 51.5t46.5 22.5q20 0 32.5 -13.5t12.5 -33.5q0 -29 -18.5 -50.5t-46.5 -21.5zM2974 168
q-20 0 -31.5 12.5t-11.5 32.5q0 31 18 53.5t47 22.5q20 0 32.5 -12.5t12.5 -32.5q0 -30 -19.5 -53t-47.5 -23zM1567 547l-84 223h30l70 -192l70 192h30l-84 -223h-32zM1708 770h121v-25h-90v-73h80v-25h-80v-78h90v-22h-121v223zM2013 705q0 -52 -53 -66l55 -92h-35l-53 90
h-35v-90h-28v223h71q33 0 55.5 -16.5t22.5 -48.5zM2118 569q45 0 45 37q0 19 -19 29.5t-41.5 13.5t-41.5 18.5t-19 43.5q0 29 22 45t52 16t51 -14.5t24 -42.5h-32q-1 16 -14.5 24.5t-30.5 8.5q-41 0 -41 -37q0 -19 18.5 -29t41.5 -13.5t41.5 -19t18.5 -43.5q0 -29 -22 -45
t-53 -16t-53.5 15.5t-22.5 45.5h31q3 -37 45 -37zM2230 547v223h29v-223h-29zM2406 772q49 0 81 -32.5t32 -82.5q0 -48 -32 -80t-81 -32q-47 0 -78.5 32.5t-31.5 79.5q0 48 31.5 81.5t78.5 33.5zM2554 547v223h29l116 -178v178h29v-223h-29l-116 176v-176h-29zM2941 696
l59 -69v172h64v-172l59 69l39 -43l-129 -135l-129 135zM3248 696l60 -69v172h63v-172l59 69l37 -43l-129 -135l-129 135zM670 1180v63h45q15 0 25 -9t10 -24q0 -30 -35 -30h-45zM1255 1214l33 -104h-67zM41 874v560h3424v-560h-3424zM2028 1239q35 0 54 -23.5t19 -60.5
t-19 -60.5t-54 -23.5q-37 0 -55.5 23.5t-18.5 60.5t18.5 60.5t55.5 23.5z" />
    <glyph glyph-name="two" unicode="2" 
d="M190 238l23 127h-27l-39 -215h27l14 69l50 -69h36l-61 79l88 80h-37zM385 311q-41 0 -68.5 -29.5t-27.5 -70.5q0 -31 18 -48.5t49 -17.5q26 0 49 14.5t33 39.5h-28q-16 -31 -50 -31q-20 0 -32.5 11.5t-12.5 31.5v8h129q0 2 3.5 13.5t3.5 17.5q0 28 -18.5 44.5t-47.5 16.5
zM512 279l6 30h-26l-29 -159h26q2 10 4 29.5t3.5 31.5t6.5 27.5t12 24.5t19.5 15.5t30.5 6.5l4 26q-38 0 -57 -32zM659 311q-40 0 -67 -29.5t-27 -70.5q0 -30 18 -48t48 -18q26 0 49 14.5t35 39.5h-29q-16 -31 -51 -31q-43 0 -43 43v8h129q4 20 4 31q0 28 -18.5 44.5
t-47.5 16.5zM836 311q-39 0 -67 -30.5t-28 -69.5q0 -28 17.5 -47t46.5 -19q42 0 65 33l-4 -28h27l29 159h-27l-6 -28q-12 30 -53 30zM973 350l-8 -41h-21l-4 -22h21q-17 -94 -17 -107q0 -30 37 -30h25l4 22q-30 0 -35 2l-4 10q1 18 7.5 54t8.5 49h43l4 22h-43l8 41h-26z
M1104 180l-27 129h-28l36 -159l-47 -76h29l137 235h-26zM1247 279l6 30h-26l-43 -237h26l19 106q14 -33 55 -33q39 0 65.5 31.5t26.5 71.5q0 28 -17 45.5t-46 17.5q-40 0 -66 -32zM1489 311q-40 0 -67 -29.5t-27 -70.5q0 -31 17.5 -48.5t47.5 -17.5q26 0 49 14.5t35 39.5
h-28q-16 -31 -52 -31q-43 0 -43 43v8h129q4 20 4 31q0 29 -18 45t-47 16zM1724 336q-63 0 -106 -43t-43 -105q0 -46 30 -72t76 -26q28 0 58 10l-4 19q-23 -10 -49 -10q-40 0 -64.5 20.5t-24.5 60.5q0 53 35 90t88 37q40 0 64 -20.5t24 -58.5q0 -25 -9.5 -49.5t-29.5 -24.5
q-14 0 -14 18q0 14 2.5 29.5t8 36.5t6.5 28h-25l-2 -18q-11 23 -39 23q-31 0 -51.5 -26t-20.5 -58q0 -22 13 -36t36 -14q32 0 52 27q3 -27 32 -27q31 0 47.5 29t16.5 62q0 46 -30.5 72t-76.5 26zM1917 145q42 0 65 33q-4 -28 -7.5 -42t-18 -29t-39.5 -15q-17 0 -30.5 8.5
t-14.5 24.5h-27v-2q0 -27 20 -40t48 -13q34 0 59 20.5t31 54.5l29 164h-27l-4 -28q-12 30 -55 30q-39 0 -66 -30.5t-27 -69.5q0 -28 17.5 -47t46.5 -19zM2095 287l4 22h-26l-29 -159h27l16 88q11 51 55 51q35 0 35 -37q0 -14 -16 -102h26q1 6 3 23.5t3.5 30t6 30t11 28.5
t18.5 19t28 8q37 0 37 -37q0 -15 -3.5 -32t-8.5 -38t-7 -32h27q2 11 7 34t8 41t3 35q0 51 -53 51q-45 0 -63 -35q-8 35 -54 35q-34 0 -55 -24zM2437 311q-40 0 -67 -30t-27 -70q0 -28 17 -47t46 -19q43 0 66 33l-4 -28h26l29 159h-29l-4 -28q-6 14 -21.5 22t-31.5 8z
M2562 150l29 159h-27l-29 -159h27zM1892 662h43q47 0 47 43q0 40 -47 40h-43v-83zM2406 569q37 0 59.5 25t22.5 63t-22.5 64.5t-59.5 26.5t-59.5 -26.5t-22.5 -64.5t22.5 -63t59.5 -25zM2589 371l-17 -6l-6 -15l4 -10l10 -4l17 6l6 14l-4 11zM2601 150h27l38 215h-26z
M2699 178l-12 4l-14 -6l-7 -14l5 -10l10 -5l14 7l8 14zM2824 311q-40 0 -67 -29.5t-27 -70.5q0 -30 18 -48t48 -18q28 0 50.5 15t32.5 41h-28q-17 -33 -51 -33q-41 0 -41 45q0 30 16 53t45 23q16 0 28 -8.5t13 -22.5h29q-1 26 -19.5 39.5t-46.5 13.5zM2998 311
q-41 0 -68.5 -29t-27.5 -69q0 -30 19 -49t49 -19q41 0 69.5 29.5t28.5 69.5q0 30 -19.5 48.5t-50.5 18.5zM3133 287l5 22h-27l-29 -159h27l16 88q3 23 17 37t36 14q37 0 37 -37q0 -19 -7.5 -55.5t-8.5 -46.5h25q1 7 3.5 28.5t6 37.5t10 34.5t19.5 28.5t32 10q37 0 37 -37
q0 -15 -3 -32t-8 -38.5t-7 -31.5h26q2 12 7.5 34t8.5 41t3 35q0 24 -15.5 37.5t-40.5 13.5q-42 0 -63 -35q-8 35 -51 35q-38 0 -56 -24zM420 967v280h100v94h-315v-94h98v-280h117zM670 967v133l69 -133h129l-80 143q37 11 58.5 40t21.5 69q0 59 -40 90.5t-101 31.5h-176
v-374h119zM907 1341v-374h117v374h-117zM1192 1022h125l18 -55h125l-137 374h-135l-137 -374h123zM1487 1341v-374h231v88h-114v286h-117zM2028 963q82 0 137 55t55 137t-55 137.5t-137 55.5q-83 0 -139 -55.5t-56 -137.5q0 -81 56.5 -136.5t138.5 -55.5zM2380 1155
l125 -188h116v374h-116v-192l-125 192h-119v-374h119v188zM2675 1341v-374h231v88h-115v286h-116zM3052 967h116v112l135 262h-133l-59 -133l-59 133h-136l136 -262v-112zM201 627l59 69l37 -43l-129 -135l-129 135l37 43l59 -69v172h66v-172zM422 250v-10h-103
q6 21 22.5 35t37.5 14q19 0 31 -10.5t12 -28.5zM383 696l59 -69v172h64v-172l59 69l39 -43l-129 -135l-129 135zM698 250l-2 -10h-100q5 21 21 35t38 14q19 0 31 -10.5t12 -28.5zM815 170q-21 0 -33 12t-12 33q0 29 19 51.5t47 22.5q21 0 33 -13t12 -34q0 -29 -19 -50.5
t-47 -21.5zM1282 170q-20 0 -32.5 12.5t-12.5 32.5q0 29 20 51.5t48 22.5q20 0 32.5 -12.5t12.5 -32.5q0 -29 -20 -51.5t-48 -22.5zM778 770h125v-25h-96v-75h78v-23h-78v-100h-29v223zM930 629v141h28v-141q0 -60 56 -60q55 0 55 60v141h29v-141q0 -38 -23 -61t-61 -23
t-61 23t-23 61zM1251 547h-108v223h31v-201h77v-22zM1382 547h-106v223h29v-201h77v-22zM1528 250l-2 -10h-101q5 21 21 35t39 14q19 0 31 -10.5t12 -28.5zM1706 260q14 0 23.5 -10.5t9.5 -24.5q0 -23 -13.5 -40t-35.5 -17q-31 0 -31 33q0 22 12.5 40.5t34.5 18.5zM3465 440
v-440h-3424v440h3424zM1993 242q0 -28 -19.5 -50t-46.5 -22q-21 0 -33 12t-12 33q0 29 19 51.5t47 22.5q20 0 32.5 -13.5t12.5 -33.5zM2417 170q-21 0 -33 12t-12 33q0 29 18.5 51.5t46.5 22.5q20 0 32.5 -13.5t12.5 -33.5q0 -29 -18.5 -50.5t-46.5 -21.5zM2974 168
q-20 0 -31.5 12.5t-11.5 32.5q0 31 18 53.5t47 22.5q20 0 32.5 -12.5t12.5 -32.5q0 -30 -19.5 -53t-47.5 -23zM1567 547l-84 223h30l70 -192l70 192h30l-84 -223h-32zM1708 770h121v-25h-90v-73h80v-25h-80v-78h90v-22h-121v223zM2013 705q0 -52 -53 -66l55 -92h-35l-53 90
h-35v-90h-28v223h71q33 0 55.5 -16.5t22.5 -48.5zM2118 569q45 0 45 37q0 19 -19 29.5t-41.5 13.5t-41.5 18.5t-19 43.5q0 29 22 45t52 16t51 -14.5t24 -42.5h-32q-1 16 -14.5 24.5t-30.5 8.5q-41 0 -41 -37q0 -19 18.5 -29t41.5 -13.5t41.5 -19t18.5 -43.5q0 -29 -22 -45
t-53 -16t-53.5 15.5t-22.5 45.5h31q3 -37 45 -37zM2230 547v223h29v-223h-29zM2406 772q49 0 81 -32.5t32 -82.5q0 -48 -32 -80t-81 -32q-47 0 -78.5 32.5t-31.5 79.5q0 48 31.5 81.5t78.5 33.5zM2554 547v223h29l116 -178v178h29v-223h-29l-116 176v-176h-29zM2941 696
l59 -69v172h64v-172l59 69l39 -43l-129 -135l-129 135zM3248 696l60 -69v172h63v-172l59 69l37 -43l-129 -135l-129 135zM670 1180v63h45q15 0 25 -9t10 -24q0 -30 -35 -30h-45zM1255 1214l33 -104h-67zM41 874v560h3424v-560h-3424zM2028 1239q35 0 54 -23.5t19 -60.5
t-19 -60.5t-54 -23.5q-37 0 -55.5 23.5t-18.5 60.5t18.5 60.5t55.5 23.5z" />
    <glyph glyph-name="three" unicode="3" 
d="M190 238l23 127h-27l-39 -215h27l14 69l50 -69h36l-61 79l88 80h-37zM385 311q-41 0 -68.5 -29.5t-27.5 -70.5q0 -31 18 -48.5t49 -17.5q26 0 49 14.5t33 39.5h-28q-16 -31 -50 -31q-20 0 -32.5 11.5t-12.5 31.5v8h129q0 2 3.5 13.5t3.5 17.5q0 28 -18.5 44.5t-47.5 16.5
zM512 279l6 30h-26l-29 -159h26q2 10 4 29.5t3.5 31.5t6.5 27.5t12 24.5t19.5 15.5t30.5 6.5l4 26q-38 0 -57 -32zM659 311q-40 0 -67 -29.5t-27 -70.5q0 -30 18 -48t48 -18q26 0 49 14.5t35 39.5h-29q-16 -31 -51 -31q-43 0 -43 43v8h129q4 20 4 31q0 28 -18.5 44.5
t-47.5 16.5zM836 311q-39 0 -67 -30.5t-28 -69.5q0 -28 17.5 -47t46.5 -19q42 0 65 33l-4 -28h27l29 159h-27l-6 -28q-12 30 -53 30zM973 350l-8 -41h-21l-4 -22h21q-17 -94 -17 -107q0 -30 37 -30h25l4 22q-30 0 -35 2l-4 10q1 18 7.5 54t8.5 49h43l4 22h-43l8 41h-26z
M1104 180l-27 129h-28l36 -159l-47 -76h29l137 235h-26zM1247 279l6 30h-26l-43 -237h26l19 106q14 -33 55 -33q39 0 65.5 31.5t26.5 71.5q0 28 -17 45.5t-46 17.5q-40 0 -66 -32zM1489 311q-40 0 -67 -29.5t-27 -70.5q0 -31 17.5 -48.5t47.5 -17.5q26 0 49 14.5t35 39.5
h-28q-16 -31 -52 -31q-43 0 -43 43v8h129q4 20 4 31q0 29 -18 45t-47 16zM1724 336q-63 0 -106 -43t-43 -105q0 -46 30 -72t76 -26q28 0 58 10l-4 19q-23 -10 -49 -10q-40 0 -64.5 20.5t-24.5 60.5q0 53 35 90t88 37q40 0 64 -20.5t24 -58.5q0 -25 -9.5 -49.5t-29.5 -24.5
q-14 0 -14 18q0 14 2.5 29.5t8 36.5t6.5 28h-25l-2 -18q-11 23 -39 23q-31 0 -51.5 -26t-20.5 -58q0 -22 13 -36t36 -14q32 0 52 27q3 -27 32 -27q31 0 47.5 29t16.5 62q0 46 -30.5 72t-76.5 26zM1917 145q42 0 65 33q-4 -28 -7.5 -42t-18 -29t-39.5 -15q-17 0 -30.5 8.5
t-14.5 24.5h-27v-2q0 -27 20 -40t48 -13q34 0 59 20.5t31 54.5l29 164h-27l-4 -28q-12 30 -55 30q-39 0 -66 -30.5t-27 -69.5q0 -28 17.5 -47t46.5 -19zM2095 287l4 22h-26l-29 -159h27l16 88q11 51 55 51q35 0 35 -37q0 -14 -16 -102h26q1 6 3 23.5t3.5 30t6 30t11 28.5
t18.5 19t28 8q37 0 37 -37q0 -15 -3.5 -32t-8.5 -38t-7 -32h27q2 11 7 34t8 41t3 35q0 51 -53 51q-45 0 -63 -35q-8 35 -54 35q-34 0 -55 -24zM2437 311q-40 0 -67 -30t-27 -70q0 -28 17 -47t46 -19q43 0 66 33l-4 -28h26l29 159h-29l-4 -28q-6 14 -21.5 22t-31.5 8z
M2562 150l29 159h-27l-29 -159h27zM1892 662h43q47 0 47 43q0 40 -47 40h-43v-83zM2406 569q37 0 59.5 25t22.5 63t-22.5 64.5t-59.5 26.5t-59.5 -26.5t-22.5 -64.5t22.5 -63t59.5 -25zM2589 371l-17 -6l-6 -15l4 -10l10 -4l17 6l6 14l-4 11zM2601 150h27l38 215h-26z
M2699 178l-12 4l-14 -6l-7 -14l5 -10l10 -5l14 7l8 14zM2824 311q-40 0 -67 -29.5t-27 -70.5q0 -30 18 -48t48 -18q28 0 50.5 15t32.5 41h-28q-17 -33 -51 -33q-41 0 -41 45q0 30 16 53t45 23q16 0 28 -8.5t13 -22.5h29q-1 26 -19.5 39.5t-46.5 13.5zM2998 311
q-41 0 -68.5 -29t-27.5 -69q0 -30 19 -49t49 -19q41 0 69.5 29.5t28.5 69.5q0 30 -19.5 48.5t-50.5 18.5zM3133 287l5 22h-27l-29 -159h27l16 88q3 23 17 37t36 14q37 0 37 -37q0 -19 -7.5 -55.5t-8.5 -46.5h25q1 7 3.5 28.5t6 37.5t10 34.5t19.5 28.5t32 10q37 0 37 -37
q0 -15 -3 -32t-8 -38.5t-7 -31.5h26q2 12 7.5 34t8.5 41t3 35q0 24 -15.5 37.5t-40.5 13.5q-42 0 -63 -35q-8 35 -51 35q-38 0 -56 -24zM420 967v280h100v94h-315v-94h98v-280h117zM670 967v133l69 -133h129l-80 143q37 11 58.5 40t21.5 69q0 59 -40 90.5t-101 31.5h-176
v-374h119zM907 1341v-374h117v374h-117zM1192 1022h125l18 -55h125l-137 374h-135l-137 -374h123zM1487 1341v-374h231v88h-114v286h-117zM2028 963q82 0 137 55t55 137t-55 137.5t-137 55.5q-83 0 -139 -55.5t-56 -137.5q0 -81 56.5 -136.5t138.5 -55.5zM2380 1155
l125 -188h116v374h-116v-192l-125 192h-119v-374h119v188zM2675 1341v-374h231v88h-115v286h-116zM3052 967h116v112l135 262h-133l-59 -133l-59 133h-136l136 -262v-112zM201 627l59 69l37 -43l-129 -135l-129 135l37 43l59 -69v172h66v-172zM422 250v-10h-103
q6 21 22.5 35t37.5 14q19 0 31 -10.5t12 -28.5zM383 696l59 -69v172h64v-172l59 69l39 -43l-129 -135l-129 135zM698 250l-2 -10h-100q5 21 21 35t38 14q19 0 31 -10.5t12 -28.5zM815 170q-21 0 -33 12t-12 33q0 29 19 51.5t47 22.5q21 0 33 -13t12 -34q0 -29 -19 -50.5
t-47 -21.5zM1282 170q-20 0 -32.5 12.5t-12.5 32.5q0 29 20 51.5t48 22.5q20 0 32.5 -12.5t12.5 -32.5q0 -29 -20 -51.5t-48 -22.5zM778 770h125v-25h-96v-75h78v-23h-78v-100h-29v223zM930 629v141h28v-141q0 -60 56 -60q55 0 55 60v141h29v-141q0 -38 -23 -61t-61 -23
t-61 23t-23 61zM1251 547h-108v223h31v-201h77v-22zM1382 547h-106v223h29v-201h77v-22zM1528 250l-2 -10h-101q5 21 21 35t39 14q19 0 31 -10.5t12 -28.5zM1706 260q14 0 23.5 -10.5t9.5 -24.5q0 -23 -13.5 -40t-35.5 -17q-31 0 -31 33q0 22 12.5 40.5t34.5 18.5zM3465 440
v-440h-3424v440h3424zM1993 242q0 -28 -19.5 -50t-46.5 -22q-21 0 -33 12t-12 33q0 29 19 51.5t47 22.5q20 0 32.5 -13.5t12.5 -33.5zM2417 170q-21 0 -33 12t-12 33q0 29 18.5 51.5t46.5 22.5q20 0 32.5 -13.5t12.5 -33.5q0 -29 -18.5 -50.5t-46.5 -21.5zM2974 168
q-20 0 -31.5 12.5t-11.5 32.5q0 31 18 53.5t47 22.5q20 0 32.5 -12.5t12.5 -32.5q0 -30 -19.5 -53t-47.5 -23zM1567 547l-84 223h30l70 -192l70 192h30l-84 -223h-32zM1708 770h121v-25h-90v-73h80v-25h-80v-78h90v-22h-121v223zM2013 705q0 -52 -53 -66l55 -92h-35l-53 90
h-35v-90h-28v223h71q33 0 55.5 -16.5t22.5 -48.5zM2118 569q45 0 45 37q0 19 -19 29.5t-41.5 13.5t-41.5 18.5t-19 43.5q0 29 22 45t52 16t51 -14.5t24 -42.5h-32q-1 16 -14.5 24.5t-30.5 8.5q-41 0 -41 -37q0 -19 18.5 -29t41.5 -13.5t41.5 -19t18.5 -43.5q0 -29 -22 -45
t-53 -16t-53.5 15.5t-22.5 45.5h31q3 -37 45 -37zM2230 547v223h29v-223h-29zM2406 772q49 0 81 -32.5t32 -82.5q0 -48 -32 -80t-81 -32q-47 0 -78.5 32.5t-31.5 79.5q0 48 31.5 81.5t78.5 33.5zM2554 547v223h29l116 -178v178h29v-223h-29l-116 176v-176h-29zM2941 696
l59 -69v172h64v-172l59 69l39 -43l-129 -135l-129 135zM3248 696l60 -69v172h63v-172l59 69l37 -43l-129 -135l-129 135zM670 1180v63h45q15 0 25 -9t10 -24q0 -30 -35 -30h-45zM1255 1214l33 -104h-67zM41 874v560h3424v-560h-3424zM2028 1239q35 0 54 -23.5t19 -60.5
t-19 -60.5t-54 -23.5q-37 0 -55.5 23.5t-18.5 60.5t18.5 60.5t55.5 23.5z" />
    <glyph glyph-name="four" unicode="4" 
d="M190 238l23 127h-27l-39 -215h27l14 69l50 -69h36l-61 79l88 80h-37zM385 311q-41 0 -68.5 -29.5t-27.5 -70.5q0 -31 18 -48.5t49 -17.5q26 0 49 14.5t33 39.5h-28q-16 -31 -50 -31q-20 0 -32.5 11.5t-12.5 31.5v8h129q0 2 3.5 13.5t3.5 17.5q0 28 -18.5 44.5t-47.5 16.5
zM512 279l6 30h-26l-29 -159h26q2 10 4 29.5t3.5 31.5t6.5 27.5t12 24.5t19.5 15.5t30.5 6.5l4 26q-38 0 -57 -32zM659 311q-40 0 -67 -29.5t-27 -70.5q0 -30 18 -48t48 -18q26 0 49 14.5t35 39.5h-29q-16 -31 -51 -31q-43 0 -43 43v8h129q4 20 4 31q0 28 -18.5 44.5
t-47.5 16.5zM836 311q-39 0 -67 -30.5t-28 -69.5q0 -28 17.5 -47t46.5 -19q42 0 65 33l-4 -28h27l29 159h-27l-6 -28q-12 30 -53 30zM973 350l-8 -41h-21l-4 -22h21q-17 -94 -17 -107q0 -30 37 -30h25l4 22q-30 0 -35 2l-4 10q1 18 7.5 54t8.5 49h43l4 22h-43l8 41h-26z
M1104 180l-27 129h-28l36 -159l-47 -76h29l137 235h-26zM1247 279l6 30h-26l-43 -237h26l19 106q14 -33 55 -33q39 0 65.5 31.5t26.5 71.5q0 28 -17 45.5t-46 17.5q-40 0 -66 -32zM1489 311q-40 0 -67 -29.5t-27 -70.5q0 -31 17.5 -48.5t47.5 -17.5q26 0 49 14.5t35 39.5
h-28q-16 -31 -52 -31q-43 0 -43 43v8h129q4 20 4 31q0 29 -18 45t-47 16zM1724 336q-63 0 -106 -43t-43 -105q0 -46 30 -72t76 -26q28 0 58 10l-4 19q-23 -10 -49 -10q-40 0 -64.5 20.5t-24.5 60.5q0 53 35 90t88 37q40 0 64 -20.5t24 -58.5q0 -25 -9.5 -49.5t-29.5 -24.5
q-14 0 -14 18q0 14 2.5 29.5t8 36.5t6.5 28h-25l-2 -18q-11 23 -39 23q-31 0 -51.5 -26t-20.5 -58q0 -22 13 -36t36 -14q32 0 52 27q3 -27 32 -27q31 0 47.5 29t16.5 62q0 46 -30.5 72t-76.5 26zM1917 145q42 0 65 33q-4 -28 -7.5 -42t-18 -29t-39.5 -15q-17 0 -30.5 8.5
t-14.5 24.5h-27v-2q0 -27 20 -40t48 -13q34 0 59 20.5t31 54.5l29 164h-27l-4 -28q-12 30 -55 30q-39 0 -66 -30.5t-27 -69.5q0 -28 17.5 -47t46.5 -19zM2095 287l4 22h-26l-29 -159h27l16 88q11 51 55 51q35 0 35 -37q0 -14 -16 -102h26q1 6 3 23.5t3.5 30t6 30t11 28.5
t18.5 19t28 8q37 0 37 -37q0 -15 -3.5 -32t-8.5 -38t-7 -32h27q2 11 7 34t8 41t3 35q0 51 -53 51q-45 0 -63 -35q-8 35 -54 35q-34 0 -55 -24zM2437 311q-40 0 -67 -30t-27 -70q0 -28 17 -47t46 -19q43 0 66 33l-4 -28h26l29 159h-29l-4 -28q-6 14 -21.5 22t-31.5 8z
M2562 150l29 159h-27l-29 -159h27zM1892 662h43q47 0 47 43q0 40 -47 40h-43v-83zM2406 569q37 0 59.5 25t22.5 63t-22.5 64.5t-59.5 26.5t-59.5 -26.5t-22.5 -64.5t22.5 -63t59.5 -25zM2589 371l-17 -6l-6 -15l4 -10l10 -4l17 6l6 14l-4 11zM2601 150h27l38 215h-26z
M2699 178l-12 4l-14 -6l-7 -14l5 -10l10 -5l14 7l8 14zM2824 311q-40 0 -67 -29.5t-27 -70.5q0 -30 18 -48t48 -18q28 0 50.5 15t32.5 41h-28q-17 -33 -51 -33q-41 0 -41 45q0 30 16 53t45 23q16 0 28 -8.5t13 -22.5h29q-1 26 -19.5 39.5t-46.5 13.5zM2998 311
q-41 0 -68.5 -29t-27.5 -69q0 -30 19 -49t49 -19q41 0 69.5 29.5t28.5 69.5q0 30 -19.5 48.5t-50.5 18.5zM3133 287l5 22h-27l-29 -159h27l16 88q3 23 17 37t36 14q37 0 37 -37q0 -19 -7.5 -55.5t-8.5 -46.5h25q1 7 3.5 28.5t6 37.5t10 34.5t19.5 28.5t32 10q37 0 37 -37
q0 -15 -3 -32t-8 -38.5t-7 -31.5h26q2 12 7.5 34t8.5 41t3 35q0 24 -15.5 37.5t-40.5 13.5q-42 0 -63 -35q-8 35 -51 35q-38 0 -56 -24zM420 967v280h100v94h-315v-94h98v-280h117zM670 967v133l69 -133h129l-80 143q37 11 58.5 40t21.5 69q0 59 -40 90.5t-101 31.5h-176
v-374h119zM907 1341v-374h117v374h-117zM1192 1022h125l18 -55h125l-137 374h-135l-137 -374h123zM1487 1341v-374h231v88h-114v286h-117zM2028 963q82 0 137 55t55 137t-55 137.5t-137 55.5q-83 0 -139 -55.5t-56 -137.5q0 -81 56.5 -136.5t138.5 -55.5zM2380 1155
l125 -188h116v374h-116v-192l-125 192h-119v-374h119v188zM2675 1341v-374h231v88h-115v286h-116zM3052 967h116v112l135 262h-133l-59 -133l-59 133h-136l136 -262v-112zM201 627l59 69l37 -43l-129 -135l-129 135l37 43l59 -69v172h66v-172zM422 250v-10h-103
q6 21 22.5 35t37.5 14q19 0 31 -10.5t12 -28.5zM383 696l59 -69v172h64v-172l59 69l39 -43l-129 -135l-129 135zM698 250l-2 -10h-100q5 21 21 35t38 14q19 0 31 -10.5t12 -28.5zM815 170q-21 0 -33 12t-12 33q0 29 19 51.5t47 22.5q21 0 33 -13t12 -34q0 -29 -19 -50.5
t-47 -21.5zM1282 170q-20 0 -32.5 12.5t-12.5 32.5q0 29 20 51.5t48 22.5q20 0 32.5 -12.5t12.5 -32.5q0 -29 -20 -51.5t-48 -22.5zM778 770h125v-25h-96v-75h78v-23h-78v-100h-29v223zM930 629v141h28v-141q0 -60 56 -60q55 0 55 60v141h29v-141q0 -38 -23 -61t-61 -23
t-61 23t-23 61zM1251 547h-108v223h31v-201h77v-22zM1382 547h-106v223h29v-201h77v-22zM1528 250l-2 -10h-101q5 21 21 35t39 14q19 0 31 -10.5t12 -28.5zM1706 260q14 0 23.5 -10.5t9.5 -24.5q0 -23 -13.5 -40t-35.5 -17q-31 0 -31 33q0 22 12.5 40.5t34.5 18.5zM3465 440
v-440h-3424v440h3424zM1993 242q0 -28 -19.5 -50t-46.5 -22q-21 0 -33 12t-12 33q0 29 19 51.5t47 22.5q20 0 32.5 -13.5t12.5 -33.5zM2417 170q-21 0 -33 12t-12 33q0 29 18.5 51.5t46.5 22.5q20 0 32.5 -13.5t12.5 -33.5q0 -29 -18.5 -50.5t-46.5 -21.5zM2974 168
q-20 0 -31.5 12.5t-11.5 32.5q0 31 18 53.5t47 22.5q20 0 32.5 -12.5t12.5 -32.5q0 -30 -19.5 -53t-47.5 -23zM1567 547l-84 223h30l70 -192l70 192h30l-84 -223h-32zM1708 770h121v-25h-90v-73h80v-25h-80v-78h90v-22h-121v223zM2013 705q0 -52 -53 -66l55 -92h-35l-53 90
h-35v-90h-28v223h71q33 0 55.5 -16.5t22.5 -48.5zM2118 569q45 0 45 37q0 19 -19 29.5t-41.5 13.5t-41.5 18.5t-19 43.5q0 29 22 45t52 16t51 -14.5t24 -42.5h-32q-1 16 -14.5 24.5t-30.5 8.5q-41 0 -41 -37q0 -19 18.5 -29t41.5 -13.5t41.5 -19t18.5 -43.5q0 -29 -22 -45
t-53 -16t-53.5 15.5t-22.5 45.5h31q3 -37 45 -37zM2230 547v223h29v-223h-29zM2406 772q49 0 81 -32.5t32 -82.5q0 -48 -32 -80t-81 -32q-47 0 -78.5 32.5t-31.5 79.5q0 48 31.5 81.5t78.5 33.5zM2554 547v223h29l116 -178v178h29v-223h-29l-116 176v-176h-29zM2941 696
l59 -69v172h64v-172l59 69l39 -43l-129 -135l-129 135zM3248 696l60 -69v172h63v-172l59 69l37 -43l-129 -135l-129 135zM670 1180v63h45q15 0 25 -9t10 -24q0 -30 -35 -30h-45zM1255 1214l33 -104h-67zM41 874v560h3424v-560h-3424zM2028 1239q35 0 54 -23.5t19 -60.5
t-19 -60.5t-54 -23.5q-37 0 -55.5 23.5t-18.5 60.5t18.5 60.5t55.5 23.5z" />
    <glyph glyph-name="five" unicode="5" 
d="M190 238l23 127h-27l-39 -215h27l14 69l50 -69h36l-61 79l88 80h-37zM385 311q-41 0 -68.5 -29.5t-27.5 -70.5q0 -31 18 -48.5t49 -17.5q26 0 49 14.5t33 39.5h-28q-16 -31 -50 -31q-20 0 -32.5 11.5t-12.5 31.5v8h129q0 2 3.5 13.5t3.5 17.5q0 28 -18.5 44.5t-47.5 16.5
zM512 279l6 30h-26l-29 -159h26q2 10 4 29.5t3.5 31.5t6.5 27.5t12 24.5t19.5 15.5t30.5 6.5l4 26q-38 0 -57 -32zM659 311q-40 0 -67 -29.5t-27 -70.5q0 -30 18 -48t48 -18q26 0 49 14.5t35 39.5h-29q-16 -31 -51 -31q-43 0 -43 43v8h129q4 20 4 31q0 28 -18.5 44.5
t-47.5 16.5zM836 311q-39 0 -67 -30.5t-28 -69.5q0 -28 17.5 -47t46.5 -19q42 0 65 33l-4 -28h27l29 159h-27l-6 -28q-12 30 -53 30zM973 350l-8 -41h-21l-4 -22h21q-17 -94 -17 -107q0 -30 37 -30h25l4 22q-30 0 -35 2l-4 10q1 18 7.5 54t8.5 49h43l4 22h-43l8 41h-26z
M1104 180l-27 129h-28l36 -159l-47 -76h29l137 235h-26zM1247 279l6 30h-26l-43 -237h26l19 106q14 -33 55 -33q39 0 65.5 31.5t26.5 71.5q0 28 -17 45.5t-46 17.5q-40 0 -66 -32zM1489 311q-40 0 -67 -29.5t-27 -70.5q0 -31 17.5 -48.5t47.5 -17.5q26 0 49 14.5t35 39.5
h-28q-16 -31 -52 -31q-43 0 -43 43v8h129q4 20 4 31q0 29 -18 45t-47 16zM1724 336q-63 0 -106 -43t-43 -105q0 -46 30 -72t76 -26q28 0 58 10l-4 19q-23 -10 -49 -10q-40 0 -64.5 20.5t-24.5 60.5q0 53 35 90t88 37q40 0 64 -20.5t24 -58.5q0 -25 -9.5 -49.5t-29.5 -24.5
q-14 0 -14 18q0 14 2.5 29.5t8 36.5t6.5 28h-25l-2 -18q-11 23 -39 23q-31 0 -51.5 -26t-20.5 -58q0 -22 13 -36t36 -14q32 0 52 27q3 -27 32 -27q31 0 47.5 29t16.5 62q0 46 -30.5 72t-76.5 26zM1917 145q42 0 65 33q-4 -28 -7.5 -42t-18 -29t-39.5 -15q-17 0 -30.5 8.5
t-14.5 24.5h-27v-2q0 -27 20 -40t48 -13q34 0 59 20.5t31 54.5l29 164h-27l-4 -28q-12 30 -55 30q-39 0 -66 -30.5t-27 -69.5q0 -28 17.5 -47t46.5 -19zM2095 287l4 22h-26l-29 -159h27l16 88q11 51 55 51q35 0 35 -37q0 -14 -16 -102h26q1 6 3 23.5t3.5 30t6 30t11 28.5
t18.5 19t28 8q37 0 37 -37q0 -15 -3.5 -32t-8.5 -38t-7 -32h27q2 11 7 34t8 41t3 35q0 51 -53 51q-45 0 -63 -35q-8 35 -54 35q-34 0 -55 -24zM2437 311q-40 0 -67 -30t-27 -70q0 -28 17 -47t46 -19q43 0 66 33l-4 -28h26l29 159h-29l-4 -28q-6 14 -21.5 22t-31.5 8z
M2562 150l29 159h-27l-29 -159h27zM1892 662h43q47 0 47 43q0 40 -47 40h-43v-83zM2406 569q37 0 59.5 25t22.5 63t-22.5 64.5t-59.5 26.5t-59.5 -26.5t-22.5 -64.5t22.5 -63t59.5 -25zM2589 371l-17 -6l-6 -15l4 -10l10 -4l17 6l6 14l-4 11zM2601 150h27l38 215h-26z
M2699 178l-12 4l-14 -6l-7 -14l5 -10l10 -5l14 7l8 14zM2824 311q-40 0 -67 -29.5t-27 -70.5q0 -30 18 -48t48 -18q28 0 50.5 15t32.5 41h-28q-17 -33 -51 -33q-41 0 -41 45q0 30 16 53t45 23q16 0 28 -8.5t13 -22.5h29q-1 26 -19.5 39.5t-46.5 13.5zM2998 311
q-41 0 -68.5 -29t-27.5 -69q0 -30 19 -49t49 -19q41 0 69.5 29.5t28.5 69.5q0 30 -19.5 48.5t-50.5 18.5zM3133 287l5 22h-27l-29 -159h27l16 88q3 23 17 37t36 14q37 0 37 -37q0 -19 -7.5 -55.5t-8.5 -46.5h25q1 7 3.5 28.5t6 37.5t10 34.5t19.5 28.5t32 10q37 0 37 -37
q0 -15 -3 -32t-8 -38.5t-7 -31.5h26q2 12 7.5 34t8.5 41t3 35q0 24 -15.5 37.5t-40.5 13.5q-42 0 -63 -35q-8 35 -51 35q-38 0 -56 -24zM420 967v280h100v94h-315v-94h98v-280h117zM670 967v133l69 -133h129l-80 143q37 11 58.5 40t21.5 69q0 59 -40 90.5t-101 31.5h-176
v-374h119zM907 1341v-374h117v374h-117zM1192 1022h125l18 -55h125l-137 374h-135l-137 -374h123zM1487 1341v-374h231v88h-114v286h-117zM2028 963q82 0 137 55t55 137t-55 137.5t-137 55.5q-83 0 -139 -55.5t-56 -137.5q0 -81 56.5 -136.5t138.5 -55.5zM2380 1155
l125 -188h116v374h-116v-192l-125 192h-119v-374h119v188zM2675 1341v-374h231v88h-115v286h-116zM3052 967h116v112l135 262h-133l-59 -133l-59 133h-136l136 -262v-112zM201 627l59 69l37 -43l-129 -135l-129 135l37 43l59 -69v172h66v-172zM422 250v-10h-103
q6 21 22.5 35t37.5 14q19 0 31 -10.5t12 -28.5zM383 696l59 -69v172h64v-172l59 69l39 -43l-129 -135l-129 135zM698 250l-2 -10h-100q5 21 21 35t38 14q19 0 31 -10.5t12 -28.5zM815 170q-21 0 -33 12t-12 33q0 29 19 51.5t47 22.5q21 0 33 -13t12 -34q0 -29 -19 -50.5
t-47 -21.5zM1282 170q-20 0 -32.5 12.5t-12.5 32.5q0 29 20 51.5t48 22.5q20 0 32.5 -12.5t12.5 -32.5q0 -29 -20 -51.5t-48 -22.5zM778 770h125v-25h-96v-75h78v-23h-78v-100h-29v223zM930 629v141h28v-141q0 -60 56 -60q55 0 55 60v141h29v-141q0 -38 -23 -61t-61 -23
t-61 23t-23 61zM1251 547h-108v223h31v-201h77v-22zM1382 547h-106v223h29v-201h77v-22zM1528 250l-2 -10h-101q5 21 21 35t39 14q19 0 31 -10.5t12 -28.5zM1706 260q14 0 23.5 -10.5t9.5 -24.5q0 -23 -13.5 -40t-35.5 -17q-31 0 -31 33q0 22 12.5 40.5t34.5 18.5zM3465 440
v-440h-3424v440h3424zM1993 242q0 -28 -19.5 -50t-46.5 -22q-21 0 -33 12t-12 33q0 29 19 51.5t47 22.5q20 0 32.5 -13.5t12.5 -33.5zM2417 170q-21 0 -33 12t-12 33q0 29 18.5 51.5t46.5 22.5q20 0 32.5 -13.5t12.5 -33.5q0 -29 -18.5 -50.5t-46.5 -21.5zM2974 168
q-20 0 -31.5 12.5t-11.5 32.5q0 31 18 53.5t47 22.5q20 0 32.5 -12.5t12.5 -32.5q0 -30 -19.5 -53t-47.5 -23zM1567 547l-84 223h30l70 -192l70 192h30l-84 -223h-32zM1708 770h121v-25h-90v-73h80v-25h-80v-78h90v-22h-121v223zM2013 705q0 -52 -53 -66l55 -92h-35l-53 90
h-35v-90h-28v223h71q33 0 55.5 -16.5t22.5 -48.5zM2118 569q45 0 45 37q0 19 -19 29.5t-41.5 13.5t-41.5 18.5t-19 43.5q0 29 22 45t52 16t51 -14.5t24 -42.5h-32q-1 16 -14.5 24.5t-30.5 8.5q-41 0 -41 -37q0 -19 18.5 -29t41.5 -13.5t41.5 -19t18.5 -43.5q0 -29 -22 -45
t-53 -16t-53.5 15.5t-22.5 45.5h31q3 -37 45 -37zM2230 547v223h29v-223h-29zM2406 772q49 0 81 -32.5t32 -82.5q0 -48 -32 -80t-81 -32q-47 0 -78.5 32.5t-31.5 79.5q0 48 31.5 81.5t78.5 33.5zM2554 547v223h29l116 -178v178h29v-223h-29l-116 176v-176h-29zM2941 696
l59 -69v172h64v-172l59 69l39 -43l-129 -135l-129 135zM3248 696l60 -69v172h63v-172l59 69l37 -43l-129 -135l-129 135zM670 1180v63h45q15 0 25 -9t10 -24q0 -30 -35 -30h-45zM1255 1214l33 -104h-67zM41 874v560h3424v-560h-3424zM2028 1239q35 0 54 -23.5t19 -60.5
t-19 -60.5t-54 -23.5q-37 0 -55.5 23.5t-18.5 60.5t18.5 60.5t55.5 23.5z" />
    <glyph glyph-name="six" unicode="6" 
d="M190 238l23 127h-27l-39 -215h27l14 69l50 -69h36l-61 79l88 80h-37zM385 311q-41 0 -68.5 -29.5t-27.5 -70.5q0 -31 18 -48.5t49 -17.5q26 0 49 14.5t33 39.5h-28q-16 -31 -50 -31q-20 0 -32.5 11.5t-12.5 31.5v8h129q0 2 3.5 13.5t3.5 17.5q0 28 -18.5 44.5t-47.5 16.5
zM512 279l6 30h-26l-29 -159h26q2 10 4 29.5t3.5 31.5t6.5 27.5t12 24.5t19.5 15.5t30.5 6.5l4 26q-38 0 -57 -32zM659 311q-40 0 -67 -29.5t-27 -70.5q0 -30 18 -48t48 -18q26 0 49 14.5t35 39.5h-29q-16 -31 -51 -31q-43 0 -43 43v8h129q4 20 4 31q0 28 -18.5 44.5
t-47.5 16.5zM836 311q-39 0 -67 -30.5t-28 -69.5q0 -28 17.5 -47t46.5 -19q42 0 65 33l-4 -28h27l29 159h-27l-6 -28q-12 30 -53 30zM973 350l-8 -41h-21l-4 -22h21q-17 -94 -17 -107q0 -30 37 -30h25l4 22q-30 0 -35 2l-4 10q1 18 7.5 54t8.5 49h43l4 22h-43l8 41h-26z
M1104 180l-27 129h-28l36 -159l-47 -76h29l137 235h-26zM1247 279l6 30h-26l-43 -237h26l19 106q14 -33 55 -33q39 0 65.5 31.5t26.5 71.5q0 28 -17 45.5t-46 17.5q-40 0 -66 -32zM1489 311q-40 0 -67 -29.5t-27 -70.5q0 -31 17.5 -48.5t47.5 -17.5q26 0 49 14.5t35 39.5
h-28q-16 -31 -52 -31q-43 0 -43 43v8h129q4 20 4 31q0 29 -18 45t-47 16zM1724 336q-63 0 -106 -43t-43 -105q0 -46 30 -72t76 -26q28 0 58 10l-4 19q-23 -10 -49 -10q-40 0 -64.5 20.5t-24.5 60.5q0 53 35 90t88 37q40 0 64 -20.5t24 -58.5q0 -25 -9.5 -49.5t-29.5 -24.5
q-14 0 -14 18q0 14 2.5 29.5t8 36.5t6.5 28h-25l-2 -18q-11 23 -39 23q-31 0 -51.5 -26t-20.5 -58q0 -22 13 -36t36 -14q32 0 52 27q3 -27 32 -27q31 0 47.5 29t16.5 62q0 46 -30.5 72t-76.5 26zM1917 145q42 0 65 33q-4 -28 -7.5 -42t-18 -29t-39.5 -15q-17 0 -30.5 8.5
t-14.5 24.5h-27v-2q0 -27 20 -40t48 -13q34 0 59 20.5t31 54.5l29 164h-27l-4 -28q-12 30 -55 30q-39 0 -66 -30.5t-27 -69.5q0 -28 17.5 -47t46.5 -19zM2095 287l4 22h-26l-29 -159h27l16 88q11 51 55 51q35 0 35 -37q0 -14 -16 -102h26q1 6 3 23.5t3.5 30t6 30t11 28.5
t18.5 19t28 8q37 0 37 -37q0 -15 -3.5 -32t-8.5 -38t-7 -32h27q2 11 7 34t8 41t3 35q0 51 -53 51q-45 0 -63 -35q-8 35 -54 35q-34 0 -55 -24zM2437 311q-40 0 -67 -30t-27 -70q0 -28 17 -47t46 -19q43 0 66 33l-4 -28h26l29 159h-29l-4 -28q-6 14 -21.5 22t-31.5 8z
M2562 150l29 159h-27l-29 -159h27zM1892 662h43q47 0 47 43q0 40 -47 40h-43v-83zM2406 569q37 0 59.5 25t22.5 63t-22.5 64.5t-59.5 26.5t-59.5 -26.5t-22.5 -64.5t22.5 -63t59.5 -25zM2589 371l-17 -6l-6 -15l4 -10l10 -4l17 6l6 14l-4 11zM2601 150h27l38 215h-26z
M2699 178l-12 4l-14 -6l-7 -14l5 -10l10 -5l14 7l8 14zM2824 311q-40 0 -67 -29.5t-27 -70.5q0 -30 18 -48t48 -18q28 0 50.5 15t32.5 41h-28q-17 -33 -51 -33q-41 0 -41 45q0 30 16 53t45 23q16 0 28 -8.5t13 -22.5h29q-1 26 -19.5 39.5t-46.5 13.5zM2998 311
q-41 0 -68.5 -29t-27.5 -69q0 -30 19 -49t49 -19q41 0 69.5 29.5t28.5 69.5q0 30 -19.5 48.5t-50.5 18.5zM3133 287l5 22h-27l-29 -159h27l16 88q3 23 17 37t36 14q37 0 37 -37q0 -19 -7.5 -55.5t-8.5 -46.5h25q1 7 3.5 28.5t6 37.5t10 34.5t19.5 28.5t32 10q37 0 37 -37
q0 -15 -3 -32t-8 -38.5t-7 -31.5h26q2 12 7.5 34t8.5 41t3 35q0 24 -15.5 37.5t-40.5 13.5q-42 0 -63 -35q-8 35 -51 35q-38 0 -56 -24zM420 967v280h100v94h-315v-94h98v-280h117zM670 967v133l69 -133h129l-80 143q37 11 58.5 40t21.5 69q0 59 -40 90.5t-101 31.5h-176
v-374h119zM907 1341v-374h117v374h-117zM1192 1022h125l18 -55h125l-137 374h-135l-137 -374h123zM1487 1341v-374h231v88h-114v286h-117zM2028 963q82 0 137 55t55 137t-55 137.5t-137 55.5q-83 0 -139 -55.5t-56 -137.5q0 -81 56.5 -136.5t138.5 -55.5zM2380 1155
l125 -188h116v374h-116v-192l-125 192h-119v-374h119v188zM2675 1341v-374h231v88h-115v286h-116zM3052 967h116v112l135 262h-133l-59 -133l-59 133h-136l136 -262v-112zM201 627l59 69l37 -43l-129 -135l-129 135l37 43l59 -69v172h66v-172zM422 250v-10h-103
q6 21 22.5 35t37.5 14q19 0 31 -10.5t12 -28.5zM383 696l59 -69v172h64v-172l59 69l39 -43l-129 -135l-129 135zM698 250l-2 -10h-100q5 21 21 35t38 14q19 0 31 -10.5t12 -28.5zM815 170q-21 0 -33 12t-12 33q0 29 19 51.5t47 22.5q21 0 33 -13t12 -34q0 -29 -19 -50.5
t-47 -21.5zM1282 170q-20 0 -32.5 12.5t-12.5 32.5q0 29 20 51.5t48 22.5q20 0 32.5 -12.5t12.5 -32.5q0 -29 -20 -51.5t-48 -22.5zM778 770h125v-25h-96v-75h78v-23h-78v-100h-29v223zM930 629v141h28v-141q0 -60 56 -60q55 0 55 60v141h29v-141q0 -38 -23 -61t-61 -23
t-61 23t-23 61zM1251 547h-108v223h31v-201h77v-22zM1382 547h-106v223h29v-201h77v-22zM1528 250l-2 -10h-101q5 21 21 35t39 14q19 0 31 -10.5t12 -28.5zM1706 260q14 0 23.5 -10.5t9.5 -24.5q0 -23 -13.5 -40t-35.5 -17q-31 0 -31 33q0 22 12.5 40.5t34.5 18.5zM3465 440
v-440h-3424v440h3424zM1993 242q0 -28 -19.5 -50t-46.5 -22q-21 0 -33 12t-12 33q0 29 19 51.5t47 22.5q20 0 32.5 -13.5t12.5 -33.5zM2417 170q-21 0 -33 12t-12 33q0 29 18.5 51.5t46.5 22.5q20 0 32.5 -13.5t12.5 -33.5q0 -29 -18.5 -50.5t-46.5 -21.5zM2974 168
q-20 0 -31.5 12.5t-11.5 32.5q0 31 18 53.5t47 22.5q20 0 32.5 -12.5t12.5 -32.5q0 -30 -19.5 -53t-47.5 -23zM1567 547l-84 223h30l70 -192l70 192h30l-84 -223h-32zM1708 770h121v-25h-90v-73h80v-25h-80v-78h90v-22h-121v223zM2013 705q0 -52 -53 -66l55 -92h-35l-53 90
h-35v-90h-28v223h71q33 0 55.5 -16.5t22.5 -48.5zM2118 569q45 0 45 37q0 19 -19 29.5t-41.5 13.5t-41.5 18.5t-19 43.5q0 29 22 45t52 16t51 -14.5t24 -42.5h-32q-1 16 -14.5 24.5t-30.5 8.5q-41 0 -41 -37q0 -19 18.5 -29t41.5 -13.5t41.5 -19t18.5 -43.5q0 -29 -22 -45
t-53 -16t-53.5 15.5t-22.5 45.5h31q3 -37 45 -37zM2230 547v223h29v-223h-29zM2406 772q49 0 81 -32.5t32 -82.5q0 -48 -32 -80t-81 -32q-47 0 -78.5 32.5t-31.5 79.5q0 48 31.5 81.5t78.5 33.5zM2554 547v223h29l116 -178v178h29v-223h-29l-116 176v-176h-29zM2941 696
l59 -69v172h64v-172l59 69l39 -43l-129 -135l-129 135zM3248 696l60 -69v172h63v-172l59 69l37 -43l-129 -135l-129 135zM670 1180v63h45q15 0 25 -9t10 -24q0 -30 -35 -30h-45zM1255 1214l33 -104h-67zM41 874v560h3424v-560h-3424zM2028 1239q35 0 54 -23.5t19 -60.5
t-19 -60.5t-54 -23.5q-37 0 -55.5 23.5t-18.5 60.5t18.5 60.5t55.5 23.5z" />
    <glyph glyph-name="seven" unicode="7" 
d="M190 238l23 127h-27l-39 -215h27l14 69l50 -69h36l-61 79l88 80h-37zM385 311q-41 0 -68.5 -29.5t-27.5 -70.5q0 -31 18 -48.5t49 -17.5q26 0 49 14.5t33 39.5h-28q-16 -31 -50 -31q-20 0 -32.5 11.5t-12.5 31.5v8h129q0 2 3.5 13.5t3.5 17.5q0 28 -18.5 44.5t-47.5 16.5
zM512 279l6 30h-26l-29 -159h26q2 10 4 29.5t3.5 31.5t6.5 27.5t12 24.5t19.5 15.5t30.5 6.5l4 26q-38 0 -57 -32zM659 311q-40 0 -67 -29.5t-27 -70.5q0 -30 18 -48t48 -18q26 0 49 14.5t35 39.5h-29q-16 -31 -51 -31q-43 0 -43 43v8h129q4 20 4 31q0 28 -18.5 44.5
t-47.5 16.5zM836 311q-39 0 -67 -30.5t-28 -69.5q0 -28 17.5 -47t46.5 -19q42 0 65 33l-4 -28h27l29 159h-27l-6 -28q-12 30 -53 30zM973 350l-8 -41h-21l-4 -22h21q-17 -94 -17 -107q0 -30 37 -30h25l4 22q-30 0 -35 2l-4 10q1 18 7.5 54t8.5 49h43l4 22h-43l8 41h-26z
M1104 180l-27 129h-28l36 -159l-47 -76h29l137 235h-26zM1247 279l6 30h-26l-43 -237h26l19 106q14 -33 55 -33q39 0 65.5 31.5t26.5 71.5q0 28 -17 45.5t-46 17.5q-40 0 -66 -32zM1489 311q-40 0 -67 -29.5t-27 -70.5q0 -31 17.5 -48.5t47.5 -17.5q26 0 49 14.5t35 39.5
h-28q-16 -31 -52 -31q-43 0 -43 43v8h129q4 20 4 31q0 29 -18 45t-47 16zM1724 336q-63 0 -106 -43t-43 -105q0 -46 30 -72t76 -26q28 0 58 10l-4 19q-23 -10 -49 -10q-40 0 -64.5 20.5t-24.5 60.5q0 53 35 90t88 37q40 0 64 -20.5t24 -58.5q0 -25 -9.5 -49.5t-29.5 -24.5
q-14 0 -14 18q0 14 2.5 29.5t8 36.5t6.5 28h-25l-2 -18q-11 23 -39 23q-31 0 -51.5 -26t-20.5 -58q0 -22 13 -36t36 -14q32 0 52 27q3 -27 32 -27q31 0 47.5 29t16.5 62q0 46 -30.5 72t-76.5 26zM1917 145q42 0 65 33q-4 -28 -7.5 -42t-18 -29t-39.5 -15q-17 0 -30.5 8.5
t-14.5 24.5h-27v-2q0 -27 20 -40t48 -13q34 0 59 20.5t31 54.5l29 164h-27l-4 -28q-12 30 -55 30q-39 0 -66 -30.5t-27 -69.5q0 -28 17.5 -47t46.5 -19zM2095 287l4 22h-26l-29 -159h27l16 88q11 51 55 51q35 0 35 -37q0 -14 -16 -102h26q1 6 3 23.5t3.5 30t6 30t11 28.5
t18.5 19t28 8q37 0 37 -37q0 -15 -3.5 -32t-8.5 -38t-7 -32h27q2 11 7 34t8 41t3 35q0 51 -53 51q-45 0 -63 -35q-8 35 -54 35q-34 0 -55 -24zM2437 311q-40 0 -67 -30t-27 -70q0 -28 17 -47t46 -19q43 0 66 33l-4 -28h26l29 159h-29l-4 -28q-6 14 -21.5 22t-31.5 8z
M2562 150l29 159h-27l-29 -159h27zM1892 662h43q47 0 47 43q0 40 -47 40h-43v-83zM2406 569q37 0 59.5 25t22.5 63t-22.5 64.5t-59.5 26.5t-59.5 -26.5t-22.5 -64.5t22.5 -63t59.5 -25zM2589 371l-17 -6l-6 -15l4 -10l10 -4l17 6l6 14l-4 11zM2601 150h27l38 215h-26z
M2699 178l-12 4l-14 -6l-7 -14l5 -10l10 -5l14 7l8 14zM2824 311q-40 0 -67 -29.5t-27 -70.5q0 -30 18 -48t48 -18q28 0 50.5 15t32.5 41h-28q-17 -33 -51 -33q-41 0 -41 45q0 30 16 53t45 23q16 0 28 -8.5t13 -22.5h29q-1 26 -19.5 39.5t-46.5 13.5zM2998 311
q-41 0 -68.5 -29t-27.5 -69q0 -30 19 -49t49 -19q41 0 69.5 29.5t28.5 69.5q0 30 -19.5 48.5t-50.5 18.5zM3133 287l5 22h-27l-29 -159h27l16 88q3 23 17 37t36 14q37 0 37 -37q0 -19 -7.5 -55.5t-8.5 -46.5h25q1 7 3.5 28.5t6 37.5t10 34.5t19.5 28.5t32 10q37 0 37 -37
q0 -15 -3 -32t-8 -38.5t-7 -31.5h26q2 12 7.5 34t8.5 41t3 35q0 24 -15.5 37.5t-40.5 13.5q-42 0 -63 -35q-8 35 -51 35q-38 0 -56 -24zM420 967v280h100v94h-315v-94h98v-280h117zM670 967v133l69 -133h129l-80 143q37 11 58.5 40t21.5 69q0 59 -40 90.5t-101 31.5h-176
v-374h119zM907 1341v-374h117v374h-117zM1192 1022h125l18 -55h125l-137 374h-135l-137 -374h123zM1487 1341v-374h231v88h-114v286h-117zM2028 963q82 0 137 55t55 137t-55 137.5t-137 55.5q-83 0 -139 -55.5t-56 -137.5q0 -81 56.5 -136.5t138.5 -55.5zM2380 1155
l125 -188h116v374h-116v-192l-125 192h-119v-374h119v188zM2675 1341v-374h231v88h-115v286h-116zM3052 967h116v112l135 262h-133l-59 -133l-59 133h-136l136 -262v-112zM201 627l59 69l37 -43l-129 -135l-129 135l37 43l59 -69v172h66v-172zM422 250v-10h-103
q6 21 22.5 35t37.5 14q19 0 31 -10.5t12 -28.5zM383 696l59 -69v172h64v-172l59 69l39 -43l-129 -135l-129 135zM698 250l-2 -10h-100q5 21 21 35t38 14q19 0 31 -10.5t12 -28.5zM815 170q-21 0 -33 12t-12 33q0 29 19 51.5t47 22.5q21 0 33 -13t12 -34q0 -29 -19 -50.5
t-47 -21.5zM1282 170q-20 0 -32.5 12.5t-12.5 32.5q0 29 20 51.5t48 22.5q20 0 32.5 -12.5t12.5 -32.5q0 -29 -20 -51.5t-48 -22.5zM778 770h125v-25h-96v-75h78v-23h-78v-100h-29v223zM930 629v141h28v-141q0 -60 56 -60q55 0 55 60v141h29v-141q0 -38 -23 -61t-61 -23
t-61 23t-23 61zM1251 547h-108v223h31v-201h77v-22zM1382 547h-106v223h29v-201h77v-22zM1528 250l-2 -10h-101q5 21 21 35t39 14q19 0 31 -10.5t12 -28.5zM1706 260q14 0 23.5 -10.5t9.5 -24.5q0 -23 -13.5 -40t-35.5 -17q-31 0 -31 33q0 22 12.5 40.5t34.5 18.5zM3465 440
v-440h-3424v440h3424zM1993 242q0 -28 -19.5 -50t-46.5 -22q-21 0 -33 12t-12 33q0 29 19 51.5t47 22.5q20 0 32.5 -13.5t12.5 -33.5zM2417 170q-21 0 -33 12t-12 33q0 29 18.5 51.5t46.5 22.5q20 0 32.5 -13.5t12.5 -33.5q0 -29 -18.5 -50.5t-46.5 -21.5zM2974 168
q-20 0 -31.5 12.5t-11.5 32.5q0 31 18 53.5t47 22.5q20 0 32.5 -12.5t12.5 -32.5q0 -30 -19.5 -53t-47.5 -23zM1567 547l-84 223h30l70 -192l70 192h30l-84 -223h-32zM1708 770h121v-25h-90v-73h80v-25h-80v-78h90v-22h-121v223zM2013 705q0 -52 -53 -66l55 -92h-35l-53 90
h-35v-90h-28v223h71q33 0 55.5 -16.5t22.5 -48.5zM2118 569q45 0 45 37q0 19 -19 29.5t-41.5 13.5t-41.5 18.5t-19 43.5q0 29 22 45t52 16t51 -14.5t24 -42.5h-32q-1 16 -14.5 24.5t-30.5 8.5q-41 0 -41 -37q0 -19 18.5 -29t41.5 -13.5t41.5 -19t18.5 -43.5q0 -29 -22 -45
t-53 -16t-53.5 15.5t-22.5 45.5h31q3 -37 45 -37zM2230 547v223h29v-223h-29zM2406 772q49 0 81 -32.5t32 -82.5q0 -48 -32 -80t-81 -32q-47 0 -78.5 32.5t-31.5 79.5q0 48 31.5 81.5t78.5 33.5zM2554 547v223h29l116 -178v178h29v-223h-29l-116 176v-176h-29zM2941 696
l59 -69v172h64v-172l59 69l39 -43l-129 -135l-129 135zM3248 696l60 -69v172h63v-172l59 69l37 -43l-129 -135l-129 135zM670 1180v63h45q15 0 25 -9t10 -24q0 -30 -35 -30h-45zM1255 1214l33 -104h-67zM41 874v560h3424v-560h-3424zM2028 1239q35 0 54 -23.5t19 -60.5
t-19 -60.5t-54 -23.5q-37 0 -55.5 23.5t-18.5 60.5t18.5 60.5t55.5 23.5z" />
    <glyph glyph-name="eight" unicode="8" 
d="M190 238l23 127h-27l-39 -215h27l14 69l50 -69h36l-61 79l88 80h-37zM385 311q-41 0 -68.5 -29.5t-27.5 -70.5q0 -31 18 -48.5t49 -17.5q26 0 49 14.5t33 39.5h-28q-16 -31 -50 -31q-20 0 -32.5 11.5t-12.5 31.5v8h129q0 2 3.5 13.5t3.5 17.5q0 28 -18.5 44.5t-47.5 16.5
zM512 279l6 30h-26l-29 -159h26q2 10 4 29.5t3.5 31.5t6.5 27.5t12 24.5t19.5 15.5t30.5 6.5l4 26q-38 0 -57 -32zM659 311q-40 0 -67 -29.5t-27 -70.5q0 -30 18 -48t48 -18q26 0 49 14.5t35 39.5h-29q-16 -31 -51 -31q-43 0 -43 43v8h129q4 20 4 31q0 28 -18.5 44.5
t-47.5 16.5zM836 311q-39 0 -67 -30.5t-28 -69.5q0 -28 17.5 -47t46.5 -19q42 0 65 33l-4 -28h27l29 159h-27l-6 -28q-12 30 -53 30zM973 350l-8 -41h-21l-4 -22h21q-17 -94 -17 -107q0 -30 37 -30h25l4 22q-30 0 -35 2l-4 10q1 18 7.5 54t8.5 49h43l4 22h-43l8 41h-26z
M1104 180l-27 129h-28l36 -159l-47 -76h29l137 235h-26zM1247 279l6 30h-26l-43 -237h26l19 106q14 -33 55 -33q39 0 65.5 31.5t26.5 71.5q0 28 -17 45.5t-46 17.5q-40 0 -66 -32zM1489 311q-40 0 -67 -29.5t-27 -70.5q0 -31 17.5 -48.5t47.5 -17.5q26 0 49 14.5t35 39.5
h-28q-16 -31 -52 -31q-43 0 -43 43v8h129q4 20 4 31q0 29 -18 45t-47 16zM1724 336q-63 0 -106 -43t-43 -105q0 -46 30 -72t76 -26q28 0 58 10l-4 19q-23 -10 -49 -10q-40 0 -64.5 20.5t-24.5 60.5q0 53 35 90t88 37q40 0 64 -20.5t24 -58.5q0 -25 -9.5 -49.5t-29.5 -24.5
q-14 0 -14 18q0 14 2.5 29.5t8 36.5t6.5 28h-25l-2 -18q-11 23 -39 23q-31 0 -51.5 -26t-20.5 -58q0 -22 13 -36t36 -14q32 0 52 27q3 -27 32 -27q31 0 47.5 29t16.5 62q0 46 -30.5 72t-76.5 26zM1917 145q42 0 65 33q-4 -28 -7.5 -42t-18 -29t-39.5 -15q-17 0 -30.5 8.5
t-14.5 24.5h-27v-2q0 -27 20 -40t48 -13q34 0 59 20.5t31 54.5l29 164h-27l-4 -28q-12 30 -55 30q-39 0 -66 -30.5t-27 -69.5q0 -28 17.5 -47t46.5 -19zM2095 287l4 22h-26l-29 -159h27l16 88q11 51 55 51q35 0 35 -37q0 -14 -16 -102h26q1 6 3 23.5t3.5 30t6 30t11 28.5
t18.5 19t28 8q37 0 37 -37q0 -15 -3.5 -32t-8.5 -38t-7 -32h27q2 11 7 34t8 41t3 35q0 51 -53 51q-45 0 -63 -35q-8 35 -54 35q-34 0 -55 -24zM2437 311q-40 0 -67 -30t-27 -70q0 -28 17 -47t46 -19q43 0 66 33l-4 -28h26l29 159h-29l-4 -28q-6 14 -21.5 22t-31.5 8z
M2562 150l29 159h-27l-29 -159h27zM1892 662h43q47 0 47 43q0 40 -47 40h-43v-83zM2406 569q37 0 59.5 25t22.5 63t-22.5 64.5t-59.5 26.5t-59.5 -26.5t-22.5 -64.5t22.5 -63t59.5 -25zM2589 371l-17 -6l-6 -15l4 -10l10 -4l17 6l6 14l-4 11zM2601 150h27l38 215h-26z
M2699 178l-12 4l-14 -6l-7 -14l5 -10l10 -5l14 7l8 14zM2824 311q-40 0 -67 -29.5t-27 -70.5q0 -30 18 -48t48 -18q28 0 50.5 15t32.5 41h-28q-17 -33 -51 -33q-41 0 -41 45q0 30 16 53t45 23q16 0 28 -8.5t13 -22.5h29q-1 26 -19.5 39.5t-46.5 13.5zM2998 311
q-41 0 -68.5 -29t-27.5 -69q0 -30 19 -49t49 -19q41 0 69.5 29.5t28.5 69.5q0 30 -19.5 48.5t-50.5 18.5zM3133 287l5 22h-27l-29 -159h27l16 88q3 23 17 37t36 14q37 0 37 -37q0 -19 -7.5 -55.5t-8.5 -46.5h25q1 7 3.5 28.5t6 37.5t10 34.5t19.5 28.5t32 10q37 0 37 -37
q0 -15 -3 -32t-8 -38.5t-7 -31.5h26q2 12 7.5 34t8.5 41t3 35q0 24 -15.5 37.5t-40.5 13.5q-42 0 -63 -35q-8 35 -51 35q-38 0 -56 -24zM420 967v280h100v94h-315v-94h98v-280h117zM670 967v133l69 -133h129l-80 143q37 11 58.5 40t21.5 69q0 59 -40 90.5t-101 31.5h-176
v-374h119zM907 1341v-374h117v374h-117zM1192 1022h125l18 -55h125l-137 374h-135l-137 -374h123zM1487 1341v-374h231v88h-114v286h-117zM2028 963q82 0 137 55t55 137t-55 137.5t-137 55.5q-83 0 -139 -55.5t-56 -137.5q0 -81 56.5 -136.5t138.5 -55.5zM2380 1155
l125 -188h116v374h-116v-192l-125 192h-119v-374h119v188zM2675 1341v-374h231v88h-115v286h-116zM3052 967h116v112l135 262h-133l-59 -133l-59 133h-136l136 -262v-112zM201 627l59 69l37 -43l-129 -135l-129 135l37 43l59 -69v172h66v-172zM422 250v-10h-103
q6 21 22.5 35t37.5 14q19 0 31 -10.5t12 -28.5zM383 696l59 -69v172h64v-172l59 69l39 -43l-129 -135l-129 135zM698 250l-2 -10h-100q5 21 21 35t38 14q19 0 31 -10.5t12 -28.5zM815 170q-21 0 -33 12t-12 33q0 29 19 51.5t47 22.5q21 0 33 -13t12 -34q0 -29 -19 -50.5
t-47 -21.5zM1282 170q-20 0 -32.5 12.5t-12.5 32.5q0 29 20 51.5t48 22.5q20 0 32.5 -12.5t12.5 -32.5q0 -29 -20 -51.5t-48 -22.5zM778 770h125v-25h-96v-75h78v-23h-78v-100h-29v223zM930 629v141h28v-141q0 -60 56 -60q55 0 55 60v141h29v-141q0 -38 -23 -61t-61 -23
t-61 23t-23 61zM1251 547h-108v223h31v-201h77v-22zM1382 547h-106v223h29v-201h77v-22zM1528 250l-2 -10h-101q5 21 21 35t39 14q19 0 31 -10.5t12 -28.5zM1706 260q14 0 23.5 -10.5t9.5 -24.5q0 -23 -13.5 -40t-35.5 -17q-31 0 -31 33q0 22 12.5 40.5t34.5 18.5zM3465 440
v-440h-3424v440h3424zM1993 242q0 -28 -19.5 -50t-46.5 -22q-21 0 -33 12t-12 33q0 29 19 51.5t47 22.5q20 0 32.5 -13.5t12.5 -33.5zM2417 170q-21 0 -33 12t-12 33q0 29 18.5 51.5t46.5 22.5q20 0 32.5 -13.5t12.5 -33.5q0 -29 -18.5 -50.5t-46.5 -21.5zM2974 168
q-20 0 -31.5 12.5t-11.5 32.5q0 31 18 53.5t47 22.5q20 0 32.5 -12.5t12.5 -32.5q0 -30 -19.5 -53t-47.5 -23zM1567 547l-84 223h30l70 -192l70 192h30l-84 -223h-32zM1708 770h121v-25h-90v-73h80v-25h-80v-78h90v-22h-121v223zM2013 705q0 -52 -53 -66l55 -92h-35l-53 90
h-35v-90h-28v223h71q33 0 55.5 -16.5t22.5 -48.5zM2118 569q45 0 45 37q0 19 -19 29.5t-41.5 13.5t-41.5 18.5t-19 43.5q0 29 22 45t52 16t51 -14.5t24 -42.5h-32q-1 16 -14.5 24.5t-30.5 8.5q-41 0 -41 -37q0 -19 18.5 -29t41.5 -13.5t41.5 -19t18.5 -43.5q0 -29 -22 -45
t-53 -16t-53.5 15.5t-22.5 45.5h31q3 -37 45 -37zM2230 547v223h29v-223h-29zM2406 772q49 0 81 -32.5t32 -82.5q0 -48 -32 -80t-81 -32q-47 0 -78.5 32.5t-31.5 79.5q0 48 31.5 81.5t78.5 33.5zM2554 547v223h29l116 -178v178h29v-223h-29l-116 176v-176h-29zM2941 696
l59 -69v172h64v-172l59 69l39 -43l-129 -135l-129 135zM3248 696l60 -69v172h63v-172l59 69l37 -43l-129 -135l-129 135zM670 1180v63h45q15 0 25 -9t10 -24q0 -30 -35 -30h-45zM1255 1214l33 -104h-67zM41 874v560h3424v-560h-3424zM2028 1239q35 0 54 -23.5t19 -60.5
t-19 -60.5t-54 -23.5q-37 0 -55.5 23.5t-18.5 60.5t18.5 60.5t55.5 23.5z" />
    <glyph glyph-name="nine" unicode="9" 
d="M190 238l23 127h-27l-39 -215h27l14 69l50 -69h36l-61 79l88 80h-37zM385 311q-41 0 -68.5 -29.5t-27.5 -70.5q0 -31 18 -48.5t49 -17.5q26 0 49 14.5t33 39.5h-28q-16 -31 -50 -31q-20 0 -32.5 11.5t-12.5 31.5v8h129q0 2 3.5 13.5t3.5 17.5q0 28 -18.5 44.5t-47.5 16.5
zM512 279l6 30h-26l-29 -159h26q2 10 4 29.5t3.5 31.5t6.5 27.5t12 24.5t19.5 15.5t30.5 6.5l4 26q-38 0 -57 -32zM659 311q-40 0 -67 -29.5t-27 -70.5q0 -30 18 -48t48 -18q26 0 49 14.5t35 39.5h-29q-16 -31 -51 -31q-43 0 -43 43v8h129q4 20 4 31q0 28 -18.5 44.5
t-47.5 16.5zM836 311q-39 0 -67 -30.5t-28 -69.5q0 -28 17.5 -47t46.5 -19q42 0 65 33l-4 -28h27l29 159h-27l-6 -28q-12 30 -53 30zM973 350l-8 -41h-21l-4 -22h21q-17 -94 -17 -107q0 -30 37 -30h25l4 22q-30 0 -35 2l-4 10q1 18 7.5 54t8.5 49h43l4 22h-43l8 41h-26z
M1104 180l-27 129h-28l36 -159l-47 -76h29l137 235h-26zM1247 279l6 30h-26l-43 -237h26l19 106q14 -33 55 -33q39 0 65.5 31.5t26.5 71.5q0 28 -17 45.5t-46 17.5q-40 0 -66 -32zM1489 311q-40 0 -67 -29.5t-27 -70.5q0 -31 17.5 -48.5t47.5 -17.5q26 0 49 14.5t35 39.5
h-28q-16 -31 -52 -31q-43 0 -43 43v8h129q4 20 4 31q0 29 -18 45t-47 16zM1724 336q-63 0 -106 -43t-43 -105q0 -46 30 -72t76 -26q28 0 58 10l-4 19q-23 -10 -49 -10q-40 0 -64.5 20.5t-24.5 60.5q0 53 35 90t88 37q40 0 64 -20.5t24 -58.5q0 -25 -9.5 -49.5t-29.5 -24.5
q-14 0 -14 18q0 14 2.5 29.5t8 36.5t6.5 28h-25l-2 -18q-11 23 -39 23q-31 0 -51.5 -26t-20.5 -58q0 -22 13 -36t36 -14q32 0 52 27q3 -27 32 -27q31 0 47.5 29t16.5 62q0 46 -30.5 72t-76.5 26zM1917 145q42 0 65 33q-4 -28 -7.5 -42t-18 -29t-39.5 -15q-17 0 -30.5 8.5
t-14.5 24.5h-27v-2q0 -27 20 -40t48 -13q34 0 59 20.5t31 54.5l29 164h-27l-4 -28q-12 30 -55 30q-39 0 -66 -30.5t-27 -69.5q0 -28 17.5 -47t46.5 -19zM2095 287l4 22h-26l-29 -159h27l16 88q11 51 55 51q35 0 35 -37q0 -14 -16 -102h26q1 6 3 23.5t3.5 30t6 30t11 28.5
t18.5 19t28 8q37 0 37 -37q0 -15 -3.5 -32t-8.5 -38t-7 -32h27q2 11 7 34t8 41t3 35q0 51 -53 51q-45 0 -63 -35q-8 35 -54 35q-34 0 -55 -24zM2437 311q-40 0 -67 -30t-27 -70q0 -28 17 -47t46 -19q43 0 66 33l-4 -28h26l29 159h-29l-4 -28q-6 14 -21.5 22t-31.5 8z
M2562 150l29 159h-27l-29 -159h27zM1892 662h43q47 0 47 43q0 40 -47 40h-43v-83zM2406 569q37 0 59.5 25t22.5 63t-22.5 64.5t-59.5 26.5t-59.5 -26.5t-22.5 -64.5t22.5 -63t59.5 -25zM2589 371l-17 -6l-6 -15l4 -10l10 -4l17 6l6 14l-4 11zM2601 150h27l38 215h-26z
M2699 178l-12 4l-14 -6l-7 -14l5 -10l10 -5l14 7l8 14zM2824 311q-40 0 -67 -29.5t-27 -70.5q0 -30 18 -48t48 -18q28 0 50.5 15t32.5 41h-28q-17 -33 -51 -33q-41 0 -41 45q0 30 16 53t45 23q16 0 28 -8.5t13 -22.5h29q-1 26 -19.5 39.5t-46.5 13.5zM2998 311
q-41 0 -68.5 -29t-27.5 -69q0 -30 19 -49t49 -19q41 0 69.5 29.5t28.5 69.5q0 30 -19.5 48.5t-50.5 18.5zM3133 287l5 22h-27l-29 -159h27l16 88q3 23 17 37t36 14q37 0 37 -37q0 -19 -7.5 -55.5t-8.5 -46.5h25q1 7 3.5 28.5t6 37.5t10 34.5t19.5 28.5t32 10q37 0 37 -37
q0 -15 -3 -32t-8 -38.5t-7 -31.5h26q2 12 7.5 34t8.5 41t3 35q0 24 -15.5 37.5t-40.5 13.5q-42 0 -63 -35q-8 35 -51 35q-38 0 -56 -24zM420 967v280h100v94h-315v-94h98v-280h117zM670 967v133l69 -133h129l-80 143q37 11 58.5 40t21.5 69q0 59 -40 90.5t-101 31.5h-176
v-374h119zM907 1341v-374h117v374h-117zM1192 1022h125l18 -55h125l-137 374h-135l-137 -374h123zM1487 1341v-374h231v88h-114v286h-117zM2028 963q82 0 137 55t55 137t-55 137.5t-137 55.5q-83 0 -139 -55.5t-56 -137.5q0 -81 56.5 -136.5t138.5 -55.5zM2380 1155
l125 -188h116v374h-116v-192l-125 192h-119v-374h119v188zM2675 1341v-374h231v88h-115v286h-116zM3052 967h116v112l135 262h-133l-59 -133l-59 133h-136l136 -262v-112zM201 627l59 69l37 -43l-129 -135l-129 135l37 43l59 -69v172h66v-172zM422 250v-10h-103
q6 21 22.5 35t37.5 14q19 0 31 -10.5t12 -28.5zM383 696l59 -69v172h64v-172l59 69l39 -43l-129 -135l-129 135zM698 250l-2 -10h-100q5 21 21 35t38 14q19 0 31 -10.5t12 -28.5zM815 170q-21 0 -33 12t-12 33q0 29 19 51.5t47 22.5q21 0 33 -13t12 -34q0 -29 -19 -50.5
t-47 -21.5zM1282 170q-20 0 -32.5 12.5t-12.5 32.5q0 29 20 51.5t48 22.5q20 0 32.5 -12.5t12.5 -32.5q0 -29 -20 -51.5t-48 -22.5zM778 770h125v-25h-96v-75h78v-23h-78v-100h-29v223zM930 629v141h28v-141q0 -60 56 -60q55 0 55 60v141h29v-141q0 -38 -23 -61t-61 -23
t-61 23t-23 61zM1251 547h-108v223h31v-201h77v-22zM1382 547h-106v223h29v-201h77v-22zM1528 250l-2 -10h-101q5 21 21 35t39 14q19 0 31 -10.5t12 -28.5zM1706 260q14 0 23.5 -10.5t9.5 -24.5q0 -23 -13.5 -40t-35.5 -17q-31 0 -31 33q0 22 12.5 40.5t34.5 18.5zM3465 440
v-440h-3424v440h3424zM1993 242q0 -28 -19.5 -50t-46.5 -22q-21 0 -33 12t-12 33q0 29 19 51.5t47 22.5q20 0 32.5 -13.5t12.5 -33.5zM2417 170q-21 0 -33 12t-12 33q0 29 18.5 51.5t46.5 22.5q20 0 32.5 -13.5t12.5 -33.5q0 -29 -18.5 -50.5t-46.5 -21.5zM2974 168
q-20 0 -31.5 12.5t-11.5 32.5q0 31 18 53.5t47 22.5q20 0 32.5 -12.5t12.5 -32.5q0 -30 -19.5 -53t-47.5 -23zM1567 547l-84 223h30l70 -192l70 192h30l-84 -223h-32zM1708 770h121v-25h-90v-73h80v-25h-80v-78h90v-22h-121v223zM2013 705q0 -52 -53 -66l55 -92h-35l-53 90
h-35v-90h-28v223h71q33 0 55.5 -16.5t22.5 -48.5zM2118 569q45 0 45 37q0 19 -19 29.5t-41.5 13.5t-41.5 18.5t-19 43.5q0 29 22 45t52 16t51 -14.5t24 -42.5h-32q-1 16 -14.5 24.5t-30.5 8.5q-41 0 -41 -37q0 -19 18.5 -29t41.5 -13.5t41.5 -19t18.5 -43.5q0 -29 -22 -45
t-53 -16t-53.5 15.5t-22.5 45.5h31q3 -37 45 -37zM2230 547v223h29v-223h-29zM2406 772q49 0 81 -32.5t32 -82.5q0 -48 -32 -80t-81 -32q-47 0 -78.5 32.5t-31.5 79.5q0 48 31.5 81.5t78.5 33.5zM2554 547v223h29l116 -178v178h29v-223h-29l-116 176v-176h-29zM2941 696
l59 -69v172h64v-172l59 69l39 -43l-129 -135l-129 135zM3248 696l60 -69v172h63v-172l59 69l37 -43l-129 -135l-129 135zM670 1180v63h45q15 0 25 -9t10 -24q0 -30 -35 -30h-45zM1255 1214l33 -104h-67zM41 874v560h3424v-560h-3424zM2028 1239q35 0 54 -23.5t19 -60.5
t-19 -60.5t-54 -23.5q-37 0 -55.5 23.5t-18.5 60.5t18.5 60.5t55.5 23.5z" />
    <glyph glyph-name="A" unicode="A" horiz-adv-x="1212" 
d="M623 1444l507 -1329q40 -101 123 -101v-14h-327v14q104 0 104 62q0 20 -8 39l-150 393h-610l-12 -33q-113 -296 -113 -379q0 -6 6 -43q3 -39 123 -39v-14h-307v14q83 0 166 215l465 1215h33zM274 539h586l-293 770z" />
    <glyph glyph-name="B" unicode="B" horiz-adv-x="1132" 
d="M76 0v14q102 0 102 56v1294q0 55 -102 55v15h346q260 0 400.5 -87.5t140.5 -248.5q0 -126 -85 -207.5t-247 -110.5q222 -22 344.5 -123.5t122.5 -265.5q0 -186 -156 -288.5t-438 -102.5h-428zM281 786h143q198 0 316 84t118 224t-118 223.5t-316 83.5h-88q-55 0 -55 -55
v-560zM281 86q0 -55 55 -55h168q230 0 358.5 96t128.5 268t-128.5 267.5t-358.5 95.5h-223v-672z" />
    <glyph glyph-name="C" unicode="C" horiz-adv-x="1224" 
d="M76 719q0 334 183.5 535.5t488.5 201.5q109 0 212 -30.5t173 -84.5l16 -262h-14q-25 157 -142.5 251.5t-287.5 94.5q-152 0 -272 -84t-187.5 -233.5t-67.5 -337.5q0 -208 80.5 -382.5t219.5 -276t304 -101.5q282 0 373 371h14l-36 -283q-151 -118 -385 -118
q-304 0 -488 203t-184 536z" />
    <glyph glyph-name="D" unicode="D" horiz-adv-x="1310" 
d="M76 0v14q102 0 102 56v1294q0 55 -102 55v15h487q301 0 486.5 -197.5t185.5 -519.5q0 -320 -186 -518.5t-486 -198.5h-487zM336 31h264q113 0 212 49t169.5 134t111 204.5t40.5 255.5q0 148 -48.5 282.5t-130.5 232.5t-196 156t-240 58h-182q-55 0 -55 -55v-1262
q0 -55 55 -55z" />
    <glyph glyph-name="E" unicode="E" horiz-adv-x="1034" 
d="M178 70v1294q0 55 -102 55v15h860l22 -250l-14 -4q-27 223 -375 223h-186q-102 0 -102 -55v-557h305q92 0 116 163h15v-356h-15q-24 164 -116 164h-305v-676q0 -55 102 -55h184q332 0 387 272l15 -4l-35 -299h-858v14q102 0 102 56z" />
    <glyph glyph-name="F" unicode="F" horiz-adv-x="993" 
d="M178 70v1294q0 55 -102 55v15h860l22 -250l-14 -4q-46 223 -334 223h-227q-102 0 -102 -55v-598h325q93 0 117 163h14v-356h-14q-24 164 -117 164h-325v-651q0 -56 133 -56v-14h-338v14q102 0 102 56z" />
    <glyph glyph-name="G" unicode="G" horiz-adv-x="1292" 
d="M76 719q0 334 183.5 535.5t488.5 201.5q115 0 222.5 -34.5t182.5 -94.5l16 -262h-14q-43 163 -166 261.5t-284 98.5q-152 0 -272 -84t-187.5 -233.5t-67.5 -337.5q0 -208 80.5 -382.5t219.5 -276t304 -101.5q118 0 204.5 68t86.5 160v260q0 55 -143 55v14h348v-14
q-102 0 -102 -55v-498h-15q-14 50 -26.5 68t-34.5 18q-14 0 -43 -16.5t-63 -36.5t-100 -36.5t-146 -16.5q-304 0 -488 203t-184 536z" />
    <glyph glyph-name="H" unicode="H" horiz-adv-x="1339" 
d="M178 70v1294q0 55 -102 55v15h307v-15q-102 0 -102 -55v-588h778v588q0 55 -103 55v15h308v-15q-103 0 -103 -55v-1294q0 -56 103 -56v-14h-308v14q103 0 103 56v675h-778v-675q0 -56 102 -56v-14h-307v14q102 0 102 56z" />
    <glyph glyph-name="I" unicode="I" horiz-adv-x="458" 
d="M178 70v1294q0 55 -102 55v15h307v-15q-102 0 -102 -55v-1294q0 -56 102 -56v-14h-307v14q102 0 102 56z" />
    <glyph glyph-name="J" unicode="J" horiz-adv-x="735" 
d="M465 281v1083q0 55 -123 55v15h328v-15q-103 0 -103 -55v-1092q0 -138 -77.5 -214t-217.5 -76q-114 0 -183 49.5t-69 132.5q0 53 28 89t67 36q11 0 35 -8q-27 -35 -27 -88q0 -81 46 -131t118 -50q85 0 131.5 70.5t46.5 198.5z" />
    <glyph glyph-name="K" unicode="K" horiz-adv-x="1136" 
d="M178 70v1294q0 55 -102 55v15h307v-15q-102 0 -102 -55v-731l559 612q65 71 65 115q0 55 -108 61v13h313v-13q-83 -12 -168 -106l-389 -428l514 -797q46 -76 125 -76h4v-14h-195l-518 811l-202 -219v-520q0 -58 122 -58v-14h-327v14q102 0 102 56z" />
    <glyph glyph-name="L" unicode="L" horiz-adv-x="964" 
d="M178 70v1294q0 55 -102 55v15h307v-15q-102 0 -102 -55v-1278q0 -55 55 -55h207q338 0 387 272l14 -4l-35 -299h-833v14q102 0 102 56z" />
    <glyph glyph-name="M" unicode="M" horiz-adv-x="1622" 
d="M1362 70l-39 1261q-49 -87 -123 -280l-399 -1020h-43l-508 1292l-12 25l-25 -846q-2 -59 -2 -162q0 -223 29 -270q38 -56 108 -56h14v-14h-327v14h4q68 0 98 56q33 53 45 432l27 882q-35 35 -84 35v15h190l502 -1280l502 1280h207v-15q-103 0 -103 -53v-2l41 -1294
q3 -56 103 -56v-14h-328v14q123 0 123 54v2z" />
    <glyph glyph-name="N" unicode="N" horiz-adv-x="1286" 
d="M1108 0l-920 1341v-1079q0 -252 123 -252v-10h-256v10q103 0 103 252v1114q-43 43 -101 43v15h191l850 -1241v978q0 248 -103 248v15h236v-15q-103 0 -103 -248v-1171h-20z" />
    <glyph glyph-name="O" unicode="O" horiz-adv-x="1495" 
d="M76 719q0 334 183.5 535.5t488.5 201.5q301 0 486 -203t185 -534q0 -330 -185.5 -534.5t-485.5 -204.5q-304 0 -488 203t-184 536zM178 770q0 -208 80.5 -382.5t219.5 -276t304 -101.5q151 0 273.5 86t192 237.5t69.5 338.5q0 205 -81.5 378t-222.5 274t-308 101
q-151 0 -271 -83.5t-188 -233t-68 -338.5z" />
    <glyph glyph-name="P" unicode="P" horiz-adv-x="1017" 
d="M1004 1026q0 -192 -153 -300t-423 -108h-147v-546q0 -58 122 -58v-14h-327v14q102 0 102 56v1294q0 55 -102 55v15h352q270 0 423 -108t153 -300zM281 649h147q224 0 347.5 97.5t123.5 279.5t-123.5 279.5t-347.5 97.5h-92q-55 0 -55 -53v-701z" />
    <glyph glyph-name="Q" unicode="Q" horiz-adv-x="1495" 
d="M178 770q0 -208 80.5 -382.5t219.5 -276t304 -101.5q151 0 273.5 86t192 237.5t69.5 338.5q0 205 -81.5 378t-222.5 274t-308 101q-151 0 -271 -83.5t-188 -233t-68 -338.5zM498 -168l200 150q-283 17 -452.5 217.5t-169.5 519.5q0 334 183.5 535.5t488.5 201.5
q301 0 486 -203t185 -534q0 -330 -185.5 -534.5t-485.5 -204.5h-3l-163 -121q50 -8 224.5 -47t252.5 -39q86 0 135.5 35t71.5 112q33 -28 46 -52t13 -56q0 -67 -51 -106.5t-139 -39.5q-65 0 -149.5 24t-156 53t-164 56.5t-167.5 32.5z" />
    <glyph glyph-name="R" unicode="R" horiz-adv-x="1157" 
d="M999 1067q0 -142 -101.5 -234t-287.5 -120q109 -13 162 -48.5t84 -113.5l182 -465q28 -72 123 -72h6v-14h-133q-72 0 -110 96l-179 455q-31 78 -106 113.5t-207 35.5h-135v-628q0 -58 123 -58v-14h-328v14q103 0 103 56v1294q0 55 -103 55v15h354q259 0 406 -97.5
t147 -269.5zM297 731h137q217 0 339 89t122 247t-122 247t-339 89h-82q-55 0 -55 -53v-619z" />
    <glyph glyph-name="S" unicode="S" horiz-adv-x="1114" 
d="M170 1169q0 -146 272 -282l250 -125q367 -182 367 -408q0 -99 -64.5 -185.5t-173.5 -137.5t-235 -51q-207 0 -502 167l-18 330h14q133 -467 502 -467q163 0 268.5 84t105.5 213q0 206 -313 363l-262 133q-311 156 -311 346q0 132 127.5 219.5t322.5 87.5q125 0 240 -37.5
t190 -103.5l17 -262h-15q-19 166 -135 269t-285 103q-149 0 -255.5 -75.5t-106.5 -180.5z" />
    <glyph glyph-name="T" unicode="T" horiz-adv-x="1134" 
d="M516 70v1278q0 55 -104 55h-93q-257 0 -294 -273l-15 5l35 299h1045l34 -299l-14 -5q-34 273 -295 273h-92q-105 0 -105 -55v-1278q0 -56 123 -56v-14h-348v14q123 0 123 56z" />
    <glyph glyph-name="U" unicode="U" horiz-adv-x="1267" 
d="M168 496v872q0 51 -102 51v15h307v-15q-103 0 -103 -51v-872q0 -206 113 -331.5t297 -125.5t297 125.5t113 331.5v868q0 52 -103 55v15h236v-15q-103 -3 -103 -55v-868q0 -233 -130.5 -374.5t-344.5 -141.5q-215 0 -346 141.5t-131 374.5z" />
    <glyph glyph-name="V" unicode="V" horiz-adv-x="1214" 
d="M590 -10l-508 1329q-40 100 -123 100v15h328v-15q-105 0 -105 -61q0 -20 8 -39l455 -1190l225 592q185 490 185 622v17q-6 59 -117 59v15h317v-15q-85 0 -125 -100l-507 -1329h-33z" />
    <glyph glyph-name="W" unicode="W" horiz-adv-x="1757" 
d="M1176 -10l-295 839l-295 -839h-33l-467 1329q-37 100 -123 100h-4v15h328v-15q-101 0 -101 -61q0 -18 9 -39l413 -1184l258 737l-157 447q-37 100 -123 100h-4v15h327v-15q-100 0 -100 -61q0 -20 8 -39l412 -1182l203 576q172 488 172 620q0 21 -2 27q-15 56 -119 59v15
h315v-15q-89 0 -123 -100l-467 -1329h-32z" />
    <glyph glyph-name="X" unicode="X" horiz-adv-x="1284" 
d="M862 0v14q156 0 156 58q0 16 -17 43l-389 573q-376 -495 -376 -594v-8q15 -69 172 -72v-14h-398v14h2q65 0 138 101l444 600l-410 604q-66 100 -155 100v15h411v-15q-149 0 -149 -55q0 -19 16 -45l369 -543q366 458 366 563v9q-12 71 -172 71v15h398v-15q-65 0 -140 -100
l-436 -567l432 -637q67 -101 150 -101v-14h-412z" />
    <glyph glyph-name="Y" unicode="Y" horiz-adv-x="1130" 
d="M514 70v518l-432 731q-54 91 -123 100v15h328v-15q-101 -6 -101 -55q0 -14 17 -45l405 -690l60 100q307 518 307 623v8q-12 59 -119 59v15h315v-15q-68 -9 -122 -100l-433 -731v-518q0 -56 123 -56v-14h-348v14q123 0 123 56z" />
    <glyph glyph-name="Z" unicode="Z" horiz-adv-x="1157" 
d="M25 0v10l946 1393h-373q-412 0 -514 -248l-14 4l73 275h965v-11l-946 -1392h434q418 0 532 313l15 -4l-92 -340h-1026z" />
    <glyph glyph-name="a" unicode="a" horiz-adv-x="997" 
d="M840 760v-658q0 -65 30 -65q34 0 37 65h15q0 -108 -88 -108q-46 0 -71.5 28t-25.5 80v177q-57 -148 -152.5 -223.5t-224.5 -75.5q-128 0 -206 68.5t-78 180.5q0 76 39.5 132.5t122.5 101.5q62 33 199.5 74.5t205.5 89.5q94 66 94 153q0 103 -66.5 169.5t-170.5 66.5
q-107 0 -181.5 -67t-74.5 -163q0 -77 63 -114q-30 -15 -61 -15q-48 0 -80.5 35t-32.5 92q0 108 113 184t274 76q153 0 236.5 -74t83.5 -210zM737 444v246q-11 -34 -78 -86q-59 -45 -188 -92t-188 -92q-99 -80 -99 -191q0 -93 59 -151t154 -58q91 0 169.5 57t124.5 155
t46 212z" />
    <glyph glyph-name="b" unicode="b" horiz-adv-x="1136" 
d="M158 0v1366q0 135 -103 135v15q144 0 205 40v-688q117 176 336 176q209 0 337 -146.5t128 -385.5q0 -236 -131 -384t-340 -148q-151 0 -307 108q-33 23 -58 23q-53 0 -53 -111h-14zM260 762v-463q35 -132 133.5 -210.5t227.5 -78.5q158 0 244.5 119.5t86.5 337.5
q0 246 -105 396.5t-276 150.5q-110 0 -190.5 -65t-120.5 -187z" />
    <glyph glyph-name="c" unicode="c" horiz-adv-x="962" 
d="M76 512q0 232 136 382t345 150q138 0 227.5 -66t89.5 -167q0 -56 -27 -86.5t-71 -30.5q-31 0 -71 19q63 38 63 116q0 80 -69 132.5t-175 52.5q-159 0 -252.5 -121.5t-93.5 -327.5q0 -242 116 -388t308 -146q100 0 174 38.5t137 123.5h29q-69 -110 -159 -161.5t-216 -51.5
q-218 0 -354.5 148t-136.5 384z" />
    <glyph glyph-name="d" unicode="d" horiz-adv-x="1157" 
d="M877 0v156q-117 -176 -336 -176q-209 0 -337 146.5t-128 385.5q0 236 131 384t340 148q201 0 330 -129v451q0 135 -103 135v15q144 0 205 40v-1486q0 -56 102 -56v-14h-204zM877 262v463q-35 132 -133.5 210.5t-227.5 78.5q-158 0 -245 -119.5t-87 -337.5
q0 -246 105.5 -396.5t277.5 -150.5q109 0 189.5 65.5t120.5 186.5z" />
    <glyph glyph-name="e" unicode="e" horiz-adv-x="995" 
d="M178 584h662q-23 206 -114 318t-237 112t-227.5 -113.5t-83.5 -316.5zM76 512q0 233 124 382.5t318 149.5q183 0 299 -134t127 -357h-766q6 -239 121.5 -380.5t308.5 -141.5q94 0 167.5 39t137.5 123h29q-69 -110 -159 -161.5t-216 -51.5q-218 0 -354.5 148t-136.5 384z
" />
    <glyph glyph-name="f" unicode="f" horiz-adv-x="512" 
d="M281 70q0 -56 102 -56v-14h-307v14q102 0 102 56v923h-102v31h102v260q0 126 66.5 199t181.5 73q95 0 155 -48.5t60 -125.5q0 -50 -25.5 -81t-64.5 -31q-15 0 -39 8q33 42 33 102q0 65 -32.5 105.5t-86.5 40.5q-67 0 -106 -67.5t-39 -184.5v-250h204v-31h-204v-923z" />
    <glyph glyph-name="g" unicode="g" horiz-adv-x="1042" 
d="M166 709q0 -168 89.5 -269.5t238.5 -101.5q129 0 200.5 80.5t71.5 226.5q0 167 -90.5 268t-239.5 101q-129 0 -199.5 -79.5t-70.5 -225.5zM63 676q0 164 112 266t292 102q108 0 195 -38q59 71 122 111t117 40q48 0 77.5 -29.5t28.5 -70.5t-32 -84q-10 49 -44.5 76.5
t-84.5 27.5q-87 0 -166 -82q89 -46 138.5 -129.5t49.5 -189.5q0 -163 -111.5 -266t-289.5 -103q-118 0 -203 43q-39 -53 -39 -100q0 -80 125 -100q58 -10 208.5 -11.5t219.5 -13.5q219 -38 219 -209q0 -149 -147 -247.5t-371 -98.5q-198 0 -321 79t-123 206q0 69 37 111
t96 42q21 0 45 -6q-55 -21 -55 -115q0 -128 98.5 -206t259.5 -78q111 0 211.5 37.5t160.5 100t60 132.5q0 109 -157 147q-79 19 -244.5 21t-212.5 8q-180 21 -180 123q0 39 24 90.5t64 99.5q-84 46 -131.5 128.5t-47.5 185.5z" />
    <glyph glyph-name="h" unicode="h" horiz-adv-x="1140" 
d="M178 70v1292q0 139 -102 139v15q144 0 205 40v-825q51 136 170.5 223.5t253.5 87.5q129 0 200.5 -87.5t71.5 -245.5v-641q0 -56 102 -56v-14h-307v14q102 0 102 56v620q0 147 -58 229t-161 82q-90 0 -177.5 -59.5t-142 -155t-54.5 -194.5v-520q0 -56 102 -56v-14h-307v14
q102 0 102 56z" />
    <glyph glyph-name="i" unicode="i" horiz-adv-x="450" 
d="M123 1311q0 34 24 58t58 24t58 -24t24 -58t-24 -58t-58 -24t-58 24t-24 58zM174 70v780q0 139 -102 139v15q143 0 204 40v-974q0 -56 103 -56v-14h-307v14q102 0 102 56z" />
    <glyph glyph-name="j" unicode="j" horiz-adv-x="438" 
d="M127 1311q0 34 24 58t58 24t58 -24t24 -58t-24 -58t-58 -24t-58 24t-24 58zM281 -86q0 -158 -67.5 -243.5t-195.5 -90.5h-12q-104 0 -166.5 48t-62.5 126q0 50 25.5 81.5t64.5 31.5q20 0 39 -8q-33 -45 -33 -99q0 -60 39 -104t94 -47h4q74 0 121 76t47 194v971
q0 139 -102 139v15q144 0 205 40v-1130z" />
    <glyph glyph-name="k" unicode="k" horiz-adv-x="976" 
d="M281 1556v-1069l372 351q99 92 99 131q0 38 -76 41v14h282v-14q-86 -3 -266 -174l-186 -174l364 -576q44 -69 127 -72v-14h-192l-375 592l-149 -141v-381q0 -56 102 -56v-14h-307v14q102 0 102 56v1292q0 139 -102 139v15q144 0 205 40z" />
    <glyph glyph-name="l" unicode="l" horiz-adv-x="458" 
d="M178 70v1296q0 135 -102 135v15q144 0 205 40v-1486q0 -56 102 -56v-14h-307v14q102 0 102 56z" />
    <glyph glyph-name="m" unicode="m" horiz-adv-x="1751" 
d="M174 70v780q0 139 -102 139v15q143 0 204 40v-360q46 169 149.5 268t233.5 99q126 0 199.5 -90.5t73.5 -245.5v-31q46 169 149.5 268t233.5 99q126 0 199 -90.5t73 -245.5v-645q0 -56 103 -56v-14h-308v14q103 0 103 56v624q0 145 -57 229.5t-154 84.5q-88 0 -167.5 -68
t-127 -182.5t-47.5 -241.5v-446q0 -56 102 -56v-14h-307v14q102 0 102 56v624q0 145 -57 229.5t-154 84.5q-88 0 -167.5 -68t-127 -182.5t-47.5 -241.5v-446q0 -56 103 -56v-14h-307v14q102 0 102 56z" />
    <glyph glyph-name="n" unicode="n" horiz-adv-x="1136" 
d="M174 70v780q0 139 -102 139v15q143 0 204 40v-360q42 164 153 265.5t255 101.5q134 0 211.5 -90.5t77.5 -245.5v-645q0 -56 102 -56v-14h-307v14q102 0 102 56v624q0 146 -62 230t-171 84q-98 0 -181 -66t-131.5 -179.5t-48.5 -246.5v-446q0 -56 103 -56v-14h-307v14
q102 0 102 56z" />
    <glyph glyph-name="o" unicode="o" horiz-adv-x="1134" 
d="M76 512q0 236 136.5 384t354.5 148t355 -148t137 -384t-137 -384t-355 -148t-354.5 148t-136.5 384zM184 559q0 -249 114 -399t302 -150q166 0 258 120.5t92 338.5q0 247 -114.5 396t-303.5 149q-166 0 -257 -119t-91 -336z" />
    <glyph glyph-name="p" unicode="p" horiz-adv-x="1136" 
d="M158 -340v1190q0 139 -103 139v15q144 0 205 40v-129q129 129 330 129q209 0 340 -148t131 -384q0 -239 -128 -385.5t-337 -146.5q-219 0 -336 176v-496q0 -55 102 -55v-15h-307v15q103 0 103 55zM260 725v-463q40 -122 120.5 -187t190.5 -65q171 0 276 150.5t105 396.5
q0 218 -86 337.5t-243 119.5q-131 0 -229.5 -78.5t-133.5 -210.5z" />
    <glyph glyph-name="q" unicode="q" horiz-adv-x="1136" 
d="M979 -340q0 -55 102 -55v-15h-307v15q103 0 103 55v496q-117 -176 -336 -176q-209 0 -337 146.5t-128 385.5q0 236 131 384t340 148q151 0 307 -108q33 -23 57 -23q35 0 47 52l7 59h14v-1364zM877 262v463q-35 132 -133.5 210.5t-227.5 78.5q-158 0 -245 -119.5
t-87 -337.5q0 -246 105 -396.5t276 -150.5q110 0 191 65.5t121 186.5z" />
    <glyph glyph-name="r" unicode="r" horiz-adv-x="880" 
d="M700 1044q71 0 115.5 -34t44.5 -88q0 -66 -72 -101q-7 63 -49.5 102.5t-101.5 39.5q-98 0 -198 -114t-163 -300v-479q0 -56 123 -56v-14h-327v14q102 0 102 56v780q0 139 -102 139v15q143 0 204 40v-407q78 193 189.5 300t234.5 107z" />
    <glyph glyph-name="s" unicode="s" horiz-adv-x="927" 
d="M186 842q0 -56 53 -102.5t183 -104.5l100 -45q183 -83 263.5 -163.5t80.5 -178.5q0 -120 -104 -194t-273 -74q-110 0 -221.5 31t-185.5 83l-10 221l16 2q35 -135 149 -221t257 -86q117 0 188.5 57.5t71.5 149.5q0 82 -67.5 149t-219.5 136l-102 47q-157 72 -222 132.5
t-65 133.5q0 100 98 162.5t256 62.5q221 0 377 -122l12 -187l-14 -2q-34 127 -137 204t-238 77q-106 0 -176 -47.5t-70 -120.5z" />
    <glyph glyph-name="t" unicode="t" horiz-adv-x="559" 
d="M276 190q0 -180 107 -180q82 0 104 92h21q-26 -120 -158 -120q-176 0 -176 208v803h-82v31q167 0 170 205h14v-205h205v-31h-205v-803z" />
    <glyph glyph-name="u" unicode="u" horiz-adv-x="1116" 
d="M489 23q93 0 173.5 66t129 179.5t48.5 245.5v336q0 139 -103 139v15q144 0 205 40v-942q0 -65 31 -65q34 0 37 65h14q0 -108 -86 -108q-46 0 -72 28.5t-26 79.5v244q-41 -166 -149.5 -266t-246.5 -100q-130 0 -205 90t-75 245v535q0 139 -103 139v15q144 0 205 40v-708
q0 -146 60 -229.5t163 -83.5z" />
    <glyph glyph-name="v" unicode="v" horiz-adv-x="976" 
d="M477 -10l-416 952q-30 68 -88 68v14h308v-14q-117 0 -117 -45q0 -11 6 -23l358 -817l248 571q62 141 54.5 227.5t-82.5 86.5v14h256v-14q-31 0 -54.5 -23t-46.5 -76l-403 -921h-23z" />
    <glyph glyph-name="w" unicode="w" horiz-adv-x="1533" 
d="M1057 -10l-289 690l-287 -690h-22l-396 952q-27 68 -86 68h-4v14h308v-14h-9q-104 0 -104 -45q0 -7 4 -23l336 -811l160 383q25 59 84 215l-90 213q-27 68 -87 68h-4v14h308v-14h-9q-104 0 -104 -45q0 -7 4 -23l336 -811l250 606q53 126 39 199.5t-90 73.5v14h256v-14
q-59 0 -86 -68l-396 -952h-22z" />
    <glyph glyph-name="x" unicode="x" horiz-adv-x="954" 
d="M633 0v14q112 0 112 39q0 14 -12 29l-282 395q-271 -355 -271 -416q3 -47 101 -47v-14h-287v14q64 0 117 68l321 422l-311 438q-50 68 -109 68v14h328v-14q-111 0 -111 -39q0 -13 13 -29l260 -367q270 329 270 388q-3 47 -121 47v14h287v-14q-40 -3 -96 -68l-322 -391
l334 -469q50 -68 107 -68v-14h-328z" />
    <glyph glyph-name="y" unicode="y" horiz-adv-x="983" 
d="M479 0l-411 942q-30 68 -88 68v14h313v-14q-123 0 -123 -47q0 -9 6 -21l359 -817l170 389q166 376 147 449q-12 47 -123 47v14h281v-14q-58 0 -88 -68l-416 -952q-184 -420 -400 -420q-74 0 -102 45.5t4 114.5q48 -54 129 -54q190 0 318 273z" />
    <glyph glyph-name="z" unicode="z" horiz-adv-x="890" 
d="M14 0v14l707 979h-297q-302 0 -367 -170l-10 4l53 197h758v-14l-708 -979h319q282 0 387 211l10 -4l-73 -238h-779z" />
    </font>
</defs>
</svg>
