<?xml version="1.0" standalone="no"?>
<!DOCTYPE svg PUBLIC "-//W3C//DTD SVG 1.1//EN" "http://www.w3.org/Graphics/SVG/1.1/DTD/svg11.dtd" >
<svg xmlns="http://www.w3.org/2000/svg" xmlns:xlink="http://www.w3.org/1999/xlink" version="1.1">
<metadata>
Created by FontForge 20170731 at Mon Oct 16 08:51:08 2023
 By Aleksey,,,
Copyright (c) 2022 by Kereatype.  All right reserved.
</metadata>
<defs>
<font id="SandeMoreDemo-ExtraBold" horiz-adv-x="3510" >
  <font-face 
    font-family="San de More Demo ExtBd"
    font-weight="800"
    font-stretch="normal"
    units-per-em="2048"
    panose-1="0 0 0 0 0 0 0 0 0 0"
    ascent="1638"
    descent="-410"
    x-height="1024"
    cap-height="1434"
    bbox="-238 -430 3469 1556"
    underline-thickness="102"
    underline-position="-358"
    unicode-range="U+000D-007A"
  />
<missing-glyph horiz-adv-x="1024" 
 />
    <glyph glyph-name=".notdef" horiz-adv-x="1024" 
 />
    <glyph glyph-name="uni0000" horiz-adv-x="0" 
 />
    <glyph glyph-name="uni0000" horiz-adv-x="0" 
 />
    <glyph glyph-name="uni000D" unicode="&#xd;" horiz-adv-x="512" 
 />
    <glyph glyph-name="space" unicode=" " horiz-adv-x="491" 
 />
    <glyph glyph-name="comma" unicode="," horiz-adv-x="430" 
d="M92 109q0 59 34 98t89 39q57 0 90 -45t33 -123q0 -111 -62 -198t-141 -87v19q35 3 57.5 28t22.5 62q0 26 -12.5 46t-30.5 34t-36.5 29t-31 40t-12.5 58z" />
    <glyph glyph-name="period" unicode="." horiz-adv-x="430" 
d="M92 113q0 55 36 94t87 39t87 -39t36 -94t-36 -94t-87 -39t-87 39t-36 94z" />
    <glyph glyph-name="zero" unicode="0" 
d="M193 238l22 127h-27l-38 -215h26l14 69l50 -69h36l-61 79l88 80h-37zM387 311q-41 0 -68.5 -29.5t-27.5 -70.5q0 -31 18 -48.5t49 -17.5q26 0 49 14.5t33 39.5h-28q-16 -31 -50 -31q-20 0 -32.5 11.5t-12.5 31.5v8h129q0 2 3.5 13.5t3.5 17.5q0 28 -18.5 44.5t-47.5 16.5
zM514 279l6 30h-26l-29 -159h27q2 10 4 29t3.5 31.5t6 28t11.5 24.5t19.5 15.5t30.5 6.5l4 26q-38 0 -57 -32zM662 311q-40 0 -67.5 -29.5t-27.5 -70.5q0 -30 18 -48t48 -18q26 0 49 14.5t35 39.5h-29q-16 -31 -51 -31q-43 0 -43 43v8h129q4 20 4 31q0 29 -18 45t-47 16z
M838 311q-39 0 -67 -30.5t-28 -69.5q0 -28 17.5 -47t46.5 -19q42 0 65 33l-4 -28h27l29 159h-27l-6 -28q-12 30 -53 30zM975 350l-8 -41h-21l-4 -22h21q-17 -94 -17 -107q0 -30 37 -30h25l4 22q-30 0 -35 2l-4 10q1 18 7.5 54t8.5 49h43l4 22h-43l8 41h-26zM1106 180
l-27 129h-28l36 -159l-47 -76h29l137 235h-26zM1249 279l6 30h-26l-43 -237h26l19 106q14 -33 55 -33q39 0 65.5 31.5t26.5 71.5q0 28 -17 45.5t-46 17.5q-40 0 -66 -32zM1491 311q-40 0 -67 -29.5t-27 -70.5q0 -31 17.5 -48.5t47.5 -17.5q26 0 49 14.5t35 39.5h-28
q-16 -31 -52 -31q-43 0 -43 43v8h129q4 20 4 31q0 29 -18 45t-47 16zM1726 336q-63 0 -106 -43t-43 -105q0 -46 30 -72t76 -26q28 0 58 10l-4 19q-23 -10 -49 -10q-40 0 -64.5 20.5t-24.5 60.5q0 53 35 90t88 37q40 0 64 -20.5t24 -58.5q0 -25 -9 -49.5t-29 -24.5
q-15 0 -15 18q0 14 2.5 29.5t8 36.5t6.5 28h-25l-2 -18q-11 23 -39 23q-31 0 -51.5 -26t-20.5 -58q0 -22 13.5 -36t36.5 -14q31 0 51 27q3 -27 32 -27q31 0 47.5 29t16.5 62q0 46 -30.5 72t-76.5 26zM1919 145q43 0 66 33q-4 -27 -8 -42t-18.5 -29.5t-39.5 -14.5
q-17 0 -30.5 8.5t-14.5 24.5h-27v-2q0 -27 20 -40t48 -13q34 0 59 20.5t31 54.5l29 164h-27l-4 -28q-12 30 -55 30q-39 0 -66 -30.5t-27 -69.5q0 -28 17.5 -47t46.5 -19zM2097 287l4 22h-26l-29 -159h27l16 88q11 51 55 51q35 0 35 -37q0 -14 -16 -102h26q1 6 3 23.5t3.5 30
t6 30t11 28.5t18.5 19t28 8q37 0 37 -37q0 -15 -3.5 -32t-8.5 -38t-7 -32h27q2 11 7 34t8 41t3 35q0 51 -53 51q-45 0 -63 -35q-8 35 -54 35q-34 0 -55 -24zM2439 311q-40 0 -67 -30t-27 -70q0 -28 17 -47t46 -19q43 0 66 33l-4 -28h27l28 159h-28l-5 -28q-6 14 -21.5 22
t-31.5 8zM2564 150l29 159h-27l-29 -159h27zM1894 662h43q48 0 48 43q0 40 -48 40h-43v-83zM2408 569q37 0 59.5 25t22.5 63t-22.5 64.5t-59.5 26.5t-59 -26.5t-22 -64.5t22 -63t59 -25zM2591 371l-17 -6l-6 -15l4 -10l11 -4l16 6l6 14l-4 11zM2603 150h27l39 215h-27z
M2701 178l-12 4l-14 -6l-6 -14l4 -10l10 -5l14 7l8 14zM2826 311q-40 0 -67 -29.5t-27 -70.5q0 -30 18 -48t48 -18q28 0 51 15t33 41h-29q-17 -33 -51 -33q-41 0 -41 45q0 30 16 53t45 23q16 0 28 -8.5t13 -22.5h29q-1 26 -19.5 39.5t-46.5 13.5zM3000 311q-41 0 -68.5 -29
t-27.5 -69q0 -30 19 -49t49 -19q41 0 69.5 29.5t28.5 69.5q0 30 -19.5 48.5t-50.5 18.5zM3135 287l5 22h-27l-29 -159h27l16 88q3 23 17 37t37 14q36 0 36 -37q0 -19 -7.5 -55.5t-8.5 -46.5h25q1 7 3.5 28.5t6 37.5t10 34.5t19.5 28.5t32 10q37 0 37 -37q0 -15 -3 -32
t-8 -38.5t-7 -31.5h26q2 12 7.5 34t8.5 41t3 35q0 24 -15.5 37.5t-40.5 13.5q-42 0 -63 -35q-8 35 -51 35q-38 0 -56 -24zM422 967v280h100v94h-315v-94h98v-280h117zM672 967v133l69 -133h129l-79 143q37 10 58 39.5t21 69.5q0 59 -40 90.5t-101 31.5h-176v-374h119z
M909 1341v-374h117v374h-117zM1194 1022h125l18 -55h125l-137 374h-135l-137 -374h123zM1489 1341v-374h231v88h-114v286h-117zM2030 963q82 0 137 55t55 137t-55 137.5t-137 55.5q-83 0 -139 -55.5t-56 -137.5q0 -81 56.5 -136.5t138.5 -55.5zM2382 1155l125 -188h116v374
h-116v-192l-125 192h-119v-374h119v188zM2677 1341v-374h231v88h-115v286h-116zM3054 967h116v112l135 262h-133l-59 -133l-59 133h-136l136 -262v-112zM203 627l59 69l37 -43l-129 -135l-129 135l37 43l59 -69v172h66v-172zM424 250v-10h-102q6 21 22 35t37 14
q19 0 31 -10.5t12 -28.5zM385 696l59 -69v172h64v-172l59 69l39 -43l-129 -135l-129 135zM700 250l-2 -10h-100q5 21 21 35t38 14q19 0 31 -10.5t12 -28.5zM817 170q-21 0 -33 12t-12 33q0 29 19 51.5t47 22.5q21 0 33 -13t12 -34q0 -29 -19 -50.5t-47 -21.5zM1284 170
q-20 0 -32.5 12.5t-12.5 32.5q0 29 20 51.5t48 22.5q20 0 32.5 -12.5t12.5 -32.5q0 -29 -20 -51.5t-48 -22.5zM780 770h125v-25h-96v-75h78v-23h-78v-100h-29v223zM932 629v141h29v-141q0 -60 55 -60t55 60v141h29v-141q0 -38 -23 -61t-61 -23t-61 23t-23 61zM1253 547h-108
v223h31v-201h77v-22zM1384 547h-106v223h29v-201h77v-22zM1530 250l-2 -10h-101q5 21 21 35t39 14q19 0 31 -10.5t12 -28.5zM1708 260q14 0 23.5 -10.5t9.5 -24.5q0 -23 -13.5 -40t-35.5 -17q-31 0 -31 33q0 22 12.5 40.5t34.5 18.5zM3467 440v-440h-3424v440h3424z
M1995 242q0 -28 -19.5 -50t-46.5 -22q-21 0 -33 12t-12 33q0 29 19 51.5t47 22.5q20 0 32.5 -13.5t12.5 -33.5zM2419 170q-21 0 -33 12t-12 33q0 29 18.5 51.5t46.5 22.5q20 0 32.5 -13.5t12.5 -33.5q0 -29 -18.5 -50.5t-46.5 -21.5zM2976 168q-20 0 -31.5 12.5t-11.5 32.5
q0 31 18 53.5t47 22.5q20 0 32.5 -12.5t12.5 -32.5q0 -30 -19.5 -53t-47.5 -23zM1569 547l-84 223h31l69 -192l70 192h31l-84 -223h-33zM1710 770h121v-25h-90v-73h80v-25h-80v-78h90v-22h-121v223zM2015 705q0 -52 -53 -66l55 -92h-35l-53 90h-35v-90h-28v223h71
q33 0 55.5 -16.5t22.5 -48.5zM2120 569q45 0 45 37q0 19 -19 29.5t-41.5 13.5t-41.5 18.5t-19 43.5q0 29 22 45t52 16t51 -14.5t24 -42.5h-32q-1 16 -14.5 24.5t-30.5 8.5q-41 0 -41 -37q0 -19 18.5 -29t41.5 -13.5t41.5 -19t18.5 -43.5q0 -29 -22 -45t-53 -16t-53.5 15.5
t-22.5 45.5h31q3 -37 45 -37zM2232 547v223h29v-223h-29zM2408 772q49 0 81 -32.5t32 -82.5q0 -48 -32 -80t-81 -32q-47 0 -78.5 32.5t-31.5 79.5q0 48 31.5 81.5t78.5 33.5zM2556 547v223h29l116 -178v178h29v-223h-29l-116 176v-176h-29zM2943 696l59 -69v172h64v-172
l59 69l39 -43l-129 -135l-129 135zM3250 696l60 -69v172h63v-172l59 69l37 -43l-129 -135l-129 135zM672 1180v63h45q15 0 25 -9t10 -24q0 -30 -35 -30h-45zM1257 1214l33 -104h-67zM43 874v560h3424v-560h-3424zM2030 1239q35 0 54 -23.5t19 -60.5t-19 -60.5t-54 -23.5
q-37 0 -55.5 23.5t-18.5 60.5t18.5 60.5t55.5 23.5z" />
    <glyph glyph-name="one" unicode="1" 
d="M193 238l22 127h-27l-38 -215h26l14 69l50 -69h36l-61 79l88 80h-37zM387 311q-41 0 -68.5 -29.5t-27.5 -70.5q0 -31 18 -48.5t49 -17.5q26 0 49 14.5t33 39.5h-28q-16 -31 -50 -31q-20 0 -32.5 11.5t-12.5 31.5v8h129q0 2 3.5 13.5t3.5 17.5q0 28 -18.5 44.5t-47.5 16.5
zM514 279l6 30h-26l-29 -159h27q2 10 4 29t3.5 31.5t6 28t11.5 24.5t19.5 15.5t30.5 6.5l4 26q-38 0 -57 -32zM662 311q-40 0 -67.5 -29.5t-27.5 -70.5q0 -30 18 -48t48 -18q26 0 49 14.5t35 39.5h-29q-16 -31 -51 -31q-43 0 -43 43v8h129q4 20 4 31q0 29 -18 45t-47 16z
M838 311q-39 0 -67 -30.5t-28 -69.5q0 -28 17.5 -47t46.5 -19q42 0 65 33l-4 -28h27l29 159h-27l-6 -28q-12 30 -53 30zM975 350l-8 -41h-21l-4 -22h21q-17 -94 -17 -107q0 -30 37 -30h25l4 22q-30 0 -35 2l-4 10q1 18 7.5 54t8.5 49h43l4 22h-43l8 41h-26zM1106 180
l-27 129h-28l36 -159l-47 -76h29l137 235h-26zM1249 279l6 30h-26l-43 -237h26l19 106q14 -33 55 -33q39 0 65.5 31.5t26.5 71.5q0 28 -17 45.5t-46 17.5q-40 0 -66 -32zM1491 311q-40 0 -67 -29.5t-27 -70.5q0 -31 17.5 -48.5t47.5 -17.5q26 0 49 14.5t35 39.5h-28
q-16 -31 -52 -31q-43 0 -43 43v8h129q4 20 4 31q0 29 -18 45t-47 16zM1726 336q-63 0 -106 -43t-43 -105q0 -46 30 -72t76 -26q28 0 58 10l-4 19q-23 -10 -49 -10q-40 0 -64.5 20.5t-24.5 60.5q0 53 35 90t88 37q40 0 64 -20.5t24 -58.5q0 -25 -9 -49.5t-29 -24.5
q-15 0 -15 18q0 14 2.5 29.5t8 36.5t6.5 28h-25l-2 -18q-11 23 -39 23q-31 0 -51.5 -26t-20.5 -58q0 -22 13.5 -36t36.5 -14q31 0 51 27q3 -27 32 -27q31 0 47.5 29t16.5 62q0 46 -30.5 72t-76.5 26zM1919 145q43 0 66 33q-4 -27 -8 -42t-18.5 -29.5t-39.5 -14.5
q-17 0 -30.5 8.5t-14.5 24.5h-27v-2q0 -27 20 -40t48 -13q34 0 59 20.5t31 54.5l29 164h-27l-4 -28q-12 30 -55 30q-39 0 -66 -30.5t-27 -69.5q0 -28 17.5 -47t46.5 -19zM2097 287l4 22h-26l-29 -159h27l16 88q11 51 55 51q35 0 35 -37q0 -14 -16 -102h26q1 6 3 23.5t3.5 30
t6 30t11 28.5t18.5 19t28 8q37 0 37 -37q0 -15 -3.5 -32t-8.5 -38t-7 -32h27q2 11 7 34t8 41t3 35q0 51 -53 51q-45 0 -63 -35q-8 35 -54 35q-34 0 -55 -24zM2439 311q-40 0 -67 -30t-27 -70q0 -28 17 -47t46 -19q43 0 66 33l-4 -28h27l28 159h-28l-5 -28q-6 14 -21.5 22
t-31.5 8zM2564 150l29 159h-27l-29 -159h27zM1894 662h43q48 0 48 43q0 40 -48 40h-43v-83zM2408 569q37 0 59.5 25t22.5 63t-22.5 64.5t-59.5 26.5t-59 -26.5t-22 -64.5t22 -63t59 -25zM2591 371l-17 -6l-6 -15l4 -10l11 -4l16 6l6 14l-4 11zM2603 150h27l39 215h-27z
M2701 178l-12 4l-14 -6l-6 -14l4 -10l10 -5l14 7l8 14zM2826 311q-40 0 -67 -29.5t-27 -70.5q0 -30 18 -48t48 -18q28 0 51 15t33 41h-29q-17 -33 -51 -33q-41 0 -41 45q0 30 16 53t45 23q16 0 28 -8.5t13 -22.5h29q-1 26 -19.5 39.5t-46.5 13.5zM3000 311q-41 0 -68.5 -29
t-27.5 -69q0 -30 19 -49t49 -19q41 0 69.5 29.5t28.5 69.5q0 30 -19.5 48.5t-50.5 18.5zM3135 287l5 22h-27l-29 -159h27l16 88q3 23 17 37t37 14q36 0 36 -37q0 -19 -7.5 -55.5t-8.5 -46.5h25q1 7 3.5 28.5t6 37.5t10 34.5t19.5 28.5t32 10q37 0 37 -37q0 -15 -3 -32
t-8 -38.5t-7 -31.5h26q2 12 7.5 34t8.5 41t3 35q0 24 -15.5 37.5t-40.5 13.5q-42 0 -63 -35q-8 35 -51 35q-38 0 -56 -24zM422 967v280h100v94h-315v-94h98v-280h117zM672 967v133l69 -133h129l-79 143q37 10 58 39.5t21 69.5q0 59 -40 90.5t-101 31.5h-176v-374h119z
M909 1341v-374h117v374h-117zM1194 1022h125l18 -55h125l-137 374h-135l-137 -374h123zM1489 1341v-374h231v88h-114v286h-117zM2030 963q82 0 137 55t55 137t-55 137.5t-137 55.5q-83 0 -139 -55.5t-56 -137.5q0 -81 56.5 -136.5t138.5 -55.5zM2382 1155l125 -188h116v374
h-116v-192l-125 192h-119v-374h119v188zM2677 1341v-374h231v88h-115v286h-116zM3054 967h116v112l135 262h-133l-59 -133l-59 133h-136l136 -262v-112zM203 627l59 69l37 -43l-129 -135l-129 135l37 43l59 -69v172h66v-172zM424 250v-10h-102q6 21 22 35t37 14
q19 0 31 -10.5t12 -28.5zM385 696l59 -69v172h64v-172l59 69l39 -43l-129 -135l-129 135zM700 250l-2 -10h-100q5 21 21 35t38 14q19 0 31 -10.5t12 -28.5zM817 170q-21 0 -33 12t-12 33q0 29 19 51.5t47 22.5q21 0 33 -13t12 -34q0 -29 -19 -50.5t-47 -21.5zM1284 170
q-20 0 -32.5 12.5t-12.5 32.5q0 29 20 51.5t48 22.5q20 0 32.5 -12.5t12.5 -32.5q0 -29 -20 -51.5t-48 -22.5zM780 770h125v-25h-96v-75h78v-23h-78v-100h-29v223zM932 629v141h29v-141q0 -60 55 -60t55 60v141h29v-141q0 -38 -23 -61t-61 -23t-61 23t-23 61zM1253 547h-108
v223h31v-201h77v-22zM1384 547h-106v223h29v-201h77v-22zM1530 250l-2 -10h-101q5 21 21 35t39 14q19 0 31 -10.5t12 -28.5zM1708 260q14 0 23.5 -10.5t9.5 -24.5q0 -23 -13.5 -40t-35.5 -17q-31 0 -31 33q0 22 12.5 40.5t34.5 18.5zM3467 440v-440h-3424v440h3424z
M1995 242q0 -28 -19.5 -50t-46.5 -22q-21 0 -33 12t-12 33q0 29 19 51.5t47 22.5q20 0 32.5 -13.5t12.5 -33.5zM2419 170q-21 0 -33 12t-12 33q0 29 18.5 51.5t46.5 22.5q20 0 32.5 -13.5t12.5 -33.5q0 -29 -18.5 -50.5t-46.5 -21.5zM2976 168q-20 0 -31.5 12.5t-11.5 32.5
q0 31 18 53.5t47 22.5q20 0 32.5 -12.5t12.5 -32.5q0 -30 -19.5 -53t-47.5 -23zM1569 547l-84 223h31l69 -192l70 192h31l-84 -223h-33zM1710 770h121v-25h-90v-73h80v-25h-80v-78h90v-22h-121v223zM2015 705q0 -52 -53 -66l55 -92h-35l-53 90h-35v-90h-28v223h71
q33 0 55.5 -16.5t22.5 -48.5zM2120 569q45 0 45 37q0 19 -19 29.5t-41.5 13.5t-41.5 18.5t-19 43.5q0 29 22 45t52 16t51 -14.5t24 -42.5h-32q-1 16 -14.5 24.5t-30.5 8.5q-41 0 -41 -37q0 -19 18.5 -29t41.5 -13.5t41.5 -19t18.5 -43.5q0 -29 -22 -45t-53 -16t-53.5 15.5
t-22.5 45.5h31q3 -37 45 -37zM2232 547v223h29v-223h-29zM2408 772q49 0 81 -32.5t32 -82.5q0 -48 -32 -80t-81 -32q-47 0 -78.5 32.5t-31.5 79.5q0 48 31.5 81.5t78.5 33.5zM2556 547v223h29l116 -178v178h29v-223h-29l-116 176v-176h-29zM2943 696l59 -69v172h64v-172
l59 69l39 -43l-129 -135l-129 135zM3250 696l60 -69v172h63v-172l59 69l37 -43l-129 -135l-129 135zM672 1180v63h45q15 0 25 -9t10 -24q0 -30 -35 -30h-45zM1257 1214l33 -104h-67zM43 874v560h3424v-560h-3424zM2030 1239q35 0 54 -23.5t19 -60.5t-19 -60.5t-54 -23.5
q-37 0 -55.5 23.5t-18.5 60.5t18.5 60.5t55.5 23.5z" />
    <glyph glyph-name="two" unicode="2" 
d="M193 238l22 127h-27l-38 -215h26l14 69l50 -69h36l-61 79l88 80h-37zM387 311q-41 0 -68.5 -29.5t-27.5 -70.5q0 -31 18 -48.5t49 -17.5q26 0 49 14.5t33 39.5h-28q-16 -31 -50 -31q-20 0 -32.5 11.5t-12.5 31.5v8h129q0 2 3.5 13.5t3.5 17.5q0 28 -18.5 44.5t-47.5 16.5
zM514 279l6 30h-26l-29 -159h27q2 10 4 29t3.5 31.5t6 28t11.5 24.5t19.5 15.5t30.5 6.5l4 26q-38 0 -57 -32zM662 311q-40 0 -67.5 -29.5t-27.5 -70.5q0 -30 18 -48t48 -18q26 0 49 14.5t35 39.5h-29q-16 -31 -51 -31q-43 0 -43 43v8h129q4 20 4 31q0 29 -18 45t-47 16z
M838 311q-39 0 -67 -30.5t-28 -69.5q0 -28 17.5 -47t46.5 -19q42 0 65 33l-4 -28h27l29 159h-27l-6 -28q-12 30 -53 30zM975 350l-8 -41h-21l-4 -22h21q-17 -94 -17 -107q0 -30 37 -30h25l4 22q-30 0 -35 2l-4 10q1 18 7.5 54t8.5 49h43l4 22h-43l8 41h-26zM1106 180
l-27 129h-28l36 -159l-47 -76h29l137 235h-26zM1249 279l6 30h-26l-43 -237h26l19 106q14 -33 55 -33q39 0 65.5 31.5t26.5 71.5q0 28 -17 45.5t-46 17.5q-40 0 -66 -32zM1491 311q-40 0 -67 -29.5t-27 -70.5q0 -31 17.5 -48.5t47.5 -17.5q26 0 49 14.5t35 39.5h-28
q-16 -31 -52 -31q-43 0 -43 43v8h129q4 20 4 31q0 29 -18 45t-47 16zM1726 336q-63 0 -106 -43t-43 -105q0 -46 30 -72t76 -26q28 0 58 10l-4 19q-23 -10 -49 -10q-40 0 -64.5 20.5t-24.5 60.5q0 53 35 90t88 37q40 0 64 -20.5t24 -58.5q0 -25 -9 -49.5t-29 -24.5
q-15 0 -15 18q0 14 2.5 29.5t8 36.5t6.5 28h-25l-2 -18q-11 23 -39 23q-31 0 -51.5 -26t-20.5 -58q0 -22 13.5 -36t36.5 -14q31 0 51 27q3 -27 32 -27q31 0 47.5 29t16.5 62q0 46 -30.5 72t-76.5 26zM1919 145q43 0 66 33q-4 -27 -8 -42t-18.5 -29.5t-39.5 -14.5
q-17 0 -30.5 8.5t-14.5 24.5h-27v-2q0 -27 20 -40t48 -13q34 0 59 20.5t31 54.5l29 164h-27l-4 -28q-12 30 -55 30q-39 0 -66 -30.5t-27 -69.5q0 -28 17.5 -47t46.5 -19zM2097 287l4 22h-26l-29 -159h27l16 88q11 51 55 51q35 0 35 -37q0 -14 -16 -102h26q1 6 3 23.5t3.5 30
t6 30t11 28.5t18.5 19t28 8q37 0 37 -37q0 -15 -3.5 -32t-8.5 -38t-7 -32h27q2 11 7 34t8 41t3 35q0 51 -53 51q-45 0 -63 -35q-8 35 -54 35q-34 0 -55 -24zM2439 311q-40 0 -67 -30t-27 -70q0 -28 17 -47t46 -19q43 0 66 33l-4 -28h27l28 159h-28l-5 -28q-6 14 -21.5 22
t-31.5 8zM2564 150l29 159h-27l-29 -159h27zM1894 662h43q48 0 48 43q0 40 -48 40h-43v-83zM2408 569q37 0 59.5 25t22.5 63t-22.5 64.5t-59.5 26.5t-59 -26.5t-22 -64.5t22 -63t59 -25zM2591 371l-17 -6l-6 -15l4 -10l11 -4l16 6l6 14l-4 11zM2603 150h27l39 215h-27z
M2701 178l-12 4l-14 -6l-6 -14l4 -10l10 -5l14 7l8 14zM2826 311q-40 0 -67 -29.5t-27 -70.5q0 -30 18 -48t48 -18q28 0 51 15t33 41h-29q-17 -33 -51 -33q-41 0 -41 45q0 30 16 53t45 23q16 0 28 -8.5t13 -22.5h29q-1 26 -19.5 39.5t-46.5 13.5zM3000 311q-41 0 -68.5 -29
t-27.5 -69q0 -30 19 -49t49 -19q41 0 69.5 29.5t28.5 69.5q0 30 -19.5 48.5t-50.5 18.5zM3135 287l5 22h-27l-29 -159h27l16 88q3 23 17 37t37 14q36 0 36 -37q0 -19 -7.5 -55.5t-8.5 -46.5h25q1 7 3.5 28.5t6 37.5t10 34.5t19.5 28.5t32 10q37 0 37 -37q0 -15 -3 -32
t-8 -38.5t-7 -31.5h26q2 12 7.5 34t8.5 41t3 35q0 24 -15.5 37.5t-40.5 13.5q-42 0 -63 -35q-8 35 -51 35q-38 0 -56 -24zM422 967v280h100v94h-315v-94h98v-280h117zM672 967v133l69 -133h129l-79 143q37 10 58 39.5t21 69.5q0 59 -40 90.5t-101 31.5h-176v-374h119z
M909 1341v-374h117v374h-117zM1194 1022h125l18 -55h125l-137 374h-135l-137 -374h123zM1489 1341v-374h231v88h-114v286h-117zM2030 963q82 0 137 55t55 137t-55 137.5t-137 55.5q-83 0 -139 -55.5t-56 -137.5q0 -81 56.5 -136.5t138.5 -55.5zM2382 1155l125 -188h116v374
h-116v-192l-125 192h-119v-374h119v188zM2677 1341v-374h231v88h-115v286h-116zM3054 967h116v112l135 262h-133l-59 -133l-59 133h-136l136 -262v-112zM203 627l59 69l37 -43l-129 -135l-129 135l37 43l59 -69v172h66v-172zM424 250v-10h-102q6 21 22 35t37 14
q19 0 31 -10.5t12 -28.5zM385 696l59 -69v172h64v-172l59 69l39 -43l-129 -135l-129 135zM700 250l-2 -10h-100q5 21 21 35t38 14q19 0 31 -10.5t12 -28.5zM817 170q-21 0 -33 12t-12 33q0 29 19 51.5t47 22.5q21 0 33 -13t12 -34q0 -29 -19 -50.5t-47 -21.5zM1284 170
q-20 0 -32.5 12.5t-12.5 32.5q0 29 20 51.5t48 22.5q20 0 32.5 -12.5t12.5 -32.5q0 -29 -20 -51.5t-48 -22.5zM780 770h125v-25h-96v-75h78v-23h-78v-100h-29v223zM932 629v141h29v-141q0 -60 55 -60t55 60v141h29v-141q0 -38 -23 -61t-61 -23t-61 23t-23 61zM1253 547h-108
v223h31v-201h77v-22zM1384 547h-106v223h29v-201h77v-22zM1530 250l-2 -10h-101q5 21 21 35t39 14q19 0 31 -10.5t12 -28.5zM1708 260q14 0 23.5 -10.5t9.5 -24.5q0 -23 -13.5 -40t-35.5 -17q-31 0 -31 33q0 22 12.5 40.5t34.5 18.5zM3467 440v-440h-3424v440h3424z
M1995 242q0 -28 -19.5 -50t-46.5 -22q-21 0 -33 12t-12 33q0 29 19 51.5t47 22.5q20 0 32.5 -13.5t12.5 -33.5zM2419 170q-21 0 -33 12t-12 33q0 29 18.5 51.5t46.5 22.5q20 0 32.5 -13.5t12.5 -33.5q0 -29 -18.5 -50.5t-46.5 -21.5zM2976 168q-20 0 -31.5 12.5t-11.5 32.5
q0 31 18 53.5t47 22.5q20 0 32.5 -12.5t12.5 -32.5q0 -30 -19.5 -53t-47.5 -23zM1569 547l-84 223h31l69 -192l70 192h31l-84 -223h-33zM1710 770h121v-25h-90v-73h80v-25h-80v-78h90v-22h-121v223zM2015 705q0 -52 -53 -66l55 -92h-35l-53 90h-35v-90h-28v223h71
q33 0 55.5 -16.5t22.5 -48.5zM2120 569q45 0 45 37q0 19 -19 29.5t-41.5 13.5t-41.5 18.5t-19 43.5q0 29 22 45t52 16t51 -14.5t24 -42.5h-32q-1 16 -14.5 24.5t-30.5 8.5q-41 0 -41 -37q0 -19 18.5 -29t41.5 -13.5t41.5 -19t18.5 -43.5q0 -29 -22 -45t-53 -16t-53.5 15.5
t-22.5 45.5h31q3 -37 45 -37zM2232 547v223h29v-223h-29zM2408 772q49 0 81 -32.5t32 -82.5q0 -48 -32 -80t-81 -32q-47 0 -78.5 32.5t-31.5 79.5q0 48 31.5 81.5t78.5 33.5zM2556 547v223h29l116 -178v178h29v-223h-29l-116 176v-176h-29zM2943 696l59 -69v172h64v-172
l59 69l39 -43l-129 -135l-129 135zM3250 696l60 -69v172h63v-172l59 69l37 -43l-129 -135l-129 135zM672 1180v63h45q15 0 25 -9t10 -24q0 -30 -35 -30h-45zM1257 1214l33 -104h-67zM43 874v560h3424v-560h-3424zM2030 1239q35 0 54 -23.5t19 -60.5t-19 -60.5t-54 -23.5
q-37 0 -55.5 23.5t-18.5 60.5t18.5 60.5t55.5 23.5z" />
    <glyph glyph-name="three" unicode="3" 
d="M193 238l22 127h-27l-38 -215h26l14 69l50 -69h36l-61 79l88 80h-37zM387 311q-41 0 -68.5 -29.5t-27.5 -70.5q0 -31 18 -48.5t49 -17.5q26 0 49 14.5t33 39.5h-28q-16 -31 -50 -31q-20 0 -32.5 11.5t-12.5 31.5v8h129q0 2 3.5 13.5t3.5 17.5q0 28 -18.5 44.5t-47.5 16.5
zM514 279l6 30h-26l-29 -159h27q2 10 4 29t3.5 31.5t6 28t11.5 24.5t19.5 15.5t30.5 6.5l4 26q-38 0 -57 -32zM662 311q-40 0 -67.5 -29.5t-27.5 -70.5q0 -30 18 -48t48 -18q26 0 49 14.5t35 39.5h-29q-16 -31 -51 -31q-43 0 -43 43v8h129q4 20 4 31q0 29 -18 45t-47 16z
M838 311q-39 0 -67 -30.5t-28 -69.5q0 -28 17.5 -47t46.5 -19q42 0 65 33l-4 -28h27l29 159h-27l-6 -28q-12 30 -53 30zM975 350l-8 -41h-21l-4 -22h21q-17 -94 -17 -107q0 -30 37 -30h25l4 22q-30 0 -35 2l-4 10q1 18 7.5 54t8.5 49h43l4 22h-43l8 41h-26zM1106 180
l-27 129h-28l36 -159l-47 -76h29l137 235h-26zM1249 279l6 30h-26l-43 -237h26l19 106q14 -33 55 -33q39 0 65.5 31.5t26.5 71.5q0 28 -17 45.5t-46 17.5q-40 0 -66 -32zM1491 311q-40 0 -67 -29.5t-27 -70.5q0 -31 17.5 -48.5t47.5 -17.5q26 0 49 14.5t35 39.5h-28
q-16 -31 -52 -31q-43 0 -43 43v8h129q4 20 4 31q0 29 -18 45t-47 16zM1726 336q-63 0 -106 -43t-43 -105q0 -46 30 -72t76 -26q28 0 58 10l-4 19q-23 -10 -49 -10q-40 0 -64.5 20.5t-24.5 60.5q0 53 35 90t88 37q40 0 64 -20.5t24 -58.5q0 -25 -9 -49.5t-29 -24.5
q-15 0 -15 18q0 14 2.5 29.5t8 36.5t6.5 28h-25l-2 -18q-11 23 -39 23q-31 0 -51.5 -26t-20.5 -58q0 -22 13.5 -36t36.5 -14q31 0 51 27q3 -27 32 -27q31 0 47.5 29t16.5 62q0 46 -30.5 72t-76.5 26zM1919 145q43 0 66 33q-4 -27 -8 -42t-18.5 -29.5t-39.5 -14.5
q-17 0 -30.5 8.5t-14.5 24.5h-27v-2q0 -27 20 -40t48 -13q34 0 59 20.5t31 54.5l29 164h-27l-4 -28q-12 30 -55 30q-39 0 -66 -30.5t-27 -69.5q0 -28 17.5 -47t46.5 -19zM2097 287l4 22h-26l-29 -159h27l16 88q11 51 55 51q35 0 35 -37q0 -14 -16 -102h26q1 6 3 23.5t3.5 30
t6 30t11 28.5t18.5 19t28 8q37 0 37 -37q0 -15 -3.5 -32t-8.5 -38t-7 -32h27q2 11 7 34t8 41t3 35q0 51 -53 51q-45 0 -63 -35q-8 35 -54 35q-34 0 -55 -24zM2439 311q-40 0 -67 -30t-27 -70q0 -28 17 -47t46 -19q43 0 66 33l-4 -28h27l28 159h-28l-5 -28q-6 14 -21.5 22
t-31.5 8zM2564 150l29 159h-27l-29 -159h27zM1894 662h43q48 0 48 43q0 40 -48 40h-43v-83zM2408 569q37 0 59.5 25t22.5 63t-22.5 64.5t-59.5 26.5t-59 -26.5t-22 -64.5t22 -63t59 -25zM2591 371l-17 -6l-6 -15l4 -10l11 -4l16 6l6 14l-4 11zM2603 150h27l39 215h-27z
M2701 178l-12 4l-14 -6l-6 -14l4 -10l10 -5l14 7l8 14zM2826 311q-40 0 -67 -29.5t-27 -70.5q0 -30 18 -48t48 -18q28 0 51 15t33 41h-29q-17 -33 -51 -33q-41 0 -41 45q0 30 16 53t45 23q16 0 28 -8.5t13 -22.5h29q-1 26 -19.5 39.5t-46.5 13.5zM3000 311q-41 0 -68.5 -29
t-27.5 -69q0 -30 19 -49t49 -19q41 0 69.5 29.5t28.5 69.5q0 30 -19.5 48.5t-50.5 18.5zM3135 287l5 22h-27l-29 -159h27l16 88q3 23 17 37t37 14q36 0 36 -37q0 -19 -7.5 -55.5t-8.5 -46.5h25q1 7 3.5 28.5t6 37.5t10 34.5t19.5 28.5t32 10q37 0 37 -37q0 -15 -3 -32
t-8 -38.5t-7 -31.5h26q2 12 7.5 34t8.5 41t3 35q0 24 -15.5 37.5t-40.5 13.5q-42 0 -63 -35q-8 35 -51 35q-38 0 -56 -24zM422 967v280h100v94h-315v-94h98v-280h117zM672 967v133l69 -133h129l-79 143q37 10 58 39.5t21 69.5q0 59 -40 90.5t-101 31.5h-176v-374h119z
M909 1341v-374h117v374h-117zM1194 1022h125l18 -55h125l-137 374h-135l-137 -374h123zM1489 1341v-374h231v88h-114v286h-117zM2030 963q82 0 137 55t55 137t-55 137.5t-137 55.5q-83 0 -139 -55.5t-56 -137.5q0 -81 56.5 -136.5t138.5 -55.5zM2382 1155l125 -188h116v374
h-116v-192l-125 192h-119v-374h119v188zM2677 1341v-374h231v88h-115v286h-116zM3054 967h116v112l135 262h-133l-59 -133l-59 133h-136l136 -262v-112zM203 627l59 69l37 -43l-129 -135l-129 135l37 43l59 -69v172h66v-172zM424 250v-10h-102q6 21 22 35t37 14
q19 0 31 -10.5t12 -28.5zM385 696l59 -69v172h64v-172l59 69l39 -43l-129 -135l-129 135zM700 250l-2 -10h-100q5 21 21 35t38 14q19 0 31 -10.5t12 -28.5zM817 170q-21 0 -33 12t-12 33q0 29 19 51.5t47 22.5q21 0 33 -13t12 -34q0 -29 -19 -50.5t-47 -21.5zM1284 170
q-20 0 -32.5 12.5t-12.5 32.5q0 29 20 51.5t48 22.5q20 0 32.5 -12.5t12.5 -32.5q0 -29 -20 -51.5t-48 -22.5zM780 770h125v-25h-96v-75h78v-23h-78v-100h-29v223zM932 629v141h29v-141q0 -60 55 -60t55 60v141h29v-141q0 -38 -23 -61t-61 -23t-61 23t-23 61zM1253 547h-108
v223h31v-201h77v-22zM1384 547h-106v223h29v-201h77v-22zM1530 250l-2 -10h-101q5 21 21 35t39 14q19 0 31 -10.5t12 -28.5zM1708 260q14 0 23.5 -10.5t9.5 -24.5q0 -23 -13.5 -40t-35.5 -17q-31 0 -31 33q0 22 12.5 40.5t34.5 18.5zM3467 440v-440h-3424v440h3424z
M1995 242q0 -28 -19.5 -50t-46.5 -22q-21 0 -33 12t-12 33q0 29 19 51.5t47 22.5q20 0 32.5 -13.5t12.5 -33.5zM2419 170q-21 0 -33 12t-12 33q0 29 18.5 51.5t46.5 22.5q20 0 32.5 -13.5t12.5 -33.5q0 -29 -18.5 -50.5t-46.5 -21.5zM2976 168q-20 0 -31.5 12.5t-11.5 32.5
q0 31 18 53.5t47 22.5q20 0 32.5 -12.5t12.5 -32.5q0 -30 -19.5 -53t-47.5 -23zM1569 547l-84 223h31l69 -192l70 192h31l-84 -223h-33zM1710 770h121v-25h-90v-73h80v-25h-80v-78h90v-22h-121v223zM2015 705q0 -52 -53 -66l55 -92h-35l-53 90h-35v-90h-28v223h71
q33 0 55.5 -16.5t22.5 -48.5zM2120 569q45 0 45 37q0 19 -19 29.5t-41.5 13.5t-41.5 18.5t-19 43.5q0 29 22 45t52 16t51 -14.5t24 -42.5h-32q-1 16 -14.5 24.5t-30.5 8.5q-41 0 -41 -37q0 -19 18.5 -29t41.5 -13.5t41.5 -19t18.5 -43.5q0 -29 -22 -45t-53 -16t-53.5 15.5
t-22.5 45.5h31q3 -37 45 -37zM2232 547v223h29v-223h-29zM2408 772q49 0 81 -32.5t32 -82.5q0 -48 -32 -80t-81 -32q-47 0 -78.5 32.5t-31.5 79.5q0 48 31.5 81.5t78.5 33.5zM2556 547v223h29l116 -178v178h29v-223h-29l-116 176v-176h-29zM2943 696l59 -69v172h64v-172
l59 69l39 -43l-129 -135l-129 135zM3250 696l60 -69v172h63v-172l59 69l37 -43l-129 -135l-129 135zM672 1180v63h45q15 0 25 -9t10 -24q0 -30 -35 -30h-45zM1257 1214l33 -104h-67zM43 874v560h3424v-560h-3424zM2030 1239q35 0 54 -23.5t19 -60.5t-19 -60.5t-54 -23.5
q-37 0 -55.5 23.5t-18.5 60.5t18.5 60.5t55.5 23.5z" />
    <glyph glyph-name="four" unicode="4" 
d="M193 238l22 127h-27l-38 -215h26l14 69l50 -69h36l-61 79l88 80h-37zM387 311q-41 0 -68.5 -29.5t-27.5 -70.5q0 -31 18 -48.5t49 -17.5q26 0 49 14.5t33 39.5h-28q-16 -31 -50 -31q-20 0 -32.5 11.5t-12.5 31.5v8h129q0 2 3.5 13.5t3.5 17.5q0 28 -18.5 44.5t-47.5 16.5
zM514 279l6 30h-26l-29 -159h27q2 10 4 29t3.5 31.5t6 28t11.5 24.5t19.5 15.5t30.5 6.5l4 26q-38 0 -57 -32zM662 311q-40 0 -67.5 -29.5t-27.5 -70.5q0 -30 18 -48t48 -18q26 0 49 14.5t35 39.5h-29q-16 -31 -51 -31q-43 0 -43 43v8h129q4 20 4 31q0 29 -18 45t-47 16z
M838 311q-39 0 -67 -30.5t-28 -69.5q0 -28 17.5 -47t46.5 -19q42 0 65 33l-4 -28h27l29 159h-27l-6 -28q-12 30 -53 30zM975 350l-8 -41h-21l-4 -22h21q-17 -94 -17 -107q0 -30 37 -30h25l4 22q-30 0 -35 2l-4 10q1 18 7.5 54t8.5 49h43l4 22h-43l8 41h-26zM1106 180
l-27 129h-28l36 -159l-47 -76h29l137 235h-26zM1249 279l6 30h-26l-43 -237h26l19 106q14 -33 55 -33q39 0 65.5 31.5t26.5 71.5q0 28 -17 45.5t-46 17.5q-40 0 -66 -32zM1491 311q-40 0 -67 -29.5t-27 -70.5q0 -31 17.5 -48.5t47.5 -17.5q26 0 49 14.5t35 39.5h-28
q-16 -31 -52 -31q-43 0 -43 43v8h129q4 20 4 31q0 29 -18 45t-47 16zM1726 336q-63 0 -106 -43t-43 -105q0 -46 30 -72t76 -26q28 0 58 10l-4 19q-23 -10 -49 -10q-40 0 -64.5 20.5t-24.5 60.5q0 53 35 90t88 37q40 0 64 -20.5t24 -58.5q0 -25 -9 -49.5t-29 -24.5
q-15 0 -15 18q0 14 2.5 29.5t8 36.5t6.5 28h-25l-2 -18q-11 23 -39 23q-31 0 -51.5 -26t-20.5 -58q0 -22 13.5 -36t36.5 -14q31 0 51 27q3 -27 32 -27q31 0 47.5 29t16.5 62q0 46 -30.5 72t-76.5 26zM1919 145q43 0 66 33q-4 -27 -8 -42t-18.5 -29.5t-39.5 -14.5
q-17 0 -30.5 8.5t-14.5 24.5h-27v-2q0 -27 20 -40t48 -13q34 0 59 20.5t31 54.5l29 164h-27l-4 -28q-12 30 -55 30q-39 0 -66 -30.5t-27 -69.5q0 -28 17.5 -47t46.5 -19zM2097 287l4 22h-26l-29 -159h27l16 88q11 51 55 51q35 0 35 -37q0 -14 -16 -102h26q1 6 3 23.5t3.5 30
t6 30t11 28.5t18.5 19t28 8q37 0 37 -37q0 -15 -3.5 -32t-8.5 -38t-7 -32h27q2 11 7 34t8 41t3 35q0 51 -53 51q-45 0 -63 -35q-8 35 -54 35q-34 0 -55 -24zM2439 311q-40 0 -67 -30t-27 -70q0 -28 17 -47t46 -19q43 0 66 33l-4 -28h27l28 159h-28l-5 -28q-6 14 -21.5 22
t-31.5 8zM2564 150l29 159h-27l-29 -159h27zM1894 662h43q48 0 48 43q0 40 -48 40h-43v-83zM2408 569q37 0 59.5 25t22.5 63t-22.5 64.5t-59.5 26.5t-59 -26.5t-22 -64.5t22 -63t59 -25zM2591 371l-17 -6l-6 -15l4 -10l11 -4l16 6l6 14l-4 11zM2603 150h27l39 215h-27z
M2701 178l-12 4l-14 -6l-6 -14l4 -10l10 -5l14 7l8 14zM2826 311q-40 0 -67 -29.5t-27 -70.5q0 -30 18 -48t48 -18q28 0 51 15t33 41h-29q-17 -33 -51 -33q-41 0 -41 45q0 30 16 53t45 23q16 0 28 -8.5t13 -22.5h29q-1 26 -19.5 39.5t-46.5 13.5zM3000 311q-41 0 -68.5 -29
t-27.5 -69q0 -30 19 -49t49 -19q41 0 69.5 29.5t28.5 69.5q0 30 -19.5 48.5t-50.5 18.5zM3135 287l5 22h-27l-29 -159h27l16 88q3 23 17 37t37 14q36 0 36 -37q0 -19 -7.5 -55.5t-8.5 -46.5h25q1 7 3.5 28.5t6 37.5t10 34.5t19.5 28.5t32 10q37 0 37 -37q0 -15 -3 -32
t-8 -38.5t-7 -31.5h26q2 12 7.5 34t8.5 41t3 35q0 24 -15.5 37.5t-40.5 13.5q-42 0 -63 -35q-8 35 -51 35q-38 0 -56 -24zM422 967v280h100v94h-315v-94h98v-280h117zM672 967v133l69 -133h129l-79 143q37 10 58 39.5t21 69.5q0 59 -40 90.5t-101 31.5h-176v-374h119z
M909 1341v-374h117v374h-117zM1194 1022h125l18 -55h125l-137 374h-135l-137 -374h123zM1489 1341v-374h231v88h-114v286h-117zM2030 963q82 0 137 55t55 137t-55 137.5t-137 55.5q-83 0 -139 -55.5t-56 -137.5q0 -81 56.5 -136.5t138.5 -55.5zM2382 1155l125 -188h116v374
h-116v-192l-125 192h-119v-374h119v188zM2677 1341v-374h231v88h-115v286h-116zM3054 967h116v112l135 262h-133l-59 -133l-59 133h-136l136 -262v-112zM203 627l59 69l37 -43l-129 -135l-129 135l37 43l59 -69v172h66v-172zM424 250v-10h-102q6 21 22 35t37 14
q19 0 31 -10.5t12 -28.5zM385 696l59 -69v172h64v-172l59 69l39 -43l-129 -135l-129 135zM700 250l-2 -10h-100q5 21 21 35t38 14q19 0 31 -10.5t12 -28.5zM817 170q-21 0 -33 12t-12 33q0 29 19 51.5t47 22.5q21 0 33 -13t12 -34q0 -29 -19 -50.5t-47 -21.5zM1284 170
q-20 0 -32.5 12.5t-12.5 32.5q0 29 20 51.5t48 22.5q20 0 32.5 -12.5t12.5 -32.5q0 -29 -20 -51.5t-48 -22.5zM780 770h125v-25h-96v-75h78v-23h-78v-100h-29v223zM932 629v141h29v-141q0 -60 55 -60t55 60v141h29v-141q0 -38 -23 -61t-61 -23t-61 23t-23 61zM1253 547h-108
v223h31v-201h77v-22zM1384 547h-106v223h29v-201h77v-22zM1530 250l-2 -10h-101q5 21 21 35t39 14q19 0 31 -10.5t12 -28.5zM1708 260q14 0 23.5 -10.5t9.5 -24.5q0 -23 -13.5 -40t-35.5 -17q-31 0 -31 33q0 22 12.5 40.5t34.5 18.5zM3467 440v-440h-3424v440h3424z
M1995 242q0 -28 -19.5 -50t-46.5 -22q-21 0 -33 12t-12 33q0 29 19 51.5t47 22.5q20 0 32.5 -13.5t12.5 -33.5zM2419 170q-21 0 -33 12t-12 33q0 29 18.5 51.5t46.5 22.5q20 0 32.5 -13.5t12.5 -33.5q0 -29 -18.5 -50.5t-46.5 -21.5zM2976 168q-20 0 -31.5 12.5t-11.5 32.5
q0 31 18 53.5t47 22.5q20 0 32.5 -12.5t12.5 -32.5q0 -30 -19.5 -53t-47.5 -23zM1569 547l-84 223h31l69 -192l70 192h31l-84 -223h-33zM1710 770h121v-25h-90v-73h80v-25h-80v-78h90v-22h-121v223zM2015 705q0 -52 -53 -66l55 -92h-35l-53 90h-35v-90h-28v223h71
q33 0 55.5 -16.5t22.5 -48.5zM2120 569q45 0 45 37q0 19 -19 29.5t-41.5 13.5t-41.5 18.5t-19 43.5q0 29 22 45t52 16t51 -14.5t24 -42.5h-32q-1 16 -14.5 24.5t-30.5 8.5q-41 0 -41 -37q0 -19 18.5 -29t41.5 -13.5t41.5 -19t18.5 -43.5q0 -29 -22 -45t-53 -16t-53.5 15.5
t-22.5 45.5h31q3 -37 45 -37zM2232 547v223h29v-223h-29zM2408 772q49 0 81 -32.5t32 -82.5q0 -48 -32 -80t-81 -32q-47 0 -78.5 32.5t-31.5 79.5q0 48 31.5 81.5t78.5 33.5zM2556 547v223h29l116 -178v178h29v-223h-29l-116 176v-176h-29zM2943 696l59 -69v172h64v-172
l59 69l39 -43l-129 -135l-129 135zM3250 696l60 -69v172h63v-172l59 69l37 -43l-129 -135l-129 135zM672 1180v63h45q15 0 25 -9t10 -24q0 -30 -35 -30h-45zM1257 1214l33 -104h-67zM43 874v560h3424v-560h-3424zM2030 1239q35 0 54 -23.5t19 -60.5t-19 -60.5t-54 -23.5
q-37 0 -55.5 23.5t-18.5 60.5t18.5 60.5t55.5 23.5z" />
    <glyph glyph-name="five" unicode="5" 
d="M193 238l22 127h-27l-38 -215h26l14 69l50 -69h36l-61 79l88 80h-37zM387 311q-41 0 -68.5 -29.5t-27.5 -70.5q0 -31 18 -48.5t49 -17.5q26 0 49 14.5t33 39.5h-28q-16 -31 -50 -31q-20 0 -32.5 11.5t-12.5 31.5v8h129q0 2 3.5 13.5t3.5 17.5q0 28 -18.5 44.5t-47.5 16.5
zM514 279l6 30h-26l-29 -159h27q2 10 4 29t3.5 31.5t6 28t11.5 24.5t19.5 15.5t30.5 6.5l4 26q-38 0 -57 -32zM662 311q-40 0 -67.5 -29.5t-27.5 -70.5q0 -30 18 -48t48 -18q26 0 49 14.5t35 39.5h-29q-16 -31 -51 -31q-43 0 -43 43v8h129q4 20 4 31q0 29 -18 45t-47 16z
M838 311q-39 0 -67 -30.5t-28 -69.5q0 -28 17.5 -47t46.5 -19q42 0 65 33l-4 -28h27l29 159h-27l-6 -28q-12 30 -53 30zM975 350l-8 -41h-21l-4 -22h21q-17 -94 -17 -107q0 -30 37 -30h25l4 22q-30 0 -35 2l-4 10q1 18 7.5 54t8.5 49h43l4 22h-43l8 41h-26zM1106 180
l-27 129h-28l36 -159l-47 -76h29l137 235h-26zM1249 279l6 30h-26l-43 -237h26l19 106q14 -33 55 -33q39 0 65.5 31.5t26.5 71.5q0 28 -17 45.5t-46 17.5q-40 0 -66 -32zM1491 311q-40 0 -67 -29.5t-27 -70.5q0 -31 17.5 -48.5t47.5 -17.5q26 0 49 14.5t35 39.5h-28
q-16 -31 -52 -31q-43 0 -43 43v8h129q4 20 4 31q0 29 -18 45t-47 16zM1726 336q-63 0 -106 -43t-43 -105q0 -46 30 -72t76 -26q28 0 58 10l-4 19q-23 -10 -49 -10q-40 0 -64.5 20.5t-24.5 60.5q0 53 35 90t88 37q40 0 64 -20.5t24 -58.5q0 -25 -9 -49.5t-29 -24.5
q-15 0 -15 18q0 14 2.5 29.5t8 36.5t6.5 28h-25l-2 -18q-11 23 -39 23q-31 0 -51.5 -26t-20.5 -58q0 -22 13.5 -36t36.5 -14q31 0 51 27q3 -27 32 -27q31 0 47.5 29t16.5 62q0 46 -30.5 72t-76.5 26zM1919 145q43 0 66 33q-4 -27 -8 -42t-18.5 -29.5t-39.5 -14.5
q-17 0 -30.5 8.5t-14.5 24.5h-27v-2q0 -27 20 -40t48 -13q34 0 59 20.5t31 54.5l29 164h-27l-4 -28q-12 30 -55 30q-39 0 -66 -30.5t-27 -69.5q0 -28 17.5 -47t46.5 -19zM2097 287l4 22h-26l-29 -159h27l16 88q11 51 55 51q35 0 35 -37q0 -14 -16 -102h26q1 6 3 23.5t3.5 30
t6 30t11 28.5t18.5 19t28 8q37 0 37 -37q0 -15 -3.5 -32t-8.5 -38t-7 -32h27q2 11 7 34t8 41t3 35q0 51 -53 51q-45 0 -63 -35q-8 35 -54 35q-34 0 -55 -24zM2439 311q-40 0 -67 -30t-27 -70q0 -28 17 -47t46 -19q43 0 66 33l-4 -28h27l28 159h-28l-5 -28q-6 14 -21.5 22
t-31.5 8zM2564 150l29 159h-27l-29 -159h27zM1894 662h43q48 0 48 43q0 40 -48 40h-43v-83zM2408 569q37 0 59.5 25t22.5 63t-22.5 64.5t-59.5 26.5t-59 -26.5t-22 -64.5t22 -63t59 -25zM2591 371l-17 -6l-6 -15l4 -10l11 -4l16 6l6 14l-4 11zM2603 150h27l39 215h-27z
M2701 178l-12 4l-14 -6l-6 -14l4 -10l10 -5l14 7l8 14zM2826 311q-40 0 -67 -29.5t-27 -70.5q0 -30 18 -48t48 -18q28 0 51 15t33 41h-29q-17 -33 -51 -33q-41 0 -41 45q0 30 16 53t45 23q16 0 28 -8.5t13 -22.5h29q-1 26 -19.5 39.5t-46.5 13.5zM3000 311q-41 0 -68.5 -29
t-27.5 -69q0 -30 19 -49t49 -19q41 0 69.5 29.5t28.5 69.5q0 30 -19.5 48.5t-50.5 18.5zM3135 287l5 22h-27l-29 -159h27l16 88q3 23 17 37t37 14q36 0 36 -37q0 -19 -7.5 -55.5t-8.5 -46.5h25q1 7 3.5 28.5t6 37.5t10 34.5t19.5 28.5t32 10q37 0 37 -37q0 -15 -3 -32
t-8 -38.5t-7 -31.5h26q2 12 7.5 34t8.5 41t3 35q0 24 -15.5 37.5t-40.5 13.5q-42 0 -63 -35q-8 35 -51 35q-38 0 -56 -24zM422 967v280h100v94h-315v-94h98v-280h117zM672 967v133l69 -133h129l-79 143q37 10 58 39.5t21 69.5q0 59 -40 90.5t-101 31.5h-176v-374h119z
M909 1341v-374h117v374h-117zM1194 1022h125l18 -55h125l-137 374h-135l-137 -374h123zM1489 1341v-374h231v88h-114v286h-117zM2030 963q82 0 137 55t55 137t-55 137.5t-137 55.5q-83 0 -139 -55.5t-56 -137.5q0 -81 56.5 -136.5t138.5 -55.5zM2382 1155l125 -188h116v374
h-116v-192l-125 192h-119v-374h119v188zM2677 1341v-374h231v88h-115v286h-116zM3054 967h116v112l135 262h-133l-59 -133l-59 133h-136l136 -262v-112zM203 627l59 69l37 -43l-129 -135l-129 135l37 43l59 -69v172h66v-172zM424 250v-10h-102q6 21 22 35t37 14
q19 0 31 -10.5t12 -28.5zM385 696l59 -69v172h64v-172l59 69l39 -43l-129 -135l-129 135zM700 250l-2 -10h-100q5 21 21 35t38 14q19 0 31 -10.5t12 -28.5zM817 170q-21 0 -33 12t-12 33q0 29 19 51.5t47 22.5q21 0 33 -13t12 -34q0 -29 -19 -50.5t-47 -21.5zM1284 170
q-20 0 -32.5 12.5t-12.5 32.5q0 29 20 51.5t48 22.5q20 0 32.5 -12.5t12.5 -32.5q0 -29 -20 -51.5t-48 -22.5zM780 770h125v-25h-96v-75h78v-23h-78v-100h-29v223zM932 629v141h29v-141q0 -60 55 -60t55 60v141h29v-141q0 -38 -23 -61t-61 -23t-61 23t-23 61zM1253 547h-108
v223h31v-201h77v-22zM1384 547h-106v223h29v-201h77v-22zM1530 250l-2 -10h-101q5 21 21 35t39 14q19 0 31 -10.5t12 -28.5zM1708 260q14 0 23.5 -10.5t9.5 -24.5q0 -23 -13.5 -40t-35.5 -17q-31 0 -31 33q0 22 12.5 40.5t34.5 18.5zM3467 440v-440h-3424v440h3424z
M1995 242q0 -28 -19.5 -50t-46.5 -22q-21 0 -33 12t-12 33q0 29 19 51.5t47 22.5q20 0 32.5 -13.5t12.5 -33.5zM2419 170q-21 0 -33 12t-12 33q0 29 18.5 51.5t46.5 22.5q20 0 32.5 -13.5t12.5 -33.5q0 -29 -18.5 -50.5t-46.5 -21.5zM2976 168q-20 0 -31.5 12.5t-11.5 32.5
q0 31 18 53.5t47 22.5q20 0 32.5 -12.5t12.5 -32.5q0 -30 -19.5 -53t-47.5 -23zM1569 547l-84 223h31l69 -192l70 192h31l-84 -223h-33zM1710 770h121v-25h-90v-73h80v-25h-80v-78h90v-22h-121v223zM2015 705q0 -52 -53 -66l55 -92h-35l-53 90h-35v-90h-28v223h71
q33 0 55.5 -16.5t22.5 -48.5zM2120 569q45 0 45 37q0 19 -19 29.5t-41.5 13.5t-41.5 18.5t-19 43.5q0 29 22 45t52 16t51 -14.5t24 -42.5h-32q-1 16 -14.5 24.5t-30.5 8.5q-41 0 -41 -37q0 -19 18.5 -29t41.5 -13.5t41.5 -19t18.5 -43.5q0 -29 -22 -45t-53 -16t-53.5 15.5
t-22.5 45.5h31q3 -37 45 -37zM2232 547v223h29v-223h-29zM2408 772q49 0 81 -32.5t32 -82.5q0 -48 -32 -80t-81 -32q-47 0 -78.5 32.5t-31.5 79.5q0 48 31.5 81.5t78.5 33.5zM2556 547v223h29l116 -178v178h29v-223h-29l-116 176v-176h-29zM2943 696l59 -69v172h64v-172
l59 69l39 -43l-129 -135l-129 135zM3250 696l60 -69v172h63v-172l59 69l37 -43l-129 -135l-129 135zM672 1180v63h45q15 0 25 -9t10 -24q0 -30 -35 -30h-45zM1257 1214l33 -104h-67zM43 874v560h3424v-560h-3424zM2030 1239q35 0 54 -23.5t19 -60.5t-19 -60.5t-54 -23.5
q-37 0 -55.5 23.5t-18.5 60.5t18.5 60.5t55.5 23.5z" />
    <glyph glyph-name="six" unicode="6" 
d="M193 238l22 127h-27l-38 -215h26l14 69l50 -69h36l-61 79l88 80h-37zM387 311q-41 0 -68.5 -29.5t-27.5 -70.5q0 -31 18 -48.5t49 -17.5q26 0 49 14.5t33 39.5h-28q-16 -31 -50 -31q-20 0 -32.5 11.5t-12.5 31.5v8h129q0 2 3.5 13.5t3.5 17.5q0 28 -18.5 44.5t-47.5 16.5
zM514 279l6 30h-26l-29 -159h27q2 10 4 29t3.5 31.5t6 28t11.5 24.5t19.5 15.5t30.5 6.5l4 26q-38 0 -57 -32zM662 311q-40 0 -67.5 -29.5t-27.5 -70.5q0 -30 18 -48t48 -18q26 0 49 14.5t35 39.5h-29q-16 -31 -51 -31q-43 0 -43 43v8h129q4 20 4 31q0 29 -18 45t-47 16z
M838 311q-39 0 -67 -30.5t-28 -69.5q0 -28 17.5 -47t46.5 -19q42 0 65 33l-4 -28h27l29 159h-27l-6 -28q-12 30 -53 30zM975 350l-8 -41h-21l-4 -22h21q-17 -94 -17 -107q0 -30 37 -30h25l4 22q-30 0 -35 2l-4 10q1 18 7.5 54t8.5 49h43l4 22h-43l8 41h-26zM1106 180
l-27 129h-28l36 -159l-47 -76h29l137 235h-26zM1249 279l6 30h-26l-43 -237h26l19 106q14 -33 55 -33q39 0 65.5 31.5t26.5 71.5q0 28 -17 45.5t-46 17.5q-40 0 -66 -32zM1491 311q-40 0 -67 -29.5t-27 -70.5q0 -31 17.5 -48.5t47.5 -17.5q26 0 49 14.5t35 39.5h-28
q-16 -31 -52 -31q-43 0 -43 43v8h129q4 20 4 31q0 29 -18 45t-47 16zM1726 336q-63 0 -106 -43t-43 -105q0 -46 30 -72t76 -26q28 0 58 10l-4 19q-23 -10 -49 -10q-40 0 -64.5 20.5t-24.5 60.5q0 53 35 90t88 37q40 0 64 -20.5t24 -58.5q0 -25 -9 -49.5t-29 -24.5
q-15 0 -15 18q0 14 2.5 29.5t8 36.5t6.5 28h-25l-2 -18q-11 23 -39 23q-31 0 -51.5 -26t-20.5 -58q0 -22 13.5 -36t36.5 -14q31 0 51 27q3 -27 32 -27q31 0 47.5 29t16.5 62q0 46 -30.5 72t-76.5 26zM1919 145q43 0 66 33q-4 -27 -8 -42t-18.5 -29.5t-39.5 -14.5
q-17 0 -30.5 8.5t-14.5 24.5h-27v-2q0 -27 20 -40t48 -13q34 0 59 20.5t31 54.5l29 164h-27l-4 -28q-12 30 -55 30q-39 0 -66 -30.5t-27 -69.5q0 -28 17.5 -47t46.5 -19zM2097 287l4 22h-26l-29 -159h27l16 88q11 51 55 51q35 0 35 -37q0 -14 -16 -102h26q1 6 3 23.5t3.5 30
t6 30t11 28.5t18.5 19t28 8q37 0 37 -37q0 -15 -3.5 -32t-8.5 -38t-7 -32h27q2 11 7 34t8 41t3 35q0 51 -53 51q-45 0 -63 -35q-8 35 -54 35q-34 0 -55 -24zM2439 311q-40 0 -67 -30t-27 -70q0 -28 17 -47t46 -19q43 0 66 33l-4 -28h27l28 159h-28l-5 -28q-6 14 -21.5 22
t-31.5 8zM2564 150l29 159h-27l-29 -159h27zM1894 662h43q48 0 48 43q0 40 -48 40h-43v-83zM2408 569q37 0 59.5 25t22.5 63t-22.5 64.5t-59.5 26.5t-59 -26.5t-22 -64.5t22 -63t59 -25zM2591 371l-17 -6l-6 -15l4 -10l11 -4l16 6l6 14l-4 11zM2603 150h27l39 215h-27z
M2701 178l-12 4l-14 -6l-6 -14l4 -10l10 -5l14 7l8 14zM2826 311q-40 0 -67 -29.5t-27 -70.5q0 -30 18 -48t48 -18q28 0 51 15t33 41h-29q-17 -33 -51 -33q-41 0 -41 45q0 30 16 53t45 23q16 0 28 -8.5t13 -22.5h29q-1 26 -19.5 39.5t-46.5 13.5zM3000 311q-41 0 -68.5 -29
t-27.5 -69q0 -30 19 -49t49 -19q41 0 69.5 29.5t28.5 69.5q0 30 -19.5 48.5t-50.5 18.5zM3135 287l5 22h-27l-29 -159h27l16 88q3 23 17 37t37 14q36 0 36 -37q0 -19 -7.5 -55.5t-8.5 -46.5h25q1 7 3.5 28.5t6 37.5t10 34.5t19.5 28.5t32 10q37 0 37 -37q0 -15 -3 -32
t-8 -38.5t-7 -31.5h26q2 12 7.5 34t8.5 41t3 35q0 24 -15.5 37.5t-40.5 13.5q-42 0 -63 -35q-8 35 -51 35q-38 0 -56 -24zM422 967v280h100v94h-315v-94h98v-280h117zM672 967v133l69 -133h129l-79 143q37 10 58 39.5t21 69.5q0 59 -40 90.5t-101 31.5h-176v-374h119z
M909 1341v-374h117v374h-117zM1194 1022h125l18 -55h125l-137 374h-135l-137 -374h123zM1489 1341v-374h231v88h-114v286h-117zM2030 963q82 0 137 55t55 137t-55 137.5t-137 55.5q-83 0 -139 -55.5t-56 -137.5q0 -81 56.5 -136.5t138.5 -55.5zM2382 1155l125 -188h116v374
h-116v-192l-125 192h-119v-374h119v188zM2677 1341v-374h231v88h-115v286h-116zM3054 967h116v112l135 262h-133l-59 -133l-59 133h-136l136 -262v-112zM203 627l59 69l37 -43l-129 -135l-129 135l37 43l59 -69v172h66v-172zM424 250v-10h-102q6 21 22 35t37 14
q19 0 31 -10.5t12 -28.5zM385 696l59 -69v172h64v-172l59 69l39 -43l-129 -135l-129 135zM700 250l-2 -10h-100q5 21 21 35t38 14q19 0 31 -10.5t12 -28.5zM817 170q-21 0 -33 12t-12 33q0 29 19 51.5t47 22.5q21 0 33 -13t12 -34q0 -29 -19 -50.5t-47 -21.5zM1284 170
q-20 0 -32.5 12.5t-12.5 32.5q0 29 20 51.5t48 22.5q20 0 32.5 -12.5t12.5 -32.5q0 -29 -20 -51.5t-48 -22.5zM780 770h125v-25h-96v-75h78v-23h-78v-100h-29v223zM932 629v141h29v-141q0 -60 55 -60t55 60v141h29v-141q0 -38 -23 -61t-61 -23t-61 23t-23 61zM1253 547h-108
v223h31v-201h77v-22zM1384 547h-106v223h29v-201h77v-22zM1530 250l-2 -10h-101q5 21 21 35t39 14q19 0 31 -10.5t12 -28.5zM1708 260q14 0 23.5 -10.5t9.5 -24.5q0 -23 -13.5 -40t-35.5 -17q-31 0 -31 33q0 22 12.5 40.5t34.5 18.5zM3467 440v-440h-3424v440h3424z
M1995 242q0 -28 -19.5 -50t-46.5 -22q-21 0 -33 12t-12 33q0 29 19 51.5t47 22.5q20 0 32.5 -13.5t12.5 -33.5zM2419 170q-21 0 -33 12t-12 33q0 29 18.5 51.5t46.5 22.5q20 0 32.5 -13.5t12.5 -33.5q0 -29 -18.5 -50.5t-46.5 -21.5zM2976 168q-20 0 -31.5 12.5t-11.5 32.5
q0 31 18 53.5t47 22.5q20 0 32.5 -12.5t12.5 -32.5q0 -30 -19.5 -53t-47.5 -23zM1569 547l-84 223h31l69 -192l70 192h31l-84 -223h-33zM1710 770h121v-25h-90v-73h80v-25h-80v-78h90v-22h-121v223zM2015 705q0 -52 -53 -66l55 -92h-35l-53 90h-35v-90h-28v223h71
q33 0 55.5 -16.5t22.5 -48.5zM2120 569q45 0 45 37q0 19 -19 29.5t-41.5 13.5t-41.5 18.5t-19 43.5q0 29 22 45t52 16t51 -14.5t24 -42.5h-32q-1 16 -14.5 24.5t-30.5 8.5q-41 0 -41 -37q0 -19 18.5 -29t41.5 -13.5t41.5 -19t18.5 -43.5q0 -29 -22 -45t-53 -16t-53.5 15.5
t-22.5 45.5h31q3 -37 45 -37zM2232 547v223h29v-223h-29zM2408 772q49 0 81 -32.5t32 -82.5q0 -48 -32 -80t-81 -32q-47 0 -78.5 32.5t-31.5 79.5q0 48 31.5 81.5t78.5 33.5zM2556 547v223h29l116 -178v178h29v-223h-29l-116 176v-176h-29zM2943 696l59 -69v172h64v-172
l59 69l39 -43l-129 -135l-129 135zM3250 696l60 -69v172h63v-172l59 69l37 -43l-129 -135l-129 135zM672 1180v63h45q15 0 25 -9t10 -24q0 -30 -35 -30h-45zM1257 1214l33 -104h-67zM43 874v560h3424v-560h-3424zM2030 1239q35 0 54 -23.5t19 -60.5t-19 -60.5t-54 -23.5
q-37 0 -55.5 23.5t-18.5 60.5t18.5 60.5t55.5 23.5z" />
    <glyph glyph-name="seven" unicode="7" 
d="M193 238l22 127h-27l-38 -215h26l14 69l50 -69h36l-61 79l88 80h-37zM387 311q-41 0 -68.5 -29.5t-27.5 -70.5q0 -31 18 -48.5t49 -17.5q26 0 49 14.5t33 39.5h-28q-16 -31 -50 -31q-20 0 -32.5 11.5t-12.5 31.5v8h129q0 2 3.5 13.5t3.5 17.5q0 28 -18.5 44.5t-47.5 16.5
zM514 279l6 30h-26l-29 -159h27q2 10 4 29t3.5 31.5t6 28t11.5 24.5t19.5 15.5t30.5 6.5l4 26q-38 0 -57 -32zM662 311q-40 0 -67.5 -29.5t-27.5 -70.5q0 -30 18 -48t48 -18q26 0 49 14.5t35 39.5h-29q-16 -31 -51 -31q-43 0 -43 43v8h129q4 20 4 31q0 29 -18 45t-47 16z
M838 311q-39 0 -67 -30.5t-28 -69.5q0 -28 17.5 -47t46.5 -19q42 0 65 33l-4 -28h27l29 159h-27l-6 -28q-12 30 -53 30zM975 350l-8 -41h-21l-4 -22h21q-17 -94 -17 -107q0 -30 37 -30h25l4 22q-30 0 -35 2l-4 10q1 18 7.5 54t8.5 49h43l4 22h-43l8 41h-26zM1106 180
l-27 129h-28l36 -159l-47 -76h29l137 235h-26zM1249 279l6 30h-26l-43 -237h26l19 106q14 -33 55 -33q39 0 65.5 31.5t26.5 71.5q0 28 -17 45.5t-46 17.5q-40 0 -66 -32zM1491 311q-40 0 -67 -29.5t-27 -70.5q0 -31 17.5 -48.5t47.5 -17.5q26 0 49 14.5t35 39.5h-28
q-16 -31 -52 -31q-43 0 -43 43v8h129q4 20 4 31q0 29 -18 45t-47 16zM1726 336q-63 0 -106 -43t-43 -105q0 -46 30 -72t76 -26q28 0 58 10l-4 19q-23 -10 -49 -10q-40 0 -64.5 20.5t-24.5 60.5q0 53 35 90t88 37q40 0 64 -20.5t24 -58.5q0 -25 -9 -49.5t-29 -24.5
q-15 0 -15 18q0 14 2.5 29.5t8 36.5t6.5 28h-25l-2 -18q-11 23 -39 23q-31 0 -51.5 -26t-20.5 -58q0 -22 13.5 -36t36.5 -14q31 0 51 27q3 -27 32 -27q31 0 47.5 29t16.5 62q0 46 -30.5 72t-76.5 26zM1919 145q43 0 66 33q-4 -27 -8 -42t-18.5 -29.5t-39.5 -14.5
q-17 0 -30.5 8.5t-14.5 24.5h-27v-2q0 -27 20 -40t48 -13q34 0 59 20.5t31 54.5l29 164h-27l-4 -28q-12 30 -55 30q-39 0 -66 -30.5t-27 -69.5q0 -28 17.5 -47t46.5 -19zM2097 287l4 22h-26l-29 -159h27l16 88q11 51 55 51q35 0 35 -37q0 -14 -16 -102h26q1 6 3 23.5t3.5 30
t6 30t11 28.5t18.5 19t28 8q37 0 37 -37q0 -15 -3.5 -32t-8.5 -38t-7 -32h27q2 11 7 34t8 41t3 35q0 51 -53 51q-45 0 -63 -35q-8 35 -54 35q-34 0 -55 -24zM2439 311q-40 0 -67 -30t-27 -70q0 -28 17 -47t46 -19q43 0 66 33l-4 -28h27l28 159h-28l-5 -28q-6 14 -21.5 22
t-31.5 8zM2564 150l29 159h-27l-29 -159h27zM1894 662h43q48 0 48 43q0 40 -48 40h-43v-83zM2408 569q37 0 59.5 25t22.5 63t-22.5 64.5t-59.5 26.5t-59 -26.5t-22 -64.5t22 -63t59 -25zM2591 371l-17 -6l-6 -15l4 -10l11 -4l16 6l6 14l-4 11zM2603 150h27l39 215h-27z
M2701 178l-12 4l-14 -6l-6 -14l4 -10l10 -5l14 7l8 14zM2826 311q-40 0 -67 -29.5t-27 -70.5q0 -30 18 -48t48 -18q28 0 51 15t33 41h-29q-17 -33 -51 -33q-41 0 -41 45q0 30 16 53t45 23q16 0 28 -8.5t13 -22.5h29q-1 26 -19.5 39.5t-46.5 13.5zM3000 311q-41 0 -68.5 -29
t-27.5 -69q0 -30 19 -49t49 -19q41 0 69.5 29.5t28.5 69.5q0 30 -19.5 48.5t-50.5 18.5zM3135 287l5 22h-27l-29 -159h27l16 88q3 23 17 37t37 14q36 0 36 -37q0 -19 -7.5 -55.5t-8.5 -46.5h25q1 7 3.5 28.5t6 37.5t10 34.5t19.5 28.5t32 10q37 0 37 -37q0 -15 -3 -32
t-8 -38.5t-7 -31.5h26q2 12 7.5 34t8.5 41t3 35q0 24 -15.5 37.5t-40.5 13.5q-42 0 -63 -35q-8 35 -51 35q-38 0 -56 -24zM422 967v280h100v94h-315v-94h98v-280h117zM672 967v133l69 -133h129l-79 143q37 10 58 39.5t21 69.5q0 59 -40 90.5t-101 31.5h-176v-374h119z
M909 1341v-374h117v374h-117zM1194 1022h125l18 -55h125l-137 374h-135l-137 -374h123zM1489 1341v-374h231v88h-114v286h-117zM2030 963q82 0 137 55t55 137t-55 137.5t-137 55.5q-83 0 -139 -55.5t-56 -137.5q0 -81 56.5 -136.5t138.5 -55.5zM2382 1155l125 -188h116v374
h-116v-192l-125 192h-119v-374h119v188zM2677 1341v-374h231v88h-115v286h-116zM3054 967h116v112l135 262h-133l-59 -133l-59 133h-136l136 -262v-112zM203 627l59 69l37 -43l-129 -135l-129 135l37 43l59 -69v172h66v-172zM424 250v-10h-102q6 21 22 35t37 14
q19 0 31 -10.5t12 -28.5zM385 696l59 -69v172h64v-172l59 69l39 -43l-129 -135l-129 135zM700 250l-2 -10h-100q5 21 21 35t38 14q19 0 31 -10.5t12 -28.5zM817 170q-21 0 -33 12t-12 33q0 29 19 51.5t47 22.5q21 0 33 -13t12 -34q0 -29 -19 -50.5t-47 -21.5zM1284 170
q-20 0 -32.5 12.5t-12.5 32.5q0 29 20 51.5t48 22.5q20 0 32.5 -12.5t12.5 -32.5q0 -29 -20 -51.5t-48 -22.5zM780 770h125v-25h-96v-75h78v-23h-78v-100h-29v223zM932 629v141h29v-141q0 -60 55 -60t55 60v141h29v-141q0 -38 -23 -61t-61 -23t-61 23t-23 61zM1253 547h-108
v223h31v-201h77v-22zM1384 547h-106v223h29v-201h77v-22zM1530 250l-2 -10h-101q5 21 21 35t39 14q19 0 31 -10.5t12 -28.5zM1708 260q14 0 23.5 -10.5t9.5 -24.5q0 -23 -13.5 -40t-35.5 -17q-31 0 -31 33q0 22 12.5 40.5t34.5 18.5zM3467 440v-440h-3424v440h3424z
M1995 242q0 -28 -19.5 -50t-46.5 -22q-21 0 -33 12t-12 33q0 29 19 51.5t47 22.5q20 0 32.5 -13.5t12.5 -33.5zM2419 170q-21 0 -33 12t-12 33q0 29 18.5 51.5t46.5 22.5q20 0 32.5 -13.5t12.5 -33.5q0 -29 -18.5 -50.5t-46.5 -21.5zM2976 168q-20 0 -31.5 12.5t-11.5 32.5
q0 31 18 53.5t47 22.5q20 0 32.5 -12.5t12.5 -32.5q0 -30 -19.5 -53t-47.5 -23zM1569 547l-84 223h31l69 -192l70 192h31l-84 -223h-33zM1710 770h121v-25h-90v-73h80v-25h-80v-78h90v-22h-121v223zM2015 705q0 -52 -53 -66l55 -92h-35l-53 90h-35v-90h-28v223h71
q33 0 55.5 -16.5t22.5 -48.5zM2120 569q45 0 45 37q0 19 -19 29.5t-41.5 13.5t-41.5 18.5t-19 43.5q0 29 22 45t52 16t51 -14.5t24 -42.5h-32q-1 16 -14.5 24.5t-30.5 8.5q-41 0 -41 -37q0 -19 18.5 -29t41.5 -13.5t41.5 -19t18.5 -43.5q0 -29 -22 -45t-53 -16t-53.5 15.5
t-22.5 45.5h31q3 -37 45 -37zM2232 547v223h29v-223h-29zM2408 772q49 0 81 -32.5t32 -82.5q0 -48 -32 -80t-81 -32q-47 0 -78.5 32.5t-31.5 79.5q0 48 31.5 81.5t78.5 33.5zM2556 547v223h29l116 -178v178h29v-223h-29l-116 176v-176h-29zM2943 696l59 -69v172h64v-172
l59 69l39 -43l-129 -135l-129 135zM3250 696l60 -69v172h63v-172l59 69l37 -43l-129 -135l-129 135zM672 1180v63h45q15 0 25 -9t10 -24q0 -30 -35 -30h-45zM1257 1214l33 -104h-67zM43 874v560h3424v-560h-3424zM2030 1239q35 0 54 -23.5t19 -60.5t-19 -60.5t-54 -23.5
q-37 0 -55.5 23.5t-18.5 60.5t18.5 60.5t55.5 23.5z" />
    <glyph glyph-name="eight" unicode="8" 
d="M193 238l22 127h-27l-38 -215h26l14 69l50 -69h36l-61 79l88 80h-37zM387 311q-41 0 -68.5 -29.5t-27.5 -70.5q0 -31 18 -48.5t49 -17.5q26 0 49 14.5t33 39.5h-28q-16 -31 -50 -31q-20 0 -32.5 11.5t-12.5 31.5v8h129q0 2 3.5 13.5t3.5 17.5q0 28 -18.5 44.5t-47.5 16.5
zM514 279l6 30h-26l-29 -159h27q2 10 4 29t3.5 31.5t6 28t11.5 24.5t19.5 15.5t30.5 6.5l4 26q-38 0 -57 -32zM662 311q-40 0 -67.5 -29.5t-27.5 -70.5q0 -30 18 -48t48 -18q26 0 49 14.5t35 39.5h-29q-16 -31 -51 -31q-43 0 -43 43v8h129q4 20 4 31q0 29 -18 45t-47 16z
M838 311q-39 0 -67 -30.5t-28 -69.5q0 -28 17.5 -47t46.5 -19q42 0 65 33l-4 -28h27l29 159h-27l-6 -28q-12 30 -53 30zM975 350l-8 -41h-21l-4 -22h21q-17 -94 -17 -107q0 -30 37 -30h25l4 22q-30 0 -35 2l-4 10q1 18 7.5 54t8.5 49h43l4 22h-43l8 41h-26zM1106 180
l-27 129h-28l36 -159l-47 -76h29l137 235h-26zM1249 279l6 30h-26l-43 -237h26l19 106q14 -33 55 -33q39 0 65.5 31.5t26.5 71.5q0 28 -17 45.5t-46 17.5q-40 0 -66 -32zM1491 311q-40 0 -67 -29.5t-27 -70.5q0 -31 17.5 -48.5t47.5 -17.5q26 0 49 14.5t35 39.5h-28
q-16 -31 -52 -31q-43 0 -43 43v8h129q4 20 4 31q0 29 -18 45t-47 16zM1726 336q-63 0 -106 -43t-43 -105q0 -46 30 -72t76 -26q28 0 58 10l-4 19q-23 -10 -49 -10q-40 0 -64.5 20.5t-24.5 60.5q0 53 35 90t88 37q40 0 64 -20.5t24 -58.5q0 -25 -9 -49.5t-29 -24.5
q-15 0 -15 18q0 14 2.5 29.5t8 36.5t6.5 28h-25l-2 -18q-11 23 -39 23q-31 0 -51.5 -26t-20.5 -58q0 -22 13.5 -36t36.5 -14q31 0 51 27q3 -27 32 -27q31 0 47.5 29t16.5 62q0 46 -30.5 72t-76.5 26zM1919 145q43 0 66 33q-4 -27 -8 -42t-18.5 -29.5t-39.5 -14.5
q-17 0 -30.5 8.5t-14.5 24.5h-27v-2q0 -27 20 -40t48 -13q34 0 59 20.5t31 54.5l29 164h-27l-4 -28q-12 30 -55 30q-39 0 -66 -30.5t-27 -69.5q0 -28 17.5 -47t46.5 -19zM2097 287l4 22h-26l-29 -159h27l16 88q11 51 55 51q35 0 35 -37q0 -14 -16 -102h26q1 6 3 23.5t3.5 30
t6 30t11 28.5t18.5 19t28 8q37 0 37 -37q0 -15 -3.5 -32t-8.5 -38t-7 -32h27q2 11 7 34t8 41t3 35q0 51 -53 51q-45 0 -63 -35q-8 35 -54 35q-34 0 -55 -24zM2439 311q-40 0 -67 -30t-27 -70q0 -28 17 -47t46 -19q43 0 66 33l-4 -28h27l28 159h-28l-5 -28q-6 14 -21.5 22
t-31.5 8zM2564 150l29 159h-27l-29 -159h27zM1894 662h43q48 0 48 43q0 40 -48 40h-43v-83zM2408 569q37 0 59.5 25t22.5 63t-22.5 64.5t-59.5 26.5t-59 -26.5t-22 -64.5t22 -63t59 -25zM2591 371l-17 -6l-6 -15l4 -10l11 -4l16 6l6 14l-4 11zM2603 150h27l39 215h-27z
M2701 178l-12 4l-14 -6l-6 -14l4 -10l10 -5l14 7l8 14zM2826 311q-40 0 -67 -29.5t-27 -70.5q0 -30 18 -48t48 -18q28 0 51 15t33 41h-29q-17 -33 -51 -33q-41 0 -41 45q0 30 16 53t45 23q16 0 28 -8.5t13 -22.5h29q-1 26 -19.5 39.5t-46.5 13.5zM3000 311q-41 0 -68.5 -29
t-27.5 -69q0 -30 19 -49t49 -19q41 0 69.5 29.5t28.5 69.5q0 30 -19.5 48.5t-50.5 18.5zM3135 287l5 22h-27l-29 -159h27l16 88q3 23 17 37t37 14q36 0 36 -37q0 -19 -7.5 -55.5t-8.5 -46.5h25q1 7 3.5 28.5t6 37.5t10 34.5t19.5 28.5t32 10q37 0 37 -37q0 -15 -3 -32
t-8 -38.5t-7 -31.5h26q2 12 7.5 34t8.5 41t3 35q0 24 -15.5 37.5t-40.5 13.5q-42 0 -63 -35q-8 35 -51 35q-38 0 -56 -24zM422 967v280h100v94h-315v-94h98v-280h117zM672 967v133l69 -133h129l-79 143q37 10 58 39.5t21 69.5q0 59 -40 90.5t-101 31.5h-176v-374h119z
M909 1341v-374h117v374h-117zM1194 1022h125l18 -55h125l-137 374h-135l-137 -374h123zM1489 1341v-374h231v88h-114v286h-117zM2030 963q82 0 137 55t55 137t-55 137.5t-137 55.5q-83 0 -139 -55.5t-56 -137.5q0 -81 56.5 -136.5t138.5 -55.5zM2382 1155l125 -188h116v374
h-116v-192l-125 192h-119v-374h119v188zM2677 1341v-374h231v88h-115v286h-116zM3054 967h116v112l135 262h-133l-59 -133l-59 133h-136l136 -262v-112zM203 627l59 69l37 -43l-129 -135l-129 135l37 43l59 -69v172h66v-172zM424 250v-10h-102q6 21 22 35t37 14
q19 0 31 -10.5t12 -28.5zM385 696l59 -69v172h64v-172l59 69l39 -43l-129 -135l-129 135zM700 250l-2 -10h-100q5 21 21 35t38 14q19 0 31 -10.5t12 -28.5zM817 170q-21 0 -33 12t-12 33q0 29 19 51.5t47 22.5q21 0 33 -13t12 -34q0 -29 -19 -50.5t-47 -21.5zM1284 170
q-20 0 -32.5 12.5t-12.5 32.5q0 29 20 51.5t48 22.5q20 0 32.5 -12.5t12.5 -32.5q0 -29 -20 -51.5t-48 -22.5zM780 770h125v-25h-96v-75h78v-23h-78v-100h-29v223zM932 629v141h29v-141q0 -60 55 -60t55 60v141h29v-141q0 -38 -23 -61t-61 -23t-61 23t-23 61zM1253 547h-108
v223h31v-201h77v-22zM1384 547h-106v223h29v-201h77v-22zM1530 250l-2 -10h-101q5 21 21 35t39 14q19 0 31 -10.5t12 -28.5zM1708 260q14 0 23.5 -10.5t9.5 -24.5q0 -23 -13.5 -40t-35.5 -17q-31 0 -31 33q0 22 12.5 40.5t34.5 18.5zM3467 440v-440h-3424v440h3424z
M1995 242q0 -28 -19.5 -50t-46.5 -22q-21 0 -33 12t-12 33q0 29 19 51.5t47 22.5q20 0 32.5 -13.5t12.5 -33.5zM2419 170q-21 0 -33 12t-12 33q0 29 18.5 51.5t46.5 22.5q20 0 32.5 -13.5t12.5 -33.5q0 -29 -18.5 -50.5t-46.5 -21.5zM2976 168q-20 0 -31.5 12.5t-11.5 32.5
q0 31 18 53.5t47 22.5q20 0 32.5 -12.5t12.5 -32.5q0 -30 -19.5 -53t-47.5 -23zM1569 547l-84 223h31l69 -192l70 192h31l-84 -223h-33zM1710 770h121v-25h-90v-73h80v-25h-80v-78h90v-22h-121v223zM2015 705q0 -52 -53 -66l55 -92h-35l-53 90h-35v-90h-28v223h71
q33 0 55.5 -16.5t22.5 -48.5zM2120 569q45 0 45 37q0 19 -19 29.5t-41.5 13.5t-41.5 18.5t-19 43.5q0 29 22 45t52 16t51 -14.5t24 -42.5h-32q-1 16 -14.5 24.5t-30.5 8.5q-41 0 -41 -37q0 -19 18.5 -29t41.5 -13.5t41.5 -19t18.5 -43.5q0 -29 -22 -45t-53 -16t-53.5 15.5
t-22.5 45.5h31q3 -37 45 -37zM2232 547v223h29v-223h-29zM2408 772q49 0 81 -32.5t32 -82.5q0 -48 -32 -80t-81 -32q-47 0 -78.5 32.5t-31.5 79.5q0 48 31.5 81.5t78.5 33.5zM2556 547v223h29l116 -178v178h29v-223h-29l-116 176v-176h-29zM2943 696l59 -69v172h64v-172
l59 69l39 -43l-129 -135l-129 135zM3250 696l60 -69v172h63v-172l59 69l37 -43l-129 -135l-129 135zM672 1180v63h45q15 0 25 -9t10 -24q0 -30 -35 -30h-45zM1257 1214l33 -104h-67zM43 874v560h3424v-560h-3424zM2030 1239q35 0 54 -23.5t19 -60.5t-19 -60.5t-54 -23.5
q-37 0 -55.5 23.5t-18.5 60.5t18.5 60.5t55.5 23.5z" />
    <glyph glyph-name="nine" unicode="9" 
d="M193 238l22 127h-27l-38 -215h26l14 69l50 -69h36l-61 79l88 80h-37zM387 311q-41 0 -68.5 -29.5t-27.5 -70.5q0 -31 18 -48.5t49 -17.5q26 0 49 14.5t33 39.5h-28q-16 -31 -50 -31q-20 0 -32.5 11.5t-12.5 31.5v8h129q0 2 3.5 13.5t3.5 17.5q0 28 -18.5 44.5t-47.5 16.5
zM514 279l6 30h-26l-29 -159h27q2 10 4 29t3.5 31.5t6 28t11.5 24.5t19.5 15.5t30.5 6.5l4 26q-38 0 -57 -32zM662 311q-40 0 -67.5 -29.5t-27.5 -70.5q0 -30 18 -48t48 -18q26 0 49 14.5t35 39.5h-29q-16 -31 -51 -31q-43 0 -43 43v8h129q4 20 4 31q0 29 -18 45t-47 16z
M838 311q-39 0 -67 -30.5t-28 -69.5q0 -28 17.5 -47t46.5 -19q42 0 65 33l-4 -28h27l29 159h-27l-6 -28q-12 30 -53 30zM975 350l-8 -41h-21l-4 -22h21q-17 -94 -17 -107q0 -30 37 -30h25l4 22q-30 0 -35 2l-4 10q1 18 7.5 54t8.5 49h43l4 22h-43l8 41h-26zM1106 180
l-27 129h-28l36 -159l-47 -76h29l137 235h-26zM1249 279l6 30h-26l-43 -237h26l19 106q14 -33 55 -33q39 0 65.5 31.5t26.5 71.5q0 28 -17 45.5t-46 17.5q-40 0 -66 -32zM1491 311q-40 0 -67 -29.5t-27 -70.5q0 -31 17.5 -48.5t47.5 -17.5q26 0 49 14.5t35 39.5h-28
q-16 -31 -52 -31q-43 0 -43 43v8h129q4 20 4 31q0 29 -18 45t-47 16zM1726 336q-63 0 -106 -43t-43 -105q0 -46 30 -72t76 -26q28 0 58 10l-4 19q-23 -10 -49 -10q-40 0 -64.5 20.5t-24.5 60.5q0 53 35 90t88 37q40 0 64 -20.5t24 -58.5q0 -25 -9 -49.5t-29 -24.5
q-15 0 -15 18q0 14 2.5 29.5t8 36.5t6.5 28h-25l-2 -18q-11 23 -39 23q-31 0 -51.5 -26t-20.5 -58q0 -22 13.5 -36t36.5 -14q31 0 51 27q3 -27 32 -27q31 0 47.5 29t16.5 62q0 46 -30.5 72t-76.5 26zM1919 145q43 0 66 33q-4 -27 -8 -42t-18.5 -29.5t-39.5 -14.5
q-17 0 -30.5 8.5t-14.5 24.5h-27v-2q0 -27 20 -40t48 -13q34 0 59 20.5t31 54.5l29 164h-27l-4 -28q-12 30 -55 30q-39 0 -66 -30.5t-27 -69.5q0 -28 17.5 -47t46.5 -19zM2097 287l4 22h-26l-29 -159h27l16 88q11 51 55 51q35 0 35 -37q0 -14 -16 -102h26q1 6 3 23.5t3.5 30
t6 30t11 28.5t18.5 19t28 8q37 0 37 -37q0 -15 -3.5 -32t-8.5 -38t-7 -32h27q2 11 7 34t8 41t3 35q0 51 -53 51q-45 0 -63 -35q-8 35 -54 35q-34 0 -55 -24zM2439 311q-40 0 -67 -30t-27 -70q0 -28 17 -47t46 -19q43 0 66 33l-4 -28h27l28 159h-28l-5 -28q-6 14 -21.5 22
t-31.5 8zM2564 150l29 159h-27l-29 -159h27zM1894 662h43q48 0 48 43q0 40 -48 40h-43v-83zM2408 569q37 0 59.5 25t22.5 63t-22.5 64.5t-59.5 26.5t-59 -26.5t-22 -64.5t22 -63t59 -25zM2591 371l-17 -6l-6 -15l4 -10l11 -4l16 6l6 14l-4 11zM2603 150h27l39 215h-27z
M2701 178l-12 4l-14 -6l-6 -14l4 -10l10 -5l14 7l8 14zM2826 311q-40 0 -67 -29.5t-27 -70.5q0 -30 18 -48t48 -18q28 0 51 15t33 41h-29q-17 -33 -51 -33q-41 0 -41 45q0 30 16 53t45 23q16 0 28 -8.5t13 -22.5h29q-1 26 -19.5 39.5t-46.5 13.5zM3000 311q-41 0 -68.5 -29
t-27.5 -69q0 -30 19 -49t49 -19q41 0 69.5 29.5t28.5 69.5q0 30 -19.5 48.5t-50.5 18.5zM3135 287l5 22h-27l-29 -159h27l16 88q3 23 17 37t37 14q36 0 36 -37q0 -19 -7.5 -55.5t-8.5 -46.5h25q1 7 3.5 28.5t6 37.5t10 34.5t19.5 28.5t32 10q37 0 37 -37q0 -15 -3 -32
t-8 -38.5t-7 -31.5h26q2 12 7.5 34t8.5 41t3 35q0 24 -15.5 37.5t-40.5 13.5q-42 0 -63 -35q-8 35 -51 35q-38 0 -56 -24zM422 967v280h100v94h-315v-94h98v-280h117zM672 967v133l69 -133h129l-79 143q37 10 58 39.5t21 69.5q0 59 -40 90.5t-101 31.5h-176v-374h119z
M909 1341v-374h117v374h-117zM1194 1022h125l18 -55h125l-137 374h-135l-137 -374h123zM1489 1341v-374h231v88h-114v286h-117zM2030 963q82 0 137 55t55 137t-55 137.5t-137 55.5q-83 0 -139 -55.5t-56 -137.5q0 -81 56.5 -136.5t138.5 -55.5zM2382 1155l125 -188h116v374
h-116v-192l-125 192h-119v-374h119v188zM2677 1341v-374h231v88h-115v286h-116zM3054 967h116v112l135 262h-133l-59 -133l-59 133h-136l136 -262v-112zM203 627l59 69l37 -43l-129 -135l-129 135l37 43l59 -69v172h66v-172zM424 250v-10h-102q6 21 22 35t37 14
q19 0 31 -10.5t12 -28.5zM385 696l59 -69v172h64v-172l59 69l39 -43l-129 -135l-129 135zM700 250l-2 -10h-100q5 21 21 35t38 14q19 0 31 -10.5t12 -28.5zM817 170q-21 0 -33 12t-12 33q0 29 19 51.5t47 22.5q21 0 33 -13t12 -34q0 -29 -19 -50.5t-47 -21.5zM1284 170
q-20 0 -32.5 12.5t-12.5 32.5q0 29 20 51.5t48 22.5q20 0 32.5 -12.5t12.5 -32.5q0 -29 -20 -51.5t-48 -22.5zM780 770h125v-25h-96v-75h78v-23h-78v-100h-29v223zM932 629v141h29v-141q0 -60 55 -60t55 60v141h29v-141q0 -38 -23 -61t-61 -23t-61 23t-23 61zM1253 547h-108
v223h31v-201h77v-22zM1384 547h-106v223h29v-201h77v-22zM1530 250l-2 -10h-101q5 21 21 35t39 14q19 0 31 -10.5t12 -28.5zM1708 260q14 0 23.5 -10.5t9.5 -24.5q0 -23 -13.5 -40t-35.5 -17q-31 0 -31 33q0 22 12.5 40.5t34.5 18.5zM3467 440v-440h-3424v440h3424z
M1995 242q0 -28 -19.5 -50t-46.5 -22q-21 0 -33 12t-12 33q0 29 19 51.5t47 22.5q20 0 32.5 -13.5t12.5 -33.5zM2419 170q-21 0 -33 12t-12 33q0 29 18.5 51.5t46.5 22.5q20 0 32.5 -13.5t12.5 -33.5q0 -29 -18.5 -50.5t-46.5 -21.5zM2976 168q-20 0 -31.5 12.5t-11.5 32.5
q0 31 18 53.5t47 22.5q20 0 32.5 -12.5t12.5 -32.5q0 -30 -19.5 -53t-47.5 -23zM1569 547l-84 223h31l69 -192l70 192h31l-84 -223h-33zM1710 770h121v-25h-90v-73h80v-25h-80v-78h90v-22h-121v223zM2015 705q0 -52 -53 -66l55 -92h-35l-53 90h-35v-90h-28v223h71
q33 0 55.5 -16.5t22.5 -48.5zM2120 569q45 0 45 37q0 19 -19 29.5t-41.5 13.5t-41.5 18.5t-19 43.5q0 29 22 45t52 16t51 -14.5t24 -42.5h-32q-1 16 -14.5 24.5t-30.5 8.5q-41 0 -41 -37q0 -19 18.5 -29t41.5 -13.5t41.5 -19t18.5 -43.5q0 -29 -22 -45t-53 -16t-53.5 15.5
t-22.5 45.5h31q3 -37 45 -37zM2232 547v223h29v-223h-29zM2408 772q49 0 81 -32.5t32 -82.5q0 -48 -32 -80t-81 -32q-47 0 -78.5 32.5t-31.5 79.5q0 48 31.5 81.5t78.5 33.5zM2556 547v223h29l116 -178v178h29v-223h-29l-116 176v-176h-29zM2943 696l59 -69v172h64v-172
l59 69l39 -43l-129 -135l-129 135zM3250 696l60 -69v172h63v-172l59 69l37 -43l-129 -135l-129 135zM672 1180v63h45q15 0 25 -9t10 -24q0 -30 -35 -30h-45zM1257 1214l33 -104h-67zM43 874v560h3424v-560h-3424zM2030 1239q35 0 54 -23.5t19 -60.5t-19 -60.5t-54 -23.5
q-37 0 -55.5 23.5t-18.5 60.5t18.5 60.5t55.5 23.5z" />
    <glyph glyph-name="A" unicode="A" horiz-adv-x="1294" 
d="M715 1444l508 -1329q40 -101 123 -101v-14h-410v14q104 0 104 62q0 20 -8 39l-149 393h-611l-12 -33q-74 -192 -74 -295q0 -40 27 -102q27 -64 145 -64v-14h-409v14q103 0 186 215l465 1215h115zM285 539h585l-292 770z" />
    <glyph glyph-name="B" unicode="B" horiz-adv-x="1193" 
d="M66 0v14q102 0 102 56v1294q0 55 -102 55v15h428q259 0 399.5 -87.5t140.5 -248.5q0 -126 -85 -207.5t-247 -110.5q222 -22 344.5 -123.5t122.5 -265.5q0 -186 -156 -288.5t-438 -102.5h-509zM352 786h62q198 0 316 84t118 224t-118 223.5t-316 83.5h-6q-56 0 -56 -55
v-560zM352 86q0 -55 56 -55h86q230 0 358.5 96t128.5 268t-128.5 267.5t-358.5 95.5h-142v-672z" />
    <glyph glyph-name="C" unicode="C" horiz-adv-x="1265" 
d="M66 719q0 334 194.5 535.5t517.5 201.5q121 0 230 -30.5t176 -84.5l16 -303h-14q-61 178 -183.5 282.5t-269.5 104.5q-132 0 -240.5 -86t-170.5 -236t-62 -333q0 -148 44 -288t116 -243.5t170 -166t201 -62.5q130 0 235 104t180 308h15l-39 -324q-157 -118 -406 -118
q-321 0 -515.5 203t-194.5 536z" />
    <glyph glyph-name="D" unicode="D" horiz-adv-x="1372" 
d="M66 0v14q102 0 102 56v1294q0 55 -102 55v15h548q151 0 280 -53t220 -147t142 -227.5t51 -289.5q0 -208 -89 -371.5t-249 -254.5t-363 -91h-540zM414 31h196q221 0 361.5 180t140.5 463q0 202 -74.5 369.5t-204.5 263.5t-286 96h-125q-70 0 -70 -55v-1262q0 -55 62 -55z
" />
    <glyph glyph-name="E" unicode="E" horiz-adv-x="1095" 
d="M168 70v1294q0 55 -102 55v15h942l22 -250l-14 -4q-107 223 -457 223h-104q-103 0 -103 -55v-557h264q94 0 158 163h14v-356h-14q-65 164 -158 164h-264v-676q0 -55 103 -55h102q332 0 469 272l14 -4l-34 -299h-940v14q102 0 102 56z" />
    <glyph glyph-name="F" unicode="F" horiz-adv-x="1054" 
d="M168 70v1294q0 55 -102 55v15h942l22 -250l-14 -4q-128 223 -416 223h-145q-103 0 -103 -55v-598h285q94 0 158 163h14v-356h-14q-65 164 -158 164h-285v-651q0 -56 133 -56v-14h-419v14q102 0 102 56z" />
    <glyph glyph-name="G" unicode="G" horiz-adv-x="1353" 
d="M66 719q0 333 198.5 535t526.5 202q123 0 239.5 -34.5t194.5 -94.5l16 -303h-14q-71 182 -204 291.5t-284 109.5q-132 0 -241.5 -84.5t-173.5 -235t-64 -335.5q0 -155 44 -296t118 -242.5t177 -161.5t216 -60q109 0 188.5 68t79.5 160v260q0 55 -143 55v14h410v-14
q-103 0 -103 -55v-498h-14q-13 49 -27.5 67.5t-38.5 18.5q-15 0 -46 -16.5t-67.5 -36.5t-108 -36.5t-157.5 -16.5q-327 0 -524.5 203t-197.5 536z" />
    <glyph glyph-name="H" unicode="H" horiz-adv-x="1400" 
d="M168 70v1294q0 55 -102 55v15h389v-15q-103 0 -103 -55v-588h697v588q0 55 -103 55v15h389v-15q-102 0 -102 -55v-1294q0 -56 102 -56v-14h-389v14q103 0 103 56v675h-697v-675q0 -56 103 -56v-14h-389v14q102 0 102 56z" />
    <glyph glyph-name="I" unicode="I" horiz-adv-x="520" 
d="M168 70v1294q0 55 -102 55v15h389v-15q-103 0 -103 -55v-1294q0 -56 103 -56v-14h-389v14q102 0 102 56z" />
    <glyph glyph-name="J" unicode="J" horiz-adv-x="786" 
d="M444 281v1083q0 55 -122 55v15h409v-15q-102 0 -102 -55v-1092q0 -136 -87.5 -213t-242.5 -77q-135 0 -217 56t-82 150q0 74 50 128.5t116 54.5q24 0 45 -9q-43 -68 -43 -163q0 -82 38.5 -134.5t98.5 -52.5q67 0 103 70t36 199z" />
    <glyph glyph-name="K" unicode="K" horiz-adv-x="1193" 
d="M168 70v1294q0 55 -102 55v15h389v-15q-103 0 -103 -55v-686l490 536q51 54 51 103q0 60 -86 104v13h334v-13q-83 -12 -168 -106l-379 -416l524 -809q46 -76 125 -76h4v-14h-276l-494 772l-125 -137v-563q0 -58 123 -58v-14h-409v14q102 0 102 56z" />
    <glyph glyph-name="L" unicode="L" horiz-adv-x="995" 
d="M168 70v1294q0 55 -102 55v15h389v-15q-103 0 -103 -55v-1278q0 -55 56 -55h104q337 0 469 272l14 -4l-34 -299h-895v14q102 0 102 56z" />
    <glyph glyph-name="M" unicode="M" horiz-adv-x="1658" 
d="M1327 70l-16 1259q-47 -88 -121 -278l-399 -1020h-43l-508 1292l-13 25l-22 -818q-2 -53 -2 -143q0 -231 28 -276q39 -59 121 -101v-10h-327v10q70 43 104 101q36 58 45 419l25 856q-33 33 -84 33v15h272l461 -1176l461 1176h288v-15q-102 0 -102 -55l16 -1294
q0 -56 103 -56v-14h-410v14q123 0 123 56z" />
    <glyph glyph-name="N" unicode="N" horiz-adv-x="1265" 
d="M1098 0l-920 1341v-1038q0 -253 123 -293v-10h-256v10q102 40 102 293v1075q-44 41 -100 41v15h272l768 -1123v819q0 248 -102 289v15h236v-15q-103 -41 -103 -289v-1130h-20z" />
    <glyph glyph-name="O" unicode="O" horiz-adv-x="1556" 
d="M66 719q0 334 194.5 535.5t517.5 201.5q320 0 516.5 -203t196.5 -534q0 -330 -197 -534.5t-516 -204.5q-322 0 -517 203t-195 536zM260 770q0 -156 43 -296.5t116.5 -242t175.5 -161.5t214 -60q138 0 250 86t174.5 237.5t62.5 338.5q0 205 -74 378t-202.5 274t-280.5 101
q-209 0 -344 -184t-135 -471z" />
    <glyph glyph-name="P" unicode="P" horiz-adv-x="1079" 
d="M1075 1026q0 -192 -152.5 -300t-422.5 -108h-148v-546q0 -58 123 -58v-14h-409v14q102 0 102 56v1294q0 55 -102 55v15h434q270 0 422.5 -108t152.5 -300zM352 649h127q195 0 302.5 97.5t107.5 279.5t-107.5 279.5t-302.5 97.5h-80q-47 0 -47 -53v-701z" />
    <glyph glyph-name="Q" unicode="Q" horiz-adv-x="1556" 
d="M260 770q0 -156 43 -296.5t116.5 -242t175.5 -161.5t214 -60q138 0 250 86t174.5 237.5t62.5 338.5q0 205 -74 378t-202.5 274t-280.5 101q-209 0 -344 -184t-135 -471zM528 -168l201 150q-301 15 -482 215.5t-181 521.5q0 334 194.5 535.5t517.5 201.5q320 0 516.5 -203
t196.5 -534q0 -330 -197 -534.5t-516 -204.5h-2l-164 -121q59 -6 229 -36t244 -30q89 0 139 30.5t72 96.5q60 -60 60 -131q0 -81 -50.5 -127.5t-136.5 -46.5q-54 0 -119 20t-127.5 50t-126 60.5t-135 55.5t-133.5 31z" />
    <glyph glyph-name="R" unicode="R" horiz-adv-x="1202" 
d="M1055 1067q0 -142 -100.5 -233.5t-284.5 -120.5q115 -12 171 -47.5t87 -114.5l182 -465q28 -72 109 -72h4v-14h-187q-101 0 -139 96l-178 455q-31 78 -92.5 113.5t-165.5 35.5h-109v-628q0 -58 123 -58v-14h-409v14q102 0 102 56v1294q0 55 -102 55v15h436
q259 0 406 -97.5t147 -269.5zM352 731h119q187 0 292 89t105 247t-105 247t-292 89h-72q-47 0 -47 -53v-619z" />
    <glyph glyph-name="S" unicode="S" horiz-adv-x="1134" 
d="M242 1186q0 -68 63 -131t215 -148l232 -129q172 -95 255 -195t83 -212q0 -109 -70.5 -198.5t-193.5 -141t-271 -51.5q-120 0 -247 33t-234 93l-19 371h15q60 -226 186 -346.5t301 -120.5q150 0 249 82t99 205q0 98 -75.5 184t-245.5 181l-240 133q-285 157 -285 346
q0 139 136.5 227t351.5 88q128 0 238 -32t176 -89l16 -303h-14q-19 160 -142 276.5t-274 116.5q-120 0 -212.5 -72.5t-92.5 -166.5z" />
    <glyph glyph-name="T" unicode="T" horiz-adv-x="1167" 
d="M492 70v1278q0 55 -105 55h-31q-216 0 -336 -313l-14 4l35 340h1085l35 -340l-14 -4q-114 313 -336 313h-31q-104 0 -104 -55v-1278q0 -56 123 -56v-14h-430v14q123 0 123 56z" />
    <glyph glyph-name="U" unicode="U" horiz-adv-x="1267" 
d="M158 496v872q0 51 -103 51v15h389v-15q-102 0 -102 -51v-872q0 -205 104.5 -331t274.5 -126t274.5 120t104.5 316v746q0 154 -103 198v15h236v-15q-103 -44 -103 -198v-748q0 -223 -133.5 -358t-351.5 -135q-220 0 -353.5 141.5t-133.5 374.5z" />
    <glyph glyph-name="V" unicode="V" horiz-adv-x="1275" 
d="M580 -10l-508 1329q-40 100 -123 100v15h409v-15q-104 0 -104 -61q0 -20 8 -39l455 -1190l225 592q123 323 123 508q0 75 -21 131q-20 56 -96 59v15h379v-15q-85 0 -125 -100l-508 -1329h-114z" />
    <glyph glyph-name="W" unicode="W" horiz-adv-x="1818" 
d="M1165 -10l-254 723l-254 -723h-114l-467 1329q-37 100 -123 100h-4v15h409v-15q-100 0 -100 -61q0 -20 8 -39l414 -1184l215 619l-197 565q-34 100 -123 100h-4v15h410v-15q-100 0 -100 -61q0 -20 8 -39l411 -1182l203 576q111 317 111 501q0 82 -23 146q-21 53 -78 59
v15h357v-15q-89 0 -123 -100l-467 -1329h-115z" />
    <glyph glyph-name="X" unicode="X" horiz-adv-x="1345" 
d="M852 0v14q156 0 156 58q0 16 -17 43l-381 563q-323 -484 -323 -582v-10q15 -69 131 -72v-14h-418v14q63 0 139 101l451 590l-416 614q-66 100 -156 100v15h494v-15q-150 0 -150 -55q0 -18 17 -45l366 -541q308 452 308 559v11q-12 71 -131 71v15h417v-15q-64 0 -139 -100
l-436 -567l432 -637q67 -101 150 -101v-14h-494z" />
    <glyph glyph-name="Y" unicode="Y" horiz-adv-x="1191" 
d="M504 70v518l-432 731q-54 91 -123 100v15h409v-15q-100 -6 -100 -55q0 -16 16 -45l406 -690l59 100q236 394 236 567q0 34 -10 64q-20 56 -78 59v15h356v-15q-69 -9 -123 -100l-432 -731v-518q0 -56 123 -56v-14h-430v14q123 0 123 56z" />
    <glyph glyph-name="Z" unicode="Z" horiz-adv-x="1142" 
d="M14 0v10l908 1393h-252q-412 0 -596 -289l-15 4l74 316h1006v-11l-908 -1392h273q417 0 614 354l15 -4l-93 -381h-1026z" />
    <glyph glyph-name="a" unicode="a" horiz-adv-x="1058" 
d="M911 770v-668q0 -13 7.5 -19.5t17.5 -6.5q9 0 15.5 7t6.5 19h15q0 -108 -119 -108q-60 0 -93.5 28t-33.5 80v177q-57 -148 -152.5 -223.5t-224.5 -75.5q-128 0 -206 68.5t-78 182.5q0 149 163 234q60 32 198 73t206 89q94 66 94 153q0 103 -56 169.5t-143 66.5
q-89 0 -151 -67.5t-62 -164.5q0 -75 43 -112q-34 -15 -67 -15q-66 0 -117 43t-51 105q0 63 59 118.5t159 88t214 32.5q168 0 262 -72.5t94 -201.5zM727 444v246q-10 -31 -68 -86q-41 -39 -150 -87t-144 -71q-109 -71 -109 -192q0 -85 48 -135.5t130 -50.5q122 0 207.5 109.5
t85.5 266.5z" />
    <glyph glyph-name="b" unicode="b" horiz-adv-x="1218" 
d="M147 0v1366q0 135 -102 135v15q226 0 287 40v-661q116 149 332 149q221 0 355 -146t134 -386q0 -236 -138.5 -384t-359.5 -148q-162 0 -321 108q-39 25 -70 25q-41 0 -68.5 -31t-27.5 -82h-21zM332 762v-453q32 -135 122 -217t205 -82q145 0 224.5 119.5t79.5 337.5
q0 246 -96 396.5t-251 150.5q-101 0 -174 -65t-110 -187z" />
    <glyph glyph-name="c" unicode="c" horiz-adv-x="983" 
d="M66 512q0 232 151.5 382t386.5 150q151 0 246.5 -62.5t95.5 -162.5q0 -59 -34 -93t-89 -34q-41 0 -88 21q23 33 23 102q0 93 -49.5 146t-139.5 53q-140 0 -229.5 -126.5t-89.5 -326.5q0 -232 115 -377t299 -145q176 0 282 154h27q-72 -110 -166.5 -161.5t-226.5 -51.5
q-227 0 -370.5 148t-143.5 384z" />
    <glyph glyph-name="d" unicode="d" horiz-adv-x="1239" 
d="M887 0v129q-116 -149 -332 -149q-220 0 -354.5 145t-134.5 381q0 239 136.5 388.5t354.5 149.5q171 0 330 -108v430q0 135 -103 135v15q203 0 287 40v-1486q0 -56 103 -56v-14h-287zM887 262v453q-32 135 -123 217t-209 82q-141 0 -220 -120.5t-79 -338.5
q0 -245 95.5 -395t250.5 -150q100 0 174 66t111 186z" />
    <glyph glyph-name="e" unicode="e" horiz-adv-x="1036" 
d="M250 584h559q-22 207 -99.5 318.5t-199.5 111.5q-121 0 -189 -113t-71 -317zM66 512q0 234 133 383t342 149q195 0 319.5 -134t134.5 -357h-745q3 -236 116 -379t296 -143q178 0 303 162h28q-74 -110 -170 -161.5t-231 -51.5q-233 0 -379.5 148t-146.5 384z" />
    <glyph glyph-name="f" unicode="f" horiz-adv-x="593" 
d="M352 70q0 -56 103 -56v-14h-389v14q102 0 102 56v923h-102v31h102v260q0 126 81 199t220 73q115 0 189.5 -48t74.5 -122q0 -52 -38 -84t-97 -32q-19 0 -55 8q12 44 12 94q0 71 -24.5 112.5t-65.5 41.5q-52 0 -82.5 -67.5t-30.5 -184.5v-250h205v-31h-205v-923z" />
    <glyph glyph-name="g" unicode="g" horiz-adv-x="1103" 
d="M238 709q0 -167 77 -269t203 -102q113 0 175.5 81.5t62.5 227.5q0 166 -77.5 266.5t-205.5 100.5q-113 0 -174 -79.5t-61 -225.5zM53 676q0 164 123.5 266t321.5 102q108 0 190 -30q129 225 266 225q83 0 113.5 -73.5t-20.5 -151.5q-10 29 -43.5 46t-79.5 17
q-102 0 -199 -78q101 -46 158 -130.5t57 -192.5q0 -163 -123 -266t-319 -103q-119 0 -209 37q-25 -42 -25 -70q0 -32 27.5 -51t87.5 -30q63 -11 214 -13.5t218 -15.5q217 -40 217 -221q0 -161 -154.5 -267t-390.5 -106q-201 0 -329.5 77.5t-128.5 198.5q0 73 46 117.5
t117 44.5q29 0 56 -6q-35 -21 -35 -102q0 -129 96.5 -208t253.5 -79t276 72.5t119 167.5q0 101 -163 135q-77 16 -236.5 17.5t-189.5 4.5q-201 18 -201 140q0 88 98 206q-98 45 -153.5 128.5t-55.5 191.5z" />
    <glyph glyph-name="h" unicode="h" horiz-adv-x="1202" 
d="M168 70v1292q0 139 -102 139v15q144 0 286 40v-872q61 177 167 272t241 95q134 0 211.5 -90.5t77.5 -245.5v-645q0 -56 102 -56v-14h-389v14q102 0 102 56v618q0 139 -48.5 221t-131.5 82q-78 0 -156 -71.5t-127 -184t-49 -225.5v-440q0 -56 103 -56v-14h-389v14
q102 0 102 56z" />
    <glyph glyph-name="i" unicode="i" horiz-adv-x="512" 
d="M123 1296q0 41 33.5 72t79.5 31t79 -31t33 -72q0 -43 -33 -72.5t-79 -29.5t-79.5 30t-33.5 72zM164 70v780q0 139 -103 139v15q203 0 287 40v-974q0 -56 103 -56v-14h-390v14q103 0 103 56z" />
    <glyph glyph-name="j" unicode="j" horiz-adv-x="512" 
d="M123 1296q0 41 33.5 72t79.5 31t79 -31t33 -72q0 -43 -33 -72.5t-79 -29.5t-79.5 30t-33.5 72zM348 -86q0 -163 -81.5 -248.5t-235.5 -85.5q-118 0 -193.5 46.5t-75.5 117.5q0 64 57 104t134 31q-12 -46 -12 -102q0 -71 29 -118.5t73 -47.5q54 0 87.5 74.5t33.5 195.5
v969q0 139 -103 139v15q203 0 287 40v-1130z" />
    <glyph glyph-name="k" unicode="k" horiz-adv-x="1058" 
d="M352 1556v-1071l115 99v2l299 252q59 53 59 106q0 17 -2 25q-8 38 -35 41v14h283v-14q-77 -12 -266 -174l-193 -166l371 -584q44 -69 127 -72v-14h-274l-353 561l-131 -112v-379q0 -56 103 -56v-14h-389v14q102 0 102 56v1292q0 139 -102 139v15q225 0 286 40z" />
    <glyph glyph-name="l" unicode="l" horiz-adv-x="520" 
d="M168 70v1296q0 135 -102 135v15q202 0 286 40v-1486q0 -56 103 -56v-14h-389v14q102 0 102 56z" />
    <glyph glyph-name="m" unicode="m" horiz-adv-x="1812" 
d="M164 70v784q0 139 -103 139v11q145 0 287 40v-360q63 180 160 273.5t223 93.5t199.5 -90.5t73.5 -245.5v-31q63 181 159.5 274t222.5 93t199.5 -90.5t73.5 -245.5v-645q0 -56 102 -56v-14h-389v14q103 0 103 56v618q0 138 -44 220.5t-118 82.5q-71 0 -143.5 -72.5
t-119 -185.5t-46.5 -223v-440q0 -56 102 -56v-14h-389v14q102 0 102 56v618q0 138 -44 220.5t-118 82.5q-71 0 -143.5 -72.5t-119 -185.5t-46.5 -223v-440q0 -56 103 -56v-14h-390v14q103 0 103 56z" />
    <glyph glyph-name="n" unicode="n" horiz-adv-x="1198" 
d="M164 70v780q0 139 -103 139v15q145 0 287 40v-360q61 177 167 272t241 95q133 0 210.5 -90.5t77.5 -245.5v-645q0 -56 103 -56v-14h-389v14q102 0 102 56v618q0 139 -48.5 221t-131.5 82q-78 0 -156 -71.5t-127 -184t-49 -225.5v-440q0 -56 103 -56v-14h-390v14
q103 0 103 56z" />
    <glyph glyph-name="o" unicode="o" horiz-adv-x="1155" 
d="M66 512q0 236 142.5 384t369.5 148t369.5 -148t142.5 -384t-142.5 -384t-369.5 -148t-369.5 148t-142.5 384zM256 565q0 -248 98 -401.5t256 -153.5q136 0 212.5 119.5t76.5 331.5q0 247 -98 400t-256 153q-137 0 -213 -118.5t-76 -330.5z" />
    <glyph glyph-name="p" unicode="p" horiz-adv-x="1218" 
d="M147 -340v1190q0 139 -102 139v15q203 0 287 40v-108q159 108 330 108q218 0 354.5 -149.5t136.5 -388.5q0 -236 -134.5 -381t-354.5 -145q-216 0 -332 149v-469q0 -55 102 -55v-15h-389v15q102 0 102 55zM332 715v-453q37 -120 111 -186t173 -66q155 0 251 150.5
t96 394.5q0 218 -79 338.5t-220 120.5q-118 0 -209 -82t-123 -217z" />
    <glyph glyph-name="q" unicode="q" horiz-adv-x="1218" 
d="M1071 -340q0 -55 103 -55v-15h-390v15q103 0 103 55v467q-117 -150 -332 -150q-221 0 -355 146.5t-134 386.5q0 236 138 384t359 148q163 0 322 -108q39 -25 69 -25q41 0 69 31t28 82h20v-1362zM887 260v453q-32 135 -122 217t-206 82q-145 0 -224 -119.5t-79 -337.5
q0 -246 95.5 -396.5t250.5 -150.5q101 0 174.5 65t110.5 187z" />
    <glyph glyph-name="r" unicode="r" horiz-adv-x="901" 
d="M731 1044q74 0 117 -38.5t43 -104.5t-31 -100q-13 36 -57.5 58t-102.5 22q-116 0 -211.5 -91t-140.5 -241v-479q0 -56 123 -56v-14h-410v14q103 0 103 56v780q0 139 -103 139v15q226 0 287 40v-407q60 192 161 299.5t222 107.5z" />
    <glyph glyph-name="s" unicode="s" horiz-adv-x="972" 
d="M260 866q0 -52 48.5 -94.5t180.5 -105.5l95 -45q180 -86 259 -169t79 -184q0 -130 -112.5 -209t-297.5 -79q-121 0 -241 34t-199 92l-11 250l15 2q54 -149 179 -248.5t257 -99.5q95 0 154 53t59 138q0 78 -63 141t-213 133l-101 47q-150 70 -215 134t-65 141
q0 109 107.5 176t279.5 67q246 0 411 -131l13 -198l-15 -2q-47 129 -164 215t-245 86q-87 0 -141 -40.5t-54 -103.5z" />
    <glyph glyph-name="t" unicode="t" horiz-adv-x="579" 
d="M348 215q0 -174 88 -174q60 0 82 61h21q-34 -120 -179 -120q-196 0 -196 208v803h-82v31q206 0 252 246h14v-246h164v-31h-164v-778z" />
    <glyph glyph-name="u" unicode="u" horiz-adv-x="1177" 
d="M510 39q74 0 149 72.5t122.5 185t47.5 223.5v330q0 139 -102 139v15q226 0 287 40v-942q0 -26 24 -26q9 0 16 7t7 19h14q0 -108 -119 -108q-60 0 -93.5 28t-33.5 80v244q-61 -178 -163 -272t-232 -94t-205 90t-75 245v535q0 139 -103 139v15q226 0 287 40v-702
q0 -138 47 -220.5t125 -82.5z" />
    <glyph glyph-name="v" unicode="v" horiz-adv-x="997" 
d="M467 -10l-416 952q-30 68 -88 68v14h389v-14q-116 0 -116 -45q0 -11 6 -23l338 -770l243 567q26 69 24 129.5t-33.5 101t-80.5 40.5v14h301v-14q-59 0 -110 -117l-394 -903h-63z" />
    <glyph glyph-name="w" unicode="w" horiz-adv-x="1554" 
d="M1047 -10l-269 643l-266 -643h-63l-396 952q-27 68 -86 68h-4v14h395v-14h-8q-110 0 -110 -47q0 -5 4 -21l315 -762l139 334q28 63 64 158l-111 270q-27 68 -86 68h-4v14h395v-14h-8q-110 0 -110 -47q0 -5 4 -21l315 -762l225 549q24 69 21 131.5t-34.5 106t-78.5 43.5
v14h301v-14q-59 0 -86 -68l-395 -952h-63z" />
    <glyph glyph-name="x" unicode="x" horiz-adv-x="1015" 
d="M623 0v14q112 0 112 39q0 14 -12 29l-281 393q-241 -351 -241 -414q3 -47 90 -47v-14h-307v14q63 0 116 68l322 422l-311 438q-50 68 -109 68v14h410v-14q-111 0 -111 -39q0 -14 12 -29l260 -364q240 328 240 385q-3 47 -111 47v14h308v-14q-41 -3 -97 -68l-321 -391
l334 -469q50 -68 106 -68v-14h-409z" />
    <glyph glyph-name="y" unicode="y" horiz-adv-x="997" 
d="M479 -35l-428 977q-30 68 -88 68v14h395v-14q-122 0 -122 -47q0 -9 6 -21l338 -770l149 342q57 131 81 255t5 194q-12 47 -61 47v14h280v-14q-58 0 -88 -68l-416 -952q-92 -212 -194 -316t-219 -104q-97 0 -133 63.5t8 157.5q20 -14 68.5 -23.5t95.5 -9.5q100 0 176 49
t147 158z" />
    <glyph glyph-name="z" unicode="z" horiz-adv-x="866" 
d="M4 0v14l627 979h-197q-261 0 -387 -190l-10 4l53 217h758v-14l-629 -979h219q258 0 408 231l10 -4l-74 -258h-778z" />
    </font>
</defs>
</svg>
