<?xml version="1.0" standalone="no"?>
<!DOCTYPE svg PUBLIC "-//W3C//DTD SVG 1.1//EN" "http://www.w3.org/Graphics/SVG/1.1/DTD/svg11.dtd" >
<svg xmlns="http://www.w3.org/2000/svg" xmlns:xlink="http://www.w3.org/1999/xlink" version="1.1">
<metadata>
Created by FontForge 20170731 at Mon Oct 16 08:51:09 2023
 By Aleksey,,,
Copyright (c) 2022 by Kereatype.  All right reserved.
</metadata>
<defs>
<font id="SandeMoreDemo-Medium" horiz-adv-x="3508" >
  <font-face 
    font-family="San de More Demo Med"
    font-weight="500"
    font-stretch="normal"
    units-per-em="2048"
    panose-1="0 0 0 0 0 0 0 0 0 0"
    ascent="1638"
    descent="-410"
    x-height="1024"
    cap-height="1434"
    bbox="-227 -430 3467 1556"
    underline-thickness="102"
    underline-position="-358"
    unicode-range="U+000D-007A"
  />
<missing-glyph horiz-adv-x="1024" 
 />
    <glyph glyph-name=".notdef" horiz-adv-x="1024" 
 />
    <glyph glyph-name="uni0000" horiz-adv-x="0" 
 />
    <glyph glyph-name="uni0000" horiz-adv-x="0" 
 />
    <glyph glyph-name="uni000D" unicode="&#xd;" horiz-adv-x="512" 
 />
    <glyph glyph-name="space" unicode=" " horiz-adv-x="507" 
 />
    <glyph glyph-name="comma" unicode="," horiz-adv-x="385" 
d="M100 82q0 43 26 72.5t67 29.5q43 0 67.5 -33.5t24.5 -91.5q0 -85 -46 -150t-106 -65v13q26 3 43 22t17 47q0 24 -14.5 42t-32 28.5t-32 32.5t-14.5 53z" />
    <glyph glyph-name="period" unicode="." horiz-adv-x="385" 
d="M100 82q0 44 27 73t66 29q40 0 66 -29t26 -73q0 -43 -26.5 -72.5t-65.5 -29.5q-38 0 -65.5 29.5t-27.5 72.5z" />
    <glyph glyph-name="zero" unicode="0" 
d="M190 238l23 127h-27l-39 -215h27l14 69l50 -69h36l-61 79l88 80h-37zM385 311q-41 0 -68.5 -29.5t-27.5 -70.5q0 -31 18 -48.5t49 -17.5q26 0 49 14.5t33 39.5h-28q-16 -31 -50 -31q-20 0 -32.5 11.5t-12.5 31.5v8h129q0 2 3.5 13.5t3.5 17.5q0 28 -18.5 44.5t-47.5 16.5
zM512 279l6 30h-26l-29 -159h26q2 10 4 29.5t3.5 31.5t6.5 27.5t12 24.5t19.5 15.5t30.5 6.5l4 26q-38 0 -57 -32zM659 311q-40 0 -67 -29.5t-27 -70.5q0 -30 18 -48t48 -18q26 0 49 14.5t35 39.5h-29q-16 -31 -51 -31q-43 0 -43 43v8h129q4 20 4 31q0 28 -18.5 44.5
t-47.5 16.5zM836 311q-39 0 -67 -30.5t-28 -69.5q0 -28 17.5 -47t46.5 -19q42 0 65 33l-4 -28h27l29 159h-27l-6 -28q-12 30 -53 30zM973 350l-8 -41h-21l-4 -22h21q-17 -94 -17 -107q0 -30 37 -30h25l4 22q-30 0 -35 2l-4 10q1 18 7.5 54t8.5 49h43l4 22h-43l8 41h-26z
M1104 180l-27 129h-28l36 -159l-47 -76h29l137 235h-26zM1247 279l6 30h-26l-43 -237h26l19 106q14 -33 55 -33q39 0 65.5 31.5t26.5 71.5q0 28 -17 45.5t-46 17.5q-40 0 -66 -32zM1489 311q-40 0 -67 -29.5t-27 -70.5q0 -31 17.5 -48.5t47.5 -17.5q26 0 49 14.5t35 39.5
h-28q-16 -31 -52 -31q-43 0 -43 43v8h129q4 20 4 31q0 29 -18 45t-47 16zM1724 336q-63 0 -106 -43t-43 -105q0 -46 30 -72t76 -26q28 0 58 10l-4 19q-23 -10 -49 -10q-40 0 -64.5 20.5t-24.5 60.5q0 53 35 90t88 37q40 0 64 -20.5t24 -58.5q0 -25 -9.5 -49.5t-29.5 -24.5
q-14 0 -14 18q0 14 2.5 29.5t8 36.5t6.5 28h-25l-2 -18q-11 23 -39 23q-31 0 -51.5 -26t-20.5 -58q0 -22 13 -36t36 -14q32 0 52 27q3 -27 32 -27q31 0 47.5 29t16.5 62q0 46 -30.5 72t-76.5 26zM1917 145q42 0 65 33q-4 -28 -7.5 -42t-18 -29t-39.5 -15q-17 0 -30.5 8.5
t-14.5 24.5h-27v-2q0 -27 20 -40t48 -13q34 0 59 20.5t31 54.5l29 164h-27l-4 -28q-12 30 -55 30q-39 0 -66 -30.5t-27 -69.5q0 -28 17.5 -47t46.5 -19zM2095 287l4 22h-26l-29 -159h27l16 88q11 51 55 51q35 0 35 -37q0 -14 -16 -102h26q1 6 3 23.5t3.5 30t6 30t11 28.5
t18.5 19t28 8q37 0 37 -37q0 -15 -3.5 -32t-8.5 -38t-7 -32h27q2 11 7 34t8 41t3 35q0 51 -53 51q-45 0 -63 -35q-8 35 -54 35q-34 0 -55 -24zM2437 311q-40 0 -67 -30t-27 -70q0 -28 17 -47t46 -19q43 0 66 33l-4 -28h26l29 159h-29l-4 -28q-6 14 -21.5 22t-31.5 8z
M2562 150l29 159h-27l-29 -159h27zM1892 662h43q47 0 47 43q0 40 -47 40h-43v-83zM2406 569q37 0 59.5 25t22.5 63t-22.5 64.5t-59.5 26.5t-59.5 -26.5t-22.5 -64.5t22.5 -63t59.5 -25zM2589 371l-17 -6l-6 -15l4 -10l10 -4l17 6l6 14l-4 11zM2601 150h27l38 215h-26z
M2699 178l-12 4l-14 -6l-7 -14l5 -10l10 -5l14 7l8 14zM2824 311q-40 0 -67 -29.5t-27 -70.5q0 -30 18 -48t48 -18q28 0 50.5 15t32.5 41h-28q-17 -33 -51 -33q-41 0 -41 45q0 30 16 53t45 23q16 0 28 -8.5t13 -22.5h29q-1 26 -19.5 39.5t-46.5 13.5zM2998 311
q-41 0 -68.5 -29t-27.5 -69q0 -30 19 -49t49 -19q41 0 69.5 29.5t28.5 69.5q0 30 -19.5 48.5t-50.5 18.5zM3133 287l5 22h-27l-29 -159h27l16 88q3 23 17 37t36 14q37 0 37 -37q0 -19 -7.5 -55.5t-8.5 -46.5h25q1 7 3.5 28.5t6 37.5t10 34.5t19.5 28.5t32 10q37 0 37 -37
q0 -15 -3 -32t-8 -38.5t-7 -31.5h26q2 12 7.5 34t8.5 41t3 35q0 24 -15.5 37.5t-40.5 13.5q-42 0 -63 -35q-8 35 -51 35q-38 0 -56 -24zM420 967v280h100v94h-315v-94h98v-280h117zM670 967v133l69 -133h129l-80 143q37 11 58.5 40t21.5 69q0 59 -40 90.5t-101 31.5h-176
v-374h119zM907 1341v-374h117v374h-117zM1192 1022h125l18 -55h125l-137 374h-135l-137 -374h123zM1487 1341v-374h231v88h-114v286h-117zM2028 963q82 0 137 55t55 137t-55 137.5t-137 55.5q-83 0 -139 -55.5t-56 -137.5q0 -81 56.5 -136.5t138.5 -55.5zM2380 1155
l125 -188h116v374h-116v-192l-125 192h-119v-374h119v188zM2675 1341v-374h231v88h-115v286h-116zM3052 967h116v112l135 262h-133l-59 -133l-59 133h-136l136 -262v-112zM201 627l59 69l37 -43l-129 -135l-129 135l37 43l59 -69v172h66v-172zM422 250v-10h-103
q6 21 22.5 35t37.5 14q19 0 31 -10.5t12 -28.5zM383 696l59 -69v172h64v-172l59 69l39 -43l-129 -135l-129 135zM698 250l-2 -10h-100q5 21 21 35t38 14q19 0 31 -10.5t12 -28.5zM815 170q-21 0 -33 12t-12 33q0 29 19 51.5t47 22.5q21 0 33 -13t12 -34q0 -29 -19 -50.5
t-47 -21.5zM1282 170q-20 0 -32.5 12.5t-12.5 32.5q0 29 20 51.5t48 22.5q20 0 32.5 -12.5t12.5 -32.5q0 -29 -20 -51.5t-48 -22.5zM778 770h125v-25h-96v-75h78v-23h-78v-100h-29v223zM930 629v141h28v-141q0 -60 56 -60q55 0 55 60v141h29v-141q0 -38 -23 -61t-61 -23
t-61 23t-23 61zM1251 547h-108v223h31v-201h77v-22zM1382 547h-106v223h29v-201h77v-22zM1528 250l-2 -10h-101q5 21 21 35t39 14q19 0 31 -10.5t12 -28.5zM1706 260q14 0 23.5 -10.5t9.5 -24.5q0 -23 -13.5 -40t-35.5 -17q-31 0 -31 33q0 22 12.5 40.5t34.5 18.5zM3465 440
v-440h-3424v440h3424zM1993 242q0 -28 -19.5 -50t-46.5 -22q-21 0 -33 12t-12 33q0 29 19 51.5t47 22.5q20 0 32.5 -13.5t12.5 -33.5zM2417 170q-21 0 -33 12t-12 33q0 29 18.5 51.5t46.5 22.5q20 0 32.5 -13.5t12.5 -33.5q0 -29 -18.5 -50.5t-46.5 -21.5zM2974 168
q-20 0 -31.5 12.5t-11.5 32.5q0 31 18 53.5t47 22.5q20 0 32.5 -12.5t12.5 -32.5q0 -30 -19.5 -53t-47.5 -23zM1567 547l-84 223h30l70 -192l70 192h30l-84 -223h-32zM1708 770h121v-25h-90v-73h80v-25h-80v-78h90v-22h-121v223zM2013 705q0 -52 -53 -66l55 -92h-35l-53 90
h-35v-90h-28v223h71q33 0 55.5 -16.5t22.5 -48.5zM2118 569q45 0 45 37q0 19 -19 29.5t-41.5 13.5t-41.5 18.5t-19 43.5q0 29 22 45t52 16t51 -14.5t24 -42.5h-32q-1 16 -14.5 24.5t-30.5 8.5q-41 0 -41 -37q0 -19 18.5 -29t41.5 -13.5t41.5 -19t18.5 -43.5q0 -29 -22 -45
t-53 -16t-53.5 15.5t-22.5 45.5h31q3 -37 45 -37zM2230 547v223h29v-223h-29zM2406 772q49 0 81 -32.5t32 -82.5q0 -48 -32 -80t-81 -32q-47 0 -78.5 32.5t-31.5 79.5q0 48 31.5 81.5t78.5 33.5zM2554 547v223h29l116 -178v178h29v-223h-29l-116 176v-176h-29zM2941 696
l59 -69v172h64v-172l59 69l39 -43l-129 -135l-129 135zM3248 696l60 -69v172h63v-172l59 69l37 -43l-129 -135l-129 135zM670 1180v63h45q15 0 25 -9t10 -24q0 -30 -35 -30h-45zM1255 1214l33 -104h-67zM41 874v560h3424v-560h-3424zM2028 1239q35 0 54 -23.5t19 -60.5
t-19 -60.5t-54 -23.5q-37 0 -55.5 23.5t-18.5 60.5t18.5 60.5t55.5 23.5z" />
    <glyph glyph-name="one" unicode="1" 
d="M190 238l23 127h-27l-39 -215h27l14 69l50 -69h36l-61 79l88 80h-37zM385 311q-41 0 -68.5 -29.5t-27.5 -70.5q0 -31 18 -48.5t49 -17.5q26 0 49 14.5t33 39.5h-28q-16 -31 -50 -31q-20 0 -32.5 11.5t-12.5 31.5v8h129q0 2 3.5 13.5t3.5 17.5q0 28 -18.5 44.5t-47.5 16.5
zM512 279l6 30h-26l-29 -159h26q2 10 4 29.5t3.5 31.5t6.5 27.5t12 24.5t19.5 15.5t30.5 6.5l4 26q-38 0 -57 -32zM659 311q-40 0 -67 -29.5t-27 -70.5q0 -30 18 -48t48 -18q26 0 49 14.5t35 39.5h-29q-16 -31 -51 -31q-43 0 -43 43v8h129q4 20 4 31q0 28 -18.5 44.5
t-47.5 16.5zM836 311q-39 0 -67 -30.5t-28 -69.5q0 -28 17.5 -47t46.5 -19q42 0 65 33l-4 -28h27l29 159h-27l-6 -28q-12 30 -53 30zM973 350l-8 -41h-21l-4 -22h21q-17 -94 -17 -107q0 -30 37 -30h25l4 22q-30 0 -35 2l-4 10q1 18 7.5 54t8.5 49h43l4 22h-43l8 41h-26z
M1104 180l-27 129h-28l36 -159l-47 -76h29l137 235h-26zM1247 279l6 30h-26l-43 -237h26l19 106q14 -33 55 -33q39 0 65.5 31.5t26.5 71.5q0 28 -17 45.5t-46 17.5q-40 0 -66 -32zM1489 311q-40 0 -67 -29.5t-27 -70.5q0 -31 17.5 -48.5t47.5 -17.5q26 0 49 14.5t35 39.5
h-28q-16 -31 -52 -31q-43 0 -43 43v8h129q4 20 4 31q0 29 -18 45t-47 16zM1724 336q-63 0 -106 -43t-43 -105q0 -46 30 -72t76 -26q28 0 58 10l-4 19q-23 -10 -49 -10q-40 0 -64.5 20.5t-24.5 60.5q0 53 35 90t88 37q40 0 64 -20.5t24 -58.5q0 -25 -9.5 -49.5t-29.5 -24.5
q-14 0 -14 18q0 14 2.5 29.5t8 36.5t6.5 28h-25l-2 -18q-11 23 -39 23q-31 0 -51.5 -26t-20.5 -58q0 -22 13 -36t36 -14q32 0 52 27q3 -27 32 -27q31 0 47.5 29t16.5 62q0 46 -30.5 72t-76.5 26zM1917 145q42 0 65 33q-4 -28 -7.5 -42t-18 -29t-39.5 -15q-17 0 -30.5 8.5
t-14.5 24.5h-27v-2q0 -27 20 -40t48 -13q34 0 59 20.5t31 54.5l29 164h-27l-4 -28q-12 30 -55 30q-39 0 -66 -30.5t-27 -69.5q0 -28 17.5 -47t46.5 -19zM2095 287l4 22h-26l-29 -159h27l16 88q11 51 55 51q35 0 35 -37q0 -14 -16 -102h26q1 6 3 23.5t3.5 30t6 30t11 28.5
t18.5 19t28 8q37 0 37 -37q0 -15 -3.5 -32t-8.5 -38t-7 -32h27q2 11 7 34t8 41t3 35q0 51 -53 51q-45 0 -63 -35q-8 35 -54 35q-34 0 -55 -24zM2437 311q-40 0 -67 -30t-27 -70q0 -28 17 -47t46 -19q43 0 66 33l-4 -28h26l29 159h-29l-4 -28q-6 14 -21.5 22t-31.5 8z
M2562 150l29 159h-27l-29 -159h27zM1892 662h43q47 0 47 43q0 40 -47 40h-43v-83zM2406 569q37 0 59.5 25t22.5 63t-22.5 64.5t-59.5 26.5t-59.5 -26.5t-22.5 -64.5t22.5 -63t59.5 -25zM2589 371l-17 -6l-6 -15l4 -10l10 -4l17 6l6 14l-4 11zM2601 150h27l38 215h-26z
M2699 178l-12 4l-14 -6l-7 -14l5 -10l10 -5l14 7l8 14zM2824 311q-40 0 -67 -29.5t-27 -70.5q0 -30 18 -48t48 -18q28 0 50.5 15t32.5 41h-28q-17 -33 -51 -33q-41 0 -41 45q0 30 16 53t45 23q16 0 28 -8.5t13 -22.5h29q-1 26 -19.5 39.5t-46.5 13.5zM2998 311
q-41 0 -68.5 -29t-27.5 -69q0 -30 19 -49t49 -19q41 0 69.5 29.5t28.5 69.5q0 30 -19.5 48.5t-50.5 18.5zM3133 287l5 22h-27l-29 -159h27l16 88q3 23 17 37t36 14q37 0 37 -37q0 -19 -7.5 -55.5t-8.5 -46.5h25q1 7 3.5 28.5t6 37.5t10 34.5t19.5 28.5t32 10q37 0 37 -37
q0 -15 -3 -32t-8 -38.5t-7 -31.5h26q2 12 7.5 34t8.5 41t3 35q0 24 -15.5 37.5t-40.5 13.5q-42 0 -63 -35q-8 35 -51 35q-38 0 -56 -24zM420 967v280h100v94h-315v-94h98v-280h117zM670 967v133l69 -133h129l-80 143q37 11 58.5 40t21.5 69q0 59 -40 90.5t-101 31.5h-176
v-374h119zM907 1341v-374h117v374h-117zM1192 1022h125l18 -55h125l-137 374h-135l-137 -374h123zM1487 1341v-374h231v88h-114v286h-117zM2028 963q82 0 137 55t55 137t-55 137.5t-137 55.5q-83 0 -139 -55.5t-56 -137.5q0 -81 56.5 -136.5t138.5 -55.5zM2380 1155
l125 -188h116v374h-116v-192l-125 192h-119v-374h119v188zM2675 1341v-374h231v88h-115v286h-116zM3052 967h116v112l135 262h-133l-59 -133l-59 133h-136l136 -262v-112zM201 627l59 69l37 -43l-129 -135l-129 135l37 43l59 -69v172h66v-172zM422 250v-10h-103
q6 21 22.5 35t37.5 14q19 0 31 -10.5t12 -28.5zM383 696l59 -69v172h64v-172l59 69l39 -43l-129 -135l-129 135zM698 250l-2 -10h-100q5 21 21 35t38 14q19 0 31 -10.5t12 -28.5zM815 170q-21 0 -33 12t-12 33q0 29 19 51.5t47 22.5q21 0 33 -13t12 -34q0 -29 -19 -50.5
t-47 -21.5zM1282 170q-20 0 -32.5 12.5t-12.5 32.5q0 29 20 51.5t48 22.5q20 0 32.5 -12.5t12.5 -32.5q0 -29 -20 -51.5t-48 -22.5zM778 770h125v-25h-96v-75h78v-23h-78v-100h-29v223zM930 629v141h28v-141q0 -60 56 -60q55 0 55 60v141h29v-141q0 -38 -23 -61t-61 -23
t-61 23t-23 61zM1251 547h-108v223h31v-201h77v-22zM1382 547h-106v223h29v-201h77v-22zM1528 250l-2 -10h-101q5 21 21 35t39 14q19 0 31 -10.5t12 -28.5zM1706 260q14 0 23.5 -10.5t9.5 -24.5q0 -23 -13.5 -40t-35.5 -17q-31 0 -31 33q0 22 12.5 40.5t34.5 18.5zM3465 440
v-440h-3424v440h3424zM1993 242q0 -28 -19.5 -50t-46.5 -22q-21 0 -33 12t-12 33q0 29 19 51.5t47 22.5q20 0 32.5 -13.5t12.5 -33.5zM2417 170q-21 0 -33 12t-12 33q0 29 18.5 51.5t46.5 22.5q20 0 32.5 -13.5t12.5 -33.5q0 -29 -18.5 -50.5t-46.5 -21.5zM2974 168
q-20 0 -31.5 12.5t-11.5 32.5q0 31 18 53.5t47 22.5q20 0 32.5 -12.5t12.5 -32.5q0 -30 -19.5 -53t-47.5 -23zM1567 547l-84 223h30l70 -192l70 192h30l-84 -223h-32zM1708 770h121v-25h-90v-73h80v-25h-80v-78h90v-22h-121v223zM2013 705q0 -52 -53 -66l55 -92h-35l-53 90
h-35v-90h-28v223h71q33 0 55.5 -16.5t22.5 -48.5zM2118 569q45 0 45 37q0 19 -19 29.5t-41.5 13.5t-41.5 18.5t-19 43.5q0 29 22 45t52 16t51 -14.5t24 -42.5h-32q-1 16 -14.5 24.5t-30.5 8.5q-41 0 -41 -37q0 -19 18.5 -29t41.5 -13.5t41.5 -19t18.5 -43.5q0 -29 -22 -45
t-53 -16t-53.5 15.5t-22.5 45.5h31q3 -37 45 -37zM2230 547v223h29v-223h-29zM2406 772q49 0 81 -32.5t32 -82.5q0 -48 -32 -80t-81 -32q-47 0 -78.5 32.5t-31.5 79.5q0 48 31.5 81.5t78.5 33.5zM2554 547v223h29l116 -178v178h29v-223h-29l-116 176v-176h-29zM2941 696
l59 -69v172h64v-172l59 69l39 -43l-129 -135l-129 135zM3248 696l60 -69v172h63v-172l59 69l37 -43l-129 -135l-129 135zM670 1180v63h45q15 0 25 -9t10 -24q0 -30 -35 -30h-45zM1255 1214l33 -104h-67zM41 874v560h3424v-560h-3424zM2028 1239q35 0 54 -23.5t19 -60.5
t-19 -60.5t-54 -23.5q-37 0 -55.5 23.5t-18.5 60.5t18.5 60.5t55.5 23.5z" />
    <glyph glyph-name="two" unicode="2" 
d="M190 238l23 127h-27l-39 -215h27l14 69l50 -69h36l-61 79l88 80h-37zM385 311q-41 0 -68.5 -29.5t-27.5 -70.5q0 -31 18 -48.5t49 -17.5q26 0 49 14.5t33 39.5h-28q-16 -31 -50 -31q-20 0 -32.5 11.5t-12.5 31.5v8h129q0 2 3.5 13.5t3.5 17.5q0 28 -18.5 44.5t-47.5 16.5
zM512 279l6 30h-26l-29 -159h26q2 10 4 29.5t3.5 31.5t6.5 27.5t12 24.5t19.5 15.5t30.5 6.5l4 26q-38 0 -57 -32zM659 311q-40 0 -67 -29.5t-27 -70.5q0 -30 18 -48t48 -18q26 0 49 14.5t35 39.5h-29q-16 -31 -51 -31q-43 0 -43 43v8h129q4 20 4 31q0 28 -18.5 44.5
t-47.5 16.5zM836 311q-39 0 -67 -30.5t-28 -69.5q0 -28 17.5 -47t46.5 -19q42 0 65 33l-4 -28h27l29 159h-27l-6 -28q-12 30 -53 30zM973 350l-8 -41h-21l-4 -22h21q-17 -94 -17 -107q0 -30 37 -30h25l4 22q-30 0 -35 2l-4 10q1 18 7.5 54t8.5 49h43l4 22h-43l8 41h-26z
M1104 180l-27 129h-28l36 -159l-47 -76h29l137 235h-26zM1247 279l6 30h-26l-43 -237h26l19 106q14 -33 55 -33q39 0 65.5 31.5t26.5 71.5q0 28 -17 45.5t-46 17.5q-40 0 -66 -32zM1489 311q-40 0 -67 -29.5t-27 -70.5q0 -31 17.5 -48.5t47.5 -17.5q26 0 49 14.5t35 39.5
h-28q-16 -31 -52 -31q-43 0 -43 43v8h129q4 20 4 31q0 29 -18 45t-47 16zM1724 336q-63 0 -106 -43t-43 -105q0 -46 30 -72t76 -26q28 0 58 10l-4 19q-23 -10 -49 -10q-40 0 -64.5 20.5t-24.5 60.5q0 53 35 90t88 37q40 0 64 -20.5t24 -58.5q0 -25 -9.5 -49.5t-29.5 -24.5
q-14 0 -14 18q0 14 2.5 29.5t8 36.5t6.5 28h-25l-2 -18q-11 23 -39 23q-31 0 -51.5 -26t-20.5 -58q0 -22 13 -36t36 -14q32 0 52 27q3 -27 32 -27q31 0 47.5 29t16.5 62q0 46 -30.5 72t-76.5 26zM1917 145q42 0 65 33q-4 -28 -7.5 -42t-18 -29t-39.5 -15q-17 0 -30.5 8.5
t-14.5 24.5h-27v-2q0 -27 20 -40t48 -13q34 0 59 20.5t31 54.5l29 164h-27l-4 -28q-12 30 -55 30q-39 0 -66 -30.5t-27 -69.5q0 -28 17.5 -47t46.5 -19zM2095 287l4 22h-26l-29 -159h27l16 88q11 51 55 51q35 0 35 -37q0 -14 -16 -102h26q1 6 3 23.5t3.5 30t6 30t11 28.5
t18.5 19t28 8q37 0 37 -37q0 -15 -3.5 -32t-8.5 -38t-7 -32h27q2 11 7 34t8 41t3 35q0 51 -53 51q-45 0 -63 -35q-8 35 -54 35q-34 0 -55 -24zM2437 311q-40 0 -67 -30t-27 -70q0 -28 17 -47t46 -19q43 0 66 33l-4 -28h26l29 159h-29l-4 -28q-6 14 -21.5 22t-31.5 8z
M2562 150l29 159h-27l-29 -159h27zM1892 662h43q47 0 47 43q0 40 -47 40h-43v-83zM2406 569q37 0 59.5 25t22.5 63t-22.5 64.5t-59.5 26.5t-59.5 -26.5t-22.5 -64.5t22.5 -63t59.5 -25zM2589 371l-17 -6l-6 -15l4 -10l10 -4l17 6l6 14l-4 11zM2601 150h27l38 215h-26z
M2699 178l-12 4l-14 -6l-7 -14l5 -10l10 -5l14 7l8 14zM2824 311q-40 0 -67 -29.5t-27 -70.5q0 -30 18 -48t48 -18q28 0 50.5 15t32.5 41h-28q-17 -33 -51 -33q-41 0 -41 45q0 30 16 53t45 23q16 0 28 -8.5t13 -22.5h29q-1 26 -19.5 39.5t-46.5 13.5zM2998 311
q-41 0 -68.5 -29t-27.5 -69q0 -30 19 -49t49 -19q41 0 69.5 29.5t28.5 69.5q0 30 -19.5 48.5t-50.5 18.5zM3133 287l5 22h-27l-29 -159h27l16 88q3 23 17 37t36 14q37 0 37 -37q0 -19 -7.5 -55.5t-8.5 -46.5h25q1 7 3.5 28.5t6 37.5t10 34.5t19.5 28.5t32 10q37 0 37 -37
q0 -15 -3 -32t-8 -38.5t-7 -31.5h26q2 12 7.5 34t8.5 41t3 35q0 24 -15.5 37.5t-40.5 13.5q-42 0 -63 -35q-8 35 -51 35q-38 0 -56 -24zM420 967v280h100v94h-315v-94h98v-280h117zM670 967v133l69 -133h129l-80 143q37 11 58.5 40t21.5 69q0 59 -40 90.5t-101 31.5h-176
v-374h119zM907 1341v-374h117v374h-117zM1192 1022h125l18 -55h125l-137 374h-135l-137 -374h123zM1487 1341v-374h231v88h-114v286h-117zM2028 963q82 0 137 55t55 137t-55 137.5t-137 55.5q-83 0 -139 -55.5t-56 -137.5q0 -81 56.5 -136.5t138.5 -55.5zM2380 1155
l125 -188h116v374h-116v-192l-125 192h-119v-374h119v188zM2675 1341v-374h231v88h-115v286h-116zM3052 967h116v112l135 262h-133l-59 -133l-59 133h-136l136 -262v-112zM201 627l59 69l37 -43l-129 -135l-129 135l37 43l59 -69v172h66v-172zM422 250v-10h-103
q6 21 22.5 35t37.5 14q19 0 31 -10.5t12 -28.5zM383 696l59 -69v172h64v-172l59 69l39 -43l-129 -135l-129 135zM698 250l-2 -10h-100q5 21 21 35t38 14q19 0 31 -10.5t12 -28.5zM815 170q-21 0 -33 12t-12 33q0 29 19 51.5t47 22.5q21 0 33 -13t12 -34q0 -29 -19 -50.5
t-47 -21.5zM1282 170q-20 0 -32.5 12.5t-12.5 32.5q0 29 20 51.5t48 22.5q20 0 32.5 -12.5t12.5 -32.5q0 -29 -20 -51.5t-48 -22.5zM778 770h125v-25h-96v-75h78v-23h-78v-100h-29v223zM930 629v141h28v-141q0 -60 56 -60q55 0 55 60v141h29v-141q0 -38 -23 -61t-61 -23
t-61 23t-23 61zM1251 547h-108v223h31v-201h77v-22zM1382 547h-106v223h29v-201h77v-22zM1528 250l-2 -10h-101q5 21 21 35t39 14q19 0 31 -10.5t12 -28.5zM1706 260q14 0 23.5 -10.5t9.5 -24.5q0 -23 -13.5 -40t-35.5 -17q-31 0 -31 33q0 22 12.5 40.5t34.5 18.5zM3465 440
v-440h-3424v440h3424zM1993 242q0 -28 -19.5 -50t-46.5 -22q-21 0 -33 12t-12 33q0 29 19 51.5t47 22.5q20 0 32.5 -13.5t12.5 -33.5zM2417 170q-21 0 -33 12t-12 33q0 29 18.5 51.5t46.5 22.5q20 0 32.5 -13.5t12.5 -33.5q0 -29 -18.5 -50.5t-46.5 -21.5zM2974 168
q-20 0 -31.5 12.5t-11.5 32.5q0 31 18 53.5t47 22.5q20 0 32.5 -12.5t12.5 -32.5q0 -30 -19.5 -53t-47.5 -23zM1567 547l-84 223h30l70 -192l70 192h30l-84 -223h-32zM1708 770h121v-25h-90v-73h80v-25h-80v-78h90v-22h-121v223zM2013 705q0 -52 -53 -66l55 -92h-35l-53 90
h-35v-90h-28v223h71q33 0 55.5 -16.5t22.5 -48.5zM2118 569q45 0 45 37q0 19 -19 29.5t-41.5 13.5t-41.5 18.5t-19 43.5q0 29 22 45t52 16t51 -14.5t24 -42.5h-32q-1 16 -14.5 24.5t-30.5 8.5q-41 0 -41 -37q0 -19 18.5 -29t41.5 -13.5t41.5 -19t18.5 -43.5q0 -29 -22 -45
t-53 -16t-53.5 15.5t-22.5 45.5h31q3 -37 45 -37zM2230 547v223h29v-223h-29zM2406 772q49 0 81 -32.5t32 -82.5q0 -48 -32 -80t-81 -32q-47 0 -78.5 32.5t-31.5 79.5q0 48 31.5 81.5t78.5 33.5zM2554 547v223h29l116 -178v178h29v-223h-29l-116 176v-176h-29zM2941 696
l59 -69v172h64v-172l59 69l39 -43l-129 -135l-129 135zM3248 696l60 -69v172h63v-172l59 69l37 -43l-129 -135l-129 135zM670 1180v63h45q15 0 25 -9t10 -24q0 -30 -35 -30h-45zM1255 1214l33 -104h-67zM41 874v560h3424v-560h-3424zM2028 1239q35 0 54 -23.5t19 -60.5
t-19 -60.5t-54 -23.5q-37 0 -55.5 23.5t-18.5 60.5t18.5 60.5t55.5 23.5z" />
    <glyph glyph-name="three" unicode="3" 
d="M190 238l23 127h-27l-39 -215h27l14 69l50 -69h36l-61 79l88 80h-37zM385 311q-41 0 -68.5 -29.5t-27.5 -70.5q0 -31 18 -48.5t49 -17.5q26 0 49 14.5t33 39.5h-28q-16 -31 -50 -31q-20 0 -32.5 11.5t-12.5 31.5v8h129q0 2 3.5 13.5t3.5 17.5q0 28 -18.5 44.5t-47.5 16.5
zM512 279l6 30h-26l-29 -159h26q2 10 4 29.5t3.5 31.5t6.5 27.5t12 24.5t19.5 15.5t30.5 6.5l4 26q-38 0 -57 -32zM659 311q-40 0 -67 -29.5t-27 -70.5q0 -30 18 -48t48 -18q26 0 49 14.5t35 39.5h-29q-16 -31 -51 -31q-43 0 -43 43v8h129q4 20 4 31q0 28 -18.5 44.5
t-47.5 16.5zM836 311q-39 0 -67 -30.5t-28 -69.5q0 -28 17.5 -47t46.5 -19q42 0 65 33l-4 -28h27l29 159h-27l-6 -28q-12 30 -53 30zM973 350l-8 -41h-21l-4 -22h21q-17 -94 -17 -107q0 -30 37 -30h25l4 22q-30 0 -35 2l-4 10q1 18 7.5 54t8.5 49h43l4 22h-43l8 41h-26z
M1104 180l-27 129h-28l36 -159l-47 -76h29l137 235h-26zM1247 279l6 30h-26l-43 -237h26l19 106q14 -33 55 -33q39 0 65.5 31.5t26.5 71.5q0 28 -17 45.5t-46 17.5q-40 0 -66 -32zM1489 311q-40 0 -67 -29.5t-27 -70.5q0 -31 17.5 -48.5t47.5 -17.5q26 0 49 14.5t35 39.5
h-28q-16 -31 -52 -31q-43 0 -43 43v8h129q4 20 4 31q0 29 -18 45t-47 16zM1724 336q-63 0 -106 -43t-43 -105q0 -46 30 -72t76 -26q28 0 58 10l-4 19q-23 -10 -49 -10q-40 0 -64.5 20.5t-24.5 60.5q0 53 35 90t88 37q40 0 64 -20.5t24 -58.5q0 -25 -9.5 -49.5t-29.5 -24.5
q-14 0 -14 18q0 14 2.5 29.5t8 36.5t6.5 28h-25l-2 -18q-11 23 -39 23q-31 0 -51.5 -26t-20.5 -58q0 -22 13 -36t36 -14q32 0 52 27q3 -27 32 -27q31 0 47.5 29t16.5 62q0 46 -30.5 72t-76.5 26zM1917 145q42 0 65 33q-4 -28 -7.5 -42t-18 -29t-39.5 -15q-17 0 -30.5 8.5
t-14.5 24.5h-27v-2q0 -27 20 -40t48 -13q34 0 59 20.5t31 54.5l29 164h-27l-4 -28q-12 30 -55 30q-39 0 -66 -30.5t-27 -69.5q0 -28 17.5 -47t46.5 -19zM2095 287l4 22h-26l-29 -159h27l16 88q11 51 55 51q35 0 35 -37q0 -14 -16 -102h26q1 6 3 23.5t3.5 30t6 30t11 28.5
t18.5 19t28 8q37 0 37 -37q0 -15 -3.5 -32t-8.5 -38t-7 -32h27q2 11 7 34t8 41t3 35q0 51 -53 51q-45 0 -63 -35q-8 35 -54 35q-34 0 -55 -24zM2437 311q-40 0 -67 -30t-27 -70q0 -28 17 -47t46 -19q43 0 66 33l-4 -28h26l29 159h-29l-4 -28q-6 14 -21.5 22t-31.5 8z
M2562 150l29 159h-27l-29 -159h27zM1892 662h43q47 0 47 43q0 40 -47 40h-43v-83zM2406 569q37 0 59.5 25t22.5 63t-22.5 64.5t-59.5 26.5t-59.5 -26.5t-22.5 -64.5t22.5 -63t59.5 -25zM2589 371l-17 -6l-6 -15l4 -10l10 -4l17 6l6 14l-4 11zM2601 150h27l38 215h-26z
M2699 178l-12 4l-14 -6l-7 -14l5 -10l10 -5l14 7l8 14zM2824 311q-40 0 -67 -29.5t-27 -70.5q0 -30 18 -48t48 -18q28 0 50.5 15t32.5 41h-28q-17 -33 -51 -33q-41 0 -41 45q0 30 16 53t45 23q16 0 28 -8.5t13 -22.5h29q-1 26 -19.5 39.5t-46.5 13.5zM2998 311
q-41 0 -68.5 -29t-27.5 -69q0 -30 19 -49t49 -19q41 0 69.5 29.5t28.5 69.5q0 30 -19.5 48.5t-50.5 18.5zM3133 287l5 22h-27l-29 -159h27l16 88q3 23 17 37t36 14q37 0 37 -37q0 -19 -7.5 -55.5t-8.5 -46.5h25q1 7 3.5 28.5t6 37.5t10 34.5t19.5 28.5t32 10q37 0 37 -37
q0 -15 -3 -32t-8 -38.5t-7 -31.5h26q2 12 7.5 34t8.5 41t3 35q0 24 -15.5 37.5t-40.5 13.5q-42 0 -63 -35q-8 35 -51 35q-38 0 -56 -24zM420 967v280h100v94h-315v-94h98v-280h117zM670 967v133l69 -133h129l-80 143q37 11 58.5 40t21.5 69q0 59 -40 90.5t-101 31.5h-176
v-374h119zM907 1341v-374h117v374h-117zM1192 1022h125l18 -55h125l-137 374h-135l-137 -374h123zM1487 1341v-374h231v88h-114v286h-117zM2028 963q82 0 137 55t55 137t-55 137.5t-137 55.5q-83 0 -139 -55.5t-56 -137.5q0 -81 56.5 -136.5t138.5 -55.5zM2380 1155
l125 -188h116v374h-116v-192l-125 192h-119v-374h119v188zM2675 1341v-374h231v88h-115v286h-116zM3052 967h116v112l135 262h-133l-59 -133l-59 133h-136l136 -262v-112zM201 627l59 69l37 -43l-129 -135l-129 135l37 43l59 -69v172h66v-172zM422 250v-10h-103
q6 21 22.5 35t37.5 14q19 0 31 -10.5t12 -28.5zM383 696l59 -69v172h64v-172l59 69l39 -43l-129 -135l-129 135zM698 250l-2 -10h-100q5 21 21 35t38 14q19 0 31 -10.5t12 -28.5zM815 170q-21 0 -33 12t-12 33q0 29 19 51.5t47 22.5q21 0 33 -13t12 -34q0 -29 -19 -50.5
t-47 -21.5zM1282 170q-20 0 -32.5 12.5t-12.5 32.5q0 29 20 51.5t48 22.5q20 0 32.5 -12.5t12.5 -32.5q0 -29 -20 -51.5t-48 -22.5zM778 770h125v-25h-96v-75h78v-23h-78v-100h-29v223zM930 629v141h28v-141q0 -60 56 -60q55 0 55 60v141h29v-141q0 -38 -23 -61t-61 -23
t-61 23t-23 61zM1251 547h-108v223h31v-201h77v-22zM1382 547h-106v223h29v-201h77v-22zM1528 250l-2 -10h-101q5 21 21 35t39 14q19 0 31 -10.5t12 -28.5zM1706 260q14 0 23.5 -10.5t9.5 -24.5q0 -23 -13.5 -40t-35.5 -17q-31 0 -31 33q0 22 12.5 40.5t34.5 18.5zM3465 440
v-440h-3424v440h3424zM1993 242q0 -28 -19.5 -50t-46.5 -22q-21 0 -33 12t-12 33q0 29 19 51.5t47 22.5q20 0 32.5 -13.5t12.5 -33.5zM2417 170q-21 0 -33 12t-12 33q0 29 18.5 51.5t46.5 22.5q20 0 32.5 -13.5t12.5 -33.5q0 -29 -18.5 -50.5t-46.5 -21.5zM2974 168
q-20 0 -31.5 12.5t-11.5 32.5q0 31 18 53.5t47 22.5q20 0 32.5 -12.5t12.5 -32.5q0 -30 -19.5 -53t-47.5 -23zM1567 547l-84 223h30l70 -192l70 192h30l-84 -223h-32zM1708 770h121v-25h-90v-73h80v-25h-80v-78h90v-22h-121v223zM2013 705q0 -52 -53 -66l55 -92h-35l-53 90
h-35v-90h-28v223h71q33 0 55.5 -16.5t22.5 -48.5zM2118 569q45 0 45 37q0 19 -19 29.5t-41.5 13.5t-41.5 18.5t-19 43.5q0 29 22 45t52 16t51 -14.5t24 -42.5h-32q-1 16 -14.5 24.5t-30.5 8.5q-41 0 -41 -37q0 -19 18.5 -29t41.5 -13.5t41.5 -19t18.5 -43.5q0 -29 -22 -45
t-53 -16t-53.5 15.5t-22.5 45.5h31q3 -37 45 -37zM2230 547v223h29v-223h-29zM2406 772q49 0 81 -32.5t32 -82.5q0 -48 -32 -80t-81 -32q-47 0 -78.5 32.5t-31.5 79.5q0 48 31.5 81.5t78.5 33.5zM2554 547v223h29l116 -178v178h29v-223h-29l-116 176v-176h-29zM2941 696
l59 -69v172h64v-172l59 69l39 -43l-129 -135l-129 135zM3248 696l60 -69v172h63v-172l59 69l37 -43l-129 -135l-129 135zM670 1180v63h45q15 0 25 -9t10 -24q0 -30 -35 -30h-45zM1255 1214l33 -104h-67zM41 874v560h3424v-560h-3424zM2028 1239q35 0 54 -23.5t19 -60.5
t-19 -60.5t-54 -23.5q-37 0 -55.5 23.5t-18.5 60.5t18.5 60.5t55.5 23.5z" />
    <glyph glyph-name="four" unicode="4" 
d="M190 238l23 127h-27l-39 -215h27l14 69l50 -69h36l-61 79l88 80h-37zM385 311q-41 0 -68.5 -29.5t-27.5 -70.5q0 -31 18 -48.5t49 -17.5q26 0 49 14.5t33 39.5h-28q-16 -31 -50 -31q-20 0 -32.5 11.5t-12.5 31.5v8h129q0 2 3.5 13.5t3.5 17.5q0 28 -18.5 44.5t-47.5 16.5
zM512 279l6 30h-26l-29 -159h26q2 10 4 29.5t3.5 31.5t6.5 27.5t12 24.5t19.5 15.5t30.5 6.5l4 26q-38 0 -57 -32zM659 311q-40 0 -67 -29.5t-27 -70.5q0 -30 18 -48t48 -18q26 0 49 14.5t35 39.5h-29q-16 -31 -51 -31q-43 0 -43 43v8h129q4 20 4 31q0 28 -18.5 44.5
t-47.5 16.5zM836 311q-39 0 -67 -30.5t-28 -69.5q0 -28 17.5 -47t46.5 -19q42 0 65 33l-4 -28h27l29 159h-27l-6 -28q-12 30 -53 30zM973 350l-8 -41h-21l-4 -22h21q-17 -94 -17 -107q0 -30 37 -30h25l4 22q-30 0 -35 2l-4 10q1 18 7.5 54t8.5 49h43l4 22h-43l8 41h-26z
M1104 180l-27 129h-28l36 -159l-47 -76h29l137 235h-26zM1247 279l6 30h-26l-43 -237h26l19 106q14 -33 55 -33q39 0 65.5 31.5t26.5 71.5q0 28 -17 45.5t-46 17.5q-40 0 -66 -32zM1489 311q-40 0 -67 -29.5t-27 -70.5q0 -31 17.5 -48.5t47.5 -17.5q26 0 49 14.5t35 39.5
h-28q-16 -31 -52 -31q-43 0 -43 43v8h129q4 20 4 31q0 29 -18 45t-47 16zM1724 336q-63 0 -106 -43t-43 -105q0 -46 30 -72t76 -26q28 0 58 10l-4 19q-23 -10 -49 -10q-40 0 -64.5 20.5t-24.5 60.5q0 53 35 90t88 37q40 0 64 -20.5t24 -58.5q0 -25 -9.5 -49.5t-29.5 -24.5
q-14 0 -14 18q0 14 2.5 29.5t8 36.5t6.5 28h-25l-2 -18q-11 23 -39 23q-31 0 -51.5 -26t-20.5 -58q0 -22 13 -36t36 -14q32 0 52 27q3 -27 32 -27q31 0 47.5 29t16.5 62q0 46 -30.5 72t-76.5 26zM1917 145q42 0 65 33q-4 -28 -7.5 -42t-18 -29t-39.5 -15q-17 0 -30.5 8.5
t-14.5 24.5h-27v-2q0 -27 20 -40t48 -13q34 0 59 20.5t31 54.5l29 164h-27l-4 -28q-12 30 -55 30q-39 0 -66 -30.5t-27 -69.5q0 -28 17.5 -47t46.5 -19zM2095 287l4 22h-26l-29 -159h27l16 88q11 51 55 51q35 0 35 -37q0 -14 -16 -102h26q1 6 3 23.5t3.5 30t6 30t11 28.5
t18.5 19t28 8q37 0 37 -37q0 -15 -3.5 -32t-8.5 -38t-7 -32h27q2 11 7 34t8 41t3 35q0 51 -53 51q-45 0 -63 -35q-8 35 -54 35q-34 0 -55 -24zM2437 311q-40 0 -67 -30t-27 -70q0 -28 17 -47t46 -19q43 0 66 33l-4 -28h26l29 159h-29l-4 -28q-6 14 -21.5 22t-31.5 8z
M2562 150l29 159h-27l-29 -159h27zM1892 662h43q47 0 47 43q0 40 -47 40h-43v-83zM2406 569q37 0 59.5 25t22.5 63t-22.5 64.5t-59.5 26.5t-59.5 -26.5t-22.5 -64.5t22.5 -63t59.5 -25zM2589 371l-17 -6l-6 -15l4 -10l10 -4l17 6l6 14l-4 11zM2601 150h27l38 215h-26z
M2699 178l-12 4l-14 -6l-7 -14l5 -10l10 -5l14 7l8 14zM2824 311q-40 0 -67 -29.5t-27 -70.5q0 -30 18 -48t48 -18q28 0 50.5 15t32.5 41h-28q-17 -33 -51 -33q-41 0 -41 45q0 30 16 53t45 23q16 0 28 -8.5t13 -22.5h29q-1 26 -19.5 39.5t-46.5 13.5zM2998 311
q-41 0 -68.5 -29t-27.5 -69q0 -30 19 -49t49 -19q41 0 69.5 29.5t28.5 69.5q0 30 -19.5 48.5t-50.5 18.5zM3133 287l5 22h-27l-29 -159h27l16 88q3 23 17 37t36 14q37 0 37 -37q0 -19 -7.5 -55.5t-8.5 -46.5h25q1 7 3.5 28.5t6 37.5t10 34.5t19.5 28.5t32 10q37 0 37 -37
q0 -15 -3 -32t-8 -38.5t-7 -31.5h26q2 12 7.5 34t8.5 41t3 35q0 24 -15.5 37.5t-40.5 13.5q-42 0 -63 -35q-8 35 -51 35q-38 0 -56 -24zM420 967v280h100v94h-315v-94h98v-280h117zM670 967v133l69 -133h129l-80 143q37 11 58.5 40t21.5 69q0 59 -40 90.5t-101 31.5h-176
v-374h119zM907 1341v-374h117v374h-117zM1192 1022h125l18 -55h125l-137 374h-135l-137 -374h123zM1487 1341v-374h231v88h-114v286h-117zM2028 963q82 0 137 55t55 137t-55 137.5t-137 55.5q-83 0 -139 -55.5t-56 -137.5q0 -81 56.5 -136.5t138.5 -55.5zM2380 1155
l125 -188h116v374h-116v-192l-125 192h-119v-374h119v188zM2675 1341v-374h231v88h-115v286h-116zM3052 967h116v112l135 262h-133l-59 -133l-59 133h-136l136 -262v-112zM201 627l59 69l37 -43l-129 -135l-129 135l37 43l59 -69v172h66v-172zM422 250v-10h-103
q6 21 22.5 35t37.5 14q19 0 31 -10.5t12 -28.5zM383 696l59 -69v172h64v-172l59 69l39 -43l-129 -135l-129 135zM698 250l-2 -10h-100q5 21 21 35t38 14q19 0 31 -10.5t12 -28.5zM815 170q-21 0 -33 12t-12 33q0 29 19 51.5t47 22.5q21 0 33 -13t12 -34q0 -29 -19 -50.5
t-47 -21.5zM1282 170q-20 0 -32.5 12.5t-12.5 32.5q0 29 20 51.5t48 22.5q20 0 32.5 -12.5t12.5 -32.5q0 -29 -20 -51.5t-48 -22.5zM778 770h125v-25h-96v-75h78v-23h-78v-100h-29v223zM930 629v141h28v-141q0 -60 56 -60q55 0 55 60v141h29v-141q0 -38 -23 -61t-61 -23
t-61 23t-23 61zM1251 547h-108v223h31v-201h77v-22zM1382 547h-106v223h29v-201h77v-22zM1528 250l-2 -10h-101q5 21 21 35t39 14q19 0 31 -10.5t12 -28.5zM1706 260q14 0 23.5 -10.5t9.5 -24.5q0 -23 -13.5 -40t-35.5 -17q-31 0 -31 33q0 22 12.5 40.5t34.5 18.5zM3465 440
v-440h-3424v440h3424zM1993 242q0 -28 -19.5 -50t-46.5 -22q-21 0 -33 12t-12 33q0 29 19 51.5t47 22.5q20 0 32.5 -13.5t12.5 -33.5zM2417 170q-21 0 -33 12t-12 33q0 29 18.5 51.5t46.5 22.5q20 0 32.5 -13.5t12.5 -33.5q0 -29 -18.5 -50.5t-46.5 -21.5zM2974 168
q-20 0 -31.5 12.5t-11.5 32.5q0 31 18 53.5t47 22.5q20 0 32.5 -12.5t12.5 -32.5q0 -30 -19.5 -53t-47.5 -23zM1567 547l-84 223h30l70 -192l70 192h30l-84 -223h-32zM1708 770h121v-25h-90v-73h80v-25h-80v-78h90v-22h-121v223zM2013 705q0 -52 -53 -66l55 -92h-35l-53 90
h-35v-90h-28v223h71q33 0 55.5 -16.5t22.5 -48.5zM2118 569q45 0 45 37q0 19 -19 29.5t-41.5 13.5t-41.5 18.5t-19 43.5q0 29 22 45t52 16t51 -14.5t24 -42.5h-32q-1 16 -14.5 24.5t-30.5 8.5q-41 0 -41 -37q0 -19 18.5 -29t41.5 -13.5t41.5 -19t18.5 -43.5q0 -29 -22 -45
t-53 -16t-53.5 15.5t-22.5 45.5h31q3 -37 45 -37zM2230 547v223h29v-223h-29zM2406 772q49 0 81 -32.5t32 -82.5q0 -48 -32 -80t-81 -32q-47 0 -78.5 32.5t-31.5 79.5q0 48 31.5 81.5t78.5 33.5zM2554 547v223h29l116 -178v178h29v-223h-29l-116 176v-176h-29zM2941 696
l59 -69v172h64v-172l59 69l39 -43l-129 -135l-129 135zM3248 696l60 -69v172h63v-172l59 69l37 -43l-129 -135l-129 135zM670 1180v63h45q15 0 25 -9t10 -24q0 -30 -35 -30h-45zM1255 1214l33 -104h-67zM41 874v560h3424v-560h-3424zM2028 1239q35 0 54 -23.5t19 -60.5
t-19 -60.5t-54 -23.5q-37 0 -55.5 23.5t-18.5 60.5t18.5 60.5t55.5 23.5z" />
    <glyph glyph-name="five" unicode="5" 
d="M190 238l23 127h-27l-39 -215h27l14 69l50 -69h36l-61 79l88 80h-37zM385 311q-41 0 -68.5 -29.5t-27.5 -70.5q0 -31 18 -48.5t49 -17.5q26 0 49 14.5t33 39.5h-28q-16 -31 -50 -31q-20 0 -32.5 11.5t-12.5 31.5v8h129q0 2 3.5 13.5t3.5 17.5q0 28 -18.5 44.5t-47.5 16.5
zM512 279l6 30h-26l-29 -159h26q2 10 4 29.5t3.5 31.5t6.5 27.5t12 24.5t19.5 15.5t30.5 6.5l4 26q-38 0 -57 -32zM659 311q-40 0 -67 -29.5t-27 -70.5q0 -30 18 -48t48 -18q26 0 49 14.5t35 39.5h-29q-16 -31 -51 -31q-43 0 -43 43v8h129q4 20 4 31q0 28 -18.5 44.5
t-47.5 16.5zM836 311q-39 0 -67 -30.5t-28 -69.5q0 -28 17.5 -47t46.5 -19q42 0 65 33l-4 -28h27l29 159h-27l-6 -28q-12 30 -53 30zM973 350l-8 -41h-21l-4 -22h21q-17 -94 -17 -107q0 -30 37 -30h25l4 22q-30 0 -35 2l-4 10q1 18 7.5 54t8.5 49h43l4 22h-43l8 41h-26z
M1104 180l-27 129h-28l36 -159l-47 -76h29l137 235h-26zM1247 279l6 30h-26l-43 -237h26l19 106q14 -33 55 -33q39 0 65.5 31.5t26.5 71.5q0 28 -17 45.5t-46 17.5q-40 0 -66 -32zM1489 311q-40 0 -67 -29.5t-27 -70.5q0 -31 17.5 -48.5t47.5 -17.5q26 0 49 14.5t35 39.5
h-28q-16 -31 -52 -31q-43 0 -43 43v8h129q4 20 4 31q0 29 -18 45t-47 16zM1724 336q-63 0 -106 -43t-43 -105q0 -46 30 -72t76 -26q28 0 58 10l-4 19q-23 -10 -49 -10q-40 0 -64.5 20.5t-24.5 60.5q0 53 35 90t88 37q40 0 64 -20.5t24 -58.5q0 -25 -9.5 -49.5t-29.5 -24.5
q-14 0 -14 18q0 14 2.5 29.5t8 36.5t6.5 28h-25l-2 -18q-11 23 -39 23q-31 0 -51.5 -26t-20.5 -58q0 -22 13 -36t36 -14q32 0 52 27q3 -27 32 -27q31 0 47.5 29t16.5 62q0 46 -30.5 72t-76.5 26zM1917 145q42 0 65 33q-4 -28 -7.5 -42t-18 -29t-39.5 -15q-17 0 -30.5 8.5
t-14.5 24.5h-27v-2q0 -27 20 -40t48 -13q34 0 59 20.5t31 54.5l29 164h-27l-4 -28q-12 30 -55 30q-39 0 -66 -30.5t-27 -69.5q0 -28 17.5 -47t46.5 -19zM2095 287l4 22h-26l-29 -159h27l16 88q11 51 55 51q35 0 35 -37q0 -14 -16 -102h26q1 6 3 23.5t3.5 30t6 30t11 28.5
t18.5 19t28 8q37 0 37 -37q0 -15 -3.5 -32t-8.5 -38t-7 -32h27q2 11 7 34t8 41t3 35q0 51 -53 51q-45 0 -63 -35q-8 35 -54 35q-34 0 -55 -24zM2437 311q-40 0 -67 -30t-27 -70q0 -28 17 -47t46 -19q43 0 66 33l-4 -28h26l29 159h-29l-4 -28q-6 14 -21.5 22t-31.5 8z
M2562 150l29 159h-27l-29 -159h27zM1892 662h43q47 0 47 43q0 40 -47 40h-43v-83zM2406 569q37 0 59.5 25t22.5 63t-22.5 64.5t-59.5 26.5t-59.5 -26.5t-22.5 -64.5t22.5 -63t59.5 -25zM2589 371l-17 -6l-6 -15l4 -10l10 -4l17 6l6 14l-4 11zM2601 150h27l38 215h-26z
M2699 178l-12 4l-14 -6l-7 -14l5 -10l10 -5l14 7l8 14zM2824 311q-40 0 -67 -29.5t-27 -70.5q0 -30 18 -48t48 -18q28 0 50.5 15t32.5 41h-28q-17 -33 -51 -33q-41 0 -41 45q0 30 16 53t45 23q16 0 28 -8.5t13 -22.5h29q-1 26 -19.5 39.5t-46.5 13.5zM2998 311
q-41 0 -68.5 -29t-27.5 -69q0 -30 19 -49t49 -19q41 0 69.5 29.5t28.5 69.5q0 30 -19.5 48.5t-50.5 18.5zM3133 287l5 22h-27l-29 -159h27l16 88q3 23 17 37t36 14q37 0 37 -37q0 -19 -7.5 -55.5t-8.5 -46.5h25q1 7 3.5 28.5t6 37.5t10 34.5t19.5 28.5t32 10q37 0 37 -37
q0 -15 -3 -32t-8 -38.5t-7 -31.5h26q2 12 7.5 34t8.5 41t3 35q0 24 -15.5 37.5t-40.5 13.5q-42 0 -63 -35q-8 35 -51 35q-38 0 -56 -24zM420 967v280h100v94h-315v-94h98v-280h117zM670 967v133l69 -133h129l-80 143q37 11 58.5 40t21.5 69q0 59 -40 90.5t-101 31.5h-176
v-374h119zM907 1341v-374h117v374h-117zM1192 1022h125l18 -55h125l-137 374h-135l-137 -374h123zM1487 1341v-374h231v88h-114v286h-117zM2028 963q82 0 137 55t55 137t-55 137.5t-137 55.5q-83 0 -139 -55.5t-56 -137.5q0 -81 56.5 -136.5t138.5 -55.5zM2380 1155
l125 -188h116v374h-116v-192l-125 192h-119v-374h119v188zM2675 1341v-374h231v88h-115v286h-116zM3052 967h116v112l135 262h-133l-59 -133l-59 133h-136l136 -262v-112zM201 627l59 69l37 -43l-129 -135l-129 135l37 43l59 -69v172h66v-172zM422 250v-10h-103
q6 21 22.5 35t37.5 14q19 0 31 -10.5t12 -28.5zM383 696l59 -69v172h64v-172l59 69l39 -43l-129 -135l-129 135zM698 250l-2 -10h-100q5 21 21 35t38 14q19 0 31 -10.5t12 -28.5zM815 170q-21 0 -33 12t-12 33q0 29 19 51.5t47 22.5q21 0 33 -13t12 -34q0 -29 -19 -50.5
t-47 -21.5zM1282 170q-20 0 -32.5 12.5t-12.5 32.5q0 29 20 51.5t48 22.5q20 0 32.5 -12.5t12.5 -32.5q0 -29 -20 -51.5t-48 -22.5zM778 770h125v-25h-96v-75h78v-23h-78v-100h-29v223zM930 629v141h28v-141q0 -60 56 -60q55 0 55 60v141h29v-141q0 -38 -23 -61t-61 -23
t-61 23t-23 61zM1251 547h-108v223h31v-201h77v-22zM1382 547h-106v223h29v-201h77v-22zM1528 250l-2 -10h-101q5 21 21 35t39 14q19 0 31 -10.5t12 -28.5zM1706 260q14 0 23.5 -10.5t9.5 -24.5q0 -23 -13.5 -40t-35.5 -17q-31 0 -31 33q0 22 12.5 40.5t34.5 18.5zM3465 440
v-440h-3424v440h3424zM1993 242q0 -28 -19.5 -50t-46.5 -22q-21 0 -33 12t-12 33q0 29 19 51.5t47 22.5q20 0 32.5 -13.5t12.5 -33.5zM2417 170q-21 0 -33 12t-12 33q0 29 18.5 51.5t46.5 22.5q20 0 32.5 -13.5t12.5 -33.5q0 -29 -18.5 -50.5t-46.5 -21.5zM2974 168
q-20 0 -31.5 12.5t-11.5 32.5q0 31 18 53.5t47 22.5q20 0 32.5 -12.5t12.5 -32.5q0 -30 -19.5 -53t-47.5 -23zM1567 547l-84 223h30l70 -192l70 192h30l-84 -223h-32zM1708 770h121v-25h-90v-73h80v-25h-80v-78h90v-22h-121v223zM2013 705q0 -52 -53 -66l55 -92h-35l-53 90
h-35v-90h-28v223h71q33 0 55.5 -16.5t22.5 -48.5zM2118 569q45 0 45 37q0 19 -19 29.5t-41.5 13.5t-41.5 18.5t-19 43.5q0 29 22 45t52 16t51 -14.5t24 -42.5h-32q-1 16 -14.5 24.5t-30.5 8.5q-41 0 -41 -37q0 -19 18.5 -29t41.5 -13.5t41.5 -19t18.5 -43.5q0 -29 -22 -45
t-53 -16t-53.5 15.5t-22.5 45.5h31q3 -37 45 -37zM2230 547v223h29v-223h-29zM2406 772q49 0 81 -32.5t32 -82.5q0 -48 -32 -80t-81 -32q-47 0 -78.5 32.5t-31.5 79.5q0 48 31.5 81.5t78.5 33.5zM2554 547v223h29l116 -178v178h29v-223h-29l-116 176v-176h-29zM2941 696
l59 -69v172h64v-172l59 69l39 -43l-129 -135l-129 135zM3248 696l60 -69v172h63v-172l59 69l37 -43l-129 -135l-129 135zM670 1180v63h45q15 0 25 -9t10 -24q0 -30 -35 -30h-45zM1255 1214l33 -104h-67zM41 874v560h3424v-560h-3424zM2028 1239q35 0 54 -23.5t19 -60.5
t-19 -60.5t-54 -23.5q-37 0 -55.5 23.5t-18.5 60.5t18.5 60.5t55.5 23.5z" />
    <glyph glyph-name="six" unicode="6" 
d="M190 238l23 127h-27l-39 -215h27l14 69l50 -69h36l-61 79l88 80h-37zM385 311q-41 0 -68.5 -29.5t-27.5 -70.5q0 -31 18 -48.5t49 -17.5q26 0 49 14.5t33 39.5h-28q-16 -31 -50 -31q-20 0 -32.5 11.5t-12.5 31.5v8h129q0 2 3.5 13.5t3.5 17.5q0 28 -18.5 44.5t-47.5 16.5
zM512 279l6 30h-26l-29 -159h26q2 10 4 29.5t3.5 31.5t6.5 27.5t12 24.5t19.5 15.5t30.5 6.5l4 26q-38 0 -57 -32zM659 311q-40 0 -67 -29.5t-27 -70.5q0 -30 18 -48t48 -18q26 0 49 14.5t35 39.5h-29q-16 -31 -51 -31q-43 0 -43 43v8h129q4 20 4 31q0 28 -18.5 44.5
t-47.5 16.5zM836 311q-39 0 -67 -30.5t-28 -69.5q0 -28 17.5 -47t46.5 -19q42 0 65 33l-4 -28h27l29 159h-27l-6 -28q-12 30 -53 30zM973 350l-8 -41h-21l-4 -22h21q-17 -94 -17 -107q0 -30 37 -30h25l4 22q-30 0 -35 2l-4 10q1 18 7.5 54t8.5 49h43l4 22h-43l8 41h-26z
M1104 180l-27 129h-28l36 -159l-47 -76h29l137 235h-26zM1247 279l6 30h-26l-43 -237h26l19 106q14 -33 55 -33q39 0 65.5 31.5t26.5 71.5q0 28 -17 45.5t-46 17.5q-40 0 -66 -32zM1489 311q-40 0 -67 -29.5t-27 -70.5q0 -31 17.5 -48.5t47.5 -17.5q26 0 49 14.5t35 39.5
h-28q-16 -31 -52 -31q-43 0 -43 43v8h129q4 20 4 31q0 29 -18 45t-47 16zM1724 336q-63 0 -106 -43t-43 -105q0 -46 30 -72t76 -26q28 0 58 10l-4 19q-23 -10 -49 -10q-40 0 -64.5 20.5t-24.5 60.5q0 53 35 90t88 37q40 0 64 -20.5t24 -58.5q0 -25 -9.5 -49.5t-29.5 -24.5
q-14 0 -14 18q0 14 2.5 29.5t8 36.5t6.5 28h-25l-2 -18q-11 23 -39 23q-31 0 -51.5 -26t-20.5 -58q0 -22 13 -36t36 -14q32 0 52 27q3 -27 32 -27q31 0 47.5 29t16.5 62q0 46 -30.5 72t-76.5 26zM1917 145q42 0 65 33q-4 -28 -7.5 -42t-18 -29t-39.5 -15q-17 0 -30.5 8.5
t-14.5 24.5h-27v-2q0 -27 20 -40t48 -13q34 0 59 20.5t31 54.5l29 164h-27l-4 -28q-12 30 -55 30q-39 0 -66 -30.5t-27 -69.5q0 -28 17.5 -47t46.5 -19zM2095 287l4 22h-26l-29 -159h27l16 88q11 51 55 51q35 0 35 -37q0 -14 -16 -102h26q1 6 3 23.5t3.5 30t6 30t11 28.5
t18.5 19t28 8q37 0 37 -37q0 -15 -3.5 -32t-8.5 -38t-7 -32h27q2 11 7 34t8 41t3 35q0 51 -53 51q-45 0 -63 -35q-8 35 -54 35q-34 0 -55 -24zM2437 311q-40 0 -67 -30t-27 -70q0 -28 17 -47t46 -19q43 0 66 33l-4 -28h26l29 159h-29l-4 -28q-6 14 -21.5 22t-31.5 8z
M2562 150l29 159h-27l-29 -159h27zM1892 662h43q47 0 47 43q0 40 -47 40h-43v-83zM2406 569q37 0 59.5 25t22.5 63t-22.5 64.5t-59.5 26.5t-59.5 -26.5t-22.5 -64.5t22.5 -63t59.5 -25zM2589 371l-17 -6l-6 -15l4 -10l10 -4l17 6l6 14l-4 11zM2601 150h27l38 215h-26z
M2699 178l-12 4l-14 -6l-7 -14l5 -10l10 -5l14 7l8 14zM2824 311q-40 0 -67 -29.5t-27 -70.5q0 -30 18 -48t48 -18q28 0 50.5 15t32.5 41h-28q-17 -33 -51 -33q-41 0 -41 45q0 30 16 53t45 23q16 0 28 -8.5t13 -22.5h29q-1 26 -19.5 39.5t-46.5 13.5zM2998 311
q-41 0 -68.5 -29t-27.5 -69q0 -30 19 -49t49 -19q41 0 69.5 29.5t28.5 69.5q0 30 -19.5 48.5t-50.5 18.5zM3133 287l5 22h-27l-29 -159h27l16 88q3 23 17 37t36 14q37 0 37 -37q0 -19 -7.5 -55.5t-8.5 -46.5h25q1 7 3.5 28.5t6 37.5t10 34.5t19.5 28.5t32 10q37 0 37 -37
q0 -15 -3 -32t-8 -38.5t-7 -31.5h26q2 12 7.5 34t8.5 41t3 35q0 24 -15.5 37.5t-40.5 13.5q-42 0 -63 -35q-8 35 -51 35q-38 0 -56 -24zM420 967v280h100v94h-315v-94h98v-280h117zM670 967v133l69 -133h129l-80 143q37 11 58.5 40t21.5 69q0 59 -40 90.5t-101 31.5h-176
v-374h119zM907 1341v-374h117v374h-117zM1192 1022h125l18 -55h125l-137 374h-135l-137 -374h123zM1487 1341v-374h231v88h-114v286h-117zM2028 963q82 0 137 55t55 137t-55 137.5t-137 55.5q-83 0 -139 -55.5t-56 -137.5q0 -81 56.5 -136.5t138.5 -55.5zM2380 1155
l125 -188h116v374h-116v-192l-125 192h-119v-374h119v188zM2675 1341v-374h231v88h-115v286h-116zM3052 967h116v112l135 262h-133l-59 -133l-59 133h-136l136 -262v-112zM201 627l59 69l37 -43l-129 -135l-129 135l37 43l59 -69v172h66v-172zM422 250v-10h-103
q6 21 22.5 35t37.5 14q19 0 31 -10.5t12 -28.5zM383 696l59 -69v172h64v-172l59 69l39 -43l-129 -135l-129 135zM698 250l-2 -10h-100q5 21 21 35t38 14q19 0 31 -10.5t12 -28.5zM815 170q-21 0 -33 12t-12 33q0 29 19 51.5t47 22.5q21 0 33 -13t12 -34q0 -29 -19 -50.5
t-47 -21.5zM1282 170q-20 0 -32.5 12.5t-12.5 32.5q0 29 20 51.5t48 22.5q20 0 32.5 -12.5t12.5 -32.5q0 -29 -20 -51.5t-48 -22.5zM778 770h125v-25h-96v-75h78v-23h-78v-100h-29v223zM930 629v141h28v-141q0 -60 56 -60q55 0 55 60v141h29v-141q0 -38 -23 -61t-61 -23
t-61 23t-23 61zM1251 547h-108v223h31v-201h77v-22zM1382 547h-106v223h29v-201h77v-22zM1528 250l-2 -10h-101q5 21 21 35t39 14q19 0 31 -10.5t12 -28.5zM1706 260q14 0 23.5 -10.5t9.5 -24.5q0 -23 -13.5 -40t-35.5 -17q-31 0 -31 33q0 22 12.5 40.5t34.5 18.5zM3465 440
v-440h-3424v440h3424zM1993 242q0 -28 -19.5 -50t-46.5 -22q-21 0 -33 12t-12 33q0 29 19 51.5t47 22.5q20 0 32.5 -13.5t12.5 -33.5zM2417 170q-21 0 -33 12t-12 33q0 29 18.5 51.5t46.5 22.5q20 0 32.5 -13.5t12.5 -33.5q0 -29 -18.5 -50.5t-46.5 -21.5zM2974 168
q-20 0 -31.5 12.5t-11.5 32.5q0 31 18 53.5t47 22.5q20 0 32.5 -12.5t12.5 -32.5q0 -30 -19.5 -53t-47.5 -23zM1567 547l-84 223h30l70 -192l70 192h30l-84 -223h-32zM1708 770h121v-25h-90v-73h80v-25h-80v-78h90v-22h-121v223zM2013 705q0 -52 -53 -66l55 -92h-35l-53 90
h-35v-90h-28v223h71q33 0 55.5 -16.5t22.5 -48.5zM2118 569q45 0 45 37q0 19 -19 29.5t-41.5 13.5t-41.5 18.5t-19 43.5q0 29 22 45t52 16t51 -14.5t24 -42.5h-32q-1 16 -14.5 24.5t-30.5 8.5q-41 0 -41 -37q0 -19 18.5 -29t41.5 -13.5t41.5 -19t18.5 -43.5q0 -29 -22 -45
t-53 -16t-53.5 15.5t-22.5 45.5h31q3 -37 45 -37zM2230 547v223h29v-223h-29zM2406 772q49 0 81 -32.5t32 -82.5q0 -48 -32 -80t-81 -32q-47 0 -78.5 32.5t-31.5 79.5q0 48 31.5 81.5t78.5 33.5zM2554 547v223h29l116 -178v178h29v-223h-29l-116 176v-176h-29zM2941 696
l59 -69v172h64v-172l59 69l39 -43l-129 -135l-129 135zM3248 696l60 -69v172h63v-172l59 69l37 -43l-129 -135l-129 135zM670 1180v63h45q15 0 25 -9t10 -24q0 -30 -35 -30h-45zM1255 1214l33 -104h-67zM41 874v560h3424v-560h-3424zM2028 1239q35 0 54 -23.5t19 -60.5
t-19 -60.5t-54 -23.5q-37 0 -55.5 23.5t-18.5 60.5t18.5 60.5t55.5 23.5z" />
    <glyph glyph-name="seven" unicode="7" 
d="M190 238l23 127h-27l-39 -215h27l14 69l50 -69h36l-61 79l88 80h-37zM385 311q-41 0 -68.5 -29.5t-27.5 -70.5q0 -31 18 -48.5t49 -17.5q26 0 49 14.5t33 39.5h-28q-16 -31 -50 -31q-20 0 -32.5 11.5t-12.5 31.5v8h129q0 2 3.5 13.5t3.5 17.5q0 28 -18.5 44.5t-47.5 16.5
zM512 279l6 30h-26l-29 -159h26q2 10 4 29.5t3.5 31.5t6.5 27.5t12 24.5t19.5 15.5t30.5 6.5l4 26q-38 0 -57 -32zM659 311q-40 0 -67 -29.5t-27 -70.5q0 -30 18 -48t48 -18q26 0 49 14.5t35 39.5h-29q-16 -31 -51 -31q-43 0 -43 43v8h129q4 20 4 31q0 28 -18.5 44.5
t-47.5 16.5zM836 311q-39 0 -67 -30.5t-28 -69.5q0 -28 17.5 -47t46.5 -19q42 0 65 33l-4 -28h27l29 159h-27l-6 -28q-12 30 -53 30zM973 350l-8 -41h-21l-4 -22h21q-17 -94 -17 -107q0 -30 37 -30h25l4 22q-30 0 -35 2l-4 10q1 18 7.5 54t8.5 49h43l4 22h-43l8 41h-26z
M1104 180l-27 129h-28l36 -159l-47 -76h29l137 235h-26zM1247 279l6 30h-26l-43 -237h26l19 106q14 -33 55 -33q39 0 65.5 31.5t26.5 71.5q0 28 -17 45.5t-46 17.5q-40 0 -66 -32zM1489 311q-40 0 -67 -29.5t-27 -70.5q0 -31 17.5 -48.5t47.5 -17.5q26 0 49 14.5t35 39.5
h-28q-16 -31 -52 -31q-43 0 -43 43v8h129q4 20 4 31q0 29 -18 45t-47 16zM1724 336q-63 0 -106 -43t-43 -105q0 -46 30 -72t76 -26q28 0 58 10l-4 19q-23 -10 -49 -10q-40 0 -64.5 20.5t-24.5 60.5q0 53 35 90t88 37q40 0 64 -20.5t24 -58.5q0 -25 -9.5 -49.5t-29.5 -24.5
q-14 0 -14 18q0 14 2.5 29.5t8 36.5t6.5 28h-25l-2 -18q-11 23 -39 23q-31 0 -51.5 -26t-20.5 -58q0 -22 13 -36t36 -14q32 0 52 27q3 -27 32 -27q31 0 47.5 29t16.5 62q0 46 -30.5 72t-76.5 26zM1917 145q42 0 65 33q-4 -28 -7.5 -42t-18 -29t-39.5 -15q-17 0 -30.5 8.5
t-14.5 24.5h-27v-2q0 -27 20 -40t48 -13q34 0 59 20.5t31 54.5l29 164h-27l-4 -28q-12 30 -55 30q-39 0 -66 -30.5t-27 -69.5q0 -28 17.5 -47t46.5 -19zM2095 287l4 22h-26l-29 -159h27l16 88q11 51 55 51q35 0 35 -37q0 -14 -16 -102h26q1 6 3 23.5t3.5 30t6 30t11 28.5
t18.5 19t28 8q37 0 37 -37q0 -15 -3.5 -32t-8.5 -38t-7 -32h27q2 11 7 34t8 41t3 35q0 51 -53 51q-45 0 -63 -35q-8 35 -54 35q-34 0 -55 -24zM2437 311q-40 0 -67 -30t-27 -70q0 -28 17 -47t46 -19q43 0 66 33l-4 -28h26l29 159h-29l-4 -28q-6 14 -21.5 22t-31.5 8z
M2562 150l29 159h-27l-29 -159h27zM1892 662h43q47 0 47 43q0 40 -47 40h-43v-83zM2406 569q37 0 59.5 25t22.5 63t-22.5 64.5t-59.5 26.5t-59.5 -26.5t-22.5 -64.5t22.5 -63t59.5 -25zM2589 371l-17 -6l-6 -15l4 -10l10 -4l17 6l6 14l-4 11zM2601 150h27l38 215h-26z
M2699 178l-12 4l-14 -6l-7 -14l5 -10l10 -5l14 7l8 14zM2824 311q-40 0 -67 -29.5t-27 -70.5q0 -30 18 -48t48 -18q28 0 50.5 15t32.5 41h-28q-17 -33 -51 -33q-41 0 -41 45q0 30 16 53t45 23q16 0 28 -8.5t13 -22.5h29q-1 26 -19.5 39.5t-46.5 13.5zM2998 311
q-41 0 -68.5 -29t-27.5 -69q0 -30 19 -49t49 -19q41 0 69.5 29.5t28.5 69.5q0 30 -19.5 48.5t-50.5 18.5zM3133 287l5 22h-27l-29 -159h27l16 88q3 23 17 37t36 14q37 0 37 -37q0 -19 -7.5 -55.5t-8.5 -46.5h25q1 7 3.5 28.5t6 37.5t10 34.5t19.5 28.5t32 10q37 0 37 -37
q0 -15 -3 -32t-8 -38.5t-7 -31.5h26q2 12 7.5 34t8.5 41t3 35q0 24 -15.5 37.5t-40.5 13.5q-42 0 -63 -35q-8 35 -51 35q-38 0 -56 -24zM420 967v280h100v94h-315v-94h98v-280h117zM670 967v133l69 -133h129l-80 143q37 11 58.5 40t21.5 69q0 59 -40 90.5t-101 31.5h-176
v-374h119zM907 1341v-374h117v374h-117zM1192 1022h125l18 -55h125l-137 374h-135l-137 -374h123zM1487 1341v-374h231v88h-114v286h-117zM2028 963q82 0 137 55t55 137t-55 137.5t-137 55.5q-83 0 -139 -55.5t-56 -137.5q0 -81 56.5 -136.5t138.5 -55.5zM2380 1155
l125 -188h116v374h-116v-192l-125 192h-119v-374h119v188zM2675 1341v-374h231v88h-115v286h-116zM3052 967h116v112l135 262h-133l-59 -133l-59 133h-136l136 -262v-112zM201 627l59 69l37 -43l-129 -135l-129 135l37 43l59 -69v172h66v-172zM422 250v-10h-103
q6 21 22.5 35t37.5 14q19 0 31 -10.5t12 -28.5zM383 696l59 -69v172h64v-172l59 69l39 -43l-129 -135l-129 135zM698 250l-2 -10h-100q5 21 21 35t38 14q19 0 31 -10.5t12 -28.5zM815 170q-21 0 -33 12t-12 33q0 29 19 51.5t47 22.5q21 0 33 -13t12 -34q0 -29 -19 -50.5
t-47 -21.5zM1282 170q-20 0 -32.5 12.5t-12.5 32.5q0 29 20 51.5t48 22.5q20 0 32.5 -12.5t12.5 -32.5q0 -29 -20 -51.5t-48 -22.5zM778 770h125v-25h-96v-75h78v-23h-78v-100h-29v223zM930 629v141h28v-141q0 -60 56 -60q55 0 55 60v141h29v-141q0 -38 -23 -61t-61 -23
t-61 23t-23 61zM1251 547h-108v223h31v-201h77v-22zM1382 547h-106v223h29v-201h77v-22zM1528 250l-2 -10h-101q5 21 21 35t39 14q19 0 31 -10.5t12 -28.5zM1706 260q14 0 23.5 -10.5t9.5 -24.5q0 -23 -13.5 -40t-35.5 -17q-31 0 -31 33q0 22 12.5 40.5t34.5 18.5zM3465 440
v-440h-3424v440h3424zM1993 242q0 -28 -19.5 -50t-46.5 -22q-21 0 -33 12t-12 33q0 29 19 51.5t47 22.5q20 0 32.5 -13.5t12.5 -33.5zM2417 170q-21 0 -33 12t-12 33q0 29 18.5 51.5t46.5 22.5q20 0 32.5 -13.5t12.5 -33.5q0 -29 -18.5 -50.5t-46.5 -21.5zM2974 168
q-20 0 -31.5 12.5t-11.5 32.5q0 31 18 53.5t47 22.5q20 0 32.5 -12.5t12.5 -32.5q0 -30 -19.5 -53t-47.5 -23zM1567 547l-84 223h30l70 -192l70 192h30l-84 -223h-32zM1708 770h121v-25h-90v-73h80v-25h-80v-78h90v-22h-121v223zM2013 705q0 -52 -53 -66l55 -92h-35l-53 90
h-35v-90h-28v223h71q33 0 55.5 -16.5t22.5 -48.5zM2118 569q45 0 45 37q0 19 -19 29.5t-41.5 13.5t-41.5 18.5t-19 43.5q0 29 22 45t52 16t51 -14.5t24 -42.5h-32q-1 16 -14.5 24.5t-30.5 8.5q-41 0 -41 -37q0 -19 18.5 -29t41.5 -13.5t41.5 -19t18.5 -43.5q0 -29 -22 -45
t-53 -16t-53.5 15.5t-22.5 45.5h31q3 -37 45 -37zM2230 547v223h29v-223h-29zM2406 772q49 0 81 -32.5t32 -82.5q0 -48 -32 -80t-81 -32q-47 0 -78.5 32.5t-31.5 79.5q0 48 31.5 81.5t78.5 33.5zM2554 547v223h29l116 -178v178h29v-223h-29l-116 176v-176h-29zM2941 696
l59 -69v172h64v-172l59 69l39 -43l-129 -135l-129 135zM3248 696l60 -69v172h63v-172l59 69l37 -43l-129 -135l-129 135zM670 1180v63h45q15 0 25 -9t10 -24q0 -30 -35 -30h-45zM1255 1214l33 -104h-67zM41 874v560h3424v-560h-3424zM2028 1239q35 0 54 -23.5t19 -60.5
t-19 -60.5t-54 -23.5q-37 0 -55.5 23.5t-18.5 60.5t18.5 60.5t55.5 23.5z" />
    <glyph glyph-name="eight" unicode="8" 
d="M190 238l23 127h-27l-39 -215h27l14 69l50 -69h36l-61 79l88 80h-37zM385 311q-41 0 -68.5 -29.5t-27.5 -70.5q0 -31 18 -48.5t49 -17.5q26 0 49 14.5t33 39.5h-28q-16 -31 -50 -31q-20 0 -32.5 11.5t-12.5 31.5v8h129q0 2 3.5 13.5t3.5 17.5q0 28 -18.5 44.5t-47.5 16.5
zM512 279l6 30h-26l-29 -159h26q2 10 4 29.5t3.5 31.5t6.5 27.5t12 24.5t19.5 15.5t30.5 6.5l4 26q-38 0 -57 -32zM659 311q-40 0 -67 -29.5t-27 -70.5q0 -30 18 -48t48 -18q26 0 49 14.5t35 39.5h-29q-16 -31 -51 -31q-43 0 -43 43v8h129q4 20 4 31q0 28 -18.5 44.5
t-47.5 16.5zM836 311q-39 0 -67 -30.5t-28 -69.5q0 -28 17.5 -47t46.5 -19q42 0 65 33l-4 -28h27l29 159h-27l-6 -28q-12 30 -53 30zM973 350l-8 -41h-21l-4 -22h21q-17 -94 -17 -107q0 -30 37 -30h25l4 22q-30 0 -35 2l-4 10q1 18 7.5 54t8.5 49h43l4 22h-43l8 41h-26z
M1104 180l-27 129h-28l36 -159l-47 -76h29l137 235h-26zM1247 279l6 30h-26l-43 -237h26l19 106q14 -33 55 -33q39 0 65.5 31.5t26.5 71.5q0 28 -17 45.5t-46 17.5q-40 0 -66 -32zM1489 311q-40 0 -67 -29.5t-27 -70.5q0 -31 17.5 -48.5t47.5 -17.5q26 0 49 14.5t35 39.5
h-28q-16 -31 -52 -31q-43 0 -43 43v8h129q4 20 4 31q0 29 -18 45t-47 16zM1724 336q-63 0 -106 -43t-43 -105q0 -46 30 -72t76 -26q28 0 58 10l-4 19q-23 -10 -49 -10q-40 0 -64.5 20.5t-24.5 60.5q0 53 35 90t88 37q40 0 64 -20.5t24 -58.5q0 -25 -9.5 -49.5t-29.5 -24.5
q-14 0 -14 18q0 14 2.5 29.5t8 36.5t6.5 28h-25l-2 -18q-11 23 -39 23q-31 0 -51.5 -26t-20.5 -58q0 -22 13 -36t36 -14q32 0 52 27q3 -27 32 -27q31 0 47.5 29t16.5 62q0 46 -30.5 72t-76.5 26zM1917 145q42 0 65 33q-4 -28 -7.5 -42t-18 -29t-39.5 -15q-17 0 -30.5 8.5
t-14.5 24.5h-27v-2q0 -27 20 -40t48 -13q34 0 59 20.5t31 54.5l29 164h-27l-4 -28q-12 30 -55 30q-39 0 -66 -30.5t-27 -69.5q0 -28 17.5 -47t46.5 -19zM2095 287l4 22h-26l-29 -159h27l16 88q11 51 55 51q35 0 35 -37q0 -14 -16 -102h26q1 6 3 23.5t3.5 30t6 30t11 28.5
t18.5 19t28 8q37 0 37 -37q0 -15 -3.5 -32t-8.5 -38t-7 -32h27q2 11 7 34t8 41t3 35q0 51 -53 51q-45 0 -63 -35q-8 35 -54 35q-34 0 -55 -24zM2437 311q-40 0 -67 -30t-27 -70q0 -28 17 -47t46 -19q43 0 66 33l-4 -28h26l29 159h-29l-4 -28q-6 14 -21.5 22t-31.5 8z
M2562 150l29 159h-27l-29 -159h27zM1892 662h43q47 0 47 43q0 40 -47 40h-43v-83zM2406 569q37 0 59.5 25t22.5 63t-22.5 64.5t-59.5 26.5t-59.5 -26.5t-22.5 -64.5t22.5 -63t59.5 -25zM2589 371l-17 -6l-6 -15l4 -10l10 -4l17 6l6 14l-4 11zM2601 150h27l38 215h-26z
M2699 178l-12 4l-14 -6l-7 -14l5 -10l10 -5l14 7l8 14zM2824 311q-40 0 -67 -29.5t-27 -70.5q0 -30 18 -48t48 -18q28 0 50.5 15t32.5 41h-28q-17 -33 -51 -33q-41 0 -41 45q0 30 16 53t45 23q16 0 28 -8.5t13 -22.5h29q-1 26 -19.5 39.5t-46.5 13.5zM2998 311
q-41 0 -68.5 -29t-27.5 -69q0 -30 19 -49t49 -19q41 0 69.5 29.5t28.5 69.5q0 30 -19.5 48.5t-50.5 18.5zM3133 287l5 22h-27l-29 -159h27l16 88q3 23 17 37t36 14q37 0 37 -37q0 -19 -7.5 -55.5t-8.5 -46.5h25q1 7 3.5 28.5t6 37.5t10 34.5t19.5 28.5t32 10q37 0 37 -37
q0 -15 -3 -32t-8 -38.5t-7 -31.5h26q2 12 7.5 34t8.5 41t3 35q0 24 -15.5 37.5t-40.5 13.5q-42 0 -63 -35q-8 35 -51 35q-38 0 -56 -24zM420 967v280h100v94h-315v-94h98v-280h117zM670 967v133l69 -133h129l-80 143q37 11 58.5 40t21.5 69q0 59 -40 90.5t-101 31.5h-176
v-374h119zM907 1341v-374h117v374h-117zM1192 1022h125l18 -55h125l-137 374h-135l-137 -374h123zM1487 1341v-374h231v88h-114v286h-117zM2028 963q82 0 137 55t55 137t-55 137.5t-137 55.5q-83 0 -139 -55.5t-56 -137.5q0 -81 56.5 -136.5t138.5 -55.5zM2380 1155
l125 -188h116v374h-116v-192l-125 192h-119v-374h119v188zM2675 1341v-374h231v88h-115v286h-116zM3052 967h116v112l135 262h-133l-59 -133l-59 133h-136l136 -262v-112zM201 627l59 69l37 -43l-129 -135l-129 135l37 43l59 -69v172h66v-172zM422 250v-10h-103
q6 21 22.5 35t37.5 14q19 0 31 -10.5t12 -28.5zM383 696l59 -69v172h64v-172l59 69l39 -43l-129 -135l-129 135zM698 250l-2 -10h-100q5 21 21 35t38 14q19 0 31 -10.5t12 -28.5zM815 170q-21 0 -33 12t-12 33q0 29 19 51.5t47 22.5q21 0 33 -13t12 -34q0 -29 -19 -50.5
t-47 -21.5zM1282 170q-20 0 -32.5 12.5t-12.5 32.5q0 29 20 51.5t48 22.5q20 0 32.5 -12.5t12.5 -32.5q0 -29 -20 -51.5t-48 -22.5zM778 770h125v-25h-96v-75h78v-23h-78v-100h-29v223zM930 629v141h28v-141q0 -60 56 -60q55 0 55 60v141h29v-141q0 -38 -23 -61t-61 -23
t-61 23t-23 61zM1251 547h-108v223h31v-201h77v-22zM1382 547h-106v223h29v-201h77v-22zM1528 250l-2 -10h-101q5 21 21 35t39 14q19 0 31 -10.5t12 -28.5zM1706 260q14 0 23.5 -10.5t9.5 -24.5q0 -23 -13.5 -40t-35.5 -17q-31 0 -31 33q0 22 12.5 40.5t34.5 18.5zM3465 440
v-440h-3424v440h3424zM1993 242q0 -28 -19.5 -50t-46.5 -22q-21 0 -33 12t-12 33q0 29 19 51.5t47 22.5q20 0 32.5 -13.5t12.5 -33.5zM2417 170q-21 0 -33 12t-12 33q0 29 18.5 51.5t46.5 22.5q20 0 32.5 -13.5t12.5 -33.5q0 -29 -18.5 -50.5t-46.5 -21.5zM2974 168
q-20 0 -31.5 12.5t-11.5 32.5q0 31 18 53.5t47 22.5q20 0 32.5 -12.5t12.5 -32.5q0 -30 -19.5 -53t-47.5 -23zM1567 547l-84 223h30l70 -192l70 192h30l-84 -223h-32zM1708 770h121v-25h-90v-73h80v-25h-80v-78h90v-22h-121v223zM2013 705q0 -52 -53 -66l55 -92h-35l-53 90
h-35v-90h-28v223h71q33 0 55.5 -16.5t22.5 -48.5zM2118 569q45 0 45 37q0 19 -19 29.5t-41.5 13.5t-41.5 18.5t-19 43.5q0 29 22 45t52 16t51 -14.5t24 -42.5h-32q-1 16 -14.5 24.5t-30.5 8.5q-41 0 -41 -37q0 -19 18.5 -29t41.5 -13.5t41.5 -19t18.5 -43.5q0 -29 -22 -45
t-53 -16t-53.5 15.5t-22.5 45.5h31q3 -37 45 -37zM2230 547v223h29v-223h-29zM2406 772q49 0 81 -32.5t32 -82.5q0 -48 -32 -80t-81 -32q-47 0 -78.5 32.5t-31.5 79.5q0 48 31.5 81.5t78.5 33.5zM2554 547v223h29l116 -178v178h29v-223h-29l-116 176v-176h-29zM2941 696
l59 -69v172h64v-172l59 69l39 -43l-129 -135l-129 135zM3248 696l60 -69v172h63v-172l59 69l37 -43l-129 -135l-129 135zM670 1180v63h45q15 0 25 -9t10 -24q0 -30 -35 -30h-45zM1255 1214l33 -104h-67zM41 874v560h3424v-560h-3424zM2028 1239q35 0 54 -23.5t19 -60.5
t-19 -60.5t-54 -23.5q-37 0 -55.5 23.5t-18.5 60.5t18.5 60.5t55.5 23.5z" />
    <glyph glyph-name="nine" unicode="9" 
d="M190 238l23 127h-27l-39 -215h27l14 69l50 -69h36l-61 79l88 80h-37zM385 311q-41 0 -68.5 -29.5t-27.5 -70.5q0 -31 18 -48.5t49 -17.5q26 0 49 14.5t33 39.5h-28q-16 -31 -50 -31q-20 0 -32.5 11.5t-12.5 31.5v8h129q0 2 3.5 13.5t3.5 17.5q0 28 -18.5 44.5t-47.5 16.5
zM512 279l6 30h-26l-29 -159h26q2 10 4 29.5t3.5 31.5t6.5 27.5t12 24.5t19.5 15.5t30.5 6.5l4 26q-38 0 -57 -32zM659 311q-40 0 -67 -29.5t-27 -70.5q0 -30 18 -48t48 -18q26 0 49 14.5t35 39.5h-29q-16 -31 -51 -31q-43 0 -43 43v8h129q4 20 4 31q0 28 -18.5 44.5
t-47.5 16.5zM836 311q-39 0 -67 -30.5t-28 -69.5q0 -28 17.5 -47t46.5 -19q42 0 65 33l-4 -28h27l29 159h-27l-6 -28q-12 30 -53 30zM973 350l-8 -41h-21l-4 -22h21q-17 -94 -17 -107q0 -30 37 -30h25l4 22q-30 0 -35 2l-4 10q1 18 7.5 54t8.5 49h43l4 22h-43l8 41h-26z
M1104 180l-27 129h-28l36 -159l-47 -76h29l137 235h-26zM1247 279l6 30h-26l-43 -237h26l19 106q14 -33 55 -33q39 0 65.5 31.5t26.5 71.5q0 28 -17 45.5t-46 17.5q-40 0 -66 -32zM1489 311q-40 0 -67 -29.5t-27 -70.5q0 -31 17.5 -48.5t47.5 -17.5q26 0 49 14.5t35 39.5
h-28q-16 -31 -52 -31q-43 0 -43 43v8h129q4 20 4 31q0 29 -18 45t-47 16zM1724 336q-63 0 -106 -43t-43 -105q0 -46 30 -72t76 -26q28 0 58 10l-4 19q-23 -10 -49 -10q-40 0 -64.5 20.5t-24.5 60.5q0 53 35 90t88 37q40 0 64 -20.5t24 -58.5q0 -25 -9.5 -49.5t-29.5 -24.5
q-14 0 -14 18q0 14 2.5 29.5t8 36.5t6.5 28h-25l-2 -18q-11 23 -39 23q-31 0 -51.5 -26t-20.5 -58q0 -22 13 -36t36 -14q32 0 52 27q3 -27 32 -27q31 0 47.5 29t16.5 62q0 46 -30.5 72t-76.5 26zM1917 145q42 0 65 33q-4 -28 -7.5 -42t-18 -29t-39.5 -15q-17 0 -30.5 8.5
t-14.5 24.5h-27v-2q0 -27 20 -40t48 -13q34 0 59 20.5t31 54.5l29 164h-27l-4 -28q-12 30 -55 30q-39 0 -66 -30.5t-27 -69.5q0 -28 17.5 -47t46.5 -19zM2095 287l4 22h-26l-29 -159h27l16 88q11 51 55 51q35 0 35 -37q0 -14 -16 -102h26q1 6 3 23.5t3.5 30t6 30t11 28.5
t18.5 19t28 8q37 0 37 -37q0 -15 -3.5 -32t-8.5 -38t-7 -32h27q2 11 7 34t8 41t3 35q0 51 -53 51q-45 0 -63 -35q-8 35 -54 35q-34 0 -55 -24zM2437 311q-40 0 -67 -30t-27 -70q0 -28 17 -47t46 -19q43 0 66 33l-4 -28h26l29 159h-29l-4 -28q-6 14 -21.5 22t-31.5 8z
M2562 150l29 159h-27l-29 -159h27zM1892 662h43q47 0 47 43q0 40 -47 40h-43v-83zM2406 569q37 0 59.5 25t22.5 63t-22.5 64.5t-59.5 26.5t-59.5 -26.5t-22.5 -64.5t22.5 -63t59.5 -25zM2589 371l-17 -6l-6 -15l4 -10l10 -4l17 6l6 14l-4 11zM2601 150h27l38 215h-26z
M2699 178l-12 4l-14 -6l-7 -14l5 -10l10 -5l14 7l8 14zM2824 311q-40 0 -67 -29.5t-27 -70.5q0 -30 18 -48t48 -18q28 0 50.5 15t32.5 41h-28q-17 -33 -51 -33q-41 0 -41 45q0 30 16 53t45 23q16 0 28 -8.5t13 -22.5h29q-1 26 -19.5 39.5t-46.5 13.5zM2998 311
q-41 0 -68.5 -29t-27.5 -69q0 -30 19 -49t49 -19q41 0 69.5 29.5t28.5 69.5q0 30 -19.5 48.5t-50.5 18.5zM3133 287l5 22h-27l-29 -159h27l16 88q3 23 17 37t36 14q37 0 37 -37q0 -19 -7.5 -55.5t-8.5 -46.5h25q1 7 3.5 28.5t6 37.5t10 34.5t19.5 28.5t32 10q37 0 37 -37
q0 -15 -3 -32t-8 -38.5t-7 -31.5h26q2 12 7.5 34t8.5 41t3 35q0 24 -15.5 37.5t-40.5 13.5q-42 0 -63 -35q-8 35 -51 35q-38 0 -56 -24zM420 967v280h100v94h-315v-94h98v-280h117zM670 967v133l69 -133h129l-80 143q37 11 58.5 40t21.5 69q0 59 -40 90.5t-101 31.5h-176
v-374h119zM907 1341v-374h117v374h-117zM1192 1022h125l18 -55h125l-137 374h-135l-137 -374h123zM1487 1341v-374h231v88h-114v286h-117zM2028 963q82 0 137 55t55 137t-55 137.5t-137 55.5q-83 0 -139 -55.5t-56 -137.5q0 -81 56.5 -136.5t138.5 -55.5zM2380 1155
l125 -188h116v374h-116v-192l-125 192h-119v-374h119v188zM2675 1341v-374h231v88h-115v286h-116zM3052 967h116v112l135 262h-133l-59 -133l-59 133h-136l136 -262v-112zM201 627l59 69l37 -43l-129 -135l-129 135l37 43l59 -69v172h66v-172zM422 250v-10h-103
q6 21 22.5 35t37.5 14q19 0 31 -10.5t12 -28.5zM383 696l59 -69v172h64v-172l59 69l39 -43l-129 -135l-129 135zM698 250l-2 -10h-100q5 21 21 35t38 14q19 0 31 -10.5t12 -28.5zM815 170q-21 0 -33 12t-12 33q0 29 19 51.5t47 22.5q21 0 33 -13t12 -34q0 -29 -19 -50.5
t-47 -21.5zM1282 170q-20 0 -32.5 12.5t-12.5 32.5q0 29 20 51.5t48 22.5q20 0 32.5 -12.5t12.5 -32.5q0 -29 -20 -51.5t-48 -22.5zM778 770h125v-25h-96v-75h78v-23h-78v-100h-29v223zM930 629v141h28v-141q0 -60 56 -60q55 0 55 60v141h29v-141q0 -38 -23 -61t-61 -23
t-61 23t-23 61zM1251 547h-108v223h31v-201h77v-22zM1382 547h-106v223h29v-201h77v-22zM1528 250l-2 -10h-101q5 21 21 35t39 14q19 0 31 -10.5t12 -28.5zM1706 260q14 0 23.5 -10.5t9.5 -24.5q0 -23 -13.5 -40t-35.5 -17q-31 0 -31 33q0 22 12.5 40.5t34.5 18.5zM3465 440
v-440h-3424v440h3424zM1993 242q0 -28 -19.5 -50t-46.5 -22q-21 0 -33 12t-12 33q0 29 19 51.5t47 22.5q20 0 32.5 -13.5t12.5 -33.5zM2417 170q-21 0 -33 12t-12 33q0 29 18.5 51.5t46.5 22.5q20 0 32.5 -13.5t12.5 -33.5q0 -29 -18.5 -50.5t-46.5 -21.5zM2974 168
q-20 0 -31.5 12.5t-11.5 32.5q0 31 18 53.5t47 22.5q20 0 32.5 -12.5t12.5 -32.5q0 -30 -19.5 -53t-47.5 -23zM1567 547l-84 223h30l70 -192l70 192h30l-84 -223h-32zM1708 770h121v-25h-90v-73h80v-25h-80v-78h90v-22h-121v223zM2013 705q0 -52 -53 -66l55 -92h-35l-53 90
h-35v-90h-28v223h71q33 0 55.5 -16.5t22.5 -48.5zM2118 569q45 0 45 37q0 19 -19 29.5t-41.5 13.5t-41.5 18.5t-19 43.5q0 29 22 45t52 16t51 -14.5t24 -42.5h-32q-1 16 -14.5 24.5t-30.5 8.5q-41 0 -41 -37q0 -19 18.5 -29t41.5 -13.5t41.5 -19t18.5 -43.5q0 -29 -22 -45
t-53 -16t-53.5 15.5t-22.5 45.5h31q3 -37 45 -37zM2230 547v223h29v-223h-29zM2406 772q49 0 81 -32.5t32 -82.5q0 -48 -32 -80t-81 -32q-47 0 -78.5 32.5t-31.5 79.5q0 48 31.5 81.5t78.5 33.5zM2554 547v223h29l116 -178v178h29v-223h-29l-116 176v-176h-29zM2941 696
l59 -69v172h64v-172l59 69l39 -43l-129 -135l-129 135zM3248 696l60 -69v172h63v-172l59 69l37 -43l-129 -135l-129 135zM670 1180v63h45q15 0 25 -9t10 -24q0 -30 -35 -30h-45zM1255 1214l33 -104h-67zM41 874v560h3424v-560h-3424zM2028 1239q35 0 54 -23.5t19 -60.5
t-19 -60.5t-54 -23.5q-37 0 -55.5 23.5t-18.5 60.5t18.5 60.5t55.5 23.5z" />
    <glyph glyph-name="A" unicode="A" horiz-adv-x="1232" 
d="M645 1444l508 -1329q40 -101 123 -101v-14h-348v14q104 0 104 62q0 20 -8 39l-150 393h-610l-12 -33q-102 -267 -102 -358q0 -10 10 -58q9 -45 129 -45v-14h-334v14q89 0 172 215l465 1215h53zM276 539h586l-293 770z" />
    <glyph glyph-name="B" unicode="B" horiz-adv-x="1148" 
d="M74 0v14q102 0 102 56v1294q0 55 -102 55v15h366q260 0 400.5 -87.5t140.5 -248.5q0 -126 -85 -207.5t-247 -110.5q222 -22 344.5 -123.5t122.5 -265.5q0 -186 -156 -288.5t-438 -102.5h-448zM299 786h123q198 0 316 84t118 224t-118 223.5t-316 83.5h-68q-55 0 -55 -55
v-560zM299 86q0 -55 55 -55h148q230 0 358.5 96t128.5 268t-128.5 267.5t-358.5 95.5h-203v-672z" />
    <glyph glyph-name="C" unicode="C" horiz-adv-x="1234" 
d="M74 719q0 334 186.5 535.5t495.5 201.5q113 0 217 -30.5t174 -84.5l16 -272h-14q-34 162 -152.5 259t-283.5 97q-110 0 -205.5 -49.5t-163 -135.5t-106.5 -208t-39 -262q0 -206 78.5 -381t213.5 -277t293 -102q277 0 385 381h15l-39 -293q-151 -118 -389 -118
q-309 0 -495.5 203t-186.5 536z" />
    <glyph glyph-name="D" unicode="D" horiz-adv-x="1327" 
d="M74 0v14q102 0 102 56v1294q0 55 -102 55v15h504q301 0 488 -198t187 -519q0 -210 -85 -373t-239.5 -253.5t-353.5 -90.5h-501zM356 31h248q149 0 268.5 83t187.5 230t68 330q0 199 -80 366.5t-218.5 265t-303.5 97.5h-168q-59 0 -59 -55v-1262q0 -55 57 -55z" />
    <glyph glyph-name="E" unicode="E" horiz-adv-x="1050" 
d="M176 70v1294q0 55 -102 55v15h880l23 -250l-14 -4q-46 223 -396 223h-166q-102 0 -102 -55v-557h295q93 0 127 163h14v-356h-14q-35 164 -127 164h-295v-676q0 -55 102 -55h164q332 0 408 272l14 -4l-35 -299h-878v14q102 0 102 56z" />
    <glyph glyph-name="F" unicode="F" horiz-adv-x="1009" 
d="M176 70v1294q0 55 -102 55v15h880l23 -250l-14 -4q-67 223 -355 223h-207q-102 0 -102 -55v-598h315q93 0 127 163h15v-356h-15q-35 164 -127 164h-315v-651q0 -56 133 -56v-14h-358v14q102 0 102 56z" />
    <glyph glyph-name="G" unicode="G" horiz-adv-x="1308" 
d="M74 719q0 334 187.5 535.5t498.5 201.5q117 0 226.5 -34.5t184.5 -94.5l17 -272h-14q-50 167 -175.5 268.5t-283.5 101.5q-223 0 -369.5 -185t-146.5 -470q0 -155 46.5 -296t126 -242.5t189 -161.5t230.5 -60q117 0 201.5 68t84.5 160v260q0 55 -143 55v14h362v-14
q-102 0 -102 -55v-498h-14q-13 49 -26.5 67.5t-35.5 18.5q-14 0 -43.5 -16.5t-64 -36.5t-102.5 -36.5t-150 -16.5q-309 0 -496.5 203t-187.5 536z" />
    <glyph glyph-name="H" unicode="H" horiz-adv-x="1355" 
d="M176 70v1294q0 55 -102 55v15h327v-15q-102 0 -102 -55v-588h758v588q0 55 -103 55v15h328v-15q-102 0 -102 -55v-1294q0 -56 102 -56v-14h-328v14q103 0 103 56v675h-758v-675q0 -56 102 -56v-14h-327v14q102 0 102 56z" />
    <glyph glyph-name="I" unicode="I" horiz-adv-x="475" 
d="M176 70v1294q0 55 -102 55v15h327v-15q-102 0 -102 -55v-1294q0 -56 102 -56v-14h-327v14q102 0 102 56z" />
    <glyph glyph-name="J" unicode="J" horiz-adv-x="747" 
d="M461 281v1083q0 55 -123 55v15h348v-15q-102 0 -102 -55v-1092q0 -138 -80 -214t-223 -76q-120 0 -192.5 51t-72.5 137q0 59 33 99t78 40q23 0 39 -8q-31 -42 -31 -106q0 -82 43.5 -132.5t112.5 -50.5q81 0 125.5 70.5t44.5 198.5z" />
    <glyph glyph-name="K" unicode="K" horiz-adv-x="1150" 
d="M176 70v1294q0 55 -102 55v15h327v-15q-102 0 -102 -55v-719l541 592q63 66 63 113q0 56 -104 71v13h319v-13q-83 -12 -168 -106l-387 -424l516 -801q46 -76 125 -76h4v-14h-215l-512 801l-182 -199v-530q0 -58 123 -58v-14h-348v14q102 0 102 56z" />
    <glyph glyph-name="L" unicode="L" horiz-adv-x="972" 
d="M176 70v1294q0 55 -102 55v15h327v-15q-102 0 -102 -55v-1278q0 -55 55 -55h183q337 0 407 272l14 -4l-34 -299h-850v14q102 0 102 56z" />
    <glyph glyph-name="M" unicode="M" horiz-adv-x="1632" 
d="M1354 70l-33 1261q-49 -87 -123 -280l-399 -1020h-43l-508 1292l-12 25l-25 -838q-2 -55 -2 -148q0 -235 29 -282q42 -63 122 -66v-14h-327v14q68 9 102 66q36 58 45 430l27 874q-35 35 -84 35v15h211l491 -1254l492 1254h227v-15q-102 0 -102 -53v-2l35 -1294
q3 -56 102 -56v-14h-348v14q123 0 123 54v2z" />
    <glyph glyph-name="N" unicode="N" horiz-adv-x="1282" 
d="M1104 0l-920 1341v-1069q0 -253 123 -262v-10h-256v10q103 9 103 262v1104q-43 43 -101 43v15h211l830 -1213v940q0 249 -103 258v15h236v-15q-103 -9 -103 -258v-1161h-20z" />
    <glyph glyph-name="O" unicode="O" horiz-adv-x="1511" 
d="M74 719q0 334 186.5 535.5t495.5 201.5q306 0 494 -203t188 -534q0 -218 -85 -386t-240 -260.5t-357 -92.5q-309 0 -495.5 203t-186.5 536zM199 770q0 -208 78.5 -382.5t214 -276t296.5 -101.5q148 0 268.5 86t188.5 237.5t68 338.5q0 205 -79.5 378t-217.5 274t-301 101
q-148 0 -265.5 -83.5t-184 -233t-66.5 -338.5z" />
    <glyph glyph-name="P" unicode="P" horiz-adv-x="1034" 
d="M1022 1026q0 -192 -153 -300t-423 -108h-147v-546q0 -58 123 -58v-14h-348v14q102 0 102 56v1294q0 55 -102 55v15h372q270 0 423 -108t153 -300zM299 649h141q218 0 337.5 97.5t119.5 279.5t-119.5 279.5t-337.5 97.5h-88q-53 0 -53 -53v-701z" />
    <glyph glyph-name="Q" unicode="Q" horiz-adv-x="1511" 
d="M199 770q0 -208 78.5 -382.5t215 -276t298.5 -101.5q147 0 267 86t187.5 237.5t67.5 338.5q0 205 -79.5 378t-217.5 274t-301 101q-148 0 -265.5 -83.5t-184 -233t-66.5 -338.5zM506 -168l201 150q-288 17 -460.5 217.5t-172.5 519.5q0 334 186.5 535.5t495.5 201.5
q306 0 494 -203t188 -534q0 -157 -46.5 -292t-133 -234.5t-217 -156t-289.5 -56.5l-164 -121q55 -8 228 -45t249 -37q87 0 137 34.5t72 108.5q32 -29 45.5 -55t13.5 -60q0 -70 -51 -110.5t-139 -40.5q-65 0 -149.5 25.5t-156 56.5t-164 60.5t-167.5 35.5z" />
    <glyph glyph-name="R" unicode="R" horiz-adv-x="1169" 
d="M1014 1067q0 -142 -101 -234t-286 -120q109 -14 162.5 -49t84.5 -113l183 -465q28 -72 119 -72h6v-14h-146q-80 0 -118 96l-179 455q-31 78 -102.5 113.5t-196.5 35.5h-129v-628q0 -58 123 -58v-14h-348v14q102 0 102 56v1294q0 55 -102 55v15h375q259 0 406 -97.5
t147 -269.5zM311 731h133q209 0 327 89t118 247t-118 247t-327 89h-79q-54 0 -54 -53v-619z" />
    <glyph glyph-name="S" unicode="S" horiz-adv-x="1120" 
d="M188 1174q0 -73 66.5 -141t208.5 -140l246 -127q358 -183 358 -408q0 -101 -65.5 -188t-178 -138.5t-243.5 -51.5q-220 0 -498 157l-19 340h15q64 -230 191 -348.5t309 -118.5q159 0 262.5 83.5t103.5 209.5q0 103 -77 192.5t-238 172.5l-256 133q-305 156 -305 344
q0 135 130 223t330 88q125 0 239 -36t187 -99l17 -272h-15q-19 164 -137 270t-282 106q-141 0 -245 -75t-104 -176z" />
    <glyph glyph-name="T" unicode="T" horiz-adv-x="1142" 
d="M512 70v1278q0 55 -104 55h-78q-246 0 -305 -283l-15 4l35 310h1055l35 -310l-15 -4q-53 283 -305 283h-76q-104 0 -104 -55v-1278q0 -56 123 -56v-14h-369v14q123 0 123 56z" />
    <glyph glyph-name="U" unicode="U" horiz-adv-x="1267" 
d="M166 496v872q0 51 -103 51v15h328v-15q-102 0 -102 -51v-872q0 -206 111 -331.5t292 -125.5q180 0 291 124.5t111 328.5v837q0 78 -103 90v15h236v-15q-103 -12 -103 -90v-840q0 -230 -131.5 -369.5t-345.5 -139.5q-217 0 -349 141.5t-132 374.5z" />
    <glyph glyph-name="V" unicode="V" horiz-adv-x="1230" 
d="M588 -10l-508 1329q-40 100 -123 100v15h348v-15q-104 0 -104 -61q0 -20 8 -39l455 -1190l225 592q168 436 168 600q0 19 -4 39q-9 59 -113 59v15h334v-15q-85 0 -125 -100l-508 -1329h-53z" />
    <glyph glyph-name="W" unicode="W" horiz-adv-x="1773" 
d="M1174 -10l-285 811l-285 -811h-53l-467 1329q-37 100 -123 100h-4v15h348v-15q-100 0 -100 -61q0 -20 8 -39l414 -1184l247 709l-167 475q-34 100 -123 100h-4v15h348v-15q-101 0 -101 -61q0 -18 9 -39l411 -1182l203 576q156 439 156 596q0 27 -7 51q-15 56 -108 59v15
h326v-15q-89 0 -123 -100l-467 -1329h-53z" />
    <glyph glyph-name="X" unicode="X" horiz-adv-x="1300" 
d="M860 0v14q156 0 156 58q0 16 -17 43l-387 571q-362 -494 -362 -592v-8q15 -69 162 -72v-14h-404v14h2q64 0 137 101l447 598l-412 606q-66 100 -155 100v15h432v-15q-150 0 -150 -55q0 -18 17 -45l366 -543q355 459 355 563v9q-12 71 -162 71v15h401v-15q-64 0 -139 -100
l-436 -567l432 -637q67 -101 149 -101v-14h-432z" />
    <glyph glyph-name="Y" unicode="Y" horiz-adv-x="1146" 
d="M512 70v518l-432 731q-54 91 -123 100v15h348v-15q-100 -6 -100 -55q0 -16 16 -45l406 -690l59 100q289 485 289 612q0 13 -2 19q-15 59 -109 59v15h326v-15q-69 -9 -123 -100l-432 -731v-518q0 -56 123 -56v-14h-369v14q123 0 123 56z" />
    <glyph glyph-name="Z" unicode="Z" horiz-adv-x="1153" 
d="M23 0v10l938 1393h-345q-411 0 -534 -258l-14 4l73 285h975v-11l-938 -1392h395q418 0 553 323l15 -4l-92 -350h-1026z" />
    <glyph glyph-name="a" unicode="a" horiz-adv-x="1013" 
d="M858 762v-660q0 -55 29 -55q32 0 35 55h14q0 -108 -96 -108q-50 0 -77.5 28t-27.5 80v177q-57 -148 -152.5 -223.5t-224.5 -75.5q-128 0 -206 68.5t-78 180.5q0 147 164 234q62 33 198.5 74.5t204.5 89.5q94 66 94 153q0 103 -63.5 169.5t-163.5 66.5
q-103 0 -174.5 -67.5t-71.5 -162.5q0 -77 60 -114q-30 -15 -64 -15q-54 0 -90.5 37.5t-36.5 96.5q0 104 117 178.5t282 74.5q156 0 242 -73.5t86 -208.5zM735 444v246q-10 -32 -76 -86q-44 -35 -109.5 -62t-133 -54t-113.5 -62q-100 -77 -100 -190q0 -91 56 -147t147 -56
q136 0 232.5 120.5t96.5 290.5z" />
    <glyph glyph-name="b" unicode="b" horiz-adv-x="1157" 
d="M156 0v1366q0 135 -103 135v15q165 0 226 40v-682q117 170 333 170q212 0 341.5 -146.5t129.5 -385.5q0 -236 -132.5 -384t-344.5 -148q-150 0 -311 108q-36 25 -59 25q-30 0 -47 -30t-17 -83h-16zM279 762v-461q34 -132 130 -211.5t222 -79.5q155 0 239 119t84 338
q0 246 -102 396.5t-268 150.5q-109 0 -188 -65.5t-117 -186.5z" />
    <glyph glyph-name="c" unicode="c" horiz-adv-x="968" 
d="M74 512q0 232 140 382t355 150q141 0 232.5 -65t91.5 -166q0 -57 -29 -88t-76 -31q-32 0 -75 19q53 38 53 112q0 83 -64 136t-167 53q-154 0 -246 -122.5t-92 -326.5q0 -240 115.5 -386t305.5 -146q97 0 170.5 38.5t133.5 121.5h28q-69 -110 -160.5 -161.5t-218.5 -51.5
q-221 0 -359 148t-138 384z" />
    <glyph glyph-name="d" unicode="d" horiz-adv-x="1177" 
d="M881 0v150q-117 -170 -336 -170q-212 0 -341.5 146t-129.5 384t132.5 386t344.5 148q199 0 330 -131v453q0 135 -103 135v15q159 0 226 40v-1486q0 -56 102 -56v-14h-225zM881 262v461q-35 132 -132 211.5t-223 79.5q-154 0 -238.5 -119.5t-84.5 -337.5
q0 -246 102.5 -396.5t269.5 -150.5q107 0 186.5 65.5t119.5 186.5z" />
    <glyph glyph-name="e" unicode="e" horiz-adv-x="1005" 
d="M197 584h637q-23 206 -111 318t-227 112t-218 -113.5t-81 -316.5zM74 512q0 233 126.5 382.5t323.5 149.5q186 0 305 -134t129 -357h-761q5 -238 120 -380t306 -142q179 0 305 162h28q-71 -111 -162.5 -162t-220.5 -51q-221 0 -360 148t-139 384z" />
    <glyph glyph-name="f" unicode="f" horiz-adv-x="532" 
d="M299 70q0 -56 102 -56v-14h-327v14q102 0 102 56v923h-102v31h102v260q0 126 69.5 199t190.5 73q101 0 164.5 -48.5t63.5 -123.5q0 -52 -28.5 -83t-72.5 -31q-15 0 -43 8q27 44 27 100q0 66 -30 107t-81 41q-64 0 -100.5 -67.5t-36.5 -184.5v-250h205v-31h-205v-923z" />
    <glyph glyph-name="g" unicode="g" horiz-adv-x="1058" 
d="M184 709q0 -167 87 -269t229 -102q125 0 194.5 80.5t69.5 226.5q0 167 -87.5 268t-230.5 101q-126 0 -194 -79.5t-68 -225.5zM61 676q0 164 114.5 266t299.5 102q114 0 193 -36q61 81 125 125.5t122 44.5q75 0 101 -64.5t-23 -130.5q-10 44 -44.5 69t-82.5 25
q-92 0 -174 -82q91 -45 143 -128.5t52 -190.5q0 -163 -114.5 -266t-297.5 -103q-115 0 -205 41q-34 -48 -34 -92q0 -39 29 -62.5t93 -33.5q59 -10 209 -11.5t219 -13.5q220 -38 220 -213q0 -152 -149 -252t-376 -100q-199 0 -323.5 78.5t-124.5 204.5q0 70 38.5 112.5
t100.5 42.5q25 0 49 -6q-51 -22 -51 -113q0 -127 98 -205.5t258 -78.5q109 0 207.5 36t157.5 97t59 129q0 107 -159 145q-78 18 -242.5 20t-206.5 7q-186 21 -186 127q0 83 90 194q-87 46 -136 128.5t-49 187.5z" />
    <glyph glyph-name="h" unicode="h" horiz-adv-x="1157" 
d="M176 70v1292q0 139 -102 139v15q144 0 225 40v-837q54 147 170 236t250 89q130 0 203 -88t73 -245v-643q0 -56 103 -56v-14h-328v14q102 0 102 56v620q0 146 -55 227.5t-153 81.5q-87 0 -172.5 -62.5t-139 -162.5t-53.5 -203v-499q0 -56 102 -56v-14h-327v14
q102 0 102 56z" />
    <glyph glyph-name="i" unicode="i" horiz-adv-x="466" 
d="M123 1307q0 37 26.5 62.5t63.5 25.5t63.5 -25.5t26.5 -62.5q0 -35 -26.5 -60.5t-63.5 -25.5t-63.5 25.5t-26.5 60.5zM172 70v780q0 139 -102 139v15q158 0 225 40v-974q0 -56 102 -56v-14h-327v14q102 0 102 56z" />
    <glyph glyph-name="j" unicode="j" horiz-adv-x="456" 
d="M127 1307q0 37 25.5 62.5t62.5 25.5t63.5 -25.5t26.5 -62.5q0 -35 -26.5 -60.5t-63.5 -25.5t-62.5 25.5t-25.5 60.5zM297 -86q0 -162 -73.5 -248t-211.5 -86q-107 0 -173 47.5t-66 124.5q0 52 30.5 84.5t75.5 32.5q21 0 39 -6q-29 -40 -29 -99q0 -62 36.5 -107t88.5 -48
h4q69 0 112.5 75.5t43.5 194.5v971q0 139 -102 139v15q158 0 225 40v-1130z" />
    <glyph glyph-name="k" unicode="k" horiz-adv-x="997" 
d="M299 1556v-1069l383 351q88 82 88 127v4q-3 38 -65 41v14h282v-14q-80 -3 -266 -174l-189 -172l367 -578q44 -69 127 -72v-14h-213l-369 584l-145 -133v-381q0 -56 102 -56v-14h-327v14q102 0 102 56v1292q0 139 -102 139v15q164 0 225 40z" />
    <glyph glyph-name="l" unicode="l" horiz-adv-x="475" 
d="M176 70v1296q0 135 -102 135v15q158 0 225 40v-1486q0 -56 102 -56v-14h-327v14q102 0 102 56z" />
    <glyph glyph-name="m" unicode="m" horiz-adv-x="1767" 
d="M172 70v782q0 139 -102 139v13q144 0 225 40v-360q51 172 152.5 269.5t230.5 97.5q126 0 199 -90.5t73 -245.5v-31q51 172 152.5 269.5t230.5 97.5q126 0 199.5 -90.5t73.5 -245.5v-645q0 -56 102 -56v-14h-328v14q103 0 103 56v622q0 142 -54 227t-145 85
q-84 0 -162 -69.5t-125 -183.5t-47 -237v-444q0 -56 103 -56v-14h-328v14q102 0 102 56v622q0 143 -53.5 227.5t-144.5 84.5q-84 0 -162 -69.5t-125 -183.5t-47 -237v-444q0 -56 102 -56v-14h-327v14q102 0 102 56z" />
    <glyph glyph-name="n" unicode="n" horiz-adv-x="1153" 
d="M172 70v780q0 139 -102 139v15q144 0 225 40v-360q46 167 156 267t251 100q134 0 211.5 -90.5t77.5 -245.5v-645q0 -56 103 -56v-14h-328v14q102 0 102 56v622q0 145 -59 228.5t-162 83.5q-92 0 -173.5 -67.5t-130 -180.5t-48.5 -242v-444q0 -56 102 -56v-14h-327v14
q102 0 102 56z" />
    <glyph glyph-name="o" unicode="o" horiz-adv-x="1140" 
d="M72 512q0 236 138 384t359 148q220 0 358 -148t138 -384t-138 -384t-358 -148q-221 0 -359 148t-138 384zM201 559q0 -247 110.5 -398t290.5 -151q158 0 246 120t88 337q0 248 -110 397.5t-291 149.5q-158 0 -246 -119.5t-88 -335.5z" />
    <glyph glyph-name="p" unicode="p" horiz-adv-x="1157" 
d="M156 -340v1190q0 139 -103 139v15q159 0 226 40v-131q131 131 329 131q211 0 343 -148t132 -386t-129.5 -384t-341.5 -146q-216 0 -333 170v-490q0 -55 102 -55v-15h-328v15q103 0 103 55zM279 723v-461q38 -121 117 -186.5t186 -65.5q167 0 269.5 150.5t102.5 396.5
q0 218 -83.5 337.5t-237.5 119.5q-127 0 -223.5 -79.5t-130.5 -211.5z" />
    <glyph glyph-name="q" unicode="q" horiz-adv-x="1157" 
d="M1001 -340q0 -55 103 -55v-15h-328v15q103 0 103 55v490q-115 -170 -334 -170q-212 0 -341.5 146.5t-129.5 385.5q0 236 132.5 384t344.5 148q150 0 311 -108q36 -25 62 -25q23 0 39 19.5t20 54.5l4 39h14v-1364zM879 262v461q-34 132 -130.5 211.5t-222.5 79.5
q-154 0 -238.5 -119.5t-84.5 -337.5q0 -246 102.5 -396.5t269.5 -150.5q108 0 187 65.5t117 186.5z" />
    <glyph glyph-name="r" unicode="r" horiz-adv-x="886" 
d="M707 1044q72 0 116.5 -34.5t44.5 -91.5q0 -70 -61 -101q-9 55 -52 90t-102 35q-103 0 -201 -108t-157 -285v-479q0 -56 123 -56v-14h-348v14q102 0 102 56v780q0 139 -102 139v15q164 0 225 40v-407q73 193 181.5 300t230.5 107z" />
    <glyph glyph-name="s" unicode="s" horiz-adv-x="940" 
d="M205 848q0 -54 51.5 -99.5t181.5 -105.5l101 -45q182 -85 262 -165.5t80 -178.5q0 -123 -106.5 -198.5t-278.5 -75.5q-113 0 -226.5 32t-189.5 86l-10 228l16 2q40 -138 156.5 -228t257.5 -90q110 0 179 56t69 147q0 82 -66.5 148t-218.5 135l-103 47
q-155 72 -219.5 132.5t-64.5 133.5q0 103 100.5 167t263.5 64q228 0 383 -125l13 -188l-15 -2q-37 127 -143 206t-240 79q-101 0 -167 -46t-66 -116z" />
    <glyph glyph-name="t" unicode="t" horiz-adv-x="565" 
d="M295 197q0 -179 102 -179q37 0 62.5 22t36.5 62h20q-29 -120 -164 -120q-180 0 -180 208v803h-82v31q176 0 191 215h14v-215h194v-31h-194v-796z" />
    <glyph glyph-name="u" unicode="u" horiz-adv-x="1132" 
d="M494 27q88 0 168 67.5t128 181t48 240.5v334q0 139 -103 139v15q165 0 226 40v-942q0 -55 28 -55q30 0 33 55h14q0 -108 -94 -108q-49 0 -76.5 28.5t-27.5 79.5v244q-47 -169 -154 -267.5t-242 -98.5q-130 0 -205 90t-75 245v535q0 139 -103 139v15q165 0 226 40v-706
q0 -145 56 -228t153 -83z" />
    <glyph glyph-name="v" unicode="v" horiz-adv-x="983" 
d="M475 -10l-416 952q-30 68 -88 68v14h328v-14q-117 0 -117 -45q0 -11 6 -23l353 -805l247 570q57 132 43.5 217.5t-88.5 85.5v14h269v-14q-31 0 -55.5 -24.5t-47.5 -78.5l-401 -917h-33z" />
    <glyph glyph-name="w" unicode="w" horiz-adv-x="1540" 
d="M1055 -10l-285 678l-281 -678h-32l-396 952q-27 68 -86 68h-4v14h330v-14h-8q-107 0 -107 -45q0 -7 4 -23l330 -799l156 371q58 143 78 201l-95 227q-27 68 -86 68h-4v14h330v-14h-8q-107 0 -107 -45q0 -7 4 -23l330 -799l244 592q49 120 32 197.5t-94 77.5v14h269v-14
q-59 0 -86 -68l-396 -952h-32z" />
    <glyph glyph-name="x" unicode="x" horiz-adv-x="970" 
d="M631 0v14q112 0 112 39q0 14 -12 29l-282 395q-263 -357 -263 -416q3 -47 97 -47v-14h-291v14q64 0 117 68l321 422l-311 438q-50 68 -109 68v14h348v-14q-110 0 -110 -39q0 -14 12 -29l260 -367q262 330 262 388q-3 47 -118 47v14h292v-14q-40 -3 -96 -68l-321 -391
l333 -469q50 -68 107 -68v-14h-348z" />
    <glyph glyph-name="y" unicode="y" horiz-adv-x="987" 
d="M479 -10l-416 952q-30 68 -90 68v14h336v-14q-123 0 -123 -47q0 -7 7 -21l352 -805l166 377q155 361 131 449q-12 47 -107 47v14h281v-14q-58 0 -88 -68l-416 -952q-184 -420 -403 -420q-80 0 -110.5 49.5t5.5 124.5q47 -47 137 -47q191 0 320 256z" />
    <glyph glyph-name="z" unicode="z" horiz-adv-x="884" 
d="M12 0v14l686 979h-272q-295 0 -371 -174l-10 4l53 201h758v-14l-688 -979h293q276 0 393 217l10 -4l-73 -244h-779z" />
    </font>
</defs>
</svg>
